<svg xmlns="http://www.w3.org/2000/svg" xmlns:xlink="http://www.w3.org/1999/xlink" viewBox="0 0 350 129"><defs><style>.cls-1{fill:none}.cls-3{fill:#00b1bd}.cls-10{fill:#8cccd4}</style><clipPath id="clip-path"><path class="cls-1" d="M259.48 52.6l-4.87 9.23c-1.94 3.28-7.77 3.63-10.18 3.63-1.95 0-8.37-.25-10.13-3.5l-5.19-8.37-16.29-26.17a30 30 0 0 0-.87 6.77V58.1q.28 7 3.5 10.7a14.67 14.67 0 0 0 7 4.52 37.53 37.53 0 0 0 9.48 1h24.89q11.37 0 15.56-4.18t4.22-12.04V34.19a18.43 18.43 0 0 0-2.31-9.65zM232 18h-2l9 12.81H246.89L254.14 18zm34-16.54L243.53 41l-16.46-23.4H209.2L236.12 61c1.55 3.09 14.51 3.46 16.65-.15L284.1 1.41z"/></clipPath><linearGradient id="Gradiente_sem_nome_2" x1="-2.88" y1="164.17" x2="-1.56" y2="164.17" gradientTransform="matrix(56.76 0 0 -56.76 372.66 9355.87)" gradientUnits="userSpaceOnUse"><stop offset="0" stop-color="#00b1bd"/><stop offset=".51" stop-color="#8ccbd3"/><stop offset="1" stop-color="#00b1bd"/></linearGradient><clipPath id="clip-path-2"><path class="cls-1" d="M209.2 1.41h66.19v72.93H209.2z"/></clipPath><clipPath id="clip-path-3"><path class="cls-1" d="M254.61 61.83l4.87-9.23 14.81-28.06a13.84 13.84 0 0 1 1.1 2.29L261.8 52.6l-4.87 9.23c-1.94 3.28-7.76 3.63-10.18 3.63h-1.14c2.77-.12 7.33-.77 9-3.6zm-36.85 7q-3.21-3.7-3.5-10.7V34.19c.05-1.44.16-2.74.32-3.93l-1.76-2.84a30 30 0 0 0-.87 6.77V58.1q.28 7 3.5 10.7a14.67 14.67 0 0 0 7 4.52 37.53 37.53 0 0 0 9.48 1h2.31a37.5 37.5 0 0 1-9.47-1 14.74 14.74 0 0 1-7.05-4.52m26.8-26.1l23.7-41.29h-2.32l-22.62 39.47zM238.43 61l-26.91-43.41h15.56-17.87L236.12 61c.87 1.73 5.34 2.61 9.46 2.41-3.35-.16-6.44-1-7.15-2.41"/></clipPath><linearGradient id="Gradiente_sem_nome_2-2" x1="-2.86" y1="164.19" x2="-1.54" y2="164.19" gradientTransform="matrix(50.16 0 0 -50.16 352.86 8273.52)" xlink:href="#Gradiente_sem_nome_2"/></defs><g style="isolation:isolate"><g id="Camada_1" data-name="Camada 1"><path class="cls-3" d="M.17 31.29c0-10.44 10.2-15.23 23.48-15.79 17.56-.71 28 .48 36.77 2.64v12c-7.59-.56-20.64-.79-28.46-.79-6.41 0-8.78.16-8.78 3.5v.88c0 2.47.71 3.83 7.12 3.83h11.14c18 0 22.18 10.52 22.18 16.9v2.63C63.62 72 51.29 75 39.55 75c-22.18 0-24.79 0-36.65-2.73v-12c4.74.32 19.69.88 30.72.88 5.1 0 7-.88 7-3.27v-1.32c0-2.31-1.06-3.51-6.28-3.51H23.65C1.12 53.05.17 39.9.17 36.15zM84.69 74.34H67.77V17.95h16.92l30.53 31.5v-31.5h17.11v56.39h-17.11L84.69 42.26v32.08zM200.28 70.16q-4.18 4.19-15.55 4.18h-24.89a37.53 37.53 0 0 1-9.48-1 15.43 15.43 0 0 1-6.17-3 11 11 0 0 1-3.36-5 22.62 22.62 0 0 1-1-7.15v-24a22.67 22.67 0 0 1 1-7.15 11.1 11.1 0 0 1 3.36-5.04 15.43 15.43 0 0 1 6.17-3 37.53 37.53 0 0 1 9.48-1h24.89q11.37 0 15.55 4.18t4.18 12.06v5.54h-17c0-3-.65-5.31-1.95-6.81s-4.11-2.13-8.65-2.13h-9.53c-4.08 0-6.84.76-8.26 2.28s-2.14 3.74-2.14 6.66v12.78q0 4.38 2.14 6.66c1.42 1.53 4.18 2.29 8.26 2.29h9.53c4.54 0 7.42-.72 8.65-2.14s1.95-3.76 1.95-6.81h17v5.54q0 7.87-4.18 12.06M301.09 52.37v22h-17V34.19a22.67 22.67 0 0 1 1-7.15 11.16 11.16 0 0 1 3.36-5.04 15.54 15.54 0 0 1 6.18-3 37.53 37.53 0 0 1 9.48-1h24.59a39.1 39.1 0 0 1 9.43 1 15.08 15.08 0 0 1 6.13 3 11.2 11.2 0 0 1 3.35 5 21.83 21.83 0 0 1 1 7v40.34h-16.89v-22h-30.63zm30.63-12.84a12.67 12.67 0 0 0-.49-3.64 6.29 6.29 0 0 0-1.7-2.77 7.62 7.62 0 0 0-3.21-1.75 18.54 18.54 0 0 0-5.1-.58h-9.63a18.54 18.54 0 0 0-5.1.58 7.62 7.62 0 0 0-3.21 1.75 6.29 6.29 0 0 0-1.7 2.77 12.33 12.33 0 0 0-.49 3.64h30.63z"/><g clip-path="url(#clip-path)"><path fill="url(#Gradiente_sem_nome_2)" d="M209.2 1.41h74.9v72.93h-74.9z"/></g><g clip-path="url(#clip-path-2)"><g clip-path="url(#clip-path-3)"><path fill="url(#Gradiente_sem_nome_2-2)" d="M209.2 1.41h66.19v72.93H209.2z"/></g></g><path class="cls-10" d="M6.15 102.92a4.77 4.77 0 0 1-2.72-.65l.41-1.09a3.8 3.8 0 0 0 2 .55 2.06 2.06 0 0 0 2.19-2.2c0-1-.57-1.66-2-2.24-1.95-.79-2.48-2-2.48-3.13a3.19 3.19 0 0 1 3.3-3.29 4.28 4.28 0 0 1 2.4.63l-.38 1A3.53 3.53 0 0 0 7 92a1.84 1.84 0 0 0-1.94 2c0 1.21.88 1.72 2 2.15 2.31.9 2.65 2.26 2.65 3.3a3.37 3.37 0 0 1-3.54 3.47M16.17 102.75v-11.7h5.43v1.05h-3.86v4.08h3.47v1.04h-3.47v4.47h3.86v1.06h-5.43zM33.41 102.75l-3.85-5.46v5.46H28V91.5a6.25 6.25 0 0 1 2.91-.63c2.65 0 4 1.3 4 3.48 0 2-1.41 3.18-3.55 3.21l3.83 5.16zm-2.55-11a2.77 2.77 0 0 0-1.33.26V97a4.45 4.45 0 0 0 1 .1c1.91 0 2.83-1 2.83-2.64s-.79-2.62-2.5-2.62M45.35 102.75H44L40.52 91h1.67l2.16 8.24c.18.73.34 1.53.34 1.53s.17-.8.36-1.53L47.27 91h1.48zM54.73 91.04h1.56v11.7h-1.56zM67.23 102.92c-2.81 0-4.39-2.71-4.39-6s1.57-6 4.39-6a3.77 3.77 0 0 1 2.28.65l-.38.92A3 3 0 0 0 67.5 92c-2.24 0-3 2.43-3 4.92s.86 4.84 3 4.84a2.84 2.84 0 0 0 1.63-.46l.41 1a3.9 3.9 0 0 1-2.3.65m-2.94 3.16l.36-.58c1.46.12 2.87 0 2.87-.63s-.68-.64-2.16-.54l.34-.53c2.24-.2 2.94.32 2.94 1.06 0 1-1.63 1.44-4.35 1.22M79 102.92c-3 0-4.23-2.67-4.23-6s1.19-6 4.23-6 4.22 2.71 4.22 6-1.19 6-4.22 6m0-11c-2.14 0-2.65 2.57-2.65 4.93s.44 4.92 2.65 4.92 2.64-2.55 2.64-4.92-.51-4.93-2.64-4.93M105.68 102.75l-5-8.54c-.43-.73-.75-1.41-.75-1.41v9.95h-1.28V91h1.65l4.78 8.22a13.08 13.08 0 0 1 .67 1.24V91H107v11.71zM120.62 102.75l-1.11-3.51h-4l-1.14 3.51h-1.43l4-11.71h1.4l3.94 11.71zm-2.72-8.88a8 8 0 0 1-.34-1.41 10 10 0 0 1-.36 1.41l-1.39 4.44h3.49zM131.93 102.92c-2.81 0-4.39-2.71-4.39-6s1.56-6 4.39-6a3.77 3.77 0 0 1 2.28.65l-.38.92a3 3 0 0 0-1.63-.49c-2.24 0-3 2.43-3 4.92s.87 4.84 3 4.84a2.87 2.87 0 0 0 1.64-.46l.4 1a3.87 3.87 0 0 1-2.29.65M140.37 91.04h1.56v11.7h-1.56zM152.72 102.92c-3.05 0-4.24-2.67-4.24-6s1.19-6 4.24-6 4.22 2.71 4.22 6-1.19 6-4.22 6m0-11c-2.15 0-2.65 2.57-2.65 4.93s.44 4.92 2.65 4.92 2.64-2.55 2.64-4.92-.52-4.93-2.64-4.93M170.45 102.75l-5-8.54c-.42-.73-.75-1.41-.75-1.41v9.95h-1.31V91h1.65l4.78 8.22a11.51 11.51 0 0 1 .66 1.24s-.05-.56-.05-1.29V91h1.31v11.71zM185.39 102.75l-1.11-3.51h-4l-1.14 3.51h-1.44l4-11.71h1.39l3.91 11.71zm-2.73-8.88a8 8 0 0 1-.34-1.41 10 10 0 0 1-.36 1.41l-1.39 4.44H184zM192.94 102.75v-11.7h1.57v10.64h3.52v1.06h-5.09zM216.18 102.92a6.8 6.8 0 0 1-3.1-.63V91.52a6.62 6.62 0 0 1 3-.65c3.23 0 4.87 2.28 4.87 5.91s-1.48 6.14-4.8 6.14m-.1-11a3.6 3.6 0 0 0-1.45.24v9.47a4.14 4.14 0 0 0 1.47.22c2.36 0 3.26-1.75 3.26-5s-1.05-4.88-3.28-4.88M227.46 102.75v-11.7h5.43v1.05h-3.86v4.08h3.47v1.04h-3.47v4.47h3.86v1.06h-5.43zM252.18 102.92c-2.81 0-4.39-2.71-4.39-6s1.57-6 4.39-6a3.77 3.77 0 0 1 2.28.65l-.37.92a3.11 3.11 0 0 0-1.64-.46c-2.24 0-3 2.43-3 4.92s.86 4.84 3 4.84a2.84 2.84 0 0 0 1.63-.46l.41 1a3.9 3.9 0 0 1-2.3.65M264 102.92c-3 0-4.23-2.67-4.23-6s1.19-6 4.23-6 4.22 2.71 4.22 6-1.19 6-4.22 6m0-11c-2.14 0-2.65 2.57-2.65 4.93s.44 4.92 2.65 4.92 2.64-2.55 2.64-4.92-.51-4.93-2.64-4.93M281.68 102.75l-5-8.54c-.43-.73-.75-1.41-.75-1.41s.06.71.06 1.44v8.51h-1.31V91h1.65l4.78 8.22c.42.71.66 1.24.66 1.24V91H283v11.71zM293.01 92.1v10.65h-1.56V92.1h-2.33v-1.06h6.22v1.06h-2.33zM306.88 102.75L303 97.29v5.46h-1.55V91.5a6.25 6.25 0 0 1 2.91-.63c2.65 0 4 1.3 4 3.48 0 2-1.41 3.18-3.55 3.21l3.83 5.16zm-2.55-11a2.8 2.8 0 0 0-1.33.26V97a4.52 4.52 0 0 0 1 .1c1.91 0 2.83-1 2.83-2.64s-.78-2.62-2.5-2.62M318.65 102.92c-3 0-4.24-2.67-4.24-6s1.2-6 4.24-6 4.22 2.71 4.22 6-1.19 6-4.22 6m0-11c-2.14 0-2.65 2.57-2.65 4.93s.44 4.92 2.65 4.92 2.64-2.55 2.64-4.92-.51-4.93-2.64-4.93M329.4 102.75v-11.7h1.57v10.64h3.52v1.06h-5.09zM344 102.92c-3.05 0-4.24-2.67-4.24-6s1.19-6 4.24-6 4.22 2.71 4.22 6-1.19 6-4.22 6m0-11c-2.14 0-2.65 2.57-2.65 4.93s.44 4.92 2.65 4.92 2.63-2.55 2.63-4.92-.5-4.93-2.63-4.93M17.27 123.93a6.61 6.61 0 0 1-3.1-.63v-10.76a6.43 6.43 0 0 1 3-.65c3.23 0 4.86 2.28 4.86 5.9s-1.48 6.14-4.79 6.14m-.1-11a3.57 3.57 0 0 0-1.45.24v9.48a4.36 4.36 0 0 0 1.46.22c2.37 0 3.27-1.75 3.27-5s-1.06-4.89-3.28-4.89M35.06 123.76l-1.06-3.5h-4l-1.14 3.5h-1.49l4-11.7h1.4l3.94 11.7zm-2.72-8.88a7.76 7.76 0 0 1-.34-1.41 10.19 10.19 0 0 1-.35 1.41l-1.4 4.44h3.45zM57.35 123.4l2 2.56-1.17 1-1.77-3.24a4.11 4.11 0 0 1-1.07.13c-3 0-4.24-2.67-4.24-6s1.19-6 4.24-6 4.22 2.69 4.22 6c0 2.37-.62 4.42-2.23 5.5m-2-10.47c-2.2 0-2.66 2.53-2.66 4.9s.41 4.91 2.66 4.91 2.67-2.52 2.67-4.86-.46-4.9-2.65-4.9M69.7 124a3.42 3.42 0 0 1-3.64-3.52v-8.37h1.57v8.35a2.16 2.16 0 1 0 4.3 0v-8.35h1.43v8.37A3.43 3.43 0 0 1 69.7 124M86.76 123.76l-1.1-3.5h-4l-1.14 3.5h-1.44l4-11.7h1.39l3.95 11.7zM84 114.88a7.76 7.76 0 0 1-.34-1.41 9.6 9.6 0 0 1-.36 1.41l-1.39 4.44h3.49zM94.32 123.76v-11.7h1.57v10.65h3.52v1.05h-5.09zM105.57 112.06h1.57v11.7h-1.57zM117.17 123.93a6.64 6.64 0 0 1-3.1-.63v-10.76a6.43 6.43 0 0 1 3-.65c3.23 0 4.87 2.28 4.87 5.9s-1.49 6.14-4.8 6.14m-.1-11a3.57 3.57 0 0 0-1.45.24v9.48a4.36 4.36 0 0 0 1.46.22c2.37 0 3.27-1.75 3.27-5s-1.06-4.89-3.28-4.89M135 123.76l-1.11-3.5h-4l-1.14 3.5h-1.43l4-11.7h1.39l4 11.7zm-2.72-8.88a7.76 7.76 0 0 1-.34-1.41 8.59 8.59 0 0 1-.35 1.41l-1.4 4.44h3.49zM145.56 123.93a6.67 6.67 0 0 1-3.1-.63v-10.76a6.5 6.5 0 0 1 3-.65c3.23 0 4.87 2.28 4.87 5.9s-1.48 6.14-4.8 6.14m-.1-11a3.6 3.6 0 0 0-1.45.24v9.48a4.38 4.38 0 0 0 1.47.22c2.36 0 3.26-1.75 3.26-5s-1.05-4.89-3.28-4.89M156.84 123.76v-11.7h5.43v1.05h-3.86v4.09h3.47v1.03h-3.47v4.48h3.86v1.05h-5.43zM180.66 123.93a6.67 6.67 0 0 1-3.1-.63v-10.76a6.47 6.47 0 0 1 3-.65c3.23 0 4.87 2.28 4.87 5.9s-1.48 6.14-4.8 6.14m-.1-11a3.57 3.57 0 0 0-1.45.24v9.48a4.38 4.38 0 0 0 1.47.22c2.36 0 3.26-1.75 3.26-5s-1.05-4.89-3.28-4.89M195.78 123.93c-3 0-4.23-2.67-4.23-6s1.19-6 4.23-6 4.22 2.71 4.22 6-1.19 6-4.22 6m0-11c-2.14 0-2.65 2.57-2.65 4.93s.44 4.92 2.65 4.92 2.64-2.56 2.64-4.92-.51-4.93-2.64-4.93M208.63 123.93a4.76 4.76 0 0 1-2.72-.64l.41-1.09a3.81 3.81 0 0 0 2 .54 2.05 2.05 0 0 0 2.19-2.19c0-1-.57-1.67-2-2.25-2-.78-2.48-2-2.48-3.13a3.19 3.19 0 0 1 3.3-3.28 4.2 4.2 0 0 1 2.4.63l-.38 1a3.5 3.5 0 0 0-1.85-.55 1.85 1.85 0 0 0-1.94 2.06c0 1.21.88 1.72 2 2.14 2.31.91 2.65 2.26 2.65 3.3a3.37 3.37 0 0 1-3.54 3.47M234.3 123.76l-1.1-3.5h-4l-1.14 3.5h-1.42l4-11.7H232l3.95 11.7zm-2.72-8.88a7.76 7.76 0 0 1-.34-1.41 9.6 9.6 0 0 1-.36 1.41l-1.39 4.44h3.48zM241.86 123.76v-11.7h1.57v10.65h3.51v1.05h-5.08zM253.11 112.06h1.56v11.7h-1.56zM271.22 123.76c0-.15-.9-8.76-.9-8.76-.07-.73-.08-1.37-.08-1.37s-.12.64-.32 1.37c0 0-2.42 8.56-2.48 8.76h-1l-2.53-8.76c-.19-.7-.33-1.36-.33-1.36s0 .66-.08 1.36c0 0-.91 8.6-.92 8.77h-1.38l1.4-11.7h1.65l2.34 8.45a11.1 11.1 0 0 1 .31 1.33 11.34 11.34 0 0 1 .3-1.31l2.42-8.47h1.65l1.39 11.7zM279.17 123.76v-11.7h5.43v1.05h-3.86v4.09h3.46v1.03h-3.46v4.48h3.86v1.05h-5.43zM298 123.76l-5-8.54c-.42-.73-.74-1.41-.74-1.41s.05.72.05 1.45v8.5H291v-11.7h1.66l4.77 8.21a13.88 13.88 0 0 1 .67 1.25s-.05-.56-.05-1.3v-8.16h1.31v11.7zM309.3 113.11v10.65h-1.57v-10.65h-2.33v-1.05h6.23v1.05h-2.33zM321 123.93c-3.05 0-4.24-2.67-4.24-6s1.19-6 4.24-6 4.22 2.71 4.22 6-1.19 6-4.22 6m0-11c-2.14 0-2.65 2.57-2.65 4.93s.44 4.92 2.65 4.92 2.64-2.56 2.64-4.92-.51-4.93-2.64-4.93M333.89 123.93a4.82 4.82 0 0 1-2.73-.64l.41-1.09a3.84 3.84 0 0 0 2 .54 2.06 2.06 0 0 0 2.2-2.19c0-1-.58-1.67-2-2.25-2-.78-2.49-2-2.49-3.13a3.19 3.19 0 0 1 3.3-3.28 4.2 4.2 0 0 1 2.4.63l-.37 1a3.54 3.54 0 0 0-1.86-.55 1.85 1.85 0 0 0-1.94 2.06c0 1.21.89 1.72 2 2.14 2.31.91 2.65 2.26 2.65 3.3a3.37 3.37 0 0 1-3.53 3.47"/></g></g></svg>