<svg xmlns="http://www.w3.org/2000/svg" xmlns:xlink="http://www.w3.org/1999/xlink" viewBox="0 0 568.89 434.63"><defs><style>.cls-1{fill:url(#Gradiente_sem_nome_151);}.cls-2{fill:url(#Gradiente_sem_nome_171);}.cls-3{fill:#1d1d1b;}</style><linearGradient id="Gradiente_sem_nome_151" x1="301.74" y1="234.45" x2="301.74" y2="147.39" gradientUnits="userSpaceOnUse"><stop offset="0.09" stop-color="#f8d60b"/><stop offset="0.28" stop-color="#f5bc09"/><stop offset="0.55" stop-color="#f09005"/><stop offset="0.65" stop-color="#f3a807"/><stop offset="0.83" stop-color="#f7c90a"/><stop offset="0.92" stop-color="#f8d60b"/></linearGradient><linearGradient id="Gradiente_sem_nome_171" x1="228.32" y1="234.41" x2="228.32" gradientUnits="userSpaceOnUse"><stop offset="0" stop-color="#b8192b"/><stop offset="0.04" stop-color="#be1728"/><stop offset="0.19" stop-color="#c91422"/><stop offset="0.39" stop-color="#d0131e"/><stop offset="0.94" stop-color="#d2121d"/><stop offset="0.95" stop-color="#dd2a2b"/><stop offset="0.97" stop-color="#e74038"/><stop offset="0.98" stop-color="#cd2427"/><stop offset="0.98" stop-color="#c1171f"/></linearGradient></defs><g id="Layer_2" data-name="Layer 2"><g id="Camada_1" data-name="Camada 1"><path d="M306.43,1.8h11.62s8.2-1,10.9,4.78S412.5,232.44,412.5,232.44l-94.18,2L265,80.6,279.4,15.32l4.68-7Z"/><path class="cls-1" d="M224.62,233.16s21.38,6,36.76-7.93,91.05-70.39,117.48-77.84H284.92s-30.75,2.65-60.3,28.35Z"/><path class="cls-2" d="M315.43,1.8S307,4,304.14,16.7s-69.79,200.61-69.79,200.61-2.89,18,4,17.06H150.2s-12.79-1-7.86-16.34S217.05,10.81,217.05,10.81,219.46-.12,230,0,315.43,1.8,315.43,1.8Z"/><path class="cls-3" d="M61.67,321.19V333A30.16,30.16,0,0,1,50,335.19c-12.09,0-19.62-8.46-19.62-18.05s6.37-18.42,19-18.42c4.84,0,6.65,1.08,8.37,1.08a1.53,1.53,0,0,0,1.12-.42h.84l1.53,6.72-.84.28C58.64,304,54.64,302,50.27,302c-7.44,0-12.09,6.3-12.09,15.51,0,8.7,5,14.52,11.44,14.52a9.66,9.66,0,0,0,4.42-.84v-9.87a2.7,2.7,0,0,0-2.74-2.87v-.61H64.09v.61A2.67,2.67,0,0,0,61.67,321.19Z"/><path class="cls-3" d="M106.6,335.19c-12.14,0-18.79-9.07-18.79-18.23,0-8.89,5.76-18.38,18.83-18.38,7.72,0,18.79,4.46,18.79,19.22C125.43,325.93,119.15,335.19,106.6,335.19Zm.14-33.23c-4.66,0-11.07,3.48-11.07,14.34,0,8.6,3.86,15.55,11.11,15.55,5.54,0,10.75-4.41,10.75-14.28C117.53,305.54,111.2,302,106.74,302Z"/><path class="cls-3" d="M174.59,303.75l-13,32.38-13.39-31.77c-1.17-2.73-2.14-4.42-3.72-4.42v-.61h12.79v.61c-2,0-2,1.69-1.45,3l8,19.65,7.54-19.27c.84-2.12.56-3.2-1.12-3.34v-.61h7.58v.61C176.83,299.94,175.52,301.45,174.59,303.75Z"/><path class="cls-3" d="M222.13,334.44h-23v-.61c1.45,0,2.38-.52,2.38-3.48V303.19c0-2.5-1.58-3.25-2.7-3.25v-.61h22.74l-.74,5.36-.61-.09c-.18-2-1.39-2.31-6.79-2.31H209v12.93h4.05c3.9,0,7.11.56,7.11-2.35h.75v7.8h-.75c0-2.82-2.56-2.49-7.16-2.49h-4V328.8c0,2.16,1.16,2.68,3,2.68h5.16c3,0,5.58-1.27,6.65-2.92l.75.33Z"/><path class="cls-3" d="M268.22,334.44,259,319a15.05,15.05,0,0,1-2.6.14v11.09c0,3,2.14,3.62,2.65,3.62v.61h-12.6v-.61c.65,0,2.55-.33,2.55-3.48V303.42c0-2.58-1.58-3.48-2.79-3.48v-.61h10.47c1.76,0,16-1.31,16,9.21a8.72,8.72,0,0,1-6.65,8.93l9.07,13.82c.56.85,1.86,2.4,3.4,2.54v.61Zm-9.44-32.34h-2.42v14.15c.28.05,2,0,2,0,4.42,0,6.84-3.1,6.84-7.1C265.24,304.22,262.4,302.1,258.78,302.1Z"/><path class="cls-3" d="M330.91,303.33v32.94l-25.76-30.88v24.77c0,2.73,1,3.67,2.69,3.67v.61h-8.27v-.61c1.48,0,2.51-.57,2.51-3.29V303.7c0-3.15-1.21-3.76-2.7-3.76v-.61h10.46l17.86,21.29v-17c0-2.77-1.39-3.67-2.88-3.67v-.61h8.65v.61C331.75,299.94,330.91,300.88,330.91,303.33Z"/><path class="cls-3" d="M375.7,335.19c-12.14,0-18.79-9.07-18.79-18.23,0-8.89,5.77-18.38,18.84-18.38,7.72,0,18.79,4.46,18.79,19.22C394.54,325.93,388.26,335.19,375.7,335.19Zm.14-33.23c-4.65,0-11.07,3.48-11.07,14.34,0,8.6,3.86,15.55,11.12,15.55,5.53,0,10.74-4.41,10.74-14.28C386.63,305.54,380.31,302,375.84,302Z"/><path class="cls-3" d="M469.19,334.44H455.05v-.61c1,0,2.56-.28,2.56-3.48V303.42c0-2.4-.52-3.48-2.79-3.48v-.61h14.92c14.61,0,19,10,19,17.53C488.77,324.85,483.33,334.44,469.19,334.44Zm-.28-32.1h-3.68v27.4c0,1.46,1.31,1.78,3.12,1.78,9.12,0,12.7-7.61,12.7-14.8C481.05,309.81,477.84,302.34,468.91,302.34Z"/><path class="cls-3" d="M535.74,334.44h-23v-.61c1.44,0,2.37-.52,2.37-3.48V303.19c0-2.5-1.58-3.25-2.7-3.25v-.61h22.75l-.75,5.36-.6-.09c-.19-2-1.4-2.31-6.79-2.31h-4.37v12.93h4c3.91,0,7.12.56,7.12-2.35h.74v7.8h-.74c0-2.82-2.56-2.49-7.16-2.49h-4V328.8c0,2.16,1.16,2.68,3,2.68h5.17c3,0,5.58-1.27,6.65-2.92l.74.33Z"/><path d="M568.89,432.21h-42l4.37-5.3c-1.44-3.32-2.84-6.58-4.45-10.3H502.36l-4.69,10.11,4.38,5.18h-22.4c6.5-2.44,8.35-8.43,10.77-13.66,10.05-21.78,19.84-43.67,29.77-65.5a37.3,37.3,0,0,1,2.84-4.23c4.93,9.84,9.47,18.84,14,27.87,7.45,15,14.84,30.06,22.3,45.06,2.06,4.13,4.1,8.39,9.61,8.8Zm-54.36-44-8.88,20.3h17.54C520.31,401.8,517.79,395.91,514.53,388.25Z"/><path d="M182.4,433.81l-55.14-45.72c0,13.21-.39,24.56.27,35.85.16,2.81,3.68,5.43,5.57,8H48.57l2.86-5.8-4.54-9.71H22.67c-1.53,3.33-3,6.54-4.57,10l3.81,5.64H0c5.79-2.85,8.17-8.12,10.57-13.37q15.17-33.16,30.33-66.32a39.09,39.09,0,0,1,2-3.34c1.58,2.52,3.07,4.51,4.16,6.69C58.05,377.8,68.88,399.93,79.9,422c3.93,7.86,8.43,10.11,15.72,8.28,1.48-.37,2.73-1.65,4.55-2.8V350.91c19,15.77,36.65,30.47,55.42,46.08V358.72l-5.75-5.4h40.28c-7.42,3.37-7.81,8.17-7.78,13.42C182.48,388.69,182.4,410.64,182.4,433.81ZM43.73,409.19c-3.21-7.36-4.45-13.58-9.61-19.08l-8,18.1a43.71,43.71,0,0,0,5.45.94C35.06,409.27,38.55,409.19,43.73,409.19Z"/><path d="M345.43,434.63c-5.67-1-12.64-1.52-19.15-3.53-17.65-5.47-27.13-18.85-27.53-37.65-.41-19.28,9.58-33.67,28-39.27,14.84-4.51,29.89-4.41,44.47,1.16,14.42,5.51,22.6,16.11,24.21,31.74,2.78,27-12.46,42.4-35.1,46C355.82,433.77,351.23,434,345.43,434.63ZM369,393.1c-1.58-8-2.47-15.52-4.63-22.63-2.27-7.46-7.75-12.24-15.89-12.67-8.53-.45-14.79,3.87-17.8,11.49a61.58,61.58,0,0,0,.08,47c2.88,7.1,8.69,11.58,16.91,11.37s13.95-4.55,16.36-12S367.42,400.51,369,393.1Z"/><path d="M277.76,355.94c-.53,7.65-1,14.33-1.45,21l-1.41.23c-1.32-2.53-2.56-5.1-4-7.57-5.13-9-13.22-12.55-23.18-11.74-10.43.85-16.67,7.07-19.5,16.86-3.66,12.63-3.39,25.38-.16,38a23.63,23.63,0,0,0,4.56,8.63c7.05,8.74,16.18,8.47,23.78-.31V395h28c-.48,8.25-.95,16.52-1.42,24.68-15.82,15.1-46.88,19.33-65.44,8.75-14.82-8.45-20.15-22.15-19.24-38.34q2-34.46,38.42-38.45C250.23,350.1,263.55,352.19,277.76,355.94Z"/><path d="M471.63,431.94h-63.7c1.21-3.64,3.43-7.29,3.5-11q.52-28.09,0-56.2c-.07-3.78-2.31-7.52-3.6-11.43h34.68c-1.37,3.22-3.76,6.29-3.82,9.39-.33,20.65-.17,41.32-.17,61.8,20.85,5.13,28.84-3.6,35.66-18.64C475,415.37,473.17,423.08,471.63,431.94Z"/></g></g></svg>