<?xml version="1.0" encoding="utf-8"?>
<!-- Generator: Adobe Illustrator 27.0.0, SVG Export Plug-In . SVG Version: 6.00 Build 0)  -->
<svg version="1.1" id="Layer_1" xmlns="http://www.w3.org/2000/svg" xmlns:xlink="http://www.w3.org/1999/xlink" x="0px" y="0px"
	 viewBox="0 0 247 87" style="enable-background:new 0 0 247 87;" xml:space="preserve">
<style type="text/css">
	.st0{fill:#231F20;}
	.st1{fill:none;stroke:#231F20;stroke-width:5.52;}
	.st2{fill:#D3A841;stroke:#FFFFFF;stroke-width:1.58;}
	.st3{fill:none;stroke:#FFFFFF;stroke-width:2.37;stroke-linecap:round;stroke-linejoin:round;}
	.st4{fill:#FFFFFF;}
</style>
<g id="Page-1">
	<g id="Asset-7" transform="translate(2.760000, 2.760000)">
		<g id="Group" transform="translate(92.480000, 7.680000)">
			<polygon id="Path" class="st0" points="0,2.8 6.5,2.8 6.5,62.5 0,62.5 0,64.4 22.7,64.4 22.7,62.5 16.2,62.5 16.2,2.8 22.7,2.8 
				22.7,0.9 0,0.9 			"/>
			<polygon id="Path_00000121245214294572677050000014548621329443827599_" class="st0" points="64.5,2.8 71.6,2.8 71.6,46 
				63.7,33.6 59.4,30.5 53.7,34.6 55.9,27.9 50.2,23.8 57.2,23.8 57.3,23.6 42.8,0.9 25.9,0.9 25.9,2.8 32.8,2.8 32.8,62.5 26,62.5 
				26,64.4 42.2,64.4 42.2,62.5 35.1,62.5 35.1,6.3 73.2,65.3 74.1,65.3 74.1,2.8 80.9,2.8 80.9,0.9 64.5,0.9 			"/>
			<path id="Path_00000104699647408246789870000007115008910617380273_" class="st0" d="M149.4,37.8c-1.3-2.3-2.9-4.1-5-5.3
				c-2.1-1.3-4.3-2.3-6.8-3.3c-2.5-0.9-4.9-1.8-7.4-2.5s-4.8-1.6-6.8-2.6s-3.8-2.4-5-4.1c-1.3-1.7-1.9-3.9-1.9-6.4
				c0-3.5,1.3-6.3,3.8-8.5c2.6-2.2,5.6-3.3,9.2-3.3c4,0,7.6,1.6,10.8,4.8s4.8,7.1,4.8,11.8V20h2V0.9h-1.8v1.8c0,1.8-0.5,2.7-1.6,2.7
				c-0.5,0-1.2-0.3-2.1-1.1c-3.7-2.9-7.7-4.3-11.9-4.3c-5.5,0-10.3,1.8-14.2,5.5s-5.8,8-5.8,13.1c0,2.8,0.5,5.3,1.4,7.4
				c0.9,2.1,2.2,3.8,3.8,4.9c1.6,1.2,3.3,2.2,5.3,3.2c2,0.9,4,1.7,6.1,2.2c2.1,0.6,4.1,1.2,6.1,2c2,0.8,3.8,1.7,5.3,2.6
				c1.6,0.9,2.8,2.2,3.8,3.9c0.9,1.7,1.4,3.7,1.4,6c0,3.3-1.3,6.3-3.9,8.9c-2.6,2.6-5.9,3.8-9.9,3.8c-4.6,0-8.7-1.5-12.4-4.5
				c-3.7-3-5.5-7-5.5-11.8v-1.1h-1.9l0.1,18.3h1.9v-3.3c0-1.6,0.4-2.4,1.3-2.4c0.5,0,1,0.3,1.7,0.8c1.4,1.1,2.5,1.9,3.4,2.5
				c0.9,0.6,2.4,1.3,4.7,2.1c2.2,0.8,4.5,1.2,7,1.2c6.2,0,11.4-1.9,15.7-5.6c4.3-3.7,6.4-8.3,6.4-13.6
				C151.3,42.8,150.7,40.1,149.4,37.8L149.4,37.8z"/>
			<g transform="translate(81.880000, 3.470000)">
				<polygon id="Path_00000127728364557704694170000017879782049510653883_" class="st0" points="6.5,59 0,59 0,61 22.8,61 22.8,59 
					16.2,59 16.2,8.4 6.5,8.4 				"/>
				<rect id="Rectangle" x="7.8" y="0" class="st0" width="7.2" height="7.2"/>
			</g>
		</g>
		<g id="Group_00000173125579363920712990000015506000888870786724_" transform="translate(-0.000000, 0.000000)">
			<circle id="Oval" class="st1" cx="40.3" cy="40.3" r="40.3"/>
			<circle id="Oval_00000131326002976161980050000013745068642285833618_" class="st2" cx="40.3" cy="40.3" r="38.7"/>
			<path id="Path_00000150097612291821575580000010717546794978771846_" class="st3" d="M37.5,8.8c16.7-2.1,32,9.8,34,26.5"/>
			<g transform="translate(13.510000, 10.370000)">
				<path id="Shape" class="st4" d="M0.5,54.6L0.5,54.6L0.5,54.6l-0.1-0.3l0-0.1l0-0.3v-0.2l0-0.1l0-0.1l-0.1,0l-0.1,0l0,0.1l0,0.1
					v0.1l0.3,0.8L0.5,54.6L0.5,54.6L0.5,54.6z M53.6,30.8L53.6,30.8l0.2-0.2l0-0.1v0l-0.2-0.4l0-0.1l0-0.6h-0.1l0-0.1l0-0.2v-0.2
					l0-0.1l0-0.1l0-0.1l-0.1-0.1l0-0.1l0-0.2l-0.1,0l0,0.1l0,0.1l0,0.1l0,0l-0.1,0l0,0l0,0l0,0.1l0,0l-0.2,0l-0.2,0l-0.2-0.1l-0.2,0
					h-0.2H52l-0.4-0.1l-0.3-0.1h-0.2h-0.2l-0.2,0.1l-0.3,0.2l-0.5,0.3l-0.4,0.1l-0.4,0.1h-0.2l-0.2,0l-0.1,0l-0.2-0.1l-0.1,0h-0.1
					l-0.1,0l-0.1,0.1l-0.1,0l-0.2,0l-0.2,0l-0.2-0.1l-0.2-0.1l-0.3-0.1l-0.2,0l-0.1,0.4l-0.1,0.1l-0.4,0.1l-0.1,0l-0.2,0.2L46,29.9
					h-0.1l0.1-0.2l0-0.2l0-0.4l0-0.1l-0.1-0.1v-0.1l0,0l-0.1,0v0l0-0.2l-0.1-0.3l0-0.1v-0.1l0.1-0.1l0.1-0.1l0.1-0.1l0.2-0.1l0.1,0
					h0.1l0-0.1v-0.1v-0.2l0,0l0,0l-0.1-0.1v-0.1V27l0-0.2l0-0.1l0-0.1l0-0.1v-0.1l0-0.1l0.1-0.2l0-0.1v0l0-0.1V26v0l-0.1-0.1l0-0.1
					l-0.1-0.2L46,25.3l-0.1-0.2l-0.1-0.2l0-0.1l0,0l0-0.2l-0.1-0.2l0-0.1l0-0.1L45.5,24l-0.2-0.1l-0.1-0.1l-0.1,0l0,0h0l0,0
					l-0.2-0.3l0-0.1v-0.1l0,0l-0.1,0h0l-0.1-0.2l-0.3-0.3l-0.1-0.2l0-0.2l0-0.4l0-0.2l0,0L44,21.8l0,0v-0.1l0.1-0.1l0-0.1l0.1-0.3
					l0-0.2v-0.2l0-0.4l0.1-0.5v-0.2l0-0.4l0-0.1l0-0.1l0,0l0-0.3l0-0.3l0-0.1l0.1-0.1h0l0,0h0l0,0l0.1-0.3l0-0.2l0-0.2l-0.1-0.2
					l0-0.1l0,0l0.1,0l0-0.1l-0.1-0.1l0-0.1l0-0.2v-0.2l0-0.1l0-0.1l-0.1-0.1l0-0.1l0-0.1v-0.1l0,0l-0.1-0.1l0,0l0-0.1v-0.3v0
					l0.1-0.1v-0.1v-0.1l0-0.1l0-0.2l0-0.1l0-0.1l0-0.1l0-0.2l0-0.2l0-0.1v-0.1l0,0l0.1-0.1v0l0-0.2v0l0,0v0v0v-0.1l0-0.1v-0.1v0l0,0
					v0v0l0,0v0v-0.1l0,0l0,0l0-0.1v0l0,0v0l0,0l0,0L44,12.6l0,0l0,0h0l0,0v0h-0.1h-0.2h-0.3H43h-0.3h-0.3h-0.3h-0.3h-0.3h-0.3h-0.3
					h-0.3h-0.3h-0.3h-0.3h-0.3h-0.3h-0.3h-0.2v-0.2l0-0.2l0-0.2l0.1-0.2l0.1-0.2l0.1-0.3l0.1-0.3h-0.2h-0.4h-0.4h-0.2h0l0,0l0,0.1
					l0,0.1l0,0.1v0.1H34l0.1,0.2v0l0,0.1L34,11.7l0,0.1l0,0.1l0,0.7v0.1l0,0.1l0.1,0.3v0.1l-0.1,0.1l0,0l0,0l0,0l-0.1,0.1l0,0.2
					l-0.1,0.1l-0.1,0l-0.3,0v0.1l0,0.1l0,0.1l0,0.1v0.1l0,0.1l-0.1,0.3l0,0.1L33.2,15v0.1v0.1l0.1,0.3h-2.5l-0.1-0.1l0-0.1l0-0.1
					l0,0h-1l0,0v0.1l0,0.2h-0.1h0h-0.3l-0.1,0l-0.1,0.1l-0.1,0h-0.1l-0.2-0.1h-0.2l-0.3,0h-0.1L28,15.7l-0.1,0l-0.1,0.1l0,0.1V16
					l0,0.1h-0.4l-0.1,0l-0.2-0.2L27,15.8l-0.2,0h-0.1L26.5,16h0l-0.1-0.1h-0.1L25.8,16h-0.1L25.4,16l0,0l0-0.1l0-0.1l0-0.1l0,0
					l-0.1-0.1l0,0l0,0l0-0.1l0,0l0,0v0l0,0h0v0l0,0L25,15.3l0,0l0,0l0-0.1l0,0l0,0l0-0.1l-0.1,0l0,0V15l0-0.1h0l-0.1,0h0l0-0.1v0
					h-0.1l0,0v-0.1v0l0,0h-0.1l0,0l0,0l-0.1-0.1l0-0.1l0,0l0,0v0l-0.1,0l0,0l0,0h0v0l-0.1,0v-0.1v-0.1l0-0.1l0-0.1l-0.1-0.1L24,13.8
					l-0.1-0.1l-0.1-0.2l-0.1-0.1l0,0l0,0l0,0v0l0-0.1l0.1,0l0,0l0,0l0,0l0,0l-0.1,0l0,0l0,0h0l0,0.1l-0.1,0l0-0.1v-0.2l0-0.1l-0.1,0
					l-0.1-0.1l-0.2-0.1l-0.1,0l0-0.1v-0.1l-0.1-0.1l0-0.1l0,0l0,0v-0.2l-0.1-0.3v-0.1l0.1,0v-0.1l0-0.1l0-0.1l0-0.1l0,0l0,0l0,0h0
					l0,0v0l0,0v0l0-0.2l0-0.1l-0.1-0.1h0l-0.1,0l-0.1,0l0-0.1l0-0.1v-0.1l0-0.1L22,10l0-0.1l0-0.1V9.7l0-0.1l-0.1-0.2V9.4V9.3l0-0.1
					v0l0-0.1l0,0l0,0V9l0-0.1h-0.1V8.9l0-0.1l0-0.1V8.7h0h0l0,0l0,0v0V8.5l0,0h0l0,0l0,0v0v0v0l0,0V7.9V7.8l0,0V7.7l0-0.1l-0.1-0.1
					l0-0.1l0,0l-0.1,0l0,0l-0.1-0.1l-0.1,0h-0.1l0.1-0.1l0,0h0l0,0h0l0,0l0-0.3v0l0-0.1l0-0.1v0l0.1-0.1v0l-0.1-0.1l0,0L21,6.4
					l-0.1,0h-0.1l-0.1,0l-0.1,0h-0.1h-0.1l-0.1-0.1l-0.1,0l-0.1-0.1l-0.1,0h-0.3l-0.4,0H19l-0.4,0h-0.4l-0.4,0h-0.4l-0.4,0h-0.4
					l-0.4,0h-0.4l-0.4,0h-0.4l-0.4,0h-0.4l-0.4,0h-0.4l-0.4,0l-0.6,0.1h-0.1l-0.3-0.1l-0.2,0h-0.4l-0.4,0H11l-0.3-0.1h-0.1l-0.5,0
					l-0.1,0L9.9,6.2l-0.2,0l-0.6,0L8.4,6.3l-0.3,0h0L8,6.3h0l-0.1,0H7.5H7.3l0,0L7.2,6.3l0,0L7,6.3l-0.2,0l-0.4,0l-0.1,0L6.2,6.3
					l-0.1,0h0l-0.2,0h0l-0.1,0H5.7H5.6H5.5l-0.1,0l0,0.1L5.3,6.6l0,0.1l-0.1,0L4.9,6.9l-0.1,0l-0.3,0l-0.1,0l-0.1,0l-0.1,0l-0.1,0
					l-0.1,0L4.1,7L4.1,7H3.8l0,0l0,0.1h0l-0.1,0h0L3.2,7.2l-0.2,0l-0.1,0H2.7l-0.1,0L2.6,7.3l-0.1,0v0l0.1,0v0L2.5,7.2h0.1l0,0l0,0
					l0.1,0H2.5L2.4,7.2l0,0.1l0.1,0.1l0.3,0.4l0,0.1l0.1,0.2L3,8.3l0,0.2l0.2,0.4l0.4,0.7L4,9.9l0.4,0.5l0.3,0.4l0.1,0l0.1-0.1l0,0
					v0l0,0v0l0,0l0,0v0v0v0l0,0v0.1l0.1,0.1L5,12.1l0,0.1l0,0.1l0,0.1l0.1,0.1l0,0.1l0.4,1l0.6,1.3l0.3,0.5l0,0.2l0.1,0.2l0,0.1
					l0.1,0.1l0,0.1l0,0.1l0.1,0.2l0,0L7.2,17l0,0.1l0,0.1v0.3l0,0l0,0h0h0H7.1l0,0.1L7.2,18l0.1,0.1l0.1,0.2l0,0.1v0.1l-0.1,0.2
					l-0.1,0.2l-0.1,0l-0.3,0h0l0,0v0l0,0v0.1l0,0h0L6.7,19l-0.1,0.1l-0.1,0L6.6,19l0.2-0.2l-0.1,0l-0.1,0.1L6.5,19l0,0v0.1v0l0,0.1
					l-0.1,0.1l-0.1,0.1l-0.1,0.1l-0.1,0.1h0H6.1H6l0,0.1v0l-0.2,0.4l-0.1,0l-0.1,0l0-0.1l0.2-0.4l0.3-0.3l0.1-0.1L6,19.4l-0.2,0.3
					L5.6,20l0,0.2l0.1,0.1l0.1,0.3l0.3,0.5l0.1,0.1l0,0.1l0.1,0.1l0,0.1v0.2v0.1l0.1,0.4v0.1l0,0l0,0.1l0,0.1v0.1l0,0.1l-0.1,0.1
					l0,0.1l0,0.1l0.3,0.4l0.1,0.2l0.1,0.2l0,0.2l0,0.1l0,0.1v0.1l0.2,0.4l0.2,0.2l0.1,0.1l0,0.2l0.1,0.1l0.2,0.3l0,0.1v0.1l0,0.3
					l0,0.1L8,26.1l0.3,0.2l0.4,0.5l0,0.1l0,0l0.2,0.1l0.1,0.1l0,0.1v0.1l-0.1,0.2l0,0.1v0.1l0,0.1l0.4,0.6l0.1,0.1l0,0.2v0.3v0.3
					l-0.1,0.6v0.2L9.1,30l0,0v0v0.2v0l0,0.1v0l0,0l0,0.1l0,0.1l0,0.5L9.1,32v0.1L9,32.2L9,32.7l0,0.1l0,0.1l-0.1,0.1L8.8,33l0,0.1
					l0,0.3l-0.1,0.1l-0.1,0.3l-0.1,0.3l0,0.1l-0.1,0.2l-0.1,0.1l-0.1,0.1l0,0v0l0,0l0,0v0h0l-0.3,0.3l-0.1,0.1l0,0.1l0,0.1v0.2
					l0,0.1l0,0.1l-0.1,0.1l-0.2,0.2l-0.1,0.1l-0.2,0l-0.1,0l-0.1-0.1H6.9H6.8l-0.1,0.1l0,0l-0.1,0v0l-0.1,0l-0.1,0l-0.1,0.1l0,0
					L6.1,36l0,0L6,36l-0.3,0.3l-0.1,0.1l-0.2,0.2l-0.1,0.1l0,0.1L5.4,37l0,0.1v0.1l-0.1,0.1l-0.3,0.3l-0.1,0.1l0,0l-0.1,0.1
					l-0.3,0.4l0,0l-0.1,0l0,0l-0.1,0.1h0l0,0h0l0,0l0,0.1l-0.1,0.1l0,0.1v0l-0.1,0v0v0v0l0,0v0l0,0.1l0,0H4l-0.1,0l-0.1,0.1l0,0l0,0
					H3.7l-0.1,0l0,0l0,0.1v0.1v0.1l0,0.1v0.1v0.1v0l0,0v0l0,0.1l0,0.1l-0.1,0.1v0.1v0.4l0,0.5l0,0.2l-0.1,0.1h0l0,0l-0.1,0h0l0,0
					l0,0l-0.1,0l0,0v0.1l0,0.2v0L3,41.7l0,0.1v0.1l0,0.1L2.8,42l0,0.1l-0.1,0.1l0,0.1l0,0.1l0,0.1v0v0v0l0,0h0l0,0l0,0h0l0,0v0v0
					l0,0v0l0,0v0l0,0.1l0,0.1v0.2v0.3l0,0.3l0,0.2L2.6,44l0,0.1l0,0.4l-0.1,0.3l0,0.1v0V45l0,0.1v0.1l-0.1,0.1l0,0.1l0,0.1h0h0h0
					l0,0v0l0,0.1l0,0.2l0,0.1l0,0.1l0,0l0,0l0,0.1l0,0.2l-0.1,0.3l0,0.1v0.1h0h0l0.1,0l0,0.1V47l0,0.1l0,0h0l-0.1,0h0l-0.1,0.2
					l0,0.1l0,0.1l0,0.5l-0.1,0.2v0.1l0,0.1l-0.1,0.1l-0.1,0.3V49L1.3,49L1,49.2l-0.1,0.1v0.1l0,0.1v0.1l-0.1,0.1l-0.2,0.2l-0.1,0
					l-0.1,0l0-0.1l0,0l-0.1,0l-0.1,0.1l0,0l-0.1,0.3l0.1,0.2l0.2,0.2l0,0.3L0.4,51l0,0.1v0.1l0.2,1.7l0,0.5l0,0.4l0,0.1v0.3
					l-0.1,0.2l-0.1,0l0,0.4v0.1l-0.1,0.5V56l0,0.2v0.1v0.1l0,0l0,0v0h0.1l0.1,0h0.1h0.1l0,0v0l0,0l0.1,0l0.2-0.1l0.2-0.2L1.2,56
					l0.2-0.1l0.2,0h0l0,0h0l0,0l0.1,0H2l0,0h0h0l0,0v0l0,0l0,0l0,0l0,0l0,0h0l0,0l0,0v0l0,0l0.3,0H3l0.1,0l0.1,0h0l0.1,0.1l0.1,0
					l0.2,0l0.2,0h0l0.1-0.1L4,56.1l0.1,0l0.1,0l0.1,0l0.1-0.1l0.2-0.1l0.2,0l0,0l0-0.1l0,0h0l0.1,0l0,0l0,0v-0.1l0,0l0.1,0l0.1,0
					l0.1,0l0.2-0.1l0.5-0.1l0.1,0h0.1l0.1,0l0.1,0l0,0l0,0l0,0l0.1,0h0.1l0,0v0l0.1,0l0.1,0l0,0h0l0.2,0l0.1,0l0.2,0.1l0.1,0h0.1
					l0.1,0l0.1,0.1l0.1,0.2l0.1,0.1l0,0.1l0,0.1L8.3,56l0.4,0.3l0.4,0.2l0.4,0.2l0.1,0.1l0.2,0.3l0.1,0l0.1,0h0.1l0.1-0.1h0h0.1
					l0.1,0h0.1l0.1,0h0.1l0.1,0l0.1,0h0l0.2,0l0.1,0l0-0.1v0h2.6h3.3h1.1h7.8h1.1h2.5h0v0l0,0l0,0l0,0l0.1,0.2v0.1h0l0.1,0l0.1,0.3
					v0l0.1,0l0.2,0.2v0l0,0.1l0,0l0,0l0.1,0l0,0l0.2,0.3l0.1,0.1l0.1,0l0.2,0l0.4,0.2l0.6,0.1l0.4,0l0.1-0.1l0.1,0h0l0.1,0l0.2,0
					l0.1,0l0.7,0.2h0.8l0.2-0.1h0.1l0.1,0l0,0.1l0,0l0.1,0l0.1,0H35l0,0l0-0.1l0,0h0.7l0.2,0.1l0.2,0h0l0.2,0h0.1h0.1l0.1,0l0,0
					l0.1-0.1l0.1,0H37l0.1,0l0.2-0.1l0,0h0.1l0.1,0l0,0l0.2,0.1l0.1,0l0.1,0l0.1,0.1l0.1,0.1l0,0l0.2,0.1l0.1,0.1l0.1,0l0.1,0h0.2
					h0.2l0.1,0l0,0l0.1,0h0.1h0l0,0l0.1,0l0.1,0.1l0.1,0.1h0.1l0.1-0.1l0.1,0l0.1-0.1l0.4-0.1l0.4-0.1l0.1,0l0.1,0l0.1,0H41h0.1h0.2
					h0.1l0.2,0.1l0.2,0.1l0.1,0.1l0.1,0.1h0l0.1,0l0.3-0.1l1.1-0.2l1.1-0.2l1.1-0.2l1.1-0.2l0.9-0.2l0.9-0.2l0.9-0.2l0.9-0.2
					l0.4-0.1l0-0.1V58l0-0.1l-0.1-0.1l-0.1-0.1l-0.1-0.1l-0.1,0l-0.1,0h-0.1h-0.1l-0.1,0H50l-0.1,0l0-0.1v-0.1v-0.1v-0.1l-0.1,0
					l-0.2-0.1l-0.1-0.1L49.4,57l-0.1-0.1l0-0.1l0,0L49,56.5l-0.1,0l-0.2-0.1l-0.3-0.1l-0.1-0.1l-0.2-0.2L48.1,56L48,56l0-0.1
					l-0.1-0.2l-0.1-0.1l-0.1-0.1l-0.2-0.2l-0.1-0.1l-0.3-0.1h-0.1l0,0l0,0v-0.1l-0.1-0.1l-0.1,0l-0.1,0l0-0.1l0-0.1l-0.3-0.5l0,0
					l0,0h-0.1l0,0l0,0l0,0l-0.1-0.1l0-0.1l0,0l-0.1,0h0l0,0h0h0h0l0,0l-0.1,0h0l-0.1,0l-0.4-0.3l0-0.1v-0.1l0-0.1l-0.1,0h-0.1l0,0v0
					l0-0.1l0-0.1l-0.1-0.1l0-0.1v-0.1l0-0.1l0-0.1l0-0.1v-0.1l-0.1,0l-0.1,0v0l0-0.1v0l0,0l0-0.1l0,0l0-0.1v-0.1l0-0.1l0-0.1h0h0.1
					l-0.1-0.2l-0.1-0.2v-0.1l0-0.6l0,0v-0.2v-0.9v-0.5v-2.4v-2V44v-1.3V42v-2v-0.7V38v-0.7h8.8l0-0.2L53.3,37l-0.1-0.1L53,36.6
					l-0.1-0.1l0-0.1l0-0.2l0.1-0.2l0.1-0.3l0.1-0.3l0.1-0.1l0.2-0.3l0.2-0.2l0-0.1v-0.1l0-0.2l0-0.3l0-0.1l-0.1-0.1l-0.1-0.1l0-0.2
					l0-0.6l0-0.6l0.1-0.2v0l0-0.1l0-0.3l0-0.1l0-0.1l0-0.1v-0.1l0-0.1l0.1-0.2l0.1-0.2l0,0v-0.2v-0.1v-0.1L53.6,30.8z"/>
				<polygon id="Path_00000170960592754059274690000015355138753883626889_" class="st4" points="1.7,2.7 1.7,2.7 1.8,2.7 1.8,2.7 
					1.9,2.6 1.9,2.6 1.9,2.6 2,2.6 2,2.6 2,2.7 2,2.7 1.9,2.8 1.9,2.8 1.8,2.8 1.8,2.8 1.7,2.8 1.7,2.8 1.6,2.8 1.6,2.8 1.6,2.8 
					1.8,3.2 2,3.5 2.2,3.9 2.3,4.2 2.3,4.4 2.4,4.5 2.5,4.7 2.5,4.7 2.5,4.8 2.5,4.9 2.4,4.9 2.4,5 2.3,5 2.3,5 2.2,5 2.1,5.3 
					2.2,5.6 2.4,5.9 2.6,5.8 3,5.8 3.4,5.8 3.7,5.8 3.7,5.4 3.7,5.1 3.7,4.6 3.8,4 3.8,3.7 3.8,3.3 3.7,3.2 3.7,3.2 3.4,3.1 3.4,3 
					3.4,3 3.4,3 3.4,2.9 3.4,2.9 3.4,2.9 3.5,2.9 3.5,2.9 3.9,2.7 4,2.6 4.1,2.5 4.1,2.4 4.1,2.4 4.3,2.3 4.4,2.3 4.4,2.3 4.5,2.2 
					4.5,2.1 4.6,2 4.8,1.9 4.8,1.9 4.8,1.8 4.8,1.7 4.9,1.6 5,1.5 5.1,1.4 5.9,1.2 6.1,1.2 6.1,1.1 5.9,1 5.6,0.6 5.5,0.5 5.4,0.4 
					5.3,0.2 5.2,0.1 5.2,0 5.1,0.1 5.1,0.1 5,0.1 4.9,0.1 4.8,0 4.8,0 4.7,0.1 4.6,0.2 4.6,0.3 4.5,0.3 4.4,0.4 4.4,0.4 4.3,0.5 
					4.2,0.7 4.2,0.7 4.1,0.8 3.6,0.8 3.3,0.9 3.3,0.9 3.2,0.9 3.1,1 3.1,1.2 3.1,1.3 2.9,1.6 2.9,1.7 2.8,1.7 2.7,1.7 2.6,1.7 
					2.5,1.8 2.5,1.8 2.4,1.7 2.4,1.6 2.4,1.6 2.3,1.6 2.3,1.6 2.2,2.1 2,2.3 1.5,2.7 1.6,2.7 				"/>
			</g>
			<g transform="translate(13.245000, 10.370000)">
				<path id="Path_00000052800944373570074960000014137645562542944159_" d="M36,30L23.7,42.3c1.7,0.5,3.8,0.7,6.3,0.6l6.6-6.6
					C36.7,33.8,36.5,31.7,36,30z"/>
				<path id="Path_00000072987039512652267440000016185431934745704582_" d="M20.8,21.9l-5.1,5.1c-0.2,1.2-0.3,2.6-0.2,4l9.4-9.4
					C23.4,21.7,22.1,21.8,20.8,21.9z"/>
				<path id="Path_00000103235491030980137340000013029195265533352363_" d="M35.1,27.5c-0.5-1-1.1-1.9-1.8-2.6L18.8,39.3
					c-0.1,0.1-0.2,0.1-0.2,0.1c0.7,0.7,1.6,1.4,2.7,1.9c0.1-0.1,0.1-0.2,0.2-0.3L35.1,27.5L35.1,27.5z"/>
				<path id="Path_00000105427783282395828020000010213324262791168392_" d="M27.3,22c0,0.1-0.1,0.2-0.1,0.2L15.7,33.6
					c0.2,1.3,0.7,2.7,1.4,3.9l14.1-14.1C30,22.6,28.7,22.2,27.3,22L27.3,22z"/>
				<polygon id="Path_00000165215009501888332050000011229816054612401841_" points="0.7,54.6 0.7,54.6 0.8,54.6 0.6,54.3 0.5,54.1 
					0.5,53.8 0.5,53.6 0.5,53.5 0.5,53.5 0.4,53.4 0.3,53.5 0.3,53.5 0.2,53.6 0.3,53.7 0.5,54.5 0.7,54.6 				"/>
				<polygon id="Path_00000129185826729084441700000010769637979244054671_" points="40.4,60.1 40.4,60 40.8,59.9 41.2,59.8 
					41.3,59.8 41.4,59.8 41.5,59.8 41.5,59.8 41.6,59.8 41.8,59.8 41.8,59.8 42,59.9 42.3,60 42.4,60 42.5,60.1 42.5,60.1 
					42.6,60.1 42.9,60 44,59.8 45.1,59.6 46.2,59.4 47.3,59.2 48.2,59 49,58.9 49.9,58.7 50.8,58.5 51.2,58.4 51.2,58.4 51.2,58.3 
					51.2,58.3 51.1,58.2 51,58.1 50.9,58 50.8,58 50.8,58 50.6,58 50.6,58 50.5,58 50.4,58 50.3,58 50.3,57.9 50.3,57.8 50.3,57.8 
					50.3,57.7 50.2,57.7 50.1,57.6 49.9,57.5 49.8,57.4 49.8,57.2 49.7,57.1 49.7,57.1 49.5,56.9 49.5,56.8 49.2,56.8 49,56.7 
					48.9,56.6 48.7,56.4 48.6,56.4 48.5,56.3 48.5,56.2 48.4,56 48.4,55.9 48.3,55.8 48.1,55.6 48,55.5 47.7,55.4 47.7,55.4 
					47.7,55.4 47.7,55.4 47.7,55.3 47.6,55.3 47.6,55.2 47.4,55.2 47.4,55.1 47.3,55.1 47.3,54.9 47,54.4 47,54.4 46.9,54.4 
					46.8,54.3 46.8,54.3 46.8,54.3 46.8,54.3 46.7,54.2 46.7,54.1 46.6,54.1 46.5,54 46.5,54 46.5,54 46.4,54 46.4,54 46.4,54 
					46.4,54 40.2,60.2 				"/>
				<path id="Path_00000142864924568759990850000009388638837860142253_" d="M16.6,22.9c-0.2,0.6-0.4,1.4-0.6,2.4l3-3
					C18,22.5,17.2,22.7,16.6,22.9L16.6,22.9z"/>
				<polygon id="Path_00000064314095656682332140000009177309997887132059_" points="12.9,6.6 12.8,6.6 12.5,6.5 12.3,6.5 11.9,6.5 
					11.5,6.5 11.4,6.5 11.1,6.4 11,6.4 10.5,6.4 10.4,6.4 10.3,6.3 10.2,6.3 9.6,6.3 8.8,6.4 8.5,6.4 8.5,6.4 8.4,6.4 8.3,6.4 
					8.2,6.4 7.9,6.4 7.7,6.4 7.7,6.4 7.6,6.5 7.5,6.5 7.4,6.4 7.2,6.4 6.9,6.4 6.8,6.4 6.6,6.5 6.5,6.5 6.5,6.5 6.3,6.5 6.3,6.4 
					6.1,6.5 6.1,6.5 6,6.5 5.9,6.5 5.9,6.5 5.8,6.6 5.8,6.7 5.7,6.8 5.7,6.8 5.3,7 5.2,7 4.9,7 4.9,7.1 4.8,7 4.7,7 4.7,7 4.6,7 
					4.5,7.1 4.5,7.1 4.2,7.1 4.2,7.1 4.1,7.2 4.1,7.2 4.1,7.2 4,7.2 4,7.2 3.6,7.3 3.3,7.3 3.2,7.4 3.1,7.4 3.1,7.4 3,7.5 2.9,7.5 
					2.9,7.5 3,7.4 3,7.4 2.9,7.3 2.9,7.3 3,7.3 3,7.3 3.1,7.2 2.9,7.2 2.8,7.3 2.8,7.4 2.9,7.6 3.2,8 3.3,8 3.3,8.2 3.4,8.4 
					3.5,8.6 3.7,9 4.1,9.7 4.4,10 4.8,10.5 5.1,10.9 5.2,11 5.3,10.9 5.3,10.9 5.3,11 5.3,11 5.3,11 5.3,11 5.3,11.1 5.3,11.1 
					5.3,11.1 5.3,11.1 5.3,11.1 5.3,11.2 5.3,11.4 5.4,12.2 5.4,12.3 5.5,12.5 5.5,12.5 5.6,12.6 5.7,12.7 6,13.7 13.3,6.5 				"/>
				<path id="Path_00000136370155798997340970000000110109922333083530_" d="M15,21.3c0.9-3.1,1.3-5.6,1.3-7.8l-9.1,9.1
					C9.4,22.5,11.9,22.1,15,21.3L15,21.3z"/>
				<path id="Path_00000119821294568633247100000009755147189849606329_" d="M35.1,44.3C10,48.6,12.7,29.9,14.4,23.5
					c-2.6,0.7-4.8,1-6.7,1.1l0.1,0.1l0.2,0.2L7.9,25l0,0.2L8,25.3l0.2,0.3l0,0.1v0.1l0,0.3l0,0.1l0.1,0.1l0.3,0.2L9.1,27l0,0l0,0
					l0.2,0.1l0.1,0.1l0,0.1v0.1l-0.1,0.2l0,0.1v0.1l0,0.1l0.4,0.6l0.1,0.1l0,0.2V29v0.3l-0.1,0.6v0.2l-0.1,0.1l0,0v0v0.2v0l0,0v0.1
					l0,0l0,0.1l0,0.1l0,0.5l0.1,0.8v0.1l-0.1,0.1l-0.1,0.4l0,0.1l0,0.1l-0.1,0.1l-0.1,0.1l0,0.1l0,0.3l-0.1,0.1L9,33.9l-0.1,0.4
					l0,0.1l-0.1,0.2l-0.1,0.1l-0.1,0.1l0,0v0l0,0l0.1,0v0h0l-0.3,0.3L8.2,35l0,0.1l0,0.1v0.2l0,0.1l0,0L8,35.5l-0.2,0.2l-0.1,0.1
					l-0.2,0l-0.1,0l-0.1-0.1H7.3H7.2l-0.1,0.1l0,0l-0.1,0v0l-0.1,0l-0.1,0L6.6,36l0,0l-0.1,0.1l0,0l-0.1,0.1l-0.3,0.3L6,36.6
					l-0.2,0.2l-0.1,0.1l0,0.1l0.1,0.1l0,0.1v0.1l-0.1,0.1l-0.3,0.3l-0.1,0.1l0,0.1l-0.1,0.1L5,38.5l0,0l-0.1,0l0,0l-0.1,0.1h0l0,0h0
					l0,0l0,0l-0.1,0.1l0,0.1v0l-0.1,0v0v0v0l0,0v0l0,0.1l0,0H4.4l-0.1,0l-0.1,0.1l0,0.1l0,0H4.1l-0.1,0l-0.1,0l0,0.1v0.1v0.1l0,0.1
					v0.1V40v0l0,0v0L4,40.1l0,0.1l-0.1,0.1v0v0.4l0,0.5l0,0.2l-0.1,0.1h0l0,0l-0.1-0.1h0l0,0l0,0l-0.1,0l0,0v0.1l0,0.2v0l-0.1,0.1
					l0,0.1v0.1l0,0.1l-0.1,0.1l0,0.1l-0.1,0.1l0,0.1l0,0.1l0,0.1v0v0v0l0,0h0l0,0l0,0h0l0,0v0v0l0,0v0l0,0v0l0,0.1l0,0.1v0.2v0.3
					l0,0.3l0,0.2L3,44.2l0,0.1l0,0.4L2.9,45l0,0.1v0v0.1l0,0.1v0.1l-0.1,0.1l0,0.1l0,0.1h0h0h0l0,0v0l0,0.1l0,0.2l0,0.1l0,0
					l-0.1,0.1l0,0l0,0.1l0,0.2l-0.1,0.3l0,0.1V47h0h0.1l0.1,0l0,0.1v0.1l0,0.1l0,0h0l-0.1,0h0L2,47.4l0,0.1l0,0.1l0,0.5l-0.1,0.2
					v0.1l0,0.1l0,0.1L1.8,49v0.1l-0.1,0.1l-0.3,0.2l-0.1,0.1v0.1l0,0.1v0.1l-0.1,0.1L1,50l-0.1,0l-0.1,0l0-0.1l0,0l-0.1,0L0.7,50
					l-0.1,0l-0.1,0.3l0.1,0.2l0.2,0.2l0,0.3l-0.1,0.2l0,0.1v0.1l0.2,1.7l0,0.5l0,0.4l0,0.1v0.4l-0.1,0.2l-0.1,0l0,0.4v0.1l-0.1,0.5
					v0.6l0,0.2v0.1v0.1l0,0l0,0v0h0.1l0.1,0h0H1l0,0v0l0,0l0.1,0l0.2-0.1l0.2-0.2l0.2-0.1l0.2-0.1l0.2,0h0l0,0h0l0,0l0.2,0h0l0,0h0
					h0l0,0v0l0,0l0,0l0,0l0,0l0,0h0l0,0l0,0v0l0,0l0.3,0h0.3l0.1,0l0.1,0h0l0.1,0.1l0.1,0l0.3,0l0.2,0h0.1l0.1-0.1l0.2-0.2l0.1,0
					l0.1,0l0.1,0l0.2-0.1L5.1,56l0.2-0.1l0,0l0-0.1l0,0h0l0.1,0l0,0l0,0v0l0,0l0.1,0l0.1,0l0.1,0l0.2-0.1l0.5-0.1l0.1,0h0.1l0.1,0.1
					l0.1,0l0,0l0,0l0,0l0.1,0h0l0,0v0l0.1,0l0.1,0l0,0h0l0.2,0l0.1,0l0.2,0.1l0.1,0h0.1l0.1,0l0.1,0.1l0.1,0.2l0.1,0.1l0,0.1l0,0.1
					l0.4,0.2l0.4,0.3l0.4,0.2L9.9,57l0.1,0l0.2,0.3l0.1,0l0.1,0h0.1l0.1-0.1h0h0l0.1,0h0.1l0.1,0h0l0.1,0l0.1,0h0l0.2,0l0.1,0l0-0.1
					v0h2.6h3.4h1.1h7.8h1.1h2.5h0v0l0,0l0,0l0,0l0.1,0.2v0h0l0.1,0l0.1,0.3v0.1l0.1,0l0.2,0.2v0l0,0.1l0,0l0,0l0.1,0l0,0l0.2,0.3
					l0.1,0.1l0.1,0.1l0.2,0l0.4,0.2l0.6,0.1l0.4,0l0.2-0.1l0.1,0h0l0.1,0l0.2,0l0.1,0l0.7,0.2h0.8l0.2-0.1h0.1l0.1,0l0,0.1l0,0
					l0.1,0l0.1,0h0.1l0,0l0-0.1l0,0h0.2C32,53.9,34,47,35.2,44.1L35.1,44.3z"/>
				
					<rect id="Rectangle_00000063618653262635001970000013928726447352112261_" x="37.3" y="42.7" transform="matrix(0.187 -0.9824 0.9824 0.187 -11.6931 72.2374)" width="1" height="1"/>
				<path id="Path_00000021084961547200061570000009596897135720025227_" d="M35.6,50.4l8.5-8.5c-3.4,0.3-6.1,1.6-6.6,1.8
					c0,0-0.1,0-0.1,0c0,0,0,0.1,0,0.1C37.2,44.3,35.9,47.1,35.6,50.4L35.6,50.4z"/>
				<path id="Path_00000106860365722078052700000000061422614700117177_" d="M17.2,20.6C23.6,19,42.3,16.3,38,41.4
					c1.5-0.6,4.1-1.5,7.1-1.6v-0.2v-1.3v-0.7h8.8l0-0.2l-0.1-0.1l-0.1-0.1L53.4,37l-0.1-0.1l0-0.1l0-0.2l0.1-0.2l0.1-0.3l0.1-0.3
					l0-0.1l0.2-0.3L54,35l0-0.1v-0.1l0-0.2l0-0.3l0-0.1l-0.1-0.1l-0.1-0.1l0-0.2l0-0.6l0-0.6l0.1-0.2v-0.1l0-0.1l0-0.3l0-0.1l0-0.1
					l0-0.1v-0.1l0-0.1l0.1-0.2l0.1-0.2l0,0v-0.2v-0.1v0l0.1-0.1l0.1-0.1l0-0.1v0L54,30.1l0-0.1l0-0.6h-0.1l0-0.1l0-0.2v-0.2l0-0.1
					l0-0.1l0-0.1l-0.1-0.1l0-0.1l0-0.2l-0.1,0l0,0.1l0,0.1l0,0.1l0,0l-0.1,0.1l0,0l0,0l0,0.1l0,0l-0.2,0l-0.2,0l-0.2-0.1l-0.2,0
					h-0.2h-0.1L52,28.7l-0.3-0.1h-0.2h-0.2l-0.2,0l-0.3,0.2l-0.5,0.3l-0.4,0.1l-0.4,0.1h-0.2l-0.2,0l-0.1,0L49,29L48.9,29h-0.1
					l-0.1,0l-0.1,0.1l-0.1,0l-0.2,0l-0.2,0l-0.2,0L47.9,29l-0.3-0.1l-0.2,0l-0.1,0.4l-0.1,0.1l-0.4,0.2l-0.1,0l-0.2,0.2l-0.1,0h-0.1
					l0.1-0.2l0-0.2l0-0.4l0-0.1l-0.1-0.1v-0.1l0,0l-0.1-0.1v0l0-0.2L46,28.2l0-0.1v-0.1L46,28l0.1-0.1l0.1-0.1l0.2-0.1l0.1,0h0.1
					l0,0v-0.1v-0.2l0,0l0,0l-0.1-0.1v-0.1v-0.2l0-0.2l0-0.1l0-0.1l0-0.1v-0.1l0-0.1l0.1-0.2l0-0.1v0l0-0.1v0v-0.1l-0.1-0.1l0-0.1
					l-0.1-0.2l-0.1-0.2l-0.1-0.2l-0.1-0.2l0-0.1l0-0.1l0-0.2L46,24.3l0-0.2l0-0.1L45.9,24l-0.2-0.1l-0.1-0.1l-0.1,0l0,0h0l0,0
					l-0.2-0.3l0-0.1v-0.1l0,0l-0.1,0h0L45,23.1l-0.3-0.3l-0.1-0.2l0-0.2l-0.1-0.4l0-0.2l0,0l-0.1-0.1l0-0.1v0l0-0.1l0-0.1l0.1-0.3
					l0-0.2v-0.2l0-0.4l0.1-0.5v-0.2l0-0.4l0-0.1l0-0.1l0,0l0-0.3l0-0.3l0.1-0.1l0.1-0.1h0l0,0h0l0,0l0.1-0.3l0-0.2l0-0.2l-0.1-0.2
					l0-0.1l0,0l0.1,0l0-0.1l-0.1-0.1l0-0.1l0-0.2v-0.2l0-0.1l0-0.1l-0.1-0.1L44.4,16l0-0.1v-0.1l0,0l-0.1-0.1l0,0l0-0.1v-0.3v0
					l0.1-0.1v-0.1V15l0-0.1l0-0.2l0-0.1l0-0.1l0-0.1l0-0.2l0.1-0.2l0-0.1v-0.1l0,0l0.1-0.1v0l0-0.2v0l0,0v0v-0.1v0l0.1-0.1v-0.1v0
					l0,0v0v0l0,0v0V13l0,0l0,0l0,0v0l0,0v0l0,0l0,0l-0.1-0.2l0,0l0,0h0l0,0v0h-0.1H44h-0.3h-0.3H43h-0.3h-0.3H42h-0.3h-0.3h-0.3
					h-0.3h-0.3h-0.3h-0.3h-0.3h-0.3h-0.3h-0.2v-0.2l0-0.2l0-0.2l0.1-0.2l0.1-0.2l0.1-0.3l0.1-0.3h-0.2h-0.4h-0.4h-0.2h0l0,0l0,0.1
					l0,0.1l0,0.1v0.1h-3.4l0.1,0.2v0.1l0,0.1l-0.1,0.1l0,0.1l0,0.1l0,0.7v0.1l0,0.1l0.1,0.3v0.1l-0.1,0.1l0,0l0,0l0,0l-0.1,0.1
					l0,0.2L34,13.7l-0.1,0l-0.3,0v0.1l0,0.1l0,0.1l0,0.1v0.1l0,0.1l-0.1,0.3l0,0.1L33.5,15v0.1v0.1l0.1,0.3h-2.5L31,15.5l0-0.1
					l0-0.1l0,0h-1l0,0v0.1l0,0.2h-0.1h0h-0.3l-0.1,0l-0.1,0.1l-0.1,0h-0.1L29,15.6h-0.2l-0.3,0h-0.1l-0.2,0.1l-0.1,0l-0.1,0l0,0.1
					v0.1l0,0.1h-0.4l-0.1,0l-0.2-0.2l-0.1-0.1l-0.1,0H27l-0.3,0.2h-0.1l-0.1-0.1h-0.1L26,16h-0.1l-0.2-0.1l0,0l0-0.1l0.1-0.1l0-0.1
					l0,0l-0.1,0l0,0l0,0l0-0.1l0,0l0,0v0l0,0h0v0l0,0l-0.1,0l0,0l0,0l0-0.1l0,0l0,0l0-0.1l-0.1,0l0,0v-0.1l0,0h0l-0.1,0h0l0-0.1v0
					H25l0,0v-0.1v0l0,0h-0.1l0,0l0,0l-0.1-0.1l0-0.1l0,0l0,0v0l-0.1,0l0,0l0,0h0v0l-0.1,0v-0.1v-0.1l0-0.1l0-0.1l-0.1-0.1l-0.2-0.1
					l-0.1-0.1l-0.1-0.2l-0.1-0.1l0,0l0,0l0,0v0l0-0.1l0,0l0,0l0,0l0,0l0,0l-0.1,0l0,0l0,0h0l0,0.1l-0.1,0l0-0.1v-0.1l0-0.1l-0.1,0
					l-0.1-0.1l-0.1-0.1l-0.1,0l0-0.1v-0.1l-0.1-0.1l0-0.1l0,0l0,0v-0.2L23,11.6v-0.1l0.2,0v-0.1l0-0.1l0-0.1l0-0.1l0,0l0,0l0,0h0
					l0,0v0l0,0v0l0-0.2l0-0.1l-0.1-0.1h0l-0.1,0l0,0l-0.1-0.1l0-0.1v-0.1l0-0.1L22.3,10l0-0.1l0-0.1V9.6l0-0.1l-0.1-0.1V9.4V9.3
					l0.1-0.1v0l0-0.1l0,0l0,0V9l0-0.1H22v0l0-0.1l0-0.1V8.7h0h0l0,0l0,0v0V8.4l0,0h0l0,0l0,0v0v0v0l0,0V7.9V7.8l0-0.1V7.7l0-0.1
					L22,7.5l0-0.1l0,0l-0.1,0l-0.1,0l-0.1-0.1l0,0h-0.1l0.1-0.1l0,0h0l0,0h0l0,0l0-0.3v0l0-0.1l0-0.1v0l0.1-0.1v0l-0.2-0.1l0,0
					l-0.2-0.1l-0.1,0h-0.1l-0.1,0l-0.1,0h-0.1h-0.1l-0.1-0.1l-0.1,0l-0.1-0.1l-0.1,0h-0.3l-0.4,0h-0.4l-0.4,0h-0.4l-0.4,0h-0.4
					l-0.4,0H17c1.4,2.8,1.9,7.3,0.1,14.2L17.2,20.6z"/>
				<path id="Path_00000178180085799585326100000010279445635929945258_" d="M16.3,10.9c-0.2-1.5-0.5-2.6-1-3.6l-8.4,8.4l0,0.1
					L7,15.9l0,0l0.1,0.1l0,0l0,0.1l0.1,0.2l0,0l0.4,0.6l0,0.1l0,0.1v0.3l0,0l0,0h0h0H7.5l0,0.2l0.1,0.3l0.1,0.1l0.1,0.2l0,0.1v0.1
					l-0.1,0.2L7.7,19l-0.1,0l-0.3,0h0l0,0v0l0,0v0l0,0h0l-0.1,0.1L7,19.2l-0.1,0l0.1-0.1L7.2,19l-0.1,0L7,19.1l-0.1,0.1l0,0v0.1v0
					l0,0.1l-0.1,0.1l-0.1,0.1l-0.1,0.1l-0.1,0.1h0H6.4H6.4l0,0.1v0l-0.2,0.4l-0.1,0l-0.1,0l0-0.1l0.2-0.4l0.3-0.3l0.1-0.1l-0.2,0.1
					l-0.2,0.3L6,20.2l0,0.2l0.1,0.1l0.1,0.3l9.9-9.9C16.1,10.9,16.2,10.9,16.3,10.9L16.3,10.9z"/>
				<path id="Path_00000143619041820244787670000017768132781840552118_" d="M31.9,42.7c1.2-0.1,2.5-0.3,3.9-0.6
					c0.3-1.4,0.5-2.7,0.6-3.9L31.9,42.7L31.9,42.7z"/>
				<path id="Path_00000011747091325855759320000004058772810925073572_" d="M35.6,53.2c0.2,2.1,1,4.3,2.6,6.1l7-7l0,0l0-0.1l0-0.1
					h0h0.1l-0.2-0.2l-0.1-0.2v-0.1l0-0.6l0,0v-0.2v-0.9v-0.5V47v-2v-0.7v-0.6L35.6,53.2C35.7,53.1,35.7,53.2,35.6,53.2L35.6,53.2z"
					/>
				<polygon id="Path_00000093154268085407304120000014323550123022424711_" points="1.9,2.7 2,2.7 2,2.7 2,2.7 2.1,2.6 2.1,2.6 
					2.2,2.6 2.2,2.6 2.2,2.7 2.2,2.7 2.2,2.7 2.1,2.8 2.1,2.8 2,2.8 2,2.8 2,2.8 1.9,2.8 1.9,2.8 1.8,2.8 1.8,2.8 2,3.2 2.2,3.5 
					2.4,3.9 2.5,4.2 2.6,4.4 2.6,4.5 2.7,4.7 2.7,4.7 2.7,4.9 2.7,4.9 2.7,5 2.6,5 2.6,5 2.5,5 2.5,5.1 2.4,5.3 2.4,5.6 2.6,5.9 
					2.8,5.8 3.2,5.8 3.6,5.8 3.9,5.8 3.9,5.4 3.9,5.1 4,4.6 4,4.1 4,3.7 4,3.3 4,3.2 3.9,3.2 3.7,3.1 3.6,3 3.6,3 3.6,3 3.6,2.9 
					3.6,2.9 3.7,2.9 3.7,2.9 3.7,2.9 4.1,2.7 4.3,2.6 4.3,2.5 4.3,2.4 4.4,2.4 4.6,2.3 4.7,2.3 4.7,2.3 4.7,2.2 4.7,2.1 4.8,2 
					5,1.9 5,1.9 5,1.8 5.1,1.7 5.1,1.6 5.2,1.5 5.3,1.4 6.2,1.2 6.3,1.2 6.4,1.1 6.2,1 5.9,0.6 5.7,0.5 5.6,0.4 5.6,0.2 5.5,0.1 
					5.4,0 5.4,0.1 5.3,0.1 5.2,0.1 5.2,0.1 5.1,0 5,0 4.9,0.1 4.9,0.2 4.8,0.3 4.8,0.3 4.7,0.4 4.6,0.4 4.6,0.5 4.5,0.7 4.4,0.7 
					4.4,0.8 3.9,0.8 3.6,0.9 3.5,0.9 3.4,0.9 3.3,1 3.4,1.2 3.3,1.3 3.2,1.6 3.1,1.7 3,1.7 2.9,1.7 2.8,1.7 2.8,1.8 2.7,1.8 
					2.7,1.7 2.6,1.6 2.6,1.6 2.5,1.6 2.5,1.6 2.4,2.1 2.3,2.3 1.8,2.7 1.8,2.7 				"/>
			</g>
		</g>
	</g>
</g>
</svg>
