<?xml version="1.0" encoding="UTF-8"?>
<svg width="307px" height="154px" viewBox="0 0 307 154" version="1.1" xmlns="http://www.w3.org/2000/svg" xmlns:xlink="http://www.w3.org/1999/xlink">
    <title>Asset 5</title>
    <g id="Page-1" stroke="none" stroke-width="1" fill="none" fill-rule="evenodd">
        <g id="Asset-5" transform="translate(0.000000, 2.760000)">
            <g id="Group">
                <g transform="translate(0.000000, 85.720000)" fill="#231F20" fill-rule="nonzero">
                    <polygon id="Path" points="0 2.82 6.5 2.82 6.5 62.48 0 62.48 0 64.43 22.75 64.43 22.75 62.48 16.25 62.48 16.25 2.82 22.75 2.82 22.75 0.87 0 0.87"></polygon>
                    <polygon id="Path" points="64.5 2.82 71.62 2.82 71.62 45.98 63.72 33.63 59.41 30.48 53.72 34.64 55.91 27.94 50.2 23.8 57.25 23.82 57.31 23.61 42.77 0.87 25.89 0.87 25.89 2.82 32.84 2.82 32.84 62.48 25.98 62.48 25.98 64.43 42.25 64.43 42.25 62.48 35.12 62.48 35.12 6.35 73.21 65.31 74.08 65.31 74.08 2.82 80.94 2.82 80.94 0.87 64.5 0.87"></polygon>
                    <path d="M149.42,37.77 C148.15,35.48 146.48,33.69 144.4,32.43 C142.32,31.16 140.06,30.08 137.6,29.16 C135.15,28.25 132.68,27.41 130.2,26.64 C127.72,25.87 125.44,24.99 123.36,23.99 C121.28,22.99 119.61,21.62 118.34,19.89 C117.07,18.16 116.43,16.02 116.43,13.49 C116.43,10.02 117.72,7.18 120.28,4.97 C122.85,2.76 125.92,1.66 129.5,1.66 C133.48,1.66 137.08,3.25 140.28,6.43 C143.48,9.61 145.09,13.55 145.09,18.26 L145.09,20.03 L147.08,20.03 L147.08,0.88 L145.26,0.88 L145.26,2.73 C145.26,4.5 144.71,5.38 143.61,5.38 C143.09,5.38 142.4,5.03 141.53,4.32 C137.83,1.44 133.85,0 129.58,0 C124.04,0 119.32,1.82 115.42,5.47 C111.52,9.12 109.58,13.47 109.58,18.54 C109.58,21.36 110.06,23.84 111.01,25.95 C111.96,28.07 113.22,29.72 114.78,30.89 C116.34,32.07 118.11,33.13 120.11,34.07 C122.1,35.01 124.14,35.76 126.21,36.32 C128.29,36.88 130.32,37.56 132.32,38.35 C134.31,39.14 136.09,40 137.65,40.91 C139.21,41.82 140.46,43.13 141.42,44.84 C142.37,46.55 142.85,48.55 142.85,50.84 C142.85,54.19 141.57,57.15 139,59.71 C136.43,62.27 133.13,63.55 129.08,63.55 C124.52,63.55 120.39,62.03 116.7,59.01 C113.01,55.98 111.16,52.05 111.16,47.23 L111.16,46.17 L109.25,46.17 L109.34,64.44 L111.24,64.44 L111.24,61.17 C111.24,59.58 111.67,58.79 112.54,58.79 C113,58.79 113.55,59.05 114.19,59.58 C115.58,60.64 116.72,61.48 117.61,62.1 C118.5,62.72 120.06,63.41 122.29,64.17 C124.51,64.94 126.84,65.32 129.26,65.32 C135.44,65.32 140.66,63.45 144.93,59.71 C149.2,55.97 151.34,51.43 151.34,46.07 C151.34,42.83 150.71,40.07 149.44,37.77 L149.42,37.77 Z" id="Path"></path>
                    <g transform="translate(81.890000, 3.460000)">
                        <polygon id="Path" points="6.49 59.02 1.42108547e-14 59.02 1.42108547e-14 60.97 22.74 60.97 22.74 59.02 16.24 59.02 16.24 8.43 6.49 8.43"></polygon>
                        <rect id="Rectangle" x="7.76" y="0" width="7.21" height="7.21"></rect>
                    </g>
                </g>
                <g transform="translate(52.710000, 0.000000)">
                    <circle id="Oval" stroke="#231F20" stroke-width="5.52" cx="40.34" cy="40.34" r="40.34"></circle>
                    <circle id="Oval" stroke="#FFFFFF" stroke-width="1.58" fill="#D3A841" fill-rule="nonzero" cx="40.34" cy="40.34" r="38.74"></circle>
                    <path d="M37.46,8.78 C54.18,6.71 69.42,18.58 71.5,35.31" id="Path" stroke="#FFFFFF" stroke-width="2.37" stroke-linecap="round" stroke-linejoin="round"></path>
                    <g transform="translate(13.510000, 10.370000)" fill="#FFFFFF" fill-rule="nonzero">
                        <path d="M0.45,54.57 L0.48,54.57 C0.48,54.57 0.52,54.58 0.52,54.58 L0.35,54.22 L0.31,54.09 L0.28,53.76 L0.28,53.58 C0.28,53.58 0.26,53.48 0.26,53.48 L0.22,53.41 L0.14,53.38 L0.07,53.41 L0.02,53.47 L0,53.54 L0,53.63 C0,53.63 0.29,54.38 0.29,54.38 L0.42,54.54 L0.45,54.56 L0.45,54.57 Z M53.63,30.81 L53.68,30.74 L53.82,30.63 L53.86,30.57 L53.86,30.52 C53.86,30.52 53.67,30.1 53.67,30.1 L53.65,29.99 L53.67,29.36 L53.58,29.36 C53.58,29.36 53.56,29.29 53.56,29.29 L53.58,29.12 L53.58,28.88 C53.58,28.88 53.59,28.8 53.59,28.8 L53.62,28.72 L53.6,28.66 L53.52,28.53 L53.49,28.46 L53.46,28.24 L53.38,28.28 L53.34,28.37 L53.32,28.47 L53.28,28.56 L53.24,28.6 L53.15,28.65 L53.11,28.68 L53.08,28.72 L53.05,28.82 L53.02,28.86 L52.87,28.91 L52.7,28.88 L52.52,28.82 L52.35,28.8 L52.18,28.8 C52.18,28.8 52.04,28.8 52.04,28.8 L51.67,28.7 L51.4,28.63 L51.23,28.63 C51.23,28.63 51.06,28.63 51.06,28.63 L50.88,28.68 L50.59,28.84 L50.11,29.1 L49.75,29.16 L49.31,29.23 L49.12,29.23 L48.95,29.21 L48.86,29.17 L48.7,29.06 L48.61,29.01 L48.51,29.01 C48.51,29.01 48.41,29.05 48.41,29.05 L48.32,29.12 L48.23,29.17 L48.07,29.2 L47.9,29.18 L47.73,29.13 L47.57,29.07 L47.24,28.94 L47.08,28.96 L46.94,29.31 L46.81,29.42 L46.37,29.57 L46.31,29.61 L46.12,29.81 L46.04,29.86 L45.93,29.86 C45.93,29.86 45.99,29.69 45.99,29.69 L46.01,29.51 L45.96,29.12 L45.93,29.04 L45.86,28.91 L45.86,28.83 C45.86,28.83 45.83,28.81 45.83,28.81 L45.77,28.76 L45.77,28.74 C45.77,28.74 45.76,28.57 45.76,28.57 L45.67,28.26 L45.63,28.19 L45.63,28.12 C45.63,28.12 45.7,28.02 45.7,28.02 L45.8,27.93 L45.88,27.87 L46.06,27.79 L46.17,27.76 L46.25,27.76 C46.25,27.76 46.29,27.71 46.29,27.71 L46.29,27.63 C46.29,27.63 46.29,27.46 46.29,27.46 L46.29,27.46 C46.29,27.46 46.31,27.42 46.31,27.42 L46.24,27.31 L46.24,27.16 C46.24,27.16 46.24,26.98 46.24,26.98 L46.22,26.79 L46.18,26.7 L46.13,26.64 L46.09,26.58 L46.09,26.49 C46.09,26.49 46.11,26.4 46.11,26.4 L46.21,26.24 L46.23,26.17 L46.23,26.13 C46.23,26.13 46.26,26.04 46.26,26.04 L46.26,25.99 C46.26,25.99 46.26,25.94 46.26,25.94 L46.2,25.86 L46.16,25.73 L46.06,25.55 L45.98,25.34 L45.87,25.14 L45.79,24.94 L45.82,24.8 L45.8,24.75 L45.76,24.57 L45.67,24.33 L45.64,24.18 L45.61,24.08 L45.55,24.01 L45.38,23.9 L45.31,23.84 L45.26,23.82 L45.23,23.85 L45.2,23.85 C45.2,23.85 45.16,23.83 45.16,23.83 L44.91,23.54 L44.86,23.42 L44.86,23.28 C44.86,23.28 44.82,23.29 44.82,23.29 L44.75,23.32 L44.72,23.32 C44.72,23.32 44.66,23.16 44.66,23.16 L44.38,22.87 L44.27,22.7 L44.23,22.52 L44.18,22.14 L44.13,21.96 L44.1,21.92 L44.03,21.83 L44.01,21.78 L44.01,21.73 C44.01,21.73 44.06,21.64 44.06,21.64 L44.09,21.49 L44.22,21.22 L44.27,21.04 L44.27,20.86 C44.27,20.86 44.22,20.42 44.22,20.42 L44.28,19.92 L44.28,19.69 C44.28,19.69 44.31,19.34 44.31,19.34 L44.35,19.24 L44.38,19.1 L44.41,19.07 L44.45,18.79 L44.5,18.47 L44.55,18.34 L44.63,18.2 L44.6,18.2 C44.6,18.2 44.58,18.19 44.58,18.19 L44.57,18.19 C44.57,18.19 44.55,18.17 44.55,18.17 L44.65,17.83 L44.67,17.64 L44.63,17.45 L44.52,17.28 L44.47,17.17 L44.49,17.12 L44.56,17.08 L44.52,17 L44.39,16.88 L44.35,16.8 L44.3,16.59 L44.3,16.4 C44.3,16.4 44.28,16.33 44.28,16.33 L44.25,16.27 L44.14,16.14 L44.09,16.06 L44.06,15.97 L44.06,15.86 C44.06,15.86 44.02,15.81 44.02,15.81 L43.88,15.73 L43.84,15.69 L43.82,15.61 L43.82,15.31 C43.82,15.31 43.82,15.27 43.82,15.27 L43.88,15.18 L43.88,15.13 C43.88,15.13 43.88,15.08 43.88,15.08 L43.85,14.97 L43.87,14.78 L43.89,14.71 L43.94,14.57 L43.97,14.47 L44.02,14.31 L44.07,14.16 L44.12,14.02 L44.12,13.94 C44.12,13.94 44.14,13.91 44.14,13.91 L44.2,13.85 L44.2,13.82 C44.2,13.82 44.21,13.66 44.21,13.66 L44.21,13.62 C44.21,13.62 44.18,13.6 44.18,13.6 L44.18,13.57 C44.18,13.57 44.18,13.52 44.18,13.52 L44.18,13.47 C44.18,13.47 44.23,13.38 44.23,13.38 L44.23,13.32 C44.23,13.32 44.23,13.29 44.23,13.29 L44.19,13.25 L44.19,13.22 C44.19,13.22 44.19,13.2 44.19,13.2 L44.21,13.16 L44.21,13.13 C44.21,13.13 44.21,13.08 44.21,13.08 L44.18,13.05 L44.15,13.02 L44.12,12.97 L44.12,12.95 C44.12,12.95 44.15,12.92 44.15,12.92 L44.15,12.88 C44.15,12.88 44.14,12.84 44.14,12.84 L44.12,12.81 L44.02,12.6 L43.99,12.57 L43.96,12.55 L43.93,12.55 C43.93,12.55 43.91,12.52 43.91,12.52 L43.91,12.5 C43.91,12.5 43.82,12.5 43.82,12.5 L43.67,12.5 C43.67,12.5 43.35,12.5 43.35,12.5 L43.03,12.5 C43.03,12.5 42.71,12.5 42.71,12.5 L42.39,12.5 C42.39,12.5 42.07,12.5 42.07,12.5 L41.75,12.5 C41.75,12.5 41.43,12.5 41.43,12.5 L41.11,12.5 C41.11,12.5 40.79,12.5 40.79,12.5 L40.47,12.5 C40.47,12.5 40.15,12.5 40.15,12.5 L39.83,12.5 C39.83,12.5 39.51,12.5 39.51,12.5 L39.19,12.5 C39.19,12.5 38.87,12.5 38.87,12.5 L38.55,12.5 C38.55,12.5 38.35,12.5 38.35,12.5 L38.35,12.29 C38.35,12.29 38.34,12.08 38.34,12.08 L38.37,11.88 L38.46,11.64 L38.53,11.46 L38.65,11.15 L38.75,10.89 L38.5,10.89 C38.5,10.89 38.12,10.89 38.12,10.89 L37.76,10.89 C37.76,10.89 37.53,10.89 37.53,10.89 L37.48,10.89 C37.48,10.89 37.44,10.93 37.44,10.93 L37.4,11 L37.38,11.06 L37.36,11.2 L37.36,11.26 L34.01,11.26 L34.09,11.43 L34.09,11.48 C34.09,11.48 34.07,11.55 34.07,11.55 L33.95,11.7 L33.9,11.78 L33.86,11.92 L33.81,12.62 L33.81,12.76 C33.81,12.76 33.86,12.91 33.86,12.91 L33.98,13.2 L33.98,13.33 C33.98,13.33 33.85,13.43 33.85,13.43 L33.85,13.43 C33.85,13.43 33.85,13.43 33.85,13.43 L33.85,13.43 C33.85,13.43 33.79,13.51 33.79,13.51 L33.75,13.68 L33.69,13.75 L33.61,13.77 L33.31,13.75 L33.31,13.86 C33.31,13.86 33.34,13.98 33.34,13.98 L33.39,14.1 L33.42,14.21 L33.42,14.32 C33.42,14.32 33.41,14.43 33.41,14.43 L33.32,14.7 L33.28,14.83 L33.22,15.03 L33.22,15.17 C33.22,15.17 33.22,15.28 33.22,15.28 L33.31,15.62 L30.78,15.62 L30.71,15.52 L30.68,15.47 L30.66,15.35 L30.62,15.33 L29.66,15.33 C29.66,15.33 29.61,15.37 29.61,15.37 L29.61,15.45 C29.61,15.45 29.62,15.61 29.62,15.61 L29.53,15.61 C29.53,15.61 29.5,15.61 29.5,15.61 L29.23,15.61 C29.23,15.61 29.16,15.62 29.16,15.62 L29.06,15.67 L28.99,15.69 L28.93,15.69 C28.93,15.69 28.77,15.62 28.77,15.62 L28.56,15.62 C28.56,15.62 28.23,15.6 28.23,15.6 L28.16,15.6 C28.16,15.6 27.98,15.69 27.98,15.69 L27.91,15.71 L27.83,15.76 L27.79,15.86 L27.79,15.98 C27.79,15.98 27.81,16.09 27.81,16.09 L27.42,16.09 C27.42,16.09 27.3,16.07 27.3,16.07 L27.08,15.88 L26.95,15.82 L26.8,15.8 L26.73,15.8 C26.73,15.8 26.46,15.96 26.46,15.96 L26.41,15.96 C26.41,15.96 26.26,15.91 26.26,15.91 L26.13,15.91 C26.13,15.91 25.76,16.03 25.76,16.03 L25.64,16.03 C25.64,16.03 25.4,15.97 25.4,15.97 L25.37,15.93 L25.33,15.86 L25.38,15.74 L25.36,15.67 L25.32,15.64 L25.22,15.59 L25.18,15.55 L25.16,15.51 L25.12,15.37 L25.1,15.39 L25.07,15.41 L25.07,15.43 C25.07,15.43 25.05,15.4 25.05,15.4 L25.04,15.4 C25.04,15.4 25.04,15.38 25.04,15.38 L25.06,15.35 L24.97,15.3 L24.93,15.27 L24.91,15.24 L24.93,15.18 L24.97,15.14 L24.99,15.1 L24.94,15.04 L24.88,15.06 L24.86,15.03 L24.86,14.97 C24.86,14.97 24.85,14.92 24.85,14.92 L24.81,14.92 C24.81,14.92 24.75,14.91 24.75,14.91 L24.72,14.91 C24.72,14.91 24.76,14.86 24.76,14.86 L24.76,14.83 L24.68,14.83 C24.68,14.83 24.66,14.79 24.66,14.79 L24.66,14.74 C24.66,14.74 24.66,14.7 24.66,14.7 L24.62,14.68 L24.52,14.68 C24.52,14.68 24.5,14.64 24.5,14.64 L24.48,14.6 L24.4,14.53 L24.38,14.47 L24.4,14.43 L24.43,14.39 L24.43,14.35 C24.43,14.35 24.36,14.32 24.36,14.32 L24.38,14.3 L24.38,14.3 C24.38,14.3 24.37,14.3 24.37,14.3 L24.37,14.27 C24.37,14.27 24.3,14.3 24.3,14.3 L24.3,14.23 C24.3,14.23 24.3,14.13 24.3,14.13 L24.28,14.06 L24.3,13.98 L24.21,13.92 L24,13.81 L23.94,13.72 L23.87,13.51 L23.81,13.41 L23.77,13.37 L23.73,13.34 L23.7,13.31 L23.7,13.27 C23.7,13.27 23.71,13.22 23.71,13.22 L23.76,13.2 L23.81,13.18 L23.83,13.15 L23.81,13.12 L23.77,13.1 L23.68,13.08 L23.64,13.06 L23.61,13.04 L23.58,13.04 C23.58,13.04 23.55,13.11 23.55,13.11 L23.49,13.07 L23.47,13.01 L23.47,12.86 C23.47,12.86 23.45,12.79 23.45,12.79 L23.4,12.75 L23.29,12.7 L23.14,12.6 L23.02,12.56 L23,12.51 L23,12.37 C23,12.37 22.92,12.27 22.92,12.27 L22.87,12.21 L22.83,12.18 L22.81,12.14 L22.81,11.91 C22.81,11.91 22.73,11.63 22.73,11.63 L22.73,11.52 C22.73,11.52 22.88,11.56 22.88,11.56 L22.88,11.46 C22.88,11.46 22.92,11.39 22.92,11.39 L22.94,11.32 L22.9,11.24 L22.88,11.21 L22.86,11.18 L22.83,11.15 L22.78,11.15 C22.78,11.15 22.74,11.12 22.74,11.12 L22.74,11.08 L22.76,11.04 L22.76,11.02 C22.76,11.02 22.74,10.77 22.74,10.77 L22.69,10.66 L22.58,10.59 L22.53,10.59 C22.53,10.59 22.43,10.57 22.43,10.57 L22.38,10.55 L22.33,10.5 L22.31,10.44 L22.31,10.38 C22.31,10.38 22.29,10.32 22.29,10.32 L22.05,9.99 L22.02,9.92 L22,9.84 L22,9.68 C22,9.68 21.97,9.6 21.97,9.6 L21.91,9.45 L21.91,9.38 C21.91,9.38 21.91,9.3 21.91,9.3 L21.96,9.21 L21.96,9.17 C21.96,9.17 21.92,9.12 21.92,9.12 L21.87,9.08 L21.84,9.04 L21.84,8.99 C21.84,8.99 21.87,8.93 21.87,8.93 L21.78,8.93 L21.78,8.88 L21.82,8.82 L21.85,8.76 L21.85,8.7 C21.85,8.7 21.82,8.7 21.82,8.7 L21.79,8.7 C21.79,8.7 21.76,8.69 21.76,8.69 L21.74,8.65 L21.74,8.63 C21.74,8.63 21.74,8.46 21.74,8.46 L21.76,8.42 L21.8,8.42 C21.8,8.42 21.84,8.4 21.84,8.4 L21.87,8.38 L21.87,8.34 C21.87,8.34 21.87,8.3 21.87,8.3 L21.87,8.26 C21.87,8.26 21.85,8.22 21.85,8.22 L21.85,7.9 C21.85,7.9 21.85,7.83 21.85,7.83 L21.88,7.78 L21.88,7.72 C21.88,7.72 21.85,7.65 21.85,7.65 L21.77,7.56 L21.75,7.5 L21.7,7.47 L21.64,7.45 L21.59,7.42 L21.52,7.32 L21.47,7.28 L21.38,7.28 C21.38,7.28 21.47,7.17 21.47,7.17 L21.45,7.13 L21.41,7.13 C21.41,7.13 21.37,7.16 21.37,7.16 L21.35,7.16 C21.35,7.16 21.34,7.11 21.34,7.11 L21.32,6.84 L21.32,6.8 C21.32,6.8 21.29,6.75 21.29,6.75 L21.25,6.7 L21.25,6.67 L21.31,6.6 L21.31,6.56 C21.31,6.56 21.16,6.48 21.16,6.48 L21.13,6.46 L20.97,6.39 L20.89,6.37 L20.81,6.37 C20.81,6.37 20.72,6.38 20.72,6.38 L20.58,6.42 L20.52,6.42 C20.52,6.42 20.45,6.42 20.45,6.42 L20.36,6.37 L20.29,6.32 L20.22,6.27 L20.11,6.25 L19.85,6.25 C19.85,6.25 19.45,6.26 19.45,6.26 L19.05,6.26 C19.05,6.26 18.65,6.27 18.65,6.27 L18.25,6.27 C18.25,6.27 17.85,6.28 17.85,6.28 L17.45,6.28 C17.45,6.28 17.05,6.29 17.05,6.29 L16.65,6.29 C16.65,6.29 16.25,6.3 16.25,6.3 L15.85,6.3 C15.85,6.3 15.45,6.31 15.45,6.31 L15.05,6.31 C15.05,6.31 14.65,6.32 14.65,6.32 L14.25,6.32 C14.25,6.32 13.85,6.33 13.85,6.33 L13.45,6.33 C13.45,6.33 13.05,6.34 13.05,6.34 L12.5,6.44 L12.37,6.44 C12.37,6.44 12.09,6.36 12.09,6.36 L11.89,6.39 L11.5,6.39 C11.5,6.39 11.05,6.37 11.05,6.37 L10.97,6.37 C10.97,6.37 10.71,6.27 10.71,6.27 L10.61,6.27 C10.61,6.27 10.09,6.3 10.09,6.3 L10.03,6.28 L9.93,6.22 L9.76,6.17 L9.17,6.22 L8.45,6.28 L8.11,6.24 L8.07,6.24 C8.07,6.24 7.99,6.28 7.99,6.28 L7.94,6.28 C7.94,6.28 7.81,6.24 7.81,6.24 L7.46,6.24 C7.46,6.24 7.32,6.24 7.32,6.24 L7.29,6.26 L7.2,6.35 L7.15,6.38 L7.01,6.31 L6.83,6.26 L6.46,6.23 L6.4,6.25 L6.22,6.34 L6.14,6.37 L6.09,6.37 C6.09,6.37 5.9,6.32 5.9,6.32 L5.86,6.32 C5.86,6.32 5.74,6.34 5.74,6.34 L5.66,6.34 C5.66,6.34 5.59,6.34 5.59,6.34 L5.52,6.34 C5.52,6.34 5.45,6.39 5.45,6.39 L5.41,6.44 L5.35,6.57 L5.3,6.63 L5.24,6.68 L4.88,6.86 L4.81,6.88 L4.53,6.9 L4.47,6.93 L4.4,6.91 L4.33,6.88 L4.27,6.86 L4.22,6.88 L4.12,6.98 L4.06,7 L3.77,7 C3.77,7 3.74,7.02 3.74,7.02 L3.69,7.07 L3.67,7.07 C3.67,7.07 3.6,7.05 3.6,7.05 L3.56,7.05 C3.56,7.05 3.15,7.16 3.15,7.16 L2.92,7.18 L2.8,7.22 L2.73,7.22 C2.73,7.22 2.67,7.25 2.67,7.25 L2.56,7.33 L2.49,7.35 L2.49,7.32 L2.57,7.3 L2.57,7.26 C2.57,7.26 2.46,7.17 2.46,7.17 L2.52,7.17 C2.52,7.17 2.57,7.14 2.57,7.14 L2.62,7.11 L2.67,7.07 L2.51,7.07 C2.51,7.07 2.41,7.16 2.41,7.16 L2.39,7.28 L2.47,7.41 L2.81,7.81 L2.84,7.87 L2.89,8.07 L3,8.28 L3.05,8.48 L3.29,8.84 L3.66,9.57 L4,9.88 L4.37,10.36 L4.68,10.8 L4.77,10.84 L4.9,10.76 L4.92,10.79 L4.92,10.81 C4.92,10.81 4.9,10.82 4.9,10.82 L4.9,10.86 C4.9,10.86 4.88,10.88 4.88,10.88 L4.85,10.91 L4.85,10.93 C4.85,10.93 4.85,10.95 4.85,10.95 L4.85,10.97 C4.85,10.97 4.87,10.99 4.87,10.99 L4.87,11.06 C4.87,11.06 4.92,11.19 4.92,11.19 L4.98,12.06 L5.01,12.19 L5.06,12.31 L5.1,12.37 L5.2,12.48 L5.24,12.54 L5.62,13.57 L6.18,14.9 L6.47,15.42 L6.51,15.62 L6.59,15.78 L6.62,15.83 L6.67,15.95 L6.7,16 L6.74,16.08 L6.8,16.28 L6.85,16.32 L7.25,16.95 L7.29,17.05 L7.31,17.14 L7.31,17.47 C7.31,17.47 7.29,17.51 7.29,17.51 L7.26,17.56 L7.23,17.56 C7.23,17.56 7.19,17.56 7.19,17.56 L7.13,17.56 C7.13,17.56 7.17,17.71 7.17,17.71 L7.23,18 L7.28,18.13 L7.41,18.31 L7.43,18.37 L7.43,18.44 C7.43,18.44 7.35,18.6 7.35,18.6 L7.29,18.82 L7.19,18.86 L6.92,18.82 L6.89,18.82 C6.89,18.82 6.87,18.84 6.87,18.84 L6.87,18.86 C6.87,18.86 6.86,18.89 6.86,18.89 L6.86,18.94 C6.86,18.94 6.82,18.96 6.82,18.96 L6.78,18.96 C6.78,18.96 6.7,19.02 6.7,19.02 L6.56,19.08 L6.5,19.12 L6.55,19.04 L6.76,18.82 L6.68,18.85 L6.6,18.91 L6.47,19.05 L6.45,19.09 L6.45,19.19 C6.45,19.19 6.45,19.24 6.45,19.24 L6.43,19.29 L6.32,19.41 L6.27,19.5 L6.22,19.64 L6.16,19.7 L6.11,19.7 C6.11,19.7 6.05,19.7 6.05,19.7 L6,19.7 C6,19.7 5.98,19.76 5.98,19.76 L5.98,19.8 C5.98,19.8 5.73,20.21 5.73,20.21 L5.68,20.25 L5.62,20.2 L5.65,20.08 L5.81,19.72 L6.12,19.46 L6.21,19.32 L5.99,19.41 L5.75,19.7 L5.58,20.04 L5.6,20.28 L5.69,20.41 L5.81,20.7 L6.14,21.24 L6.24,21.32 L6.26,21.42 L6.34,21.57 L6.36,21.64 L6.36,21.84 C6.36,21.84 6.36,21.92 6.36,21.92 L6.5,22.32 L6.5,22.37 C6.5,22.37 6.53,22.4 6.53,22.4 L6.57,22.47 L6.6,22.56 L6.6,22.63 C6.6,22.63 6.58,22.71 6.58,22.71 L6.48,22.81 L6.46,22.88 L6.49,22.96 L6.83,23.37 L6.95,23.55 L7.05,23.74 L7.09,23.92 L7.06,24.01 L7.02,24.07 L7.02,24.13 C7.02,24.13 7.27,24.54 7.27,24.54 L7.44,24.71 L7.51,24.8 L7.56,25.01 L7.61,25.11 L7.84,25.44 L7.88,25.53 L7.88,25.63 C7.88,25.63 7.9,25.93 7.9,25.93 L7.92,26.01 L7.98,26.1 L8.26,26.33 L8.67,26.82 L8.69,26.87 L8.72,26.91 L8.9,27.06 L8.95,27.13 L8.98,27.2 L8.98,27.27 C8.98,27.27 8.84,27.43 8.84,27.43 L8.8,27.5 L8.8,27.57 C8.8,27.57 8.84,27.65 8.84,27.65 L9.23,28.22 L9.29,28.36 L9.31,28.52 L9.31,28.84 C9.31,28.84 9.31,29.1 9.31,29.1 L9.2,29.73 L9.2,29.9 C9.2,29.9 9.11,30.01 9.11,30.01 L9.09,30.06 L9.09,30.1 C9.09,30.1 9.09,30.34 9.09,30.34 L9.09,30.39 C9.09,30.39 9.06,30.44 9.06,30.44 L9.06,30.49 C9.06,30.49 9.09,30.53 9.09,30.53 L9.05,30.61 L9.03,30.71 L9.01,31.19 L9.08,31.99 L9.08,32.08 C9.08,32.08 9.03,32.21 9.03,32.21 L8.96,32.65 L8.93,32.75 L8.89,32.83 L8.84,32.9 L8.78,32.97 L8.75,33.04 L8.71,33.35 L8.66,33.49 L8.53,33.75 L8.43,34.1 L8.39,34.17 L8.25,34.33 L8.16,34.47 L8.09,34.54 L8.07,34.5 L8.07,34.46 C8.07,34.46 8.1,34.43 8.1,34.43 L8.15,34.41 L8.15,34.38 L8.12,34.38 L7.85,34.65 L7.77,34.78 L7.74,34.86 L7.72,34.94 L7.72,35.12 C7.72,35.12 7.69,35.19 7.69,35.19 L7.65,35.24 L7.55,35.31 L7.36,35.52 L7.23,35.62 L7.08,35.65 L7.01,35.63 L6.93,35.57 L6.86,35.57 C6.86,35.57 6.8,35.57 6.8,35.57 L6.66,35.7 L6.61,35.67 L6.51,35.65 L6.51,35.63 C6.51,35.63 6.42,35.64 6.42,35.64 L6.35,35.68 L6.22,35.79 L6.19,35.82 L6.11,35.95 L6.07,35.98 L5.96,36.04 L5.68,36.31 L5.58,36.37 L5.38,36.58 L5.33,36.69 L5.36,36.83 L5.42,36.96 L5.46,37.08 L5.46,37.2 C5.46,37.2 5.4,37.32 5.4,37.32 L5.13,37.63 L5.05,37.75 L5.01,37.8 L4.89,37.89 L4.6,38.26 L4.55,38.3 L4.47,38.33 L4.47,38.33 C4.47,38.33 4.39,38.39 4.39,38.39 L4.37,38.39 C4.37,38.39 4.34,38.37 4.34,38.37 L4.32,38.37 C4.32,38.37 4.31,38.42 4.31,38.42 L4.28,38.47 L4.16,38.54 L4.13,38.61 L4.13,38.64 C4.13,38.64 4.08,38.68 4.08,38.68 L4.08,38.71 C4.08,38.71 4.08,38.74 4.08,38.74 L4.08,38.77 C4.08,38.77 4.1,38.8 4.1,38.8 L4.1,38.84 C4.1,38.84 4.06,38.92 4.06,38.92 L4.01,38.95 L3.95,38.95 C3.95,38.95 3.88,39 3.88,39 L3.82,39.07 L3.8,39.12 L3.77,39.15 L3.68,39.15 C3.68,39.15 3.62,39.18 3.62,39.18 L3.57,39.23 L3.54,39.3 L3.54,39.37 C3.54,39.37 3.54,39.44 3.54,39.44 L3.58,39.58 L3.58,39.65 C3.58,39.65 3.58,39.79 3.58,39.79 L3.58,39.81 C3.58,39.81 3.56,39.83 3.56,39.83 L3.56,39.86 C3.56,39.86 3.61,39.92 3.61,39.92 L3.59,39.98 L3.53,40.1 L3.53,40.15 C3.53,40.15 3.53,40.59 3.53,40.59 L3.5,41.05 L3.47,41.21 L3.4,41.31 L3.37,41.31 C3.37,41.31 3.34,41.3 3.34,41.3 L3.28,41.25 L3.25,41.25 C3.25,41.25 3.23,41.26 3.23,41.26 L3.21,41.28 L3.11,41.31 L3.07,41.36 L3.07,41.43 C3.07,41.43 3.05,41.59 3.05,41.59 L3.05,41.63 C3.05,41.63 2.96,41.74 2.96,41.74 L2.94,41.81 L2.94,41.88 C2.94,41.88 2.91,41.94 2.91,41.94 L2.82,42.04 L2.8,42.13 L2.73,42.24 L2.76,42.3 L2.81,42.36 L2.84,42.42 L2.84,42.46 C2.84,42.46 2.84,42.5 2.84,42.5 L2.84,42.54 C2.84,42.54 2.81,42.57 2.81,42.57 L2.79,42.57 C2.79,42.57 2.74,42.59 2.74,42.59 L2.7,42.61 L2.68,42.61 C2.68,42.61 2.66,42.6 2.66,42.6 L2.66,42.63 C2.66,42.63 2.66,42.65 2.66,42.65 L2.68,42.69 L2.68,42.71 C2.68,42.71 2.69,42.76 2.69,42.76 L2.69,42.79 C2.69,42.79 2.73,42.86 2.73,42.86 L2.78,43.01 L2.78,43.16 C2.78,43.16 2.78,43.45 2.78,43.45 L2.73,43.75 L2.68,43.91 L2.61,44.02 L2.59,44.08 L2.56,44.44 L2.49,44.77 L2.46,44.87 L2.46,44.92 C2.46,44.92 2.46,45 2.46,45 L2.48,45.08 L2.48,45.16 C2.48,45.16 2.4,45.3 2.4,45.3 L2.36,45.42 L2.32,45.48 L2.29,45.48 C2.29,45.48 2.26,45.48 2.26,45.48 L2.23,45.48 L2.2,45.52 L2.2,45.55 C2.2,45.55 2.19,45.61 2.19,45.61 L2.15,45.86 L2.13,45.92 L2.09,45.97 L2.04,46.02 L2,46.07 L1.98,46.13 L1.96,46.29 L1.85,46.56 L1.81,46.7 L1.81,46.8 C1.81,46.8 1.82,46.8 1.82,46.8 L1.87,46.8 C1.87,46.8 1.93,46.82 1.93,46.82 L1.96,46.88 L1.96,46.96 C1.96,46.96 1.94,47.04 1.94,47.04 L1.9,47.09 L1.86,47.09 L1.79,47.05 L1.76,47.05 C1.76,47.05 1.61,47.2 1.61,47.2 L1.57,47.26 L1.55,47.33 L1.51,47.86 L1.45,48.11 L1.45,48.24 C1.45,48.24 1.48,48.36 1.48,48.36 L1.43,48.48 L1.34,48.82 L1.34,48.95 C1.34,48.95 1.27,49.05 1.27,49.05 L1,49.21 L0.91,49.32 L0.91,49.38 C0.91,49.38 0.89,49.51 0.89,49.51 L0.89,49.57 C0.89,49.57 0.84,49.64 0.84,49.64 L0.62,49.85 L0.56,49.87 L0.51,49.85 L0.49,49.77 L0.45,49.74 L0.36,49.77 L0.27,49.83 L0.22,49.87 L0.15,50.13 L0.27,50.36 L0.43,50.59 L0.46,50.85 L0.36,51.05 L0.34,51.12 L0.34,51.21 C0.34,51.21 0.52,52.91 0.52,52.91 L0.48,53.38 L0.52,53.81 L0.5,53.93 L0.5,54.28 C0.5,54.28 0.44,54.45 0.44,54.45 L0.3,54.42 L0.34,54.81 L0.34,54.94 C0.34,54.94 0.25,55.41 0.25,55.41 L0.25,56.01 C0.25,56.01 0.22,56.18 0.22,56.18 L0.22,56.24 C0.22,56.24 0.22,56.3 0.22,56.3 L0.24,56.34 L0.28,56.37 L0.28,56.4 L0.34,56.4 C0.34,56.4 0.42,56.45 0.42,56.45 L0.47,56.45 C0.47,56.45 0.53,56.45 0.53,56.45 L0.55,56.43 L0.55,56.4 C0.55,56.4 0.59,56.36 0.59,56.36 L0.67,56.31 L0.85,56.22 L1.05,56.07 L1.23,55.99 L1.43,55.93 L1.63,55.9 L1.66,55.9 C1.66,55.9 1.69,55.88 1.69,55.88 L1.72,55.88 C1.72,55.88 1.76,55.91 1.76,55.91 L1.91,55.96 L1.96,55.96 C1.96,55.96 1.98,55.93 1.98,55.93 L2,55.93 C2,55.93 2.04,55.93 2.04,55.93 L2.07,55.95 L2.07,55.98 C2.07,55.98 2.09,56.02 2.09,56.02 L2.11,56.06 L2.13,56.08 L2.17,56.11 L2.22,56.14 L2.27,56.14 C2.27,56.14 2.31,56.17 2.31,56.17 L2.33,56.21 L2.33,56.25 C2.33,56.25 2.36,56.27 2.36,56.27 L2.67,56.24 L2.95,56.24 C2.95,56.24 3.01,56.23 3.01,56.23 L3.07,56.18 L3.11,56.18 C3.11,56.18 3.21,56.24 3.21,56.24 L3.29,56.27 L3.54,56.29 L3.69,56.32 L3.74,56.32 C3.74,56.32 3.85,56.26 3.85,56.26 L4.04,56.09 L4.15,56.05 L4.26,56.03 L4.34,55.99 L4.49,55.86 L4.68,55.77 L4.83,55.72 L4.86,55.68 L4.9,55.61 L4.94,55.58 L4.97,55.58 C4.97,55.58 5.05,55.54 5.05,55.54 L5.09,55.51 L5.11,55.47 L5.11,55.42 C5.11,55.42 5.14,55.38 5.14,55.38 L5.24,55.35 L5.32,55.31 L5.45,55.28 L5.68,55.15 L6.15,55.07 L6.25,55.04 L6.35,55.04 C6.35,55.04 6.43,55.09 6.43,55.09 L6.49,55.06 L6.52,55.08 L6.55,55.12 L6.6,55.14 L6.7,55.16 L6.75,55.16 C6.75,55.16 6.79,55.14 6.79,55.14 L6.79,55.17 L6.9,55.12 L6.97,55.1 L7,55.12 L7.03,55.12 C7.03,55.12 7.21,55.07 7.21,55.07 L7.29,55.1 L7.44,55.21 L7.52,55.23 L7.62,55.23 C7.62,55.23 7.71,55.28 7.71,55.28 L7.77,55.34 L7.83,55.52 L7.89,55.58 L7.93,55.65 L7.89,55.78 L8.26,55.99 L8.64,56.3 L9.06,56.53 L9.47,56.76 L9.52,56.81 L9.72,57.08 L9.78,57.13 L9.88,57.15 L9.93,57.15 C9.93,57.15 10,57.09 10,57.09 L10.04,57.09 C10.04,57.09 10.09,57.09 10.09,57.09 L10.17,57.11 L10.26,57.11 C10.26,57.11 10.33,57.15 10.33,57.15 L10.38,57.15 L10.43,57.13 L10.5,57.09 L10.53,57.09 C10.53,57.09 10.72,57.11 10.72,57.11 L10.82,57.09 L10.86,57 L10.86,56.98 L13.44,56.98 C13.44,56.98 16.78,56.98 16.78,56.98 L17.89,56.98 C17.89,56.98 25.69,56.98 25.69,56.98 L26.8,56.98 C26.8,56.98 29.26,56.98 29.26,56.98 L29.29,56.98 C29.29,56.98 29.29,57.01 29.29,57.01 L29.31,57.05 L29.34,57.07 L29.37,57.09 L29.44,57.26 L29.44,57.31 C29.44,57.31 29.46,57.31 29.46,57.31 L29.56,57.34 L29.71,57.63 L29.71,57.68 C29.71,57.68 29.78,57.71 29.78,57.71 L30.01,57.9 L30.01,57.93 C30.01,57.93 30.05,58.01 30.05,58.01 L30.07,58.05 L30.11,58.09 L30.19,58.13 L30.23,58.16 L30.48,58.42 L30.57,58.54 L30.63,58.59 L30.8,58.63 L31.19,58.82 L31.76,58.92 L32.13,58.9 L32.28,58.84 L32.37,58.82 L32.42,58.82 C32.42,58.82 32.55,58.85 32.55,58.85 L32.74,58.83 L32.81,58.88 L33.5,59.09 L34.25,59.09 C34.25,59.09 34.5,59.02 34.5,59.02 L34.6,59.02 C34.6,59.02 34.69,59.03 34.69,59.03 L34.73,59.11 L34.77,59.14 L34.86,59.18 L34.96,59.21 L35.03,59.21 C35.03,59.21 35.05,59.19 35.05,59.19 L35.1,59.11 L35.13,59.09 L35.82,59.09 L35.98,59.18 L36.13,59.23 L36.17,59.23 C36.17,59.23 36.42,59.21 36.42,59.21 L36.54,59.21 C36.54,59.21 36.6,59.21 36.6,59.21 L36.66,59.18 L36.69,59.22 L36.75,59.16 L36.85,59.13 L36.97,59.13 C36.97,59.13 37.07,59.18 37.07,59.18 L37.22,59.05 L37.27,59.08 L37.33,59.08 C37.33,59.08 37.48,59.05 37.48,59.05 L37.53,59.07 L37.7,59.21 L37.81,59.18 L37.92,59.23 L38.02,59.32 L38.1,59.41 L38.14,59.45 L38.29,59.52 L38.42,59.61 L38.48,59.64 L38.59,59.61 L38.76,59.61 C38.76,59.61 38.92,59.61 38.92,59.61 L38.99,59.65 L39.02,59.69 L39.09,59.72 L39.16,59.72 C39.16,59.72 39.19,59.72 39.19,59.72 L39.22,59.68 L39.29,59.7 L39.42,59.77 L39.51,59.86 L39.62,59.86 C39.62,59.86 39.75,59.8 39.75,59.8 L39.89,59.77 L39.95,59.65 L40.35,59.54 L40.75,59.43 L40.82,59.46 L40.89,59.44 L40.96,59.41 L41.04,59.41 C41.04,59.41 41.1,59.41 41.1,59.41 L41.28,59.41 C41.28,59.41 41.35,59.41 41.35,59.41 L41.55,59.52 L41.8,59.61 L41.93,59.67 L42,59.76 L42.02,59.76 C42.02,59.76 42.1,59.75 42.1,59.75 L42.41,59.69 L43.5,59.48 L44.59,59.27 L45.68,59.06 L46.77,58.85 L47.66,58.68 L48.55,58.51 L49.44,58.33 L50.33,58.16 L50.69,58.09 L50.67,58.03 L50.67,57.97 C50.67,57.97 50.7,57.9 50.7,57.9 L50.6,57.82 L50.52,57.72 L50.43,57.66 L50.37,57.63 L50.31,57.61 L50.17,57.61 C50.17,57.61 50.09,57.61 50.09,57.61 L50.02,57.63 L49.95,57.63 C49.95,57.63 49.87,57.62 49.87,57.62 L49.82,57.56 L49.82,57.5 C49.82,57.5 49.82,57.43 49.82,57.43 L49.82,57.36 C49.82,57.36 49.76,57.31 49.76,57.31 L49.57,57.24 L49.47,57.16 L49.36,57.04 L49.28,56.9 L49.25,56.78 L49.22,56.73 L49.04,56.54 L48.98,56.5 L48.77,56.44 L48.51,56.33 L48.39,56.25 L48.22,56.09 L48.09,56.02 L48.03,55.97 L47.99,55.9 L47.94,55.69 L47.88,55.57 L47.79,55.45 L47.6,55.24 L47.54,55.19 L47.28,55.09 L47.22,55.09 L47.2,55.07 L47.18,55.03 L47.18,54.91 C47.18,54.91 47.12,54.85 47.12,54.85 L46.98,54.81 L46.92,54.77 L46.88,54.71 L46.83,54.58 L46.52,54.08 L46.49,54.04 L46.45,54.02 L46.38,54.02 C46.38,54.02 46.36,53.99 46.36,53.99 L46.34,53.96 L46.31,53.91 L46.24,53.82 L46.21,53.76 L46.17,53.72 L46.05,53.7 L46.03,53.7 C46.03,53.7 46,53.66 46,53.66 L45.98,53.66 C45.98,53.66 45.96,53.66 45.96,53.66 L45.94,53.66 C45.94,53.66 45.9,53.68 45.9,53.68 L45.83,53.7 L45.8,53.7 C45.8,53.7 45.74,53.68 45.74,53.68 L45.37,53.38 L45.34,53.32 L45.34,53.24 C45.34,53.24 45.31,53.18 45.31,53.18 L45.26,53.15 L45.18,53.15 C45.18,53.15 45.16,53.11 45.16,53.11 L45.16,53.06 C45.16,53.06 45.17,53 45.17,53 L45.15,52.94 L45.07,52.82 L45.05,52.76 L45.05,52.68 C45.05,52.68 45.08,52.6 45.08,52.6 L45.12,52.52 L45.16,52.46 L45.16,52.4 C45.16,52.4 45.1,52.37 45.1,52.37 L44.96,52.34 L44.96,52.31 C44.96,52.31 44.95,52.21 44.95,52.21 L44.95,52.17 C44.95,52.17 44.93,52.15 44.93,52.15 L44.88,52.1 L44.86,52.07 L44.84,52 L44.84,51.94 C44.84,51.94 44.82,51.88 44.82,51.88 L44.77,51.82 L44.81,51.82 C44.81,51.82 44.92,51.82 44.92,51.82 L44.77,51.58 L44.66,51.43 L44.66,51.33 C44.66,51.33 44.65,50.7 44.65,50.7 L44.65,50.7 C44.65,50.7 44.65,50.48 44.65,50.48 L44.65,49.56 C44.65,49.56 44.65,49.1 44.65,49.1 L44.65,46.69 C44.65,46.69 44.65,44.67 44.65,44.67 L44.65,44 C44.65,44 44.65,42.66 44.65,42.66 L44.65,41.99 C44.65,41.99 44.65,39.98 44.65,39.98 L44.65,39.31 C44.65,39.31 44.65,37.97 44.65,37.97 L44.65,37.3 C44.65,37.3 53.42,37.3 53.42,37.3 L53.37,37.14 L53.3,37 L53.2,36.87 L52.96,36.63 L52.87,36.51 L52.83,36.37 L52.86,36.2 L52.94,36 L53.02,35.67 L53.1,35.36 L53.15,35.23 L53.35,34.94 L53.5,34.73 L53.54,34.66 L53.54,34.58 C53.54,34.58 53.51,34.38 53.51,34.38 L53.49,34.11 L53.45,34 L53.34,33.89 L53.25,33.75 L53.23,33.55 L53.26,32.93 L53.29,32.36 L53.38,32.15 L53.38,32.11 C53.38,32.11 53.37,32 53.37,32 L53.35,31.67 L53.31,31.56 L53.27,31.48 L53.24,31.39 L53.24,31.28 L53.26,31.19 L53.34,31.01 L53.46,30.82 L53.48,30.77 L53.48,30.59 C53.48,30.59 53.48,30.53 53.48,30.53 L53.48,30.48 L53.63,30.81 Z" id="Shape"></path>
                        <polygon id="Path" points="1.67 2.68 1.73 2.69 1.77 2.73 1.8 2.7 1.87 2.6 1.89 2.58 1.95 2.58 1.98 2.61 1.99 2.65 1.98 2.7 1.96 2.72 1.89 2.8 1.86 2.82 1.81 2.83 1.78 2.82 1.75 2.8 1.71 2.79 1.62 2.78 1.58 2.79 1.58 2.84 1.76 3.17 1.97 3.46 2.21 3.94 2.31 4.21 2.35 4.41 2.41 4.51 2.47 4.66 2.49 4.72 2.49 4.85 2.47 4.91 2.43 4.95 2.37 4.98 2.32 4.98 2.27 4.99 2.22 5.04 2.12 5.32 2.18 5.59 2.39 5.95 2.6 5.83 2.97 5.78 3.37 5.78 3.69 5.78 3.7 5.38 3.71 5.1 3.73 4.56 3.75 4.04 3.77 3.68 3.78 3.34 3.75 3.2 3.7 3.16 3.43 3.07 3.41 3.04 3.39 3 3.38 2.96 3.38 2.92 3.41 2.88 3.43 2.87 3.47 2.87 3.5 2.87 3.87 2.74 4.03 2.64 4.1 2.48 4.11 2.39 4.15 2.36 4.32 2.35 4.42 2.31 4.46 2.26 4.47 2.19 4.5 2.1 4.57 2.05 4.76 1.93 4.8 1.88 4.81 1.78 4.84 1.68 4.89 1.59 4.96 1.51 5.09 1.44 5.95 1.24 6.1 1.18 6.14 1.06 5.94 0.96 5.65 0.62 5.48 0.48 5.39 0.39 5.32 0.18 5.25 0.09 5.19 0.05 5.13 0.06 5.08 0.08 5.01 0.1 4.95 0.08 4.84 0.02 4.78 1.77635684e-15 4.68 0.06 4.63 0.16 4.6 0.27 4.54 0.34 4.46 0.38 4.39 0.44 4.33 0.51 4.23 0.68 4.18 0.73 4.12 0.76 3.64 0.84 3.34 0.94 3.27 0.94 3.16 0.93 3.12 0.99 3.12 1.18 3.1 1.27 2.92 1.62 2.87 1.68 2.81 1.7 2.66 1.72 2.6 1.73 2.54 1.76 2.5 1.79 2.44 1.69 2.4 1.64 2.36 1.61 2.31 1.61 2.29 1.63 2.16 2.08 2.04 2.26 1.53 2.7 1.61 2.69"></polygon>
                    </g>
                    <g transform="translate(13.255000, 10.370000)" fill="#000000" fill-rule="nonzero">
                        <path d="M35.985,29.96 L23.685,42.26 C25.415,42.72 27.495,42.93 29.975,42.83 L36.555,36.25 C36.655,33.77 36.445,31.69 35.985,29.96 L35.985,29.96 Z" id="Path"></path>
                        <path d="M20.805,21.94 L15.665,27.08 C15.495,28.32 15.385,29.7 15.435,31.11 L24.835,21.71 C23.425,21.66 22.045,21.77 20.805,21.94 Z" id="Path"></path>
                        <path d="M35.075,27.51 C34.565,26.48 33.945,25.62 33.245,24.91 L18.825,39.33 C18.755,39.4 18.675,39.43 18.605,39.48 C19.345,40.21 20.235,40.86 21.315,41.39 C21.375,41.28 21.435,41.17 21.525,41.07 L35.085,27.51 L35.075,27.51 Z" id="Path"></path>
                        <path d="M27.295,21.97 C27.255,22.05 27.205,22.13 27.145,22.2 L15.705,33.64 C15.955,34.98 16.385,36.29 17.075,37.49 L31.215,23.35 C29.995,22.65 28.665,22.21 27.305,21.97 L27.295,21.97 Z" id="Path"></path>
                        <polygon id="Path" points="0.685 54.63 0.715 54.64 0.755 54.64 0.585 54.28 0.545 54.14 0.515 53.82 0.515 53.63 0.495 53.54 0.455 53.46 0.375 53.44 0.315 53.47 0.265 53.53 0.245 53.6 0.255 53.69 0.535 54.45 0.655 54.61"></polygon>
                        <polygon id="Path" points="40.365 60.13 40.425 60.01 40.835 59.9 41.235 59.79 41.305 59.82 41.375 59.8 41.445 59.77 41.525 59.75 41.595 59.77 41.765 59.75 41.835 59.77 42.035 59.88 42.285 59.97 42.415 60.03 42.485 60.13 42.505 60.14 42.585 60.11 42.905 60.05 43.995 59.84 45.085 59.63 46.175 59.42 47.265 59.21 48.155 59.04 49.045 58.86 49.925 58.69 50.815 58.51 51.175 58.44 51.155 58.38 51.145 58.32 51.185 58.26 51.085 58.18 51.005 58.08 50.915 58.01 50.845 57.98 50.785 57.96 50.645 57.95 50.565 57.96 50.495 57.98 50.415 57.99 50.345 57.97 50.295 57.91 50.285 57.85 50.295 57.78 50.285 57.7 50.235 57.65 50.045 57.58 49.945 57.49 49.835 57.37 49.755 57.24 49.725 57.12 49.695 57.06 49.515 56.87 49.455 56.83 49.245 56.77 48.985 56.66 48.865 56.58 48.695 56.43 48.555 56.36 48.495 56.31 48.455 56.24 48.415 56.03 48.345 55.91 48.265 55.79 48.065 55.58 48.005 55.53 47.745 55.43 47.695 55.43 47.665 55.41 47.645 55.37 47.645 55.29 47.635 55.26 47.585 55.2 47.445 55.15 47.385 55.12 47.345 55.06 47.295 54.93 46.985 54.43 46.955 54.39 46.905 54.37 46.845 54.35 46.815 54.34 46.795 54.32 46.765 54.26 46.695 54.17 46.665 54.11 46.625 54.07 46.505 54.05 46.495 54.04 46.455 54 46.435 53.99 46.425 54 46.405 54.01 46.365 54.02 40.235 60.15"></polygon>
                        <path d="M16.575,22.85 C16.405,23.42 16.185,24.24 15.985,25.24 L18.975,22.25 C17.975,22.46 17.145,22.68 16.585,22.84 L16.575,22.85 Z" id="Path"></path>
                        <polygon id="Path" points="12.905 6.56 12.775 6.55 12.495 6.48 12.295 6.52 11.905 6.51 11.455 6.5 11.365 6.49 11.105 6.4 11.005 6.39 10.495 6.43 10.425 6.4 10.325 6.34 10.155 6.29 9.565 6.34 8.845 6.4 8.495 6.36 8.455 6.37 8.375 6.4 8.325 6.4 8.195 6.36 7.855 6.36 7.705 6.36 7.675 6.37 7.585 6.47 7.545 6.5 7.405 6.43 7.225 6.39 6.855 6.36 6.795 6.38 6.615 6.47 6.545 6.5 6.495 6.51 6.305 6.46 6.265 6.45 6.145 6.47 6.065 6.48 5.995 6.47 5.925 6.48 5.855 6.52 5.815 6.57 5.755 6.7 5.715 6.76 5.655 6.8 5.295 6.99 5.225 7.01 4.935 7.02 4.875 7.05 4.795 7.03 4.725 7 4.665 6.98 4.615 7 4.515 7.11 4.455 7.13 4.205 7.13 4.175 7.14 4.145 7.15 4.105 7.2 4.085 7.21 4.005 7.19 3.975 7.19 3.565 7.3 3.325 7.32 3.205 7.36 3.135 7.37 3.075 7.39 2.965 7.47 2.895 7.48 2.895 7.46 2.975 7.43 2.975 7.4 2.865 7.31 2.925 7.3 2.975 7.28 3.025 7.26 3.075 7.22 2.915 7.23 2.815 7.31 2.805 7.43 2.885 7.56 3.225 7.96 3.255 8.03 3.315 8.23 3.415 8.44 3.465 8.64 3.695 9 4.065 9.73 4.415 10.04 4.785 10.52 5.095 10.95 5.185 10.99 5.315 10.91 5.335 10.94 5.325 10.96 5.315 10.97 5.305 11.02 5.295 11.04 5.265 11.07 5.255 11.09 5.255 11.11 5.275 11.13 5.275 11.15 5.285 11.22 5.335 11.35 5.395 12.22 5.425 12.34 5.475 12.46 5.515 12.52 5.605 12.64 5.655 12.7 6.025 13.73 13.255 6.5"></polygon>
                        <path d="M15.005,21.28 C15.875,18.19 16.275,15.64 16.355,13.52 L7.245,22.63 C9.355,22.55 11.905,22.15 15.005,21.28 Z" id="Path"></path>
                        <path d="M35.135,44.26 C10.005,48.56 12.715,29.91 14.355,23.49 C11.775,24.15 9.545,24.5 7.615,24.61 L7.695,24.73 L7.865,24.9 L7.935,24.99 L7.985,25.2 L8.035,25.3 L8.265,25.63 L8.305,25.72 L8.305,25.82 C8.305,25.82 8.325,26.12 8.325,26.12 L8.345,26.2 L8.405,26.29 L8.685,26.52 L9.095,27.01 L9.115,27.06 L9.145,27.1 L9.325,27.25 L9.375,27.32 L9.405,27.39 L9.405,27.46 C9.405,27.46 9.265,27.62 9.265,27.62 L9.225,27.69 L9.225,27.76 C9.225,27.76 9.265,27.84 9.265,27.84 L9.655,28.41 L9.715,28.55 L9.735,28.71 L9.735,29.03 C9.735,29.03 9.735,29.29 9.735,29.29 L9.625,29.92 L9.625,30.09 C9.625,30.09 9.535,30.2 9.535,30.2 L9.515,30.25 L9.515,30.29 C9.515,30.29 9.515,30.53 9.515,30.53 L9.515,30.58 C9.515,30.58 9.485,30.63 9.485,30.63 L9.485,30.68 C9.485,30.68 9.515,30.72 9.515,30.72 L9.475,30.8 L9.455,30.9 L9.435,31.38 L9.505,32.18 L9.505,32.27 C9.505,32.27 9.455,32.4 9.455,32.4 L9.385,32.84 L9.355,32.94 L9.315,33.02 L9.265,33.09 L9.205,33.16 L9.175,33.23 L9.135,33.54 L9.085,33.68 L8.955,33.94 L8.855,34.29 L8.815,34.36 L8.675,34.52 L8.585,34.66 L8.515,34.73 L8.495,34.69 L8.495,34.65 C8.495,34.65 8.525,34.62 8.525,34.62 L8.575,34.6 L8.575,34.57 L8.545,34.57 L8.275,34.84 L8.195,34.97 L8.165,35.05 L8.145,35.13 L8.145,35.31 C8.145,35.31 8.115,35.38 8.115,35.38 L8.075,35.43 L7.975,35.5 L7.775,35.71 L7.645,35.81 L7.495,35.84 L7.425,35.82 L7.345,35.76 L7.265,35.76 C7.265,35.76 7.205,35.76 7.205,35.76 L7.065,35.89 L7.015,35.86 L6.915,35.84 L6.915,35.82 C6.915,35.82 6.825,35.83 6.825,35.83 L6.755,35.87 L6.625,35.98 L6.595,36.01 L6.515,36.14 L6.475,36.17 L6.365,36.23 L6.085,36.5 L5.985,36.56 L5.785,36.77 L5.735,36.88 L5.765,37.02 L5.825,37.15 L5.865,37.27 L5.865,37.39 C5.865,37.39 5.805,37.51 5.805,37.51 L5.535,37.82 L5.455,37.94 L5.415,37.99 L5.295,38.08 L5.005,38.45 L4.955,38.49 L4.875,38.52 L4.875,38.52 C4.875,38.52 4.795,38.58 4.795,38.58 L4.775,38.58 C4.775,38.58 4.745,38.56 4.745,38.56 L4.725,38.56 C4.725,38.56 4.715,38.61 4.715,38.61 L4.685,38.66 L4.565,38.73 L4.535,38.8 L4.535,38.83 C4.535,38.83 4.485,38.87 4.485,38.87 L4.485,38.9 C4.485,38.9 4.485,38.93 4.485,38.93 L4.485,38.96 C4.485,38.96 4.505,38.99 4.505,38.99 L4.505,39.03 C4.505,39.03 4.465,39.11 4.465,39.11 L4.415,39.14 L4.355,39.14 C4.355,39.14 4.285,39.19 4.285,39.19 L4.225,39.26 L4.205,39.31 L4.175,39.34 L4.085,39.34 C4.085,39.34 4.025,39.37 4.025,39.37 L3.975,39.42 L3.945,39.49 L3.945,39.56 C3.945,39.56 3.945,39.63 3.945,39.63 L3.985,39.77 L3.985,39.84 C3.985,39.84 3.985,39.98 3.985,39.98 L3.985,40 C3.985,40 3.965,40.02 3.965,40.02 L3.965,40.05 C3.965,40.05 4.015,40.11 4.015,40.11 L3.995,40.17 L3.935,40.29 L3.935,40.34 C3.935,40.34 3.935,40.78 3.935,40.78 L3.905,41.24 L3.875,41.4 L3.805,41.5 L3.775,41.5 C3.775,41.5 3.745,41.49 3.745,41.49 L3.685,41.44 L3.655,41.44 C3.655,41.44 3.635,41.45 3.635,41.45 L3.615,41.47 L3.515,41.5 L3.475,41.55 L3.475,41.62 C3.475,41.62 3.455,41.78 3.455,41.78 L3.455,41.82 C3.455,41.82 3.365,41.93 3.365,41.93 L3.345,42 L3.345,42.07 C3.345,42.07 3.315,42.13 3.315,42.13 L3.225,42.23 L3.205,42.33 L3.135,42.44 L3.165,42.5 L3.215,42.56 L3.255,42.62 L3.255,42.66 C3.255,42.66 3.255,42.7 3.255,42.7 L3.255,42.74 C3.255,42.74 3.225,42.77 3.225,42.77 L3.205,42.77 C3.205,42.77 3.155,42.79 3.155,42.79 L3.115,42.81 L3.095,42.81 C3.095,42.81 3.075,42.8 3.075,42.8 L3.075,42.83 C3.075,42.83 3.075,42.85 3.075,42.85 L3.095,42.89 L3.095,42.91 C3.095,42.91 3.105,42.96 3.105,42.96 L3.105,42.99 C3.105,42.99 3.145,43.06 3.145,43.06 L3.195,43.21 L3.195,43.36 C3.195,43.36 3.195,43.65 3.195,43.65 L3.145,43.95 L3.095,44.11 L3.025,44.22 L3.005,44.28 L2.975,44.64 L2.905,44.97 L2.875,45.07 L2.875,45.12 C2.875,45.12 2.875,45.2 2.875,45.2 L2.895,45.28 L2.895,45.36 C2.895,45.36 2.815,45.5 2.815,45.5 L2.775,45.62 L2.735,45.68 L2.705,45.68 C2.705,45.68 2.675,45.68 2.675,45.68 L2.645,45.68 L2.615,45.72 L2.615,45.75 C2.615,45.75 2.605,45.81 2.605,45.81 L2.565,46.06 L2.545,46.12 L2.505,46.17 L2.455,46.22 L2.415,46.27 L2.395,46.33 L2.375,46.49 L2.265,46.76 L2.225,46.9 L2.225,47 C2.225,47 2.235,47 2.235,47 L2.285,47 C2.285,47 2.345,47.02 2.345,47.02 L2.375,47.08 L2.375,47.16 C2.375,47.16 2.355,47.24 2.355,47.24 L2.315,47.29 L2.275,47.29 L2.205,47.25 L2.175,47.25 C2.175,47.25 2.025,47.4 2.025,47.4 L1.985,47.46 L1.965,47.53 L1.925,48.06 L1.865,48.31 L1.865,48.44 C1.865,48.44 1.895,48.56 1.895,48.56 L1.845,48.68 L1.755,49.02 L1.755,49.15 C1.755,49.15 1.685,49.25 1.685,49.25 L1.415,49.41 L1.325,49.52 L1.325,49.58 C1.325,49.58 1.305,49.71 1.305,49.71 L1.305,49.77 C1.305,49.77 1.255,49.84 1.255,49.84 L1.035,50.05 L0.975,50.07 L0.925,50.05 L0.905,49.97 L0.865,49.94 L0.775,49.97 L0.685,50.03 L0.635,50.07 L0.565,50.33 L0.685,50.56 L0.845,50.79 L0.875,51.05 L0.775,51.25 L0.755,51.32 L0.755,51.41 C0.755,51.41 0.935,53.12 0.935,53.12 L0.895,53.59 L0.935,54.02 L0.915,54.14 L0.915,54.49 C0.915,54.49 0.855,54.66 0.855,54.66 L0.715,54.63 L0.755,55.02 L0.755,55.15 C0.755,55.15 0.665,55.62 0.665,55.62 L0.665,56.22 C0.665,56.22 0.635,56.39 0.635,56.39 L0.635,56.45 C0.635,56.45 0.635,56.51 0.635,56.51 L0.655,56.55 L0.695,56.58 L0.695,56.61 L0.755,56.61 C0.755,56.61 0.835,56.66 0.835,56.66 L0.885,56.66 C0.885,56.66 0.945,56.66 0.945,56.66 L0.965,56.64 L0.965,56.61 C0.965,56.61 1.005,56.57 1.005,56.57 L1.085,56.52 L1.265,56.43 L1.465,56.28 L1.645,56.2 L1.845,56.14 L2.045,56.11 L2.075,56.11 C2.075,56.11 2.105,56.09 2.105,56.09 L2.135,56.09 C2.135,56.09 2.175,56.12 2.175,56.12 L2.325,56.17 L2.375,56.17 C2.375,56.17 2.395,56.14 2.395,56.14 L2.415,56.14 C2.415,56.14 2.455,56.14 2.455,56.14 L2.485,56.16 L2.485,56.19 C2.485,56.19 2.505,56.23 2.505,56.23 L2.525,56.27 L2.545,56.29 L2.585,56.32 L2.635,56.35 L2.685,56.35 C2.685,56.35 2.725,56.38 2.725,56.38 L2.745,56.42 L2.745,56.46 C2.745,56.46 2.775,56.48 2.775,56.48 L3.085,56.45 L3.365,56.45 C3.365,56.45 3.425,56.44 3.425,56.44 L3.485,56.39 L3.525,56.39 C3.525,56.39 3.625,56.45 3.625,56.45 L3.705,56.48 L3.965,56.5 L4.115,56.54 L4.165,56.54 C4.165,56.54 4.275,56.48 4.275,56.48 L4.465,56.31 L4.575,56.27 L4.685,56.25 L4.765,56.21 L4.915,56.08 L5.105,55.99 L5.255,55.94 L5.285,55.9 L5.325,55.83 L5.365,55.8 L5.395,55.8 C5.395,55.8 5.475,55.76 5.475,55.76 L5.515,55.73 L5.535,55.69 L5.535,55.64 C5.535,55.64 5.565,55.6 5.565,55.6 L5.665,55.57 L5.745,55.53 L5.875,55.5 L6.105,55.37 L6.575,55.29 L6.675,55.26 L6.775,55.26 C6.775,55.26 6.855,55.31 6.855,55.31 L6.915,55.28 L6.945,55.3 L6.975,55.34 L7.025,55.36 L7.125,55.38 L7.175,55.38 C7.175,55.38 7.215,55.36 7.215,55.36 L7.215,55.39 L7.325,55.34 L7.395,55.32 L7.425,55.34 L7.455,55.34 C7.455,55.34 7.635,55.29 7.635,55.29 L7.715,55.32 L7.865,55.43 L7.945,55.45 L8.045,55.45 C8.045,55.45 8.135,55.5 8.135,55.5 L8.195,55.56 L8.255,55.74 L8.315,55.8 L8.355,55.87 L8.315,56 L8.685,56.21 L9.065,56.52 L9.485,56.75 L9.895,56.98 L9.945,57.03 L10.145,57.3 L10.205,57.35 L10.305,57.37 L10.355,57.37 C10.355,57.37 10.425,57.31 10.425,57.31 L10.465,57.31 C10.465,57.31 10.515,57.31 10.515,57.31 L10.595,57.33 L10.685,57.33 C10.685,57.33 10.755,57.37 10.755,57.37 L10.805,57.37 L10.855,57.35 L10.925,57.31 L10.955,57.31 C10.955,57.31 11.145,57.33 11.145,57.33 L11.245,57.31 L11.285,57.22 L11.285,57.2 L13.865,57.2 C13.865,57.2 17.215,57.2 17.215,57.2 L18.335,57.2 C18.335,57.2 26.145,57.2 26.145,57.2 L27.265,57.2 C27.265,57.2 29.725,57.2 29.725,57.2 L29.755,57.2 C29.755,57.2 29.755,57.23 29.755,57.23 L29.775,57.27 L29.805,57.29 L29.835,57.31 L29.905,57.48 L29.905,57.53 C29.905,57.53 29.925,57.53 29.925,57.53 L30.025,57.56 L30.175,57.85 L30.175,57.9 C30.175,57.9 30.245,57.93 30.245,57.93 L30.475,58.12 L30.475,58.15 C30.475,58.15 30.515,58.23 30.515,58.23 L30.535,58.27 L30.575,58.31 L30.655,58.35 L30.695,58.38 L30.945,58.64 L31.035,58.76 L31.095,58.81 L31.265,58.85 L31.655,59.04 L32.225,59.14 L32.595,59.12 L32.745,59.06 L32.835,59.04 L32.885,59.04 C32.885,59.04 33.015,59.07 33.015,59.07 L33.205,59.05 L33.275,59.1 L33.965,59.31 L34.715,59.31 C34.715,59.31 34.965,59.24 34.965,59.24 L35.065,59.24 C35.065,59.24 35.155,59.25 35.155,59.25 L35.195,59.33 L35.235,59.36 L35.325,59.4 L35.425,59.43 L35.495,59.43 C35.495,59.43 35.515,59.41 35.515,59.41 L35.565,59.33 L35.595,59.31 L35.755,59.31 C31.945,53.89 34.005,46.98 35.145,44.12 L35.135,44.26 Z" id="Path"></path>
                        <rect id="Rectangle" transform="translate(37.266122, 43.543021) rotate(-79.220000) translate(-37.266122, -43.543021) " x="37.2161223" y="43.493021" width="1" height="1"></rect>
                        <path d="M35.625,50.43 L44.155,41.9 C40.785,42.22 38.035,43.52 37.595,43.74 C37.565,43.76 37.525,43.76 37.495,43.78 C37.475,43.81 37.475,43.85 37.455,43.88 C37.235,44.32 35.935,47.07 35.615,50.44 L35.625,50.43 Z" id="Path"></path>
                        <path d="M17.215,20.63 C23.635,18.99 42.285,16.28 37.985,41.41 C39.495,40.81 42.135,39.95 45.095,39.83 L45.095,39.65 C45.095,39.65 45.095,38.31 45.095,38.31 L45.095,37.64 C45.095,37.64 53.875,37.64 53.875,37.64 L53.825,37.48 L53.755,37.34 L53.655,37.21 L53.415,36.97 L53.325,36.85 L53.285,36.71 L53.315,36.53 L53.395,36.33 L53.475,36 L53.555,35.69 L53.605,35.56 L53.805,35.27 L53.955,35.05 L53.995,34.98 L53.995,34.9 C53.995,34.9 53.965,34.7 53.965,34.7 L53.945,34.43 L53.905,34.32 L53.795,34.21 L53.705,34.07 L53.685,33.87 L53.715,33.25 L53.745,32.68 L53.835,32.47 L53.835,32.42 C53.835,32.42 53.825,32.31 53.825,32.31 L53.805,31.98 L53.765,31.87 L53.725,31.79 L53.695,31.7 L53.695,31.59 L53.715,31.5 L53.795,31.32 L53.915,31.13 L53.935,31.08 L53.935,30.9 C53.935,30.9 53.935,30.84 53.935,30.84 L53.935,30.79 C53.935,30.79 53.995,30.72 53.995,30.72 L54.135,30.61 L54.175,30.55 L54.175,30.5 C54.175,30.5 53.975,30.07 53.975,30.07 L53.955,29.96 L53.975,29.33 L53.885,29.33 C53.885,29.33 53.865,29.26 53.865,29.26 L53.885,29.09 L53.885,28.85 C53.885,28.85 53.895,28.77 53.895,28.77 L53.925,28.69 L53.905,28.63 L53.825,28.5 L53.795,28.43 L53.765,28.21 L53.685,28.25 L53.645,28.34 L53.625,28.44 L53.585,28.53 L53.545,28.57 L53.455,28.62 L53.415,28.65 L53.385,28.69 L53.355,28.79 L53.325,28.83 L53.175,28.88 L53.005,28.85 L52.825,28.79 L52.655,28.77 L52.485,28.77 C52.485,28.77 52.345,28.77 52.345,28.77 L51.975,28.67 L51.705,28.6 L51.535,28.6 C51.535,28.6 51.365,28.6 51.365,28.6 L51.185,28.65 L50.895,28.81 L50.415,29.07 L50.055,29.13 L49.615,29.2 L49.425,29.2 L49.255,29.18 L49.165,29.14 L49.005,29.03 L48.915,28.98 L48.815,28.98 C48.815,28.98 48.715,29.02 48.715,29.02 L48.625,29.09 L48.535,29.14 L48.375,29.17 L48.205,29.15 L48.035,29.1 L47.875,29.04 L47.545,28.91 L47.385,28.93 L47.245,29.28 L47.115,29.39 L46.675,29.54 L46.615,29.58 L46.425,29.78 L46.345,29.83 L46.235,29.83 C46.235,29.83 46.295,29.66 46.295,29.66 L46.315,29.47 L46.265,29.08 L46.235,29 L46.165,28.87 L46.165,28.79 C46.165,28.79 46.135,28.77 46.135,28.77 L46.075,28.72 L46.075,28.7 C46.075,28.7 46.065,28.53 46.065,28.53 L45.975,28.22 L45.935,28.15 L45.935,28.08 C45.935,28.08 46.005,27.98 46.005,27.98 L46.105,27.89 L46.185,27.83 L46.365,27.75 L46.475,27.72 L46.555,27.72 C46.555,27.72 46.595,27.67 46.595,27.67 L46.595,27.59 C46.595,27.59 46.595,27.42 46.595,27.42 L46.595,27.42 C46.595,27.42 46.615,27.38 46.615,27.38 L46.545,27.27 L46.545,27.12 C46.545,27.12 46.545,26.94 46.545,26.94 L46.525,26.75 L46.485,26.66 L46.435,26.6 L46.395,26.54 L46.395,26.45 C46.395,26.45 46.415,26.36 46.415,26.36 L46.515,26.2 L46.535,26.13 L46.535,26.09 C46.535,26.09 46.565,26 46.565,26 L46.565,25.95 C46.565,25.95 46.565,25.9 46.565,25.9 L46.505,25.82 L46.465,25.69 L46.365,25.51 L46.285,25.3 L46.175,25.1 L46.095,24.9 L46.125,24.76 L46.105,24.71 L46.065,24.53 L45.975,24.29 L45.945,24.14 L45.915,24.04 L45.855,23.97 L45.685,23.86 L45.615,23.8 L45.565,23.78 L45.535,23.81 L45.505,23.81 C45.505,23.81 45.465,23.79 45.465,23.79 L45.215,23.5 L45.165,23.38 L45.165,23.24 C45.165,23.24 45.125,23.25 45.125,23.25 L45.055,23.28 L45.025,23.28 C45.025,23.28 44.965,23.12 44.965,23.12 L44.685,22.83 L44.575,22.66 L44.525,22.48 L44.475,22.1 L44.425,21.92 L44.395,21.88 L44.325,21.79 L44.305,21.74 L44.305,21.69 C44.305,21.69 44.355,21.6 44.355,21.6 L44.385,21.45 L44.515,21.18 L44.565,21 L44.565,20.82 C44.565,20.82 44.515,20.38 44.515,20.38 L44.575,19.88 L44.575,19.65 C44.575,19.65 44.605,19.3 44.605,19.3 L44.645,19.2 L44.675,19.06 L44.705,19.03 L44.745,18.75 L44.795,18.43 L44.845,18.3 L44.925,18.16 L44.895,18.16 C44.895,18.16 44.875,18.15 44.875,18.15 L44.865,18.15 C44.865,18.15 44.845,18.13 44.845,18.13 L44.945,17.79 L44.965,17.6 L44.925,17.41 L44.815,17.24 L44.765,17.13 L44.785,17.08 L44.855,17.04 L44.815,16.96 L44.685,16.84 L44.645,16.76 L44.595,16.55 L44.595,16.36 C44.595,16.36 44.575,16.29 44.575,16.29 L44.545,16.23 L44.435,16.1 L44.385,16.02 L44.355,15.93 L44.355,15.82 C44.355,15.82 44.315,15.77 44.315,15.77 L44.175,15.69 L44.135,15.65 L44.115,15.57 L44.115,15.27 C44.115,15.27 44.115,15.23 44.115,15.23 L44.175,15.14 L44.175,15.09 C44.175,15.09 44.175,15.04 44.175,15.04 L44.145,14.93 L44.165,14.74 L44.185,14.67 L44.235,14.53 L44.265,14.43 L44.315,14.27 L44.365,14.12 L44.415,13.98 L44.415,13.9 C44.415,13.9 44.435,13.87 44.435,13.87 L44.495,13.81 L44.495,13.78 C44.495,13.78 44.505,13.62 44.505,13.62 L44.505,13.58 C44.505,13.58 44.475,13.56 44.475,13.56 L44.475,13.53 C44.475,13.53 44.475,13.48 44.475,13.48 L44.475,13.43 C44.475,13.43 44.525,13.34 44.525,13.34 L44.525,13.28 C44.525,13.28 44.525,13.25 44.525,13.25 L44.485,13.21 L44.485,13.18 C44.485,13.18 44.485,13.16 44.485,13.16 L44.505,13.12 L44.505,13.09 C44.505,13.09 44.505,13.04 44.505,13.04 L44.475,13.01 L44.445,12.98 L44.415,12.93 L44.415,12.91 C44.415,12.91 44.445,12.88 44.445,12.88 L44.445,12.84 C44.445,12.84 44.435,12.8 44.435,12.8 L44.415,12.77 L44.315,12.56 L44.285,12.53 L44.255,12.51 L44.225,12.51 C44.225,12.51 44.205,12.48 44.205,12.48 L44.205,12.46 C44.205,12.46 44.115,12.46 44.115,12.46 L43.965,12.46 C43.965,12.46 43.645,12.46 43.645,12.46 L43.325,12.46 C43.325,12.46 43.005,12.46 43.005,12.46 L42.685,12.46 C42.685,12.46 42.365,12.46 42.365,12.46 L42.045,12.46 C42.045,12.46 41.725,12.46 41.725,12.46 L41.405,12.46 C41.405,12.46 41.085,12.46 41.085,12.46 L40.765,12.46 C40.765,12.46 40.445,12.46 40.445,12.46 L40.125,12.46 C40.125,12.46 39.805,12.46 39.805,12.46 L39.485,12.46 C39.485,12.46 39.165,12.46 39.165,12.46 L38.845,12.46 C38.845,12.46 38.645,12.46 38.645,12.46 L38.645,12.25 C38.645,12.25 38.635,12.04 38.635,12.04 L38.665,11.84 L38.755,11.6 L38.825,11.42 L38.945,11.11 L39.045,10.84 L38.795,10.84 C38.795,10.84 38.415,10.84 38.415,10.84 L38.055,10.84 C38.055,10.84 37.825,10.84 37.825,10.84 L37.775,10.84 C37.775,10.84 37.735,10.88 37.735,10.88 L37.695,10.95 L37.675,11.01 L37.655,11.15 L37.655,11.21 L34.295,11.21 L34.375,11.38 L34.375,11.43 C34.375,11.43 34.355,11.5 34.355,11.5 L34.235,11.65 L34.185,11.73 L34.145,11.87 L34.095,12.58 L34.095,12.72 C34.095,12.72 34.145,12.87 34.145,12.87 L34.265,13.16 L34.265,13.3 C34.265,13.3 34.135,13.4 34.135,13.4 L34.135,13.4 C34.135,13.4 34.135,13.4 34.135,13.4 L34.135,13.4 C34.135,13.4 34.075,13.48 34.075,13.48 L34.035,13.65 L33.975,13.72 L33.895,13.74 L33.595,13.72 L33.595,13.83 C33.595,13.83 33.625,13.95 33.625,13.95 L33.675,14.07 L33.705,14.18 L33.705,14.29 C33.705,14.29 33.695,14.4 33.695,14.4 L33.605,14.67 L33.565,14.8 L33.505,15 L33.505,15.14 C33.505,15.14 33.505,15.25 33.505,15.25 L33.595,15.59 L31.065,15.59 L30.995,15.49 L30.965,15.44 L30.945,15.32 L30.905,15.3 L29.935,15.3 C29.935,15.3 29.885,15.34 29.885,15.34 L29.885,15.42 C29.885,15.42 29.895,15.58 29.895,15.58 L29.805,15.58 C29.805,15.58 29.775,15.58 29.775,15.58 L29.505,15.58 C29.505,15.58 29.435,15.59 29.435,15.59 L29.335,15.64 L29.265,15.66 L29.205,15.66 C29.205,15.66 29.045,15.59 29.045,15.59 L28.835,15.59 C28.835,15.59 28.505,15.57 28.505,15.57 L28.435,15.57 C28.435,15.57 28.255,15.66 28.255,15.66 L28.185,15.68 L28.105,15.73 L28.065,15.83 L28.065,15.95 C28.065,15.95 28.085,16.06 28.085,16.06 L27.695,16.06 C27.695,16.06 27.575,16.04 27.575,16.04 L27.355,15.85 L27.225,15.79 L27.075,15.77 L27.005,15.77 C27.005,15.77 26.735,15.93 26.735,15.93 L26.685,15.93 C26.685,15.93 26.535,15.88 26.535,15.88 L26.405,15.88 C26.405,15.88 26.035,16 26.035,16 L25.915,16 C25.915,16 25.675,15.94 25.675,15.94 L25.645,15.9 L25.605,15.83 L25.655,15.71 L25.635,15.64 L25.595,15.61 L25.495,15.56 L25.455,15.52 L25.435,15.48 L25.395,15.34 L25.375,15.36 L25.345,15.38 L25.345,15.4 C25.345,15.4 25.325,15.37 25.325,15.37 L25.315,15.37 C25.315,15.37 25.315,15.35 25.315,15.35 L25.335,15.32 L25.245,15.27 L25.205,15.24 L25.185,15.21 L25.205,15.15 L25.245,15.11 L25.265,15.07 L25.215,15.01 L25.155,15.03 L25.135,15 L25.135,14.94 C25.135,14.94 25.125,14.89 25.125,14.89 L25.085,14.89 C25.085,14.89 25.025,14.88 25.025,14.88 L24.995,14.88 C24.995,14.88 25.035,14.83 25.035,14.83 L25.035,14.8 L24.955,14.8 C24.955,14.8 24.935,14.76 24.935,14.76 L24.935,14.71 C24.935,14.71 24.935,14.67 24.935,14.67 L24.895,14.65 L24.795,14.65 C24.795,14.65 24.775,14.61 24.775,14.61 L24.755,14.57 L24.675,14.5 L24.655,14.44 L24.675,14.4 L24.705,14.36 L24.705,14.32 C24.705,14.32 24.635,14.29 24.635,14.29 L24.655,14.27 L24.655,14.27 C24.655,14.27 24.645,14.27 24.645,14.27 L24.645,14.24 C24.645,14.24 24.575,14.27 24.575,14.27 L24.575,14.2 C24.575,14.2 24.575,14.1 24.575,14.1 L24.555,14.03 L24.575,13.95 L24.485,13.89 L24.275,13.78 L24.215,13.69 L24.145,13.48 L24.085,13.38 L24.045,13.34 L24.005,13.31 L23.975,13.28 L23.975,13.24 C23.975,13.24 23.985,13.19 23.985,13.19 L24.035,13.17 L24.085,13.15 L24.105,13.12 L24.085,13.09 L24.045,13.07 L23.955,13.05 L23.915,13.03 L23.885,13.01 L23.855,13.01 C23.855,13.01 23.825,13.08 23.825,13.08 L23.765,13.04 L23.745,12.98 L23.745,12.83 C23.745,12.83 23.725,12.76 23.725,12.76 L23.675,12.72 L23.565,12.67 L23.415,12.57 L23.295,12.53 L23.275,12.48 L23.275,12.34 C23.275,12.34 23.195,12.24 23.195,12.24 L23.145,12.18 L23.105,12.15 L23.085,12.11 L23.085,11.88 C23.085,11.88 23.005,11.6 23.005,11.6 L23.005,11.49 C23.005,11.49 23.155,11.53 23.155,11.53 L23.155,11.43 C23.155,11.43 23.195,11.36 23.195,11.36 L23.215,11.29 L23.175,11.21 L23.155,11.18 L23.135,11.15 L23.105,11.12 L23.055,11.12 C23.055,11.12 23.015,11.09 23.015,11.09 L23.015,11.05 L23.035,11.01 L23.035,10.99 C23.035,10.99 23.015,10.74 23.015,10.74 L22.965,10.63 L22.855,10.56 L22.805,10.56 C22.805,10.56 22.705,10.54 22.705,10.54 L22.655,10.52 L22.605,10.47 L22.585,10.41 L22.585,10.35 C22.585,10.35 22.565,10.29 22.565,10.29 L22.325,9.96 L22.295,9.89 L22.275,9.81 L22.275,9.65 C22.275,9.65 22.245,9.57 22.245,9.57 L22.185,9.42 L22.185,9.35 C22.185,9.35 22.185,9.27 22.185,9.27 L22.235,9.18 L22.235,9.14 C22.235,9.14 22.195,9.09 22.195,9.09 L22.145,9.05 L22.115,9.01 L22.115,8.96 C22.115,8.96 22.145,8.9 22.145,8.9 L22.045,8.9 L22.045,8.85 L22.085,8.79 L22.115,8.73 L22.115,8.67 C22.115,8.67 22.085,8.67 22.085,8.67 L22.055,8.67 C22.055,8.67 22.025,8.66 22.025,8.66 L22.005,8.62 L22.005,8.6 C22.005,8.6 22.005,8.43 22.005,8.43 L22.025,8.39 L22.065,8.39 C22.065,8.39 22.105,8.37 22.105,8.37 L22.135,8.35 L22.135,8.31 C22.135,8.31 22.135,8.27 22.135,8.27 L22.135,8.23 C22.135,8.23 22.115,8.19 22.115,8.19 L22.115,7.87 C22.115,7.87 22.115,7.8 22.115,7.8 L22.145,7.75 L22.145,7.69 C22.145,7.69 22.115,7.62 22.115,7.62 L22.035,7.53 L22.015,7.47 L21.965,7.44 L21.905,7.42 L21.855,7.39 L21.785,7.29 L21.735,7.25 L21.645,7.25 C21.645,7.25 21.735,7.13 21.735,7.13 L21.715,7.09 L21.675,7.09 C21.675,7.09 21.635,7.12 21.635,7.12 L21.615,7.12 C21.615,7.12 21.605,7.07 21.605,7.07 L21.585,6.8 L21.585,6.76 C21.585,6.76 21.555,6.71 21.555,6.71 L21.515,6.66 L21.515,6.63 L21.575,6.56 L21.575,6.52 C21.575,6.52 21.425,6.44 21.425,6.44 L21.395,6.42 L21.235,6.35 L21.155,6.33 L21.075,6.33 C21.075,6.33 20.985,6.34 20.985,6.34 L20.845,6.38 L20.785,6.38 C20.785,6.38 20.715,6.38 20.715,6.38 L20.625,6.33 L20.555,6.28 L20.485,6.23 L20.375,6.21 L20.115,6.21 C20.115,6.21 19.715,6.22 19.715,6.22 L19.315,6.22 C19.315,6.22 18.915,6.23 18.915,6.23 L18.515,6.23 C18.515,6.23 18.115,6.24 18.115,6.24 L17.715,6.24 C17.715,6.24 17.315,6.25 17.315,6.25 L17.025,6.25 C18.415,9.08 18.875,13.52 17.095,20.49 L17.215,20.63 Z" id="Path"></path>
                        <path d="M16.265,10.87 C16.095,9.41 15.735,8.24 15.255,7.3 L6.885,15.66 L6.905,15.77 L6.985,15.93 L7.015,15.98 L7.065,16.1 L7.095,16.15 L7.135,16.23 L7.195,16.43 L7.245,16.47 L7.645,17.1 L7.685,17.2 L7.705,17.29 L7.705,17.62 C7.705,17.62 7.685,17.66 7.685,17.66 L7.655,17.71 L7.625,17.71 C7.625,17.71 7.585,17.71 7.585,17.71 L7.525,17.71 C7.525,17.71 7.565,17.86 7.565,17.86 L7.625,18.15 L7.675,18.28 L7.805,18.46 L7.825,18.52 L7.825,18.59 C7.825,18.59 7.745,18.75 7.745,18.75 L7.685,18.97 L7.585,19.01 L7.315,18.97 L7.285,18.97 C7.285,18.97 7.265,18.99 7.265,18.99 L7.265,19.01 C7.265,19.01 7.255,19.04 7.255,19.04 L7.255,19.09 C7.255,19.09 7.215,19.11 7.215,19.11 L7.175,19.11 C7.175,19.11 7.095,19.17 7.095,19.17 L6.955,19.23 L6.895,19.27 L6.945,19.19 L7.155,18.97 L7.075,19 L6.995,19.06 L6.865,19.2 L6.845,19.24 L6.845,19.34 C6.845,19.34 6.845,19.39 6.845,19.39 L6.825,19.44 L6.715,19.56 L6.665,19.65 L6.615,19.79 L6.555,19.85 L6.505,19.85 C6.505,19.85 6.445,19.85 6.445,19.85 L6.395,19.85 C6.395,19.85 6.375,19.91 6.375,19.91 L6.375,19.95 C6.375,19.95 6.125,20.36 6.125,20.36 L6.075,20.4 L6.015,20.35 L6.045,20.23 L6.205,19.87 L6.515,19.61 L6.605,19.47 L6.385,19.56 L6.145,19.85 L5.975,20.19 L5.995,20.43 L6.085,20.56 L6.195,20.82 L16.065,10.95 C16.065,10.95 16.165,10.88 16.215,10.85 L16.265,10.87 Z" id="Path"></path>
                        <path d="M31.935,42.7 C33.145,42.58 34.455,42.39 35.845,42.12 C36.105,40.73 36.305,39.43 36.425,38.21 L31.945,42.69 L31.935,42.7 Z" id="Path"></path>
                        <path d="M35.625,53.2 C35.835,55.3 36.575,57.46 38.265,59.32 L45.285,52.3 L45.285,52.3 C45.285,52.3 45.265,52.23 45.265,52.23 L45.215,52.17 L45.255,52.17 C45.255,52.17 45.365,52.17 45.365,52.17 L45.215,51.93 L45.105,51.78 L45.105,51.68 C45.105,51.68 45.095,51.05 45.095,51.05 L45.095,51.05 C45.095,51.05 45.095,50.83 45.095,50.83 L45.095,49.91 C45.095,49.91 45.095,49.45 45.095,49.45 L45.095,47.04 C45.095,47.04 45.095,45.02 45.095,45.02 L45.095,44.35 C45.095,44.35 45.095,43.76 45.095,43.76 L35.715,53.14 C35.715,53.14 35.655,53.17 35.635,53.2 L35.625,53.2 Z" id="Path"></path>
                        <polygon id="Path" points="1.905 2.69 1.965 2.69 2.005 2.73 2.035 2.7 2.095 2.6 2.125 2.58 2.185 2.58 2.205 2.61 2.215 2.66 2.205 2.7 2.195 2.73 2.115 2.8 2.095 2.82 2.035 2.83 2.005 2.82 1.985 2.8 1.945 2.79 1.855 2.78 1.805 2.79 1.805 2.84 1.985 3.17 2.195 3.47 2.445 3.94 2.535 4.21 2.575 4.41 2.635 4.51 2.705 4.67 2.715 4.72 2.715 4.86 2.705 4.91 2.655 4.96 2.595 4.98 2.545 4.99 2.505 5 2.445 5.05 2.345 5.32 2.415 5.6 2.625 5.95 2.835 5.84 3.205 5.78 3.595 5.79 3.915 5.79 3.935 5.39 3.945 5.11 3.965 4.57 3.985 4.05 4.005 3.68 4.015 3.35 3.985 3.2 3.935 3.16 3.665 3.07 3.635 3.05 3.625 3 3.615 2.96 3.615 2.92 3.635 2.88 3.665 2.87 3.695 2.88 3.735 2.87 4.095 2.75 4.265 2.64 4.335 2.48 4.345 2.39 4.385 2.36 4.555 2.35 4.655 2.31 4.685 2.26 4.695 2.19 4.735 2.1 4.805 2.05 4.995 1.94 5.035 1.88 5.045 1.78 5.075 1.69 5.125 1.59 5.195 1.51 5.325 1.44 6.185 1.24 6.335 1.18 6.375 1.06 6.175 0.96 5.885 0.62 5.715 0.48 5.625 0.39 5.555 0.18 5.485 0.09 5.415 0.05 5.365 0.06 5.315 0.08 5.245 0.1 5.185 0.08 5.075 0.02 5.015 1.77635684e-15 4.915 0.06 4.865 0.16 4.825 0.27 4.775 0.34 4.695 0.38 4.625 0.44 4.565 0.51 4.465 0.68 4.415 0.73 4.345 0.76 3.865 0.84 3.575 0.94 3.505 0.95 3.385 0.93 3.345 0.99 3.355 1.18 3.335 1.27 3.155 1.63 3.105 1.68 3.045 1.7 2.895 1.72 2.835 1.73 2.765 1.76 2.725 1.79 2.675 1.69 2.635 1.64 2.595 1.62 2.545 1.62 2.525 1.64 2.385 2.08 2.275 2.26 1.765 2.7 1.835 2.7"></polygon>
                    </g>
                </g>
            </g>
            <g id="Group" transform="translate(163.130000, 88.750000)" fill="#6D6E71" fill-rule="nonzero">
                <polygon id="Path" points="0.1 13.93 0.1 13.5 1.65 13.5 1.65 0.43 0.1 0.43 0.1 0 5.51 0 5.51 0.43 3.96 0.43 3.96 13.5 5.51 13.5 5.51 13.93"></polygon>
                <path d="M14.55,5.21 C15.06,5.69 15.31,6.37 15.31,7.25 L15.31,13.51 L16.47,13.51 L16.47,13.94 L12.6,13.94 L12.6,13.51 L13.45,13.51 L13.45,6.74 C13.45,6.17 13.31,5.75 13.02,5.46 C12.74,5.18 12.38,5.03 11.96,5.03 C11.48,5.03 11.06,5.2 10.69,5.54 C10.32,5.88 10.14,6.3 10.14,6.81 L10.14,13.5 L10.93,13.5 L10.93,13.93 L7.14,13.93 L7.14,13.52 L8.3,13.52 L8.3,5.07 L7.14,5.07 L7.14,4.64 L9.92,4.64 L10.02,5.78 C10.02,5.78 10.06,5.69 10.1,5.64 C10.14,5.58 10.23,5.48 10.37,5.33 C10.51,5.18 10.67,5.05 10.85,4.93 C11.03,4.81 11.27,4.71 11.57,4.61 C11.87,4.51 12.2,4.47 12.55,4.47 C13.36,4.47 14.02,4.71 14.53,5.19 L14.55,5.21 Z" id="Path"></path>
                <path d="M22.42,13.25 C22.81,12.88 23.01,12.45 23.01,11.96 C23.01,11.41 22.84,10.98 22.49,10.67 C22.14,10.37 21.72,10.15 21.21,10.03 C20.71,9.91 20.21,9.78 19.71,9.63 C19.21,9.48 18.79,9.22 18.44,8.84 C18.09,8.45 17.92,7.92 17.92,7.24 C17.92,6.47 18.2,5.81 18.75,5.27 C19.3,4.73 19.99,4.46 20.82,4.46 C21.48,4.46 22.06,4.65 22.58,5.02 C22.73,5.14 22.84,5.19 22.91,5.19 C23.1,5.19 23.2,5.01 23.2,4.65 L23.59,4.65 L23.59,7.18 L23.2,7.18 C23.2,6.48 22.96,5.91 22.48,5.47 C22,5.03 21.44,4.8 20.8,4.8 C20.3,4.8 19.85,4.95 19.45,5.26 C19.05,5.57 18.85,5.96 18.85,6.42 C18.85,6.88 18.98,7.24 19.25,7.53 C19.51,7.82 19.85,8.02 20.25,8.13 C20.65,8.24 21.08,8.37 21.55,8.51 C22.02,8.65 22.46,8.8 22.85,8.95 C23.25,9.1 23.58,9.38 23.85,9.77 C24.11,10.16 24.25,10.66 24.25,11.25 C24.25,12.06 23.94,12.74 23.32,13.29 C22.7,13.84 21.9,14.11 20.9,14.11 C20.18,14.11 19.51,13.9 18.89,13.49 C18.71,13.37 18.58,13.32 18.5,13.32 C18.31,13.32 18.21,13.52 18.21,13.92 L17.82,13.92 L17.82,11.39 L18.21,11.39 C18.21,12.07 18.49,12.64 19.06,13.1 C19.63,13.56 20.24,13.79 20.9,13.79 C21.52,13.79 22.02,13.61 22.42,13.24 L22.42,13.25 Z" id="Path"></path>
                <path d="M26.57,5.08 L25.41,5.08 L25.41,4.65 L26.57,4.65 L26.57,3.72 L28.21,2.5 L28.42,2.5 L28.42,4.65 L31.11,4.65 L31.11,5.08 L28.42,5.08 C28.43,9.53 28.44,11.84 28.44,12.02 C28.44,12.51 28.54,12.92 28.74,13.25 C28.94,13.58 29.24,13.74 29.64,13.74 C30.08,13.74 30.42,13.58 30.66,13.27 C30.91,12.95 31.03,12.62 31.03,12.27 L31.46,12.27 C31.46,12.72 31.29,13.14 30.96,13.54 C30.63,13.93 30.1,14.13 29.39,14.13 C28.45,14.13 27.75,13.86 27.28,13.33 C26.82,12.8 26.58,12.12 26.58,11.31 L26.56,5.09 L26.57,5.08 Z" id="Path"></path>
                <path d="M32.43,13.93 L32.43,13.5 L33.59,13.5 L33.59,5.07 L32.43,5.07 L32.43,4.64 L35.45,4.64 L35.45,13.49 L36.61,13.49 L36.61,13.92 L32.43,13.92 L32.43,13.93 Z M35.37,2.45 C35.14,2.68 34.85,2.8 34.52,2.8 C34.19,2.8 33.9,2.69 33.67,2.46 C33.44,2.23 33.32,1.95 33.32,1.62 C33.32,1.29 33.44,1 33.67,0.77 C33.9,0.54 34.19,0.42 34.52,0.42 C34.85,0.42 35.14,0.54 35.37,0.77 C35.6,1 35.72,1.29 35.72,1.62 C35.72,1.95 35.6,2.22 35.37,2.45 L35.37,2.45 Z" id="Shape"></path>
                <path d="M38.73,5.08 L37.57,5.08 L37.57,4.65 L38.73,4.65 L38.73,3.72 L40.37,2.5 L40.58,2.5 L40.58,4.65 L43.27,4.65 L43.27,5.08 L40.58,5.08 C40.59,9.53 40.6,11.84 40.6,12.02 C40.6,12.51 40.7,12.92 40.9,13.25 C41.1,13.58 41.4,13.74 41.8,13.74 C42.24,13.74 42.58,13.58 42.82,13.27 C43.07,12.95 43.19,12.62 43.19,12.27 L43.62,12.27 C43.62,12.72 43.45,13.14 43.12,13.54 C42.79,13.93 42.26,14.13 41.55,14.13 C40.61,14.13 39.91,13.86 39.44,13.33 C38.98,12.8 38.74,12.12 38.74,11.31 L38.72,5.09 L38.73,5.08 Z" id="Path"></path>
                <path d="M52.23,5.06 C52.24,8.4 52.24,10.26 52.23,10.65 C52.19,11.62 51.84,12.44 51.18,13.11 C50.52,13.78 49.71,14.12 48.75,14.12 C47.79,14.12 46.98,13.78 46.31,13.11 C45.64,12.43 45.29,11.61 45.27,10.65 L45.27,5.06 L44.11,5.06 L44.11,4.65 L48.11,4.65 L48.11,5.06 L47.1,5.06 C47.09,9.4 47.1,11.78 47.12,12.19 C47.15,12.65 47.31,13.04 47.61,13.34 C47.91,13.64 48.29,13.79 48.74,13.79 C49.19,13.79 49.55,13.64 49.86,13.33 C50.17,13.02 50.34,12.64 50.36,12.19 L50.38,5.06 L49.37,5.06 L49.37,4.65 L53.37,4.65 L53.37,5.06 L52.21,5.06 L52.23,5.06 Z" id="Path"></path>
                <path d="M55.23,5.08 L54.07,5.08 L54.07,4.65 L55.23,4.65 L55.23,3.72 L56.87,2.5 L57.08,2.5 L57.08,4.65 L59.77,4.65 L59.77,5.08 L57.08,5.08 C57.09,9.53 57.1,11.84 57.1,12.02 C57.1,12.51 57.2,12.92 57.4,13.25 C57.6,13.58 57.9,13.74 58.3,13.74 C58.74,13.74 59.08,13.58 59.32,13.27 C59.57,12.95 59.69,12.62 59.69,12.27 L60.12,12.27 C60.12,12.72 59.95,13.14 59.62,13.54 C59.29,13.93 58.76,14.13 58.05,14.13 C57.11,14.13 56.41,13.86 55.94,13.33 C55.48,12.8 55.24,12.12 55.24,11.31 L55.22,5.09 L55.23,5.08 Z" id="Path"></path>
                <path d="M67.19,13.15 C66.54,13.8 65.74,14.13 64.78,14.13 C63.82,14.13 63.04,13.81 62.39,13.16 C61.74,12.52 61.38,11.7 61.32,10.72 C61.29,10.36 61.28,9.89 61.28,9.31 C61.28,8.73 61.29,8.25 61.32,7.84 C61.38,6.87 61.74,6.07 62.38,5.42 C63.02,4.78 63.82,4.45 64.78,4.45 C65.74,4.45 66.53,4.77 67.18,5.41 C67.82,6.05 68.18,6.86 68.24,7.84 C68.27,8.25 68.28,8.74 68.28,9.31 C68.28,9.88 68.27,10.36 68.24,10.72 C68.19,11.69 67.84,12.5 67.19,13.15 L67.19,13.15 Z M66.45,9.33 C66.45,7.69 66.44,6.73 66.41,6.43 C66.37,5.94 66.2,5.54 65.91,5.24 C65.61,4.94 65.24,4.79 64.79,4.79 C64.34,4.79 63.97,4.94 63.67,5.24 C63.37,5.54 63.21,5.94 63.17,6.43 C63.14,6.73 63.13,7.69 63.13,9.33 C63.13,10.97 63.14,11.9 63.17,12.17 C63.21,12.66 63.38,13.05 63.67,13.35 C63.97,13.65 64.34,13.79 64.79,13.79 C65.24,13.79 65.6,13.64 65.89,13.35 C66.19,13.05 66.36,12.66 66.41,12.17 C66.44,11.9 66.45,10.95 66.45,9.33 Z" id="Shape"></path>
                <polygon id="Path" points="84.87 0.44 84.87 14.13 84.68 14.13 76.31 1.22 76.31 13.52 77.88 13.52 77.88 13.95 74.3 13.95 74.3 13.52 75.81 13.52 75.81 0.45 74.28 0.45 74.28 0.02 77.99 0.02 84.33 9.9 84.33 0.45 82.76 0.45 82.76 0.02 86.38 0.02 86.38 0.45 84.87 0.45"></polygon>
                <path d="M89.32,5.05 C89.99,4.66 90.7,4.46 91.45,4.46 C92.44,4.46 93.23,4.7 93.81,5.19 C94.39,5.68 94.71,6.34 94.76,7.18 L94.78,13.52 L95.94,13.52 L95.94,13.93 L93.14,13.93 L93.06,12.75 C92.61,13.63 91.86,14.06 90.8,14.06 C89.9,14.06 89.18,13.8 88.64,13.29 C88.11,12.77 87.84,12.11 87.84,11.3 C87.84,10.26 88.15,9.53 88.77,9.13 C89.39,8.73 90.24,8.53 91.32,8.53 L92.96,8.53 L92.96,6.4 C92.96,5.88 92.81,5.49 92.52,5.22 C92.22,4.95 91.84,4.81 91.38,4.81 C90.98,4.81 90.6,4.88 90.24,5.01 C89.88,5.15 89.6,5.31 89.41,5.5 C89.64,5.51 89.84,5.6 89.99,5.77 C90.14,5.94 90.22,6.14 90.22,6.37 C90.22,6.64 90.13,6.87 89.94,7.06 C89.75,7.25 89.52,7.34 89.25,7.34 C88.98,7.34 88.76,7.25 88.58,7.06 C88.41,6.87 88.32,6.64 88.32,6.37 C88.32,5.87 88.65,5.42 89.32,5.03 L89.32,5.05 Z M92.94,8.93 L91.55,8.93 C90.43,8.93 89.81,9.47 89.69,10.55 C89.66,10.74 89.65,11.03 89.65,11.4 C89.65,11.75 89.66,12.04 89.69,12.29 C89.74,12.75 89.89,13.11 90.12,13.35 C90.35,13.59 90.66,13.72 91.04,13.72 C91.59,13.72 92.05,13.51 92.4,13.09 C92.75,12.67 92.93,12.22 92.93,11.73 L92.93,8.93 L92.94,8.93 Z" id="Shape"></path>
                <path d="M102.66,13.09 C103.12,12.63 103.36,12.12 103.36,11.55 L103.71,11.55 C103.71,12.32 103.42,12.94 102.83,13.42 C102.24,13.89 101.56,14.13 100.79,14.13 C99.85,14.13 99.05,13.81 98.4,13.16 C97.75,12.52 97.39,11.7 97.33,10.72 C97.3,10.36 97.29,9.89 97.29,9.31 C97.29,8.73 97.3,8.25 97.33,7.84 C97.39,6.86 97.75,6.05 98.4,5.41 C99.05,4.77 99.88,4.45 100.88,4.45 C101.65,4.45 102.31,4.67 102.84,5.12 C103.38,5.56 103.64,6.04 103.64,6.54 C103.64,6.81 103.55,7.04 103.38,7.23 C103.21,7.42 102.98,7.51 102.71,7.51 C102.44,7.51 102.21,7.42 102.02,7.23 C101.83,7.04 101.74,6.81 101.74,6.54 C101.74,6.3 101.83,6.1 102.02,5.94 C102.21,5.79 102.43,5.7 102.69,5.67 C102.54,5.43 102.29,5.22 101.95,5.04 C101.61,4.86 101.27,4.78 100.94,4.78 C100.41,4.78 99.99,4.93 99.68,5.22 C99.37,5.52 99.2,5.92 99.16,6.42 C99.13,6.72 99.12,7.68 99.12,9.32 C99.12,10.96 99.13,11.89 99.16,12.16 C99.2,12.64 99.38,13.02 99.7,13.32 C100.02,13.62 100.42,13.76 100.88,13.76 C101.6,13.76 102.19,13.53 102.66,13.07 L102.66,13.09 Z" id="Path"></path>
                <path d="M105.06,13.93 L105.06,13.5 L106.22,13.5 L106.22,5.07 L105.06,5.07 L105.06,4.64 L108.08,4.64 L108.08,13.49 L109.24,13.49 L109.24,13.92 L105.06,13.92 L105.06,13.93 Z M108,2.45 C107.77,2.68 107.48,2.8 107.15,2.8 C106.82,2.8 106.53,2.69 106.3,2.46 C106.07,2.23 105.95,1.95 105.95,1.62 C105.95,1.29 106.07,1 106.3,0.77 C106.53,0.54 106.82,0.42 107.15,0.42 C107.48,0.42 107.77,0.54 108,0.77 C108.23,1 108.35,1.29 108.35,1.62 C108.35,1.95 108.23,2.22 108,2.45 L108,2.45 Z" id="Shape"></path>
                <path d="M116.69,13.15 C116.04,13.8 115.24,14.13 114.28,14.13 C113.32,14.13 112.54,13.81 111.89,13.16 C111.24,12.52 110.88,11.7 110.82,10.72 C110.79,10.36 110.78,9.89 110.78,9.31 C110.78,8.73 110.79,8.25 110.82,7.84 C110.88,6.87 111.24,6.07 111.88,5.42 C112.52,4.78 113.32,4.45 114.28,4.45 C115.24,4.45 116.03,4.77 116.68,5.41 C117.32,6.05 117.68,6.86 117.74,7.84 C117.77,8.25 117.78,8.74 117.78,9.31 C117.78,9.88 117.77,10.36 117.74,10.72 C117.69,11.69 117.34,12.5 116.69,13.15 L116.69,13.15 Z M115.95,9.33 C115.95,7.69 115.94,6.73 115.91,6.43 C115.87,5.94 115.7,5.54 115.41,5.24 C115.11,4.94 114.74,4.79 114.29,4.79 C113.84,4.79 113.47,4.94 113.17,5.24 C112.87,5.54 112.71,5.94 112.67,6.43 C112.64,6.73 112.63,7.69 112.63,9.33 C112.63,10.97 112.64,11.9 112.67,12.17 C112.71,12.66 112.88,13.05 113.17,13.35 C113.47,13.65 113.84,13.79 114.29,13.79 C114.74,13.79 115.1,13.64 115.39,13.35 C115.69,13.05 115.86,12.66 115.91,12.17 C115.94,11.9 115.95,10.95 115.95,9.33 Z" id="Shape"></path>
                <path d="M126.82,5.21 C127.33,5.69 127.58,6.37 127.58,7.25 L127.58,13.51 L128.74,13.51 L128.74,13.94 L124.87,13.94 L124.87,13.51 L125.72,13.51 L125.72,6.74 C125.72,6.17 125.58,5.75 125.29,5.46 C125.01,5.18 124.65,5.03 124.23,5.03 C123.75,5.03 123.33,5.2 122.96,5.54 C122.59,5.88 122.41,6.3 122.41,6.81 L122.41,13.5 L123.2,13.5 L123.2,13.93 L119.41,13.93 L119.41,13.52 L120.57,13.52 L120.57,5.07 L119.41,5.07 L119.41,4.64 L122.19,4.64 L122.29,5.78 C122.29,5.78 122.33,5.69 122.37,5.64 C122.41,5.58 122.5,5.48 122.64,5.33 C122.78,5.18 122.94,5.05 123.12,4.93 C123.3,4.81 123.54,4.71 123.84,4.61 C124.14,4.51 124.47,4.47 124.82,4.47 C125.63,4.47 126.29,4.71 126.8,5.19 L126.82,5.21 Z" id="Path"></path>
                <path d="M131.49,5.05 C132.16,4.66 132.87,4.46 133.62,4.46 C134.61,4.46 135.4,4.7 135.98,5.19 C136.56,5.68 136.88,6.34 136.93,7.18 L136.95,13.52 L138.11,13.52 L138.11,13.93 L135.31,13.93 L135.23,12.75 C134.78,13.63 134.03,14.06 132.97,14.06 C132.07,14.06 131.35,13.8 130.81,13.29 C130.28,12.77 130.01,12.11 130.01,11.3 C130.01,10.26 130.32,9.53 130.94,9.13 C131.56,8.73 132.41,8.53 133.49,8.53 L135.13,8.53 L135.13,6.4 C135.13,5.88 134.98,5.49 134.69,5.22 C134.39,4.95 134.01,4.81 133.55,4.81 C133.15,4.81 132.77,4.88 132.41,5.01 C132.05,5.15 131.77,5.31 131.58,5.5 C131.81,5.51 132,5.6 132.16,5.77 C132.31,5.94 132.39,6.14 132.39,6.37 C132.39,6.64 132.3,6.87 132.11,7.06 C131.92,7.25 131.69,7.34 131.42,7.34 C131.15,7.34 130.93,7.25 130.75,7.06 C130.58,6.87 130.49,6.64 130.49,6.37 C130.49,5.87 130.83,5.42 131.5,5.03 L131.49,5.05 Z M135.1,8.93 L133.71,8.93 C132.59,8.93 131.97,9.47 131.85,10.55 C131.82,10.74 131.81,11.03 131.81,11.4 C131.81,11.75 131.82,12.04 131.85,12.29 C131.9,12.75 132.05,13.11 132.29,13.35 C132.53,13.59 132.83,13.72 133.21,13.72 C133.76,13.72 134.22,13.51 134.57,13.09 C134.92,12.67 135.1,12.22 135.1,11.73 L135.1,8.93 L135.1,8.93 Z" id="Shape"></path>
                <polygon id="Path" points="139.07 13.93 139.07 13.5 140.23 13.5 140.23 0.41 139.07 0.41 139.07 0 142.07 0 142.07 13.49 143.23 13.49 143.23 13.92 139.07 13.92"></polygon>
                <path d="M0.84,36.43 C0.35,35.88 0.08,35.15 0.04,34.27 C0.02,33.95 0.01,33.51 0.01,32.95 C0.01,32.39 0.02,31.95 0.04,31.58 C0.1,30.7 0.37,30 0.87,29.46 C1.37,28.92 2.01,28.66 2.79,28.66 C3.17,28.66 3.51,28.74 3.81,28.89 C4.11,29.05 4.32,29.2 4.43,29.35 L4.59,29.59 L4.59,25.05 L3.67,25.05 L3.67,24.67 L6.25,24.67 L6.25,36.77 L7.29,36.77 L7.29,37.13 L4.78,37.13 L4.71,36.07 C4.71,36.07 4.68,36.15 4.65,36.2 C4.62,36.25 4.55,36.34 4.44,36.48 C4.33,36.61 4.21,36.73 4.08,36.83 C3.95,36.93 3.77,37.03 3.53,37.12 C3.3,37.21 3.05,37.25 2.79,37.25 C1.98,37.25 1.33,36.97 0.84,36.42 L0.84,36.43 Z M2.94,36.93 C3.36,36.93 3.72,36.78 4.05,36.47 C4.38,36.16 4.55,35.8 4.59,35.37 C4.61,35.13 4.62,34.34 4.62,33.02 C4.62,31.61 4.61,30.78 4.59,30.51 C4.56,30.09 4.37,29.74 4.03,29.44 C3.69,29.14 3.33,28.99 2.95,28.99 C2.57,28.99 2.29,29.12 2.07,29.37 C1.85,29.62 1.72,29.98 1.69,30.43 C1.67,30.7 1.66,31.56 1.66,33.03 C1.66,34.5 1.67,35.28 1.69,35.52 C1.78,36.47 2.2,36.94 2.95,36.94 L2.94,36.93 Z" id="Shape"></path>
                <path d="M10.14,32.66 C10.14,34.36 10.15,35.33 10.17,35.57 C10.2,36 10.38,36.34 10.69,36.61 C11,36.88 11.36,37.01 11.78,37.01 C12.44,37.01 12.99,36.81 13.43,36.4 C13.87,35.99 14.1,35.53 14.1,35.02 L14.41,35.02 C14.41,35.7 14.13,36.26 13.58,36.68 C13.03,37.11 12.4,37.32 11.69,37.32 C10.78,37.32 10.04,37.03 9.47,36.46 C8.9,35.89 8.58,35.16 8.53,34.27 C8.51,33.95 8.5,33.53 8.5,33.01 C8.5,32.49 8.51,32.06 8.53,31.69 C8.59,30.81 8.9,30.09 9.48,29.52 C10.06,28.95 10.8,28.66 11.7,28.66 C12.52,28.66 13.22,28.96 13.81,29.56 C14.4,30.16 14.69,30.89 14.69,31.76 L14.69,32.66 L10.14,32.66 L10.14,32.66 Z M10.14,32.3 L13.12,32.3 C13.12,31.32 13.12,30.69 13.1,30.41 C13.08,30.01 12.93,29.66 12.65,29.38 C12.37,29.1 12.05,28.96 11.68,28.96 C10.76,28.96 10.25,29.45 10.17,30.43 C10.15,30.67 10.14,31.3 10.14,32.3 Z" id="Shape"></path>
                <polygon id="Path" points="20.52 37.14 20.52 36.71 22.07 36.71 22.07 23.64 20.52 23.64 20.52 23.21 25.93 23.21 25.93 23.64 24.38 23.64 24.38 36.71 25.93 36.71 25.93 37.14"></polygon>
                <path d="M34.98,28.41 C35.49,28.89 35.74,29.57 35.74,30.45 L35.74,36.71 L36.9,36.71 L36.9,37.14 L33.03,37.14 L33.03,36.71 L33.88,36.71 L33.88,29.94 C33.88,29.37 33.74,28.95 33.45,28.66 C33.17,28.38 32.81,28.23 32.39,28.23 C31.91,28.23 31.49,28.4 31.12,28.74 C30.75,29.08 30.57,29.5 30.57,30.01 L30.57,36.7 L31.36,36.7 L31.36,37.13 L27.57,37.13 L27.57,36.72 L28.73,36.72 L28.73,28.27 L27.57,28.27 L27.57,27.84 L30.35,27.84 L30.45,28.98 C30.45,28.98 30.49,28.89 30.53,28.84 C30.57,28.78 30.66,28.68 30.8,28.53 C30.94,28.38 31.1,28.25 31.28,28.13 C31.46,28.01 31.7,27.91 32,27.81 C32.3,27.71 32.63,27.67 32.98,27.67 C33.79,27.67 34.45,27.91 34.96,28.39 L34.98,28.41 Z" id="Path"></path>
                <polygon id="Path" points="44.96 28.27 42.02 37.34 41.63 37.34 38.17 28.27 37.28 28.27 37.28 27.86 40.9 27.86 40.9 28.27 40.05 28.27 42.39 34.71 44.44 28.27 43.28 28.27 43.28 27.86 46.01 27.86 46.01 28.27 44.97 28.27"></polygon>
                <path d="M48.21,32.13 C48.21,34.02 48.22,35.11 48.25,35.38 C48.29,35.86 48.48,36.24 48.83,36.54 C49.18,36.84 49.58,36.98 50.05,36.98 C50.78,36.98 51.4,36.75 51.9,36.29 C52.4,35.83 52.64,35.32 52.64,34.75 L52.99,34.75 C52.99,35.51 52.68,36.13 52.06,36.61 C51.44,37.09 50.74,37.33 49.95,37.33 C48.93,37.33 48.1,37.01 47.47,36.37 C46.83,35.73 46.48,34.92 46.42,33.92 C46.39,33.56 46.38,33.09 46.38,32.51 C46.38,31.93 46.39,31.45 46.42,31.04 C46.48,30.06 46.84,29.25 47.48,28.61 C48.12,27.97 48.95,27.65 49.95,27.65 C50.86,27.65 51.65,27.99 52.31,28.66 C52.97,29.33 53.3,30.15 53.3,31.12 L53.3,32.13 L48.22,32.13 L48.21,32.13 Z M48.21,31.72 L51.54,31.72 C51.54,30.62 51.54,29.92 51.52,29.61 C51.49,29.16 51.33,28.78 51.02,28.46 C50.71,28.14 50.35,27.99 49.94,27.99 C48.91,27.99 48.35,28.54 48.26,29.63 C48.23,29.9 48.22,30.6 48.22,31.72 L48.21,31.72 Z" id="Shape"></path>
                <path d="M59.53,36.45 C59.92,36.08 60.12,35.65 60.12,35.16 C60.12,34.61 59.95,34.18 59.6,33.87 C59.25,33.57 58.83,33.35 58.32,33.23 C57.82,33.11 57.32,32.98 56.82,32.83 C56.32,32.69 55.9,32.42 55.55,32.04 C55.2,31.65 55.03,31.12 55.03,30.44 C55.03,29.67 55.31,29.01 55.86,28.47 C56.41,27.93 57.1,27.66 57.93,27.66 C58.59,27.66 59.17,27.85 59.69,28.22 C59.84,28.34 59.95,28.39 60.02,28.39 C60.21,28.39 60.31,28.21 60.31,27.85 L60.7,27.85 L60.7,30.38 L60.31,30.38 C60.31,29.68 60.07,29.11 59.59,28.67 C59.11,28.23 58.55,28 57.91,28 C57.41,28 56.96,28.15 56.56,28.46 C56.16,28.77 55.96,29.16 55.96,29.62 C55.96,30.08 56.09,30.44 56.36,30.73 C56.62,31.02 56.96,31.22 57.36,31.33 C57.76,31.44 58.19,31.57 58.66,31.71 C59.13,31.85 59.57,32 59.96,32.15 C60.36,32.3 60.69,32.58 60.96,32.97 C61.22,33.36 61.36,33.86 61.36,34.45 C61.36,35.26 61.05,35.94 60.43,36.49 C59.81,37.04 59.01,37.31 58.01,37.31 C57.29,37.31 56.62,37.1 56,36.69 C55.82,36.57 55.69,36.52 55.61,36.52 C55.42,36.52 55.32,36.72 55.32,37.12 L54.93,37.12 L54.93,34.59 L55.32,34.59 C55.32,35.27 55.6,35.84 56.17,36.3 C56.74,36.76 57.35,36.99 58.01,36.99 C58.63,36.99 59.13,36.81 59.53,36.44 L59.53,36.45 Z" id="Path"></path>
                <path d="M63.68,28.29 L62.52,28.29 L62.52,27.86 L63.68,27.86 L63.68,26.93 L65.32,25.71 L65.53,25.71 L65.53,27.86 L68.22,27.86 L68.22,28.29 L65.53,28.29 C65.54,32.74 65.55,35.05 65.55,35.23 C65.55,35.72 65.65,36.13 65.85,36.46 C66.05,36.79 66.35,36.95 66.75,36.95 C67.19,36.95 67.53,36.79 67.77,36.48 C68.02,36.16 68.14,35.83 68.14,35.48 L68.57,35.48 C68.57,35.93 68.4,36.35 68.07,36.75 C67.74,37.14 67.21,37.34 66.5,37.34 C65.56,37.34 64.86,37.07 64.39,36.54 C63.93,36.01 63.69,35.33 63.69,34.52 L63.67,28.3 L63.68,28.29 Z" id="Path"></path>
                <path d="M69.54,37.14 L69.54,36.71 L70.7,36.71 L70.7,28.28 L69.54,28.28 L69.54,27.85 L72.56,27.85 L72.56,36.7 L73.72,36.7 L73.72,37.13 L69.54,37.13 L69.54,37.14 Z M72.48,25.66 C72.25,25.89 71.96,26.01 71.63,26.01 C71.3,26.01 71.01,25.9 70.78,25.67 C70.55,25.44 70.43,25.16 70.43,24.83 C70.43,24.5 70.55,24.21 70.78,23.98 C71.01,23.75 71.3,23.63 71.63,23.63 C71.96,23.63 72.25,23.75 72.48,23.98 C72.71,24.21 72.83,24.5 72.83,24.83 C72.83,25.16 72.71,25.43 72.48,25.66 L72.48,25.66 Z" id="Shape"></path>
                <path d="M81.34,33.55 C80.66,34.23 79.84,34.56 78.88,34.56 L78.07,34.56 C77.62,34.56 77.24,34.66 76.92,34.86 C76.6,35.06 76.45,35.31 76.45,35.6 C76.45,36.21 76.86,36.52 77.67,36.53 L80.14,36.57 C80.94,36.6 81.55,36.74 81.98,37.01 C82.68,37.46 83.02,38.18 83.02,39.16 C83.02,39.88 82.78,40.47 82.29,40.94 C81.8,41.4 81.13,41.68 80.28,41.77 C79.79,41.82 79.37,41.85 79,41.85 C78.57,41.85 78.12,41.82 77.63,41.77 C76.93,41.71 76.4,41.51 76.02,41.19 C75.64,40.87 75.45,40.46 75.45,39.97 C75.45,39.73 75.5,39.5 75.59,39.28 C75.68,39.07 75.77,38.92 75.86,38.83 L76,38.68 L76.31,38.95 C76.05,39.19 75.92,39.52 75.92,39.94 C75.92,40.31 76.07,40.63 76.37,40.88 C76.67,41.13 77.1,41.29 77.66,41.35 C78.12,41.4 78.56,41.43 78.97,41.43 C79.38,41.43 79.8,41.4 80.27,41.35 C80.85,41.27 81.31,41.09 81.66,40.79 C82.01,40.49 82.18,40.11 82.18,39.65 C82.18,39.25 82.04,38.93 81.75,38.7 C81.47,38.47 81.08,38.34 80.59,38.31 C80.41,38.31 79.87,38.31 78.96,38.29 C78.05,38.27 77.51,38.26 77.35,38.25 C76.67,38.22 76.15,38.05 75.8,37.72 C75.45,37.39 75.28,36.98 75.28,36.49 C75.28,35.91 75.53,35.41 76.03,35 C76.53,34.59 77.08,34.37 77.67,34.34 C77,34.08 76.46,33.66 76.04,33.07 C75.62,32.48 75.41,31.82 75.41,31.09 C75.41,30.12 75.75,29.3 76.43,28.63 C77.11,27.95 77.93,27.62 78.89,27.62 C79.61,27.62 80.27,27.83 80.86,28.26 C81.49,27.73 82.1,27.47 82.7,27.47 C83,27.47 83.22,27.55 83.39,27.71 C83.56,27.87 83.63,28.05 83.63,28.26 C83.63,28.49 83.55,28.68 83.4,28.81 C83.25,28.95 83.08,29.01 82.92,29.01 C82.7,29.01 82.53,28.96 82.4,28.86 C82.27,28.76 82.19,28.64 82.17,28.52 C82.14,28.4 82.11,28.29 82.05,28.18 C82,28.08 81.93,28.03 81.84,28.03 C81.67,28.03 81.43,28.16 81.11,28.42 C81.96,29.12 82.39,30.01 82.39,31.11 C82.39,32.06 82.05,32.88 81.37,33.56 L81.34,33.55 Z M80.52,32.02 C80.52,31.67 80.52,31.36 80.52,31.1 C80.52,30.22 80.52,29.71 80.5,29.57 C80.46,29.07 80.29,28.67 80,28.38 C79.7,28.09 79.33,27.95 78.88,27.95 C78.43,27.95 78.06,28.09 77.76,28.38 C77.46,28.67 77.3,29.07 77.26,29.57 C77.25,29.7 77.24,30.11 77.24,30.81 C77.24,31.84 77.24,32.43 77.26,32.59 C77.29,33.05 77.45,33.44 77.75,33.75 C78.05,34.06 78.43,34.21 78.88,34.21 C79.33,34.21 79.69,34.06 80,33.75 C80.31,33.44 80.48,33.05 80.5,32.59 C80.5,32.56 80.5,32.37 80.5,32.02 L80.52,32.02 Z" id="Shape"></path>
                <path d="M86.1,28.26 C86.77,27.87 87.48,27.67 88.23,27.67 C89.22,27.67 90.01,27.91 90.59,28.4 C91.17,28.89 91.49,29.55 91.54,30.39 L91.56,36.73 L92.72,36.73 L92.72,37.14 L89.92,37.14 L89.84,35.96 C89.39,36.84 88.64,37.27 87.58,37.27 C86.68,37.27 85.96,37.01 85.42,36.5 C84.89,35.98 84.62,35.32 84.62,34.51 C84.62,33.47 84.93,32.74 85.55,32.34 C86.17,31.94 87.02,31.74 88.1,31.74 L89.74,31.74 L89.74,29.61 C89.74,29.09 89.59,28.7 89.3,28.43 C89,28.16 88.62,28.02 88.16,28.02 C87.76,28.02 87.38,28.09 87.02,28.22 C86.66,28.36 86.38,28.52 86.19,28.71 C86.42,28.72 86.62,28.81 86.77,28.98 C86.92,29.15 87,29.35 87,29.58 C87,29.85 86.91,30.08 86.72,30.27 C86.53,30.46 86.3,30.55 86.03,30.55 C85.76,30.55 85.54,30.46 85.36,30.27 C85.19,30.08 85.1,29.85 85.1,29.58 C85.1,29.08 85.43,28.63 86.1,28.24 L86.1,28.26 Z M89.72,32.14 L88.33,32.14 C87.21,32.14 86.59,32.68 86.47,33.76 C86.44,33.95 86.43,34.24 86.43,34.61 C86.43,34.96 86.44,35.25 86.47,35.5 C86.52,35.96 86.67,36.32 86.9,36.56 C87.13,36.8 87.44,36.93 87.82,36.93 C88.37,36.93 88.83,36.72 89.18,36.3 C89.53,35.88 89.71,35.43 89.71,34.94 L89.71,32.14 L89.72,32.14 Z" id="Shape"></path>
                <path d="M99.44,36.3 C99.9,35.84 100.14,35.33 100.14,34.76 L100.49,34.76 C100.49,35.52 100.2,36.14 99.62,36.61 C99.04,37.08 98.36,37.32 97.59,37.33 L97.05,38.32 C97.33,38.23 97.62,38.18 97.9,38.18 C98.33,38.18 98.69,38.3 98.98,38.53 C99.28,38.76 99.42,39.08 99.42,39.48 C99.42,40.05 99.19,40.48 98.72,40.77 C98.25,41.06 97.71,41.21 97.08,41.21 C96.76,41.21 96.45,41.18 96.16,41.13 C95.87,41.08 95.66,41.03 95.53,40.98 L95.36,40.88 L95.57,40.42 C95.89,40.56 96.27,40.63 96.71,40.63 C97.02,40.63 97.3,40.55 97.54,40.39 C97.78,40.23 97.91,40 97.91,39.7 C97.91,39.44 97.83,39.25 97.67,39.11 C97.51,38.97 97.31,38.91 97.06,38.91 C96.88,38.91 96.68,38.94 96.46,39.01 L96.19,38.89 L97.02,37.31 C96.21,37.19 95.53,36.83 95,36.21 C94.46,35.59 94.17,34.84 94.1,33.95 C94.07,33.59 94.06,33.12 94.06,32.54 C94.06,31.96 94.07,31.48 94.1,31.07 C94.16,30.09 94.52,29.28 95.17,28.64 C95.82,28 96.65,27.68 97.65,27.68 C98.42,27.68 99.08,27.9 99.61,28.35 C100.14,28.79 100.41,29.27 100.41,29.77 C100.41,30.04 100.32,30.27 100.15,30.46 C99.98,30.65 99.75,30.74 99.48,30.74 C99.21,30.74 98.98,30.65 98.79,30.46 C98.6,30.27 98.51,30.04 98.51,29.77 C98.51,29.53 98.6,29.33 98.79,29.17 C98.98,29.02 99.2,28.93 99.46,28.9 C99.31,28.66 99.06,28.45 98.72,28.27 C98.38,28.1 98.04,28.01 97.71,28.01 C97.18,28.01 96.76,28.16 96.45,28.45 C96.14,28.75 95.97,29.15 95.93,29.65 C95.9,29.95 95.89,30.91 95.89,32.55 C95.89,34.19 95.9,35.12 95.93,35.39 C95.97,35.87 96.15,36.25 96.47,36.55 C96.79,36.85 97.19,36.99 97.65,36.99 C98.37,36.99 98.96,36.76 99.43,36.3 L99.44,36.3 Z" id="Path"></path>
                <path d="M103.42,28.26 C104.09,27.87 104.8,27.67 105.55,27.67 C106.54,27.67 107.33,27.91 107.91,28.4 C108.49,28.89 108.81,29.55 108.86,30.39 L108.88,36.73 L110.04,36.73 L110.04,37.14 L107.24,37.14 L107.16,35.96 C106.71,36.84 105.96,37.27 104.9,37.27 C104,37.27 103.28,37.01 102.74,36.5 C102.21,35.98 101.94,35.32 101.94,34.51 C101.94,33.47 102.25,32.74 102.87,32.34 C103.49,31.94 104.34,31.74 105.42,31.74 L107.06,31.74 L107.06,29.61 C107.06,29.09 106.91,28.7 106.62,28.43 C106.32,28.16 105.94,28.02 105.48,28.02 C105.08,28.02 104.7,28.09 104.34,28.22 C103.98,28.36 103.7,28.52 103.51,28.71 C103.74,28.72 103.94,28.81 104.09,28.98 C104.24,29.15 104.32,29.35 104.32,29.58 C104.32,29.85 104.23,30.08 104.04,30.27 C103.85,30.46 103.62,30.55 103.35,30.55 C103.08,30.55 102.86,30.46 102.68,30.27 C102.51,30.08 102.42,29.85 102.42,29.58 C102.42,29.08 102.75,28.63 103.42,28.24 L103.42,28.26 Z M108.44,25.6 C108.03,26.03 107.52,26.24 106.88,26.24 C106.51,26.24 106.01,26.08 105.4,25.77 C104.79,25.45 104.38,25.3 104.17,25.3 C103.89,25.3 103.63,25.4 103.41,25.61 C103.18,25.82 103.07,26.04 103.07,26.27 L102.43,26.27 C102.43,25.72 102.64,25.22 103.05,24.79 C103.46,24.36 103.97,24.14 104.58,24.14 C104.94,24.14 105.43,24.29 106.06,24.6 C106.69,24.91 107.13,25.06 107.4,25.06 C107.64,25.06 107.87,24.95 108.08,24.73 C108.29,24.51 108.39,24.29 108.39,24.07 L109.05,24.07 C109.05,24.66 108.85,25.17 108.44,25.6 L108.44,25.6 Z M107.04,32.13 L105.65,32.13 C104.53,32.13 103.91,32.67 103.79,33.75 C103.76,33.94 103.75,34.23 103.75,34.6 C103.75,34.95 103.76,35.24 103.79,35.49 C103.84,35.95 103.99,36.31 104.22,36.55 C104.45,36.79 104.76,36.92 105.14,36.92 C105.69,36.92 106.15,36.71 106.5,36.29 C106.85,35.87 107.03,35.42 107.03,34.93 L107.03,32.13 L107.04,32.13 Z" id="Shape"></path>
                <path d="M117.29,36.36 C116.64,37.01 115.84,37.34 114.88,37.34 C113.92,37.34 113.14,37.02 112.49,36.37 C111.84,35.73 111.48,34.91 111.42,33.93 C111.39,33.57 111.38,33.1 111.38,32.52 C111.38,31.94 111.39,31.46 111.42,31.05 C111.48,30.08 111.84,29.28 112.48,28.63 C113.12,27.99 113.92,27.66 114.88,27.66 C115.84,27.66 116.63,27.98 117.28,28.62 C117.92,29.26 118.28,30.07 118.34,31.05 C118.37,31.46 118.38,31.95 118.38,32.52 C118.38,33.09 118.37,33.57 118.34,33.93 C118.29,34.9 117.94,35.71 117.29,36.36 L117.29,36.36 Z M116.55,32.54 C116.55,30.9 116.54,29.94 116.51,29.64 C116.47,29.15 116.3,28.75 116.01,28.45 C115.71,28.15 115.34,28 114.89,28 C114.44,28 114.07,28.15 113.77,28.45 C113.47,28.75 113.31,29.15 113.27,29.64 C113.24,29.94 113.23,30.9 113.23,32.54 C113.23,34.18 113.24,35.11 113.27,35.38 C113.31,35.87 113.48,36.26 113.77,36.56 C114.07,36.86 114.44,37 114.89,37 C115.34,37 115.7,36.85 115.99,36.56 C116.29,36.26 116.46,35.87 116.51,35.38 C116.54,35.11 116.55,34.16 116.55,32.54 Z" id="Shape"></path>
                <path d="M1.64,55.86 C1.64,57.56 1.65,58.53 1.67,58.77 C1.7,59.2 1.88,59.54 2.19,59.81 C2.5,60.08 2.86,60.21 3.28,60.21 C3.94,60.21 4.49,60 4.93,59.6 C5.37,59.19 5.6,58.73 5.6,58.22 L5.91,58.22 C5.91,58.9 5.63,59.45 5.08,59.88 C4.53,60.31 3.9,60.52 3.19,60.52 C2.28,60.52 1.54,60.23 0.97,59.66 C0.4,59.09 0.08,58.36 0.03,57.47 C0.01,57.15 -2.84217094e-14,56.73 -2.84217094e-14,56.21 C-2.84217094e-14,55.69 0.01,55.26 0.03,54.89 C0.09,54.01 0.4,53.29 0.98,52.72 C1.56,52.15 2.3,51.86 3.2,51.86 C4.02,51.86 4.72,52.16 5.31,52.76 C5.9,53.36 6.19,54.09 6.19,54.96 L6.19,55.86 L1.64,55.86 L1.64,55.86 Z M1.64,55.5 L4.62,55.5 C4.62,54.52 4.62,53.89 4.6,53.61 C4.58,53.21 4.43,52.86 4.15,52.58 C3.87,52.3 3.55,52.16 3.18,52.16 C2.26,52.16 1.75,52.65 1.67,53.63 C1.65,53.87 1.64,54.5 1.64,55.5 L1.64,55.5 Z" id="Shape"></path>
                <path d="M16.2,60.34 L16.2,59.96 L16.98,59.96 L16.98,53.85 C16.98,53.39 16.88,53.03 16.68,52.77 C16.48,52.51 16.2,52.38 15.86,52.38 C15.52,52.38 15.18,52.54 14.86,52.87 C14.54,53.2 14.38,53.55 14.38,53.92 L14.38,59.96 L15.16,59.96 L15.16,60.34 L11.96,60.34 L11.96,59.96 L12.72,59.96 L12.72,53.85 C12.72,52.87 12.35,52.38 11.61,52.38 C11.24,52.38 10.9,52.54 10.58,52.86 C10.26,53.18 10.1,53.5 10.1,53.82 L10.1,59.97 L10.81,59.97 L10.81,60.35 L7.42,60.35 L7.42,59.99 L8.46,59.99 L8.46,52.42 L7.42,52.42 L7.42,52.04 L9.91,52.04 L10,53.04 C10,53.04 10.03,52.96 10.07,52.91 C10.1,52.86 10.19,52.77 10.31,52.63 C10.43,52.49 10.58,52.38 10.73,52.27 C10.88,52.17 11.09,52.07 11.35,51.98 C11.62,51.89 11.89,51.85 12.18,51.85 C12.69,51.85 13.11,51.96 13.46,52.18 C13.81,52.4 14.03,52.61 14.12,52.82 L14.24,53.15 C14.24,53.15 14.29,53.07 14.33,53.01 C14.36,52.95 14.45,52.85 14.57,52.7 C14.69,52.55 14.83,52.42 14.98,52.3 C15.12,52.18 15.32,52.08 15.58,51.99 C15.83,51.9 16.1,51.85 16.38,51.85 C17.12,51.85 17.68,52.05 18.08,52.44 C18.47,52.83 18.67,53.43 18.67,54.22 L18.67,59.95 L19.6,59.95 L19.6,60.33 L16.22,60.33 L16.2,60.34 Z" id="Path"></path>
                <path d="M25.44,56.34 L25.87,56.34 L25.87,56.57 C25.87,57.63 26.28,58.49 27.11,59.15 C27.94,59.81 28.86,60.15 29.87,60.15 C30.77,60.15 31.51,59.87 32.08,59.31 C32.65,58.75 32.94,58.1 32.94,57.37 C32.94,56.87 32.83,56.43 32.62,56.06 C32.41,55.69 32.13,55.4 31.78,55.2 C31.43,55 31.04,54.81 30.59,54.64 C30.15,54.47 29.69,54.32 29.23,54.2 C28.77,54.08 28.31,53.91 27.87,53.71 C27.43,53.51 27.03,53.27 26.68,53.01 C26.33,52.75 26.05,52.39 25.84,51.93 C25.63,51.47 25.52,50.92 25.52,50.31 C25.52,49.2 25.95,48.25 26.82,47.45 C27.69,46.65 28.74,46.25 29.98,46.25 C30.93,46.25 31.82,46.57 32.65,47.2 C32.84,47.35 33,47.43 33.11,47.43 C33.35,47.43 33.48,47.24 33.48,46.85 L33.48,46.44 L33.89,46.44 L33.89,50.64 L33.45,50.64 L33.45,50.25 C33.45,49.22 33.09,48.36 32.38,47.66 C31.67,46.96 30.86,46.62 29.97,46.62 C29.17,46.62 28.48,46.86 27.91,47.34 C27.34,47.82 27.05,48.45 27.05,49.21 C27.05,49.76 27.19,50.23 27.48,50.61 C27.76,50.99 28.14,51.29 28.6,51.51 C29.06,51.73 29.57,51.92 30.13,52.09 C30.68,52.26 31.24,52.44 31.78,52.64 C32.33,52.84 32.83,53.08 33.3,53.36 C33.76,53.64 34.14,54.03 34.42,54.53 C34.7,55.03 34.85,55.64 34.85,56.35 C34.85,57.52 34.37,58.52 33.42,59.34 C32.47,60.16 31.3,60.57 29.92,60.57 C29.38,60.57 28.86,60.49 28.36,60.32 C27.86,60.15 27.52,60 27.32,59.87 C27.12,59.73 26.87,59.55 26.56,59.32 C26.42,59.2 26.3,59.15 26.19,59.15 C26,59.15 25.9,59.32 25.9,59.67 L25.9,60.39 L25.47,60.39 L25.45,56.39 L25.44,56.34 Z" id="Path"></path>
                <path d="M38.16,51.46 C38.83,51.07 39.54,50.87 40.29,50.87 C41.28,50.87 42.07,51.11 42.65,51.6 C43.23,52.09 43.55,52.75 43.6,53.59 L43.62,59.93 L44.78,59.93 L44.78,60.34 L41.98,60.34 L41.9,59.16 C41.45,60.04 40.7,60.47 39.64,60.47 C38.74,60.47 38.02,60.21 37.48,59.7 C36.94,59.19 36.68,58.52 36.68,57.71 C36.68,56.67 36.99,55.94 37.61,55.54 C38.23,55.14 39.08,54.94 40.16,54.94 L41.8,54.94 L41.8,52.81 C41.8,52.29 41.65,51.9 41.36,51.63 C41.06,51.36 40.68,51.22 40.22,51.22 C39.82,51.22 39.44,51.29 39.08,51.42 C38.72,51.56 38.44,51.72 38.25,51.91 C38.48,51.92 38.68,52.01 38.83,52.18 C38.98,52.35 39.06,52.55 39.06,52.78 C39.06,53.05 38.97,53.28 38.78,53.47 C38.59,53.66 38.36,53.75 38.09,53.75 C37.82,53.75 37.6,53.66 37.42,53.47 C37.25,53.28 37.16,53.05 37.16,52.78 C37.16,52.28 37.49,51.83 38.16,51.44 L38.16,51.46 Z M41.78,55.34 L40.39,55.34 C39.27,55.34 38.65,55.88 38.53,56.96 C38.5,57.15 38.49,57.44 38.49,57.81 C38.49,58.16 38.5,58.45 38.53,58.7 C38.58,59.16 38.73,59.52 38.96,59.76 C39.19,60 39.5,60.13 39.88,60.13 C40.43,60.13 40.89,59.92 41.24,59.5 C41.59,59.08 41.77,58.63 41.77,58.14 L41.77,55.34 L41.78,55.34 Z" id="Shape"></path>
                <path d="M53.57,51.47 C53.58,54.81 53.58,56.67 53.57,57.06 C53.53,58.03 53.18,58.85 52.52,59.52 C51.86,60.2 51.05,60.54 50.09,60.54 C49.13,60.54 48.32,60.2 47.65,59.52 C46.98,58.84 46.63,58.02 46.61,57.06 L46.61,51.47 L45.45,51.47 L45.45,51.06 L49.45,51.06 L49.45,51.47 L48.44,51.47 C48.43,55.81 48.44,58.19 48.46,58.6 C48.49,59.06 48.65,59.45 48.95,59.75 C49.25,60.05 49.63,60.2 50.08,60.2 C50.53,60.2 50.89,60.05 51.2,59.74 C51.51,59.43 51.68,59.05 51.7,58.6 L51.72,51.47 L50.71,51.47 L50.71,51.06 L54.71,51.06 L54.71,51.47 L53.55,51.47 L53.57,51.47 Z M53.18,47.68 L49.82,49.94 L48.8,49.94 L52.16,46.5 C52.31,46.35 52.51,46.27 52.74,46.27 C52.95,46.27 53.13,46.35 53.28,46.52 C53.43,46.69 53.51,46.87 53.51,47.08 C53.51,47.35 53.4,47.55 53.18,47.68 L53.18,47.68 Z" id="Shape"></path>
                <path d="M56.93,59.55 C56.38,58.93 56.08,58.13 56.03,57.13 C56,56.77 55.99,56.28 55.99,55.66 C55.99,55.04 56,54.55 56.03,54.13 C56.09,53.15 56.4,52.36 56.96,51.76 C57.51,51.16 58.23,50.86 59.11,50.86 C59.54,50.86 59.92,50.95 60.25,51.12 C60.59,51.29 60.82,51.46 60.95,51.63 L61.12,51.9 L61.12,46.84 L60.1,46.84 L60.1,46.41 L62.98,46.41 L62.98,59.92 L64.14,59.92 L64.14,60.33 L61.34,60.33 L61.26,59.15 C61.26,59.15 61.22,59.24 61.19,59.29 C61.16,59.34 61.08,59.45 60.96,59.6 C60.84,59.75 60.7,59.88 60.55,60 C60.4,60.12 60.2,60.22 59.94,60.32 C59.68,60.42 59.41,60.46 59.11,60.46 C58.21,60.46 57.48,60.15 56.94,59.53 L56.93,59.55 Z M59.28,60.11 C59.74,60.11 60.16,59.94 60.52,59.6 C60.88,59.26 61.08,58.85 61.12,58.37 C61.15,58.1 61.16,57.22 61.16,55.74 C61.16,54.17 61.15,53.23 61.12,52.94 C61.08,52.48 60.87,52.08 60.49,51.74 C60.11,51.4 59.71,51.24 59.28,51.24 C58.85,51.24 58.54,51.38 58.29,51.67 C58.05,51.95 57.9,52.35 57.86,52.85 C57.83,53.15 57.82,54.11 57.82,55.75 C57.82,57.39 57.83,58.26 57.86,58.53 C57.96,59.59 58.43,60.11 59.27,60.11 L59.28,60.11 Z" id="Shape"></path>
                <path d="M67.32,55.34 C67.32,57.23 67.33,58.32 67.36,58.59 C67.4,59.07 67.59,59.45 67.94,59.75 C68.29,60.05 68.69,60.19 69.16,60.19 C69.89,60.19 70.51,59.96 71.01,59.5 C71.51,59.04 71.75,58.53 71.75,57.96 L72.1,57.96 C72.1,58.72 71.79,59.34 71.17,59.82 C70.55,60.3 69.85,60.54 69.06,60.54 C68.04,60.54 67.21,60.22 66.58,59.58 C65.94,58.94 65.59,58.13 65.53,57.13 C65.5,56.77 65.49,56.3 65.49,55.72 C65.49,55.14 65.5,54.66 65.53,54.25 C65.59,53.27 65.95,52.46 66.59,51.82 C67.23,51.18 68.06,50.86 69.06,50.86 C69.97,50.86 70.76,51.2 71.42,51.87 C72.08,52.54 72.41,53.36 72.41,54.33 L72.41,55.34 L67.33,55.34 L67.32,55.34 Z M67.32,54.93 L70.65,54.93 C70.65,53.83 70.65,53.13 70.63,52.82 C70.6,52.37 70.44,51.99 70.13,51.67 C69.82,51.35 69.46,51.2 69.05,51.2 C68.02,51.2 67.46,51.75 67.37,52.84 C67.34,53.11 67.33,53.81 67.33,54.93 L67.32,54.93 Z" id="Shape"></path>
            </g>
        </g>
    </g>
</svg>