<?xml version="1.0" encoding="UTF-8"?>
<svg width="280px" height="42px" viewBox="0 0 280 42" version="1.1" xmlns="http://www.w3.org/2000/svg" xmlns:xlink="http://www.w3.org/1999/xlink">
    <title>Asset 6</title>
    <defs>
        <linearGradient x1="50%" y1="99.9694644%" x2="50%" y2="4.66093023e-14%" id="linearGradient-1">
            <stop stop-color="#F8D60D" offset="9%"></stop>
            <stop stop-color="#F4BC19" offset="28%"></stop>
            <stop stop-color="#EF9121" offset="55%"></stop>
            <stop stop-color="#F1A81E" offset="65%"></stop>
            <stop stop-color="#F7CA14" offset="83%"></stop>
            <stop stop-color="#F8D60D" offset="92%"></stop>
        </linearGradient>
        <linearGradient x1="49.9944293%" y1="99.9612842%" x2="49.9944293%" y2="0.000379916549%" id="linearGradient-2">
            <stop stop-color="#B8202D" offset="0%"></stop>
            <stop stop-color="#BE2029" offset="4%"></stop>
            <stop stop-color="#C92127" offset="19%"></stop>
            <stop stop-color="#D02027" offset="39%"></stop>
            <stop stop-color="#D22027" offset="94%"></stop>
            <stop stop-color="#DD2D2A" offset="95%"></stop>
            <stop stop-color="#E74138" offset="97%"></stop>
            <stop stop-color="#CE2328" offset="98%"></stop>
            <stop stop-color="#C12126" offset="98%"></stop>
        </linearGradient>
    </defs>
    <g id="Page-1" stroke="none" stroke-width="1" fill="none" fill-rule="evenodd">
        <g id="Asset-6" transform="translate(0.993400, -0.000156)" fill-rule="nonzero">
            <g id="Group">
                <g id="Camada_1" transform="translate(0.000000, 0.000000)">
                    <path d="M28.9366,0.320155979 L30.9666,0.320155979 C30.9666,0.320155979 32.4066,0.140155979 32.8766,1.16015598 C33.3466,2.17015598 47.5066,40.710156 47.5066,40.710156 L31.0166,41.060156 L21.6866,14.110156 L24.2066,2.68015598 L25.0266,1.45015598 L28.9366,0.310155979 L28.9366,0.320155979 Z" id="Path" fill="#010101"></path>
                    <path d="M14.6166,40.830156 C14.6166,40.830156 18.3566,41.880156 21.0566,39.440156 C23.7566,37.000156 36.9966,27.110156 41.6266,25.810156 L25.1666,25.810156 C25.1666,25.810156 19.7866,26.270156 14.6066,30.770156 L14.6066,40.820156 L14.6166,40.830156 Z" id="Path" fill="url(#linearGradient-1)"></path>
                    <path d="M30.5166,0.320155979 C30.5166,0.320155979 29.0366,0.710155979 28.5366,2.93015598 C28.0366,5.15015598 16.3166,38.060156 16.3166,38.060156 C16.3166,38.060156 15.8066,41.210156 17.0166,41.050156 L1.57660004,41.050156 C1.57660004,41.050156 -0.663399964,40.870156 0.196600036,38.190156 C1.05660004,35.510156 13.2866,1.89015598 13.2866,1.89015598 C13.2866,1.89015598 13.7066,-0.0198440213 15.5566,5.02852968e-16 C17.4066,0.0201559787 30.5166,0.320155979 30.5166,0.320155979 Z" id="Path" fill="url(#linearGradient-2)"></path>
                </g>
                <g transform="translate(49.456600, 8.770156)">
                    <g transform="translate(5.310000, 0.000000)" fill="#1D1D1B">
                        <path d="M5.48,3.96 L5.48,6.03 C4.83,6.29 4.14,6.42 3.44,6.41 C1.32,6.41 -7.10542736e-15,4.93 -7.10542736e-15,3.25 C-7.10542736e-15,1.57 1.12,0.02 3.33,0.02 C4.18,0.02 4.49,0.21 4.8,0.21 C4.87,0.21 4.94,0.19 5,0.14 L5.15,0.14 L5.42,1.32 L5.27,1.37 C4.96,0.95 4.26,0.6 3.5,0.6 C2.2,0.6 1.38,1.7 1.38,3.32 C1.38,4.84 2.26,5.86 3.38,5.86 C3.65,5.87 3.91,5.82 4.15,5.71 L4.15,3.98 C4.17,3.72 3.97,3.49 3.71,3.48 C3.7,3.48 3.68,3.48 3.67,3.48 L3.67,3.37 L5.91,3.37 L5.91,3.48 C5.66,3.5 5.48,3.71 5.49,3.96 L5.48,3.96 Z" id="Path"></path>
                        <path d="M13.35,6.41 C11.22,6.41 10.06,4.82 10.06,3.22 C10.06,1.62 11.07,0 13.36,0 C14.71,0 16.65,0.78 16.65,3.37 C16.65,4.79 15.55,6.42 13.35,6.42 L13.35,6.41 Z M13.37,0.59 C12.55,0.59 11.43,1.2 11.43,3.1 C11.43,4.61 12.11,5.82 13.38,5.82 C14.35,5.82 15.26,5.05 15.26,3.32 C15.26,1.21 14.15,0.59 13.37,0.59 L13.37,0.59 Z" id="Shape"></path>
                        <path d="M25.25,0.9 L22.97,6.57 L20.63,1.01 C20.43,0.53 20.26,0.24 19.98,0.24 L19.98,0.13 L22.22,0.13 L22.22,0.24 C21.87,0.24 21.87,0.54 21.97,0.77 L23.37,4.21 L24.69,0.84 C24.84,0.47 24.79,0.28 24.49,0.26 L24.49,0.15 L25.82,0.15 L25.82,0.26 C25.65,0.26 25.42,0.52 25.25,0.92 L25.25,0.9 Z" id="Path"></path>
                        <path d="M33.58,6.28 L29.55,6.28 L29.55,6.17 C29.8,6.17 29.97,6.08 29.97,5.56 L29.97,0.8 C29.97,0.36 29.69,0.23 29.5,0.23 L29.5,0.12 L33.48,0.12 L33.35,1.06 L33.24,1.04 C33.21,0.69 33,0.64 32.05,0.64 L31.28,0.64 L31.28,2.9 L31.99,2.9 C32.67,2.9 33.24,3 33.24,2.49 L33.37,2.49 L33.37,3.86 L33.24,3.86 C33.24,3.37 32.79,3.42 31.99,3.42 L31.29,3.42 L31.29,5.28 C31.29,5.66 31.49,5.75 31.82,5.75 L32.72,5.75 C33.25,5.75 33.7,5.53 33.88,5.24 L34.01,5.3 L33.58,6.27 L33.58,6.28 Z" id="Path"></path>
                        <path d="M41.65,6.28 L40.04,3.58 C39.89,3.6 39.74,3.61 39.58,3.6 L39.58,5.54 C39.58,6.07 39.95,6.17 40.04,6.17 L40.04,6.28 L37.83,6.28 L37.83,6.17 C37.94,6.17 38.28,6.11 38.28,5.56 L38.28,0.84 C38.28,0.39 38,0.23 37.79,0.23 L37.79,0.12 L39.62,0.12 C39.93,0.12 42.42,-0.11 42.42,1.73 C42.46,2.46 41.97,3.12 41.26,3.29 L42.85,5.71 C42.95,5.86 43.18,6.13 43.45,6.15 L43.45,6.26 L41.65,6.26 L41.65,6.28 Z M40,0.62 L39.58,0.62 L39.58,3.1 C39.58,3.1 39.93,3.1 39.93,3.1 C40.7,3.1 41.13,2.56 41.13,1.86 C41.13,1 40.64,0.63 40.01,0.63 L40,0.62 Z" id="Shape"></path>
                        <path d="M52.63,0.83 L52.63,6.6 L48.12,1.19 L48.12,5.53 C48.12,6.01 48.3,6.17 48.59,6.17 L48.59,6.28 L47.14,6.28 L47.14,6.17 C47.4,6.17 47.58,6.07 47.58,5.59 L47.58,0.89 C47.58,0.34 47.37,0.23 47.11,0.23 L47.11,0.12 L48.94,0.12 L52.07,3.85 L52.07,0.87 C52.07,0.38 51.83,0.23 51.57,0.23 L51.57,0.12 L53.08,0.12 L53.08,0.23 C52.78,0.23 52.63,0.39 52.63,0.82 L52.63,0.83 Z" id="Path"></path>
                        <path d="M60.47,6.41 C58.34,6.41 57.18,4.82 57.18,3.22 C57.18,1.62 58.19,0 60.48,0 C61.83,0 63.77,0.78 63.77,3.37 C63.77,4.79 62.67,6.42 60.47,6.42 L60.47,6.41 Z M60.49,0.59 C59.68,0.59 58.55,1.2 58.55,3.1 C58.55,4.61 59.23,5.82 60.5,5.82 C61.47,5.82 62.38,5.05 62.38,3.32 C62.38,1.21 61.27,0.59 60.49,0.59 L60.49,0.59 Z" id="Shape"></path>
                        <path d="M76.84,6.28 L74.36,6.28 L74.36,6.17 C74.54,6.17 74.81,6.12 74.81,5.56 L74.81,0.84 C74.81,0.42 74.72,0.23 74.32,0.23 L74.32,0.12 L76.93,0.12 C79.49,0.12 80.26,1.87 80.26,3.19 C80.26,4.59 79.31,6.27 76.84,6.27 L76.84,6.28 Z M76.79,0.66 L76.15,0.66 L76.15,5.46 C76.15,5.72 76.38,5.77 76.7,5.77 C78.3,5.77 78.92,4.44 78.92,3.18 C78.92,1.97 78.36,0.66 76.79,0.66 L76.79,0.66 Z" id="Shape"></path>
                        <path d="M88.5,6.28 L84.47,6.28 L84.47,6.17 C84.72,6.17 84.89,6.08 84.89,5.56 L84.89,0.8 C84.89,0.36 84.61,0.23 84.42,0.23 L84.42,0.12 L88.4,0.12 L88.27,1.06 L88.16,1.04 C88.13,0.69 87.91,0.64 86.97,0.64 L86.2,0.64 L86.2,2.9 L86.9,2.9 C87.58,2.9 88.15,3 88.15,2.49 L88.28,2.49 L88.28,3.86 L88.15,3.86 C88.15,3.37 87.7,3.42 86.9,3.42 L86.2,3.42 L86.2,5.28 C86.2,5.66 86.4,5.75 86.73,5.75 L87.64,5.75 C88.17,5.75 88.62,5.53 88.8,5.24 L88.93,5.3 L88.5,6.27 L88.5,6.28 Z" id="Path"></path>
                    </g>
                    <g transform="translate(0.000000, 8.750000)" fill="#010101">
                        <path d="M99.61,14.65 L92.26,14.65 L93.03,13.72 C92.78,13.14 92.53,12.57 92.25,11.92 L87.97,11.92 L87.15,13.69 L87.92,14.6 L84,14.6 C85.14,14.17 85.46,13.12 85.89,12.21 C87.65,8.4 89.36,4.56 91.1,0.74 C91.25,0.48 91.41,0.23 91.6,3.55271368e-15 C92.46,1.72 93.26,3.3 94.05,4.88 C95.35,7.51 96.65,10.14 97.95,12.77 C98.31,13.49 98.67,14.24 99.63,14.31 L99.63,14.65 L99.61,14.65 Z M90.08,6.95 L88.53,10.5 L91.6,10.5 C91.1,9.33 90.65,8.29 90.08,6.95 L90.08,6.95 L90.08,6.95 Z" id="Shape"></path>
                        <path d="M31.93,14.93 L22.27,6.92 C22.27,9.23 22.2,11.22 22.32,13.2 C22.35,13.69 22.96,14.15 23.3,14.6 L8.5,14.6 L9,13.58 L8.21,11.88 L3.97,11.88 C3.7,12.46 3.44,13.03 3.17,13.63 L3.84,14.62 L0,14.62 C1.01,14.12 1.43,13.2 1.85,12.28 C3.62,8.41 5.39,4.54 7.16,0.67 C7.27,0.47 7.38,0.27 7.51,0.09 C7.79,0.53 8.05,0.88 8.24,1.26 C10.16,5.12 12.06,9 13.99,12.86 C14.68,14.24 15.47,14.63 16.74,14.31 C17,14.25 17.22,14.02 17.54,13.82 L17.54,0.41 C20.87,3.17 23.96,5.75 27.24,8.48 L27.24,1.78 L26.23,0.83 L33.28,0.83 C31.98,1.42 31.91,2.26 31.92,3.18 C31.94,7.02 31.93,10.87 31.93,14.92 L31.93,14.93 Z M7.65,10.62 C7.09,9.33 6.87,8.24 5.97,7.28 L4.57,10.45 C4.88,10.52 5.2,10.58 5.52,10.61 C6.13,10.63 6.74,10.61 7.65,10.61 L7.65,10.62 Z" id="Shape"></path>
                        <path d="M60.48,15.07 C59.49,14.89 58.27,14.8 57.13,14.45 C54.04,13.49 52.38,11.15 52.31,7.86 C52.24,4.48 53.99,1.96 57.21,0.98 C59.81,0.19 62.44,0.21 65,1.18 C67.53,2.14 68.96,4 69.24,6.74 C69.73,11.47 67.06,14.16 63.09,14.79 C62.3,14.91 61.5,14.95 60.48,15.06 L60.48,15.07 Z M64.61,7.8 C64.33,6.4 64.18,5.08 63.8,3.84 C63.4,2.53 62.44,1.7 61.02,1.62 C59.53,1.54 58.43,2.3 57.9,3.63 C56.82,6.27 56.82,9.23 57.91,11.86 C58.41,13.1 59.43,13.89 60.87,13.85 C62.31,13.81 63.31,13.05 63.73,11.75 C64.15,10.45 64.32,9.1 64.6,7.8 L64.61,7.8 Z" id="Shape"></path>
                        <path d="M48.63,1.29 C48.54,2.63 48.45,3.8 48.38,4.97 L48.13,5.01 C47.9,4.57 47.68,4.12 47.43,3.68 C46.53,2.1 45.12,1.48 43.37,1.62 C41.54,1.77 40.45,2.86 39.96,4.57 C39.32,6.78 39.37,9.01 39.93,11.22 C40.09,11.77 40.36,12.29 40.73,12.73 C41.96,14.26 43.56,14.21 44.89,12.68 L44.89,8.12 L49.79,8.12 C49.71,9.56 49.62,11.01 49.54,12.44 C46.77,15.08 41.33,15.82 38.08,13.97 C35.48,12.49 34.55,10.09 34.71,7.26 C34.94,3.24 37.19,0.99 41.44,0.53 C43.81,0.26 46.14,0.63 48.63,1.28 L48.63,1.29 Z" id="Path"></path>
                        <path d="M82.58,14.6 L71.43,14.6 C71.64,13.96 72.03,13.32 72.04,12.67 C72.1,9.39 72.1,6.11 72.04,2.83 C72.03,2.17 71.64,1.51 71.41,0.83 L77.48,0.83 C77.24,1.39 76.82,1.93 76.81,2.47 C76.75,6.09 76.78,9.71 76.78,13.29 C80.43,14.19 81.83,12.66 83.02,10.03 C83.16,11.7 82.84,13.05 82.57,14.6 L82.58,14.6 Z" id="Path"></path>
                    </g>
                </g>
            </g>
            <g id="Group" transform="translate(160.706600, 7.310156)">
                <g transform="translate(0.290000, 0.000000)">
                    <path d="M0.02,15.15 L0.02,4.33 L2.36,4.33 L2.36,5 C2.36,5 3.9,4.09 5.17,4.09 C6.44,4.09 7.31,4.41 7.92,5.15 C7.92,5.15 9.89,4.09 11.64,4.09 C14.58,4.09 15.38,5.67 15.38,9.35 L15.38,15.15 L13.04,15.15 L13.04,9.42 C13.04,7.26 12.78,6.2 11.2,6.2 C10.01,6.2 8.73,6.78 8.73,6.78 C8.82,7 8.9,8.49 8.9,9.55 L8.9,15.15 L6.56,15.15 L6.56,9.59 C6.56,7.19 6.32,6.19 4.7,6.19 C3.49,6.19 2.36,6.75 2.36,6.75 L2.36,15.15 L0,15.15 L0.02,15.15 Z" id="Path" fill="#010101"></path>
                    <path d="M18.16,-2.66453526e-15 L20.52,-2.66453526e-15 L20.52,2.49 L18.16,2.49 L18.16,-2.66453526e-15 L18.16,-2.66453526e-15 Z M18.16,4.33 L20.52,4.33 L20.52,15.15 L18.16,15.15 L18.16,4.33 Z" id="Shape" fill="#010101"></path>
                    <path d="M23.37,15.15 L23.37,4.33 L25.71,4.33 L25.71,5 C25.71,5 27.29,4.09 28.7,4.09 C31.71,4.09 32.44,5.8 32.44,9.35 L32.44,15.15 L30.1,15.15 L30.1,9.42 C30.1,7.26 29.82,6.2 28.17,6.2 C26.92,6.2 25.73,6.76 25.73,6.76 L25.73,15.16 L23.37,15.16 L23.37,15.15 Z" id="Path" fill="#010101"></path>
                    <path d="M42.69,6.55 C42.69,6.55 40.14,6.2 38.84,6.2 C37.54,6.2 36.96,6.5 36.96,7.39 C36.96,8.1 37.41,8.3 39.53,8.67 C42.13,9.12 43.06,9.77 43.06,11.94 C43.06,14.47 41.46,15.38 38.78,15.38 C37.29,15.38 34.78,14.9 34.78,14.9 L34.87,12.93 C34.87,12.93 37.47,13.28 38.57,13.28 C40.13,13.28 40.73,12.96 40.73,12 C40.73,11.24 40.36,11 38.22,10.66 C35.84,10.27 34.63,9.75 34.63,7.46 C34.63,5.01 36.53,4.11 38.68,4.11 C40.26,4.11 42.75,4.59 42.75,4.59 L42.71,6.56 L42.69,6.55 Z" id="Path" fill="#010101"></path>
                    <path d="M53.34,12.59 C53.38,13.24 53.66,13.5 54.29,13.59 L54.23,15.39 C52.91,15.39 52.15,15.22 51.35,14.59 C51.35,14.59 49.62,15.39 47.87,15.39 C45.73,15.39 44.65,14.2 44.65,11.95 C44.65,9.7 45.9,8.88 48.22,8.68 L51.01,8.44 L51.01,7.66 C51.01,6.47 50.49,6.1 49.43,6.1 C47.98,6.1 45.36,6.32 45.36,6.32 L45.27,4.65 C45.27,4.65 47.63,4.09 49.62,4.09 C52.26,4.09 53.34,5.19 53.34,7.66 L53.34,12.59 L53.34,12.59 Z M48.49,10.34 C47.49,10.43 47,10.9 47,11.88 C47,12.86 47.41,13.46 48.32,13.46 C49.55,13.46 51,12.98 51,12.98 L51,10.1 L48.49,10.34 L48.49,10.34 Z" id="Shape" fill="#010101"></path>
                    <polygon id="Path" fill="#EB242A" points="56.33 12.68 58.1 12.68 58.1 15.15 56.33 15.15"></polygon>
                    <path d="M60.63,16.96 C60.63,15.7 61.21,15.12 62.34,14.28 C61.95,14.02 61.73,13.46 61.73,12.79 C61.73,12.38 62.47,11.08 62.47,11.08 C61.56,10.67 60.76,9.8 60.76,7.81 C60.76,5.15 62.4,4.11 64.81,4.11 C65.89,4.11 67.06,4.39 67.06,4.39 L70.26,4.3 L70.26,5.68 L68.2,5.64 C68.61,6.05 68.91,6.66 68.91,7.8 C68.91,10.61 67.5,11.46 64.73,11.46 C64.51,11.46 63.91,11.42 63.67,11.37 C63.67,11.37 63.28,12.32 63.28,12.6 C63.28,13.47 63.45,13.6 65.9,13.6 C68.97,13.6 70.08,14.21 70.08,16.78 C70.08,19.35 68.33,20.22 65.28,20.22 C61.86,20.22 60.63,19.46 60.63,16.95 L60.63,16.96 Z M63.44,14.93 C62.53,15.6 62.23,15.99 62.23,16.83 C62.23,18.32 62.86,18.86 65.3,18.86 C67.46,18.86 68.44,18.28 68.44,16.85 C68.44,15.21 67.75,15.03 65.78,15.03 C65.02,15.03 63.44,14.92 63.44,14.92 L63.44,14.93 Z M67.29,7.81 C67.29,6.1 66.62,5.43 64.8,5.43 C63.11,5.43 62.38,6.1 62.38,7.81 C62.38,9.52 63.12,10.17 64.8,10.17 C66.62,10.17 67.29,9.52 67.29,7.81 Z" id="Shape" fill="#EB242A"></path>
                    <path d="M81.02,9.61 C81.02,13.55 80.05,15.37 76.39,15.37 C72.73,15.37 71.76,13.55 71.76,9.61 C71.76,5.89 72.97,4.11 76.39,4.11 C79.81,4.11 81.02,5.88 81.02,9.61 Z M79.35,9.61 C79.35,6.6 78.7,5.52 76.39,5.52 C74.08,5.52 73.43,6.6 73.43,9.61 C73.43,12.62 73.84,13.96 76.39,13.96 C78.94,13.96 79.35,12.68 79.35,9.61 Z" id="Shape" fill="#EB242A"></path>
                    <polygon id="Path" fill="#EB242A" points="84.18 4.33 86.71 13.74 87.51 13.74 90.13 4.33 91.8 4.33 88.75 15.15 85.5 15.15 82.45 4.33 84.18 4.33"></polygon>
                    <polygon id="Path" fill="#EB242A" points="93 12.68 94.77 12.68 94.77 15.15 93 15.15"></polygon>
                    <path d="M105.43,13.13 C105.47,13.76 105.99,14 106.68,14.08 L106.62,15.36 C105.47,15.36 104.69,15.14 104.05,14.49 C104.05,14.49 102.1,15.36 100.15,15.36 C98.2,15.36 97.1,14.24 97.1,12.05 C97.1,9.86 98.18,9.06 100.41,8.85 L103.81,8.53 L103.81,7.6 C103.81,6.09 103.16,5.54 101.86,5.54 C100.35,5.54 97.77,5.82 97.77,5.82 L97.71,4.59 C97.71,4.59 100.09,4.11 101.95,4.11 C104.39,4.11 105.43,5.24 105.43,7.59 L105.43,13.13 L105.43,13.13 Z M100.6,10.06 C99.28,10.19 98.76,10.82 98.76,12.01 C98.76,13.26 99.3,14 100.4,14 C102,14 103.8,13.33 103.8,13.33 L103.8,9.76 L100.6,10.06 L100.6,10.06 Z" id="Shape" fill="#EB242A"></path>
                    <path d="M117.41,9.61 C117.41,13.55 116.44,15.37 112.78,15.37 C109.12,15.37 108.15,13.55 108.15,9.61 C108.15,5.89 109.36,4.11 112.78,4.11 C116.2,4.11 117.41,5.88 117.41,9.61 Z M115.74,9.61 C115.74,6.6 115.09,5.52 112.78,5.52 C110.47,5.52 109.82,6.6 109.82,9.61 C109.82,12.62 110.23,13.96 112.78,13.96 C115.33,13.96 115.74,12.68 115.74,9.61 Z" id="Shape" fill="#EB242A"></path>
                </g>
                <g transform="translate(0.000000, 19.200000)" fill="#010101">
                    <polygon id="Path" points="0.01 0.33 0.99 0.33 2.37 4.46 3.75 0.33 4.73 0.33 4.73 5.21 4.19 5.21 4.19 0.9 4.09 0.9 2.67 5.03 2.06 5.03 0.64 0.9 0.54 0.9 0.54 5.21 -2.84217094e-14 5.21 -2.84217094e-14 0.33"></polygon>
                    <path d="M5.85,0.28 L6.38,0.28 L6.38,0.89 L5.85,0.89 L5.85,0.28 Z M5.85,1.69 L6.38,1.69 L6.38,5.22 L5.85,5.22 L5.85,1.69 Z" id="Shape"></path>
                    <path d="M7.39,5.22 L7.39,1.69 L7.91,1.69 L7.91,1.94 C7.91,1.94 8.48,1.62 9,1.62 C9.97,1.62 10.19,2.1 10.19,3.36 L10.19,5.22 L9.67,5.22 L9.67,3.37 C9.67,2.44 9.56,2.09 8.91,2.09 C8.4,2.09 7.91,2.35 7.91,2.35 L7.91,5.22 L7.38,5.22 L7.39,5.22 Z" id="Path"></path>
                    <path d="M11.18,0.28 L11.71,0.28 L11.71,0.89 L11.18,0.89 L11.18,0.28 Z M11.18,1.69 L11.71,1.69 L11.71,5.22 L11.18,5.22 L11.18,1.69 Z" id="Shape"></path>
                    <path d="M15.07,2.2 C15.07,2.2 14.29,2.09 13.84,2.09 C13.39,2.09 13.07,2.21 13.07,2.63 C13.07,2.96 13.24,3.05 13.99,3.18 C14.87,3.33 15.2,3.5 15.2,4.19 C15.2,5.02 14.68,5.29 13.83,5.29 C13.38,5.29 12.59,5.16 12.59,5.16 L12.62,4.7 C12.62,4.7 13.42,4.82 13.78,4.82 C14.36,4.82 14.67,4.69 14.67,4.21 C14.67,3.84 14.49,3.75 13.72,3.63 C12.92,3.5 12.54,3.35 12.54,2.65 C12.54,1.87 13.17,1.62 13.81,1.62 C14.34,1.62 15.09,1.75 15.09,1.75 L15.09,2.2 L15.07,2.2 Z" id="Path"></path>
                    <path d="M16.71,2.15 L16.71,3.84 C16.71,4.61 16.76,4.83 17.22,4.83 C17.42,4.83 17.85,4.79 17.85,4.79 L17.89,5.23 C17.89,5.23 17.42,5.31 17.17,5.31 C16.44,5.31 16.2,5.03 16.2,4.02 L16.2,2.16 L15.7,2.16 L15.7,1.7 L16.2,1.7 L16.2,0.62 L16.72,0.62 L16.72,1.7 L17.84,1.7 L17.84,2.16 L16.72,2.16 L16.71,2.15 Z" id="Path"></path>
                    <path d="M21.09,4.76 L21.09,5.18 C21.09,5.18 20.3,5.29 19.73,5.29 C18.68,5.29 18.33,4.68 18.33,3.48 C18.33,2.14 18.91,1.62 19.81,1.62 C20.71,1.62 21.23,2.11 21.23,3.27 L21.2,3.67 L18.87,3.67 C18.87,4.42 19.1,4.82 19.79,4.82 C20.32,4.82 21.09,4.76 21.09,4.76 L21.09,4.76 Z M20.69,3.25 C20.69,2.37 20.42,2.06 19.8,2.06 C19.18,2.06 18.86,2.39 18.85,3.25 L20.69,3.25 L20.69,3.25 Z M20.52,0 L20.7,0.45 L19.14,1.05 L18.99,0.69 L20.51,0 L20.52,0 Z" id="Shape"></path>
                    <path d="M22.05,1.69 L22.57,1.69 L22.57,2.17 C22.57,2.17 23.18,1.75 23.86,1.61 L23.86,2.15 C23.2,2.28 22.58,2.63 22.58,2.63 L22.58,5.22 L22.05,5.22 L22.05,1.69 Z" id="Path"></path>
                    <path d="M24.49,0.28 L25.02,0.28 L25.02,0.89 L24.49,0.89 L24.49,0.28 Z M24.49,1.69 L25.02,1.69 L25.02,5.22 L24.49,5.22 L24.49,1.69 Z" id="Shape"></path>
                    <path d="M28.9,3.41 C28.9,4.69 28.58,5.29 27.39,5.29 C26.2,5.29 25.88,4.7 25.88,3.41 C25.88,2.2 26.28,1.62 27.39,1.62 C28.5,1.62 28.9,2.2 28.9,3.41 Z M28.36,3.41 C28.36,2.43 28.15,2.08 27.39,2.08 C26.63,2.08 26.42,2.43 26.42,3.41 C26.42,4.39 26.55,4.83 27.39,4.83 C28.23,4.83 28.36,4.41 28.36,3.41 Z" id="Shape"></path>
                    <path d="M34.02,5.22 L33.5,5.22 L33.5,4.98 C33.5,4.98 32.96,5.29 32.43,5.29 C31.74,5.29 31.16,5.01 31.16,3.48 C31.16,2.24 31.56,1.62 32.64,1.62 C32.94,1.62 33.4,1.69 33.51,1.71 L33.51,0.15 L34.03,0.15 L34.03,5.22 L34.02,5.22 Z M33.5,4.56 L33.5,2.17 C33.39,2.15 32.95,2.09 32.66,2.09 C31.92,2.09 31.7,2.58 31.7,3.49 C31.7,4.63 32.07,4.82 32.49,4.82 C32.99,4.82 33.5,4.56 33.5,4.56 L33.5,4.56 Z" id="Shape"></path>
                    <path d="M37.53,4.56 C37.54,4.76 37.71,4.84 37.94,4.87 L37.92,5.29 C37.55,5.29 37.29,5.22 37.08,5.01 C37.08,5.01 36.44,5.29 35.81,5.29 C35.18,5.29 34.81,4.92 34.81,4.21 C34.81,3.5 35.16,3.24 35.89,3.17 L37,3.06 L37,2.76 C37,2.27 36.79,2.09 36.36,2.09 C35.87,2.09 35.03,2.18 35.03,2.18 L35.01,1.78 C35.01,1.78 35.79,1.62 36.39,1.62 C37.19,1.62 37.53,1.99 37.53,2.76 L37.53,4.57 L37.53,4.56 Z M35.96,3.56 C35.53,3.6 35.36,3.81 35.36,4.2 C35.36,4.61 35.54,4.85 35.9,4.85 C36.42,4.85 37.01,4.63 37.01,4.63 L37.01,3.47 L35.97,3.57 L35.96,3.56 Z" id="Shape"></path>
                    <path d="M42.96,0.85 C42.96,0.85 41.98,0.73 41.57,0.73 C40.88,0.73 40.51,0.98 40.51,1.53 C40.51,2.17 40.85,2.27 41.7,2.46 C42.67,2.68 43.1,2.92 43.1,3.77 C43.1,4.85 42.51,5.27 41.54,5.27 C40.96,5.27 39.99,5.11 39.99,5.11 L40.05,4.66 C40.05,4.66 41.01,4.79 41.51,4.79 C42.2,4.79 42.55,4.49 42.55,3.81 C42.55,3.26 42.26,3.1 41.46,2.95 C40.45,2.73 39.94,2.49 39.94,1.56 C39.94,0.63 40.56,0.25 41.51,0.25 C42.09,0.25 42.99,0.39 42.99,0.39 L42.94,0.85 L42.96,0.85 Z" id="Path"></path>
                    <path d="M46.45,4.56 C46.46,4.76 46.63,4.84 46.86,4.87 L46.84,5.29 C46.47,5.29 46.21,5.22 46,5.01 C46,5.01 45.36,5.29 44.73,5.29 C44.1,5.29 43.73,4.92 43.73,4.21 C43.73,3.5 44.08,3.24 44.81,3.17 L45.92,3.06 L45.92,2.76 C45.92,2.27 45.71,2.09 45.28,2.09 C44.79,2.09 43.95,2.18 43.95,2.18 L43.93,1.78 C43.93,1.78 44.71,1.62 45.31,1.62 C46.11,1.62 46.45,1.99 46.45,2.76 L46.45,4.57 L46.45,4.56 Z M44.88,3.56 C44.45,3.6 44.28,3.81 44.28,4.2 C44.28,4.61 44.46,4.85 44.82,4.85 C45.34,4.85 45.93,4.63 45.93,4.63 L45.93,3.47 L44.89,3.57 L44.88,3.56 Z" id="Shape"></path>
                    <path d="M50.22,1.69 L50.22,5.22 L49.69,5.22 L49.69,4.97 C49.69,4.97 49.16,5.29 48.65,5.29 C47.66,5.29 47.46,4.83 47.46,3.53 L47.46,1.69 L47.99,1.69 L47.99,3.52 C47.99,4.49 48.07,4.81 48.73,4.81 C49.25,4.81 49.7,4.55 49.7,4.55 L49.7,1.68 L50.23,1.68 L50.22,1.69 Z M48.07,0.69 L48.22,1.05 L49.78,0.45 L49.6,0 L48.08,0.69 L48.07,0.69 Z" id="Shape"></path>
                    <path d="M53.95,5.22 L53.43,5.22 L53.43,4.98 C53.43,4.98 52.89,5.29 52.36,5.29 C51.67,5.29 51.09,5.01 51.09,3.48 C51.09,2.24 51.49,1.62 52.56,1.62 C52.86,1.62 53.32,1.69 53.43,1.71 L53.43,0.15 L53.95,0.15 L53.95,5.22 L53.95,5.22 Z M53.43,4.56 L53.43,2.17 C53.32,2.15 52.88,2.09 52.59,2.09 C51.85,2.09 51.63,2.58 51.63,3.49 C51.63,4.63 52,4.82 52.42,4.82 C52.92,4.82 53.43,4.56 53.43,4.56 L53.43,4.56 Z" id="Shape"></path>
                    <path d="M57.57,4.76 L57.57,5.18 C57.57,5.18 56.78,5.29 56.21,5.29 C55.16,5.29 54.81,4.68 54.81,3.48 C54.81,2.14 55.39,1.62 56.28,1.62 C57.17,1.62 57.7,2.11 57.7,3.27 L57.67,3.67 L55.34,3.67 C55.34,4.42 55.57,4.82 56.26,4.82 C56.79,4.82 57.56,4.76 57.56,4.76 L57.57,4.76 Z M57.17,3.25 C57.17,2.37 56.9,2.06 56.28,2.06 C55.66,2.06 55.34,2.39 55.33,3.25 L57.16,3.25 L57.17,3.25 Z" id="Shape"></path>
                </g>
            </g>
            <rect id="Rectangle" fill="#010101" x="155.0766" y="1.36015598" width="1.27" height="36.8" rx="0.63"></rect>
        </g>
    </g>
</svg>