<?xml version="1.0" encoding="utf-8"?>
<!-- Generator: Adobe Illustrator 27.0.0, SVG Export Plug-In . SVG Version: 6.00 Build 0)  -->
<svg version="1.1" id="Layer_1" xmlns="http://www.w3.org/2000/svg" xmlns:xlink="http://www.w3.org/1999/xlink" x="0px" y="0px"
	 viewBox="0 0 595.3 841.9" style="enable-background:new 0 0 595.3 841.9;" xml:space="preserve">
<style type="text/css">
	.st0{opacity:0.3;}
	.st1{fill-rule:evenodd;clip-rule:evenodd;fill:#00AEEF;}
</style>
<g class="st0">
	<g>
		<g>
			<path id="SVGID_1_" class="st1" d="M436.1,818.3c-0.3,0.1-0.6,0.2-0.9,0.2c-0.2,0.2-0.4,0.4-0.6,0.6c0.3-0.1,0.6-0.2,0.8-0.3
				C435.7,818.6,435.9,818.4,436.1,818.3 M439.3,815.7c-0.5,0.1-1,0.2-1.5,0.3c-0.3,0.4-0.7,0.7-1.1,1c0.5-0.1,1-0.3,1.4-0.4
				C438.5,816.4,438.9,816.1,439.3,815.7z M442,815c-0.3,0.1-0.6,0.2-0.8,0.2c-0.2,0.2-0.4,0.4-0.6,0.6c0.3-0.1,0.6-0.2,0.8-0.3
				C441.6,815.4,441.8,815.2,442,815z M442.1,813.2c-0.6,0.1-1.3,0.2-1.9,0.3c-0.4,0.5-0.8,0.9-1.3,1.4c0.6-0.1,1.2-0.3,1.8-0.5
				C441.2,814,441.6,813.6,442.1,813.2z M445.1,812.5c-0.5,0.1-1,0.2-1.5,0.3c-0.3,0.4-0.7,0.7-1,1c0.5-0.1,1-0.3,1.4-0.4
				C444.4,813.2,444.8,812.9,445.1,812.5z M447.8,811.8c-0.3,0.1-0.6,0.2-0.8,0.2c-0.2,0.2-0.4,0.4-0.6,0.6c0.3-0.1,0.6-0.2,0.8-0.3
				C447.4,812.2,447.6,812,447.8,811.8z M503.6,757.9c-0.2,0.1-0.3,0.1-0.5,0.2l-0.1,0.1l0.5-0.2L503.6,757.9z M444.7,810.4
				c-0.7,0.1-1.5,0.2-2.2,0.2c-0.5,0.6-0.9,1.1-1.4,1.7c0.7-0.1,1.4-0.2,2.1-0.4C443.7,811.5,444.2,811,444.7,810.4z M447.9,810
				c-0.6,0.1-1.3,0.2-1.9,0.3c-0.4,0.5-0.8,0.9-1.3,1.4c0.6-0.1,1.2-0.3,1.8-0.4C447.1,810.8,447.5,810.4,447.9,810z M451,809.3
				c-0.5,0.1-1,0.2-1.5,0.3c-0.3,0.4-0.7,0.7-1,1c0.5-0.1,0.9-0.3,1.4-0.4C450.2,810,450.6,809.7,451,809.3z M453.7,808.6
				c-0.3,0.1-0.6,0.2-0.8,0.2c-0.2,0.2-0.4,0.4-0.6,0.6c0.3-0.1,0.6-0.2,0.8-0.3S453.5,808.8,453.7,808.6z M507.4,756.4
				c-0.3,0.1-0.7,0.3-1,0.4c-0.1,0.1-0.3,0.2-0.4,0.3c0.3-0.1,0.7-0.2,1-0.3L507.4,756.4z M509.4,754.7l-0.5,0.2l-0.1,0.1l0.5-0.2
				L509.4,754.7z M447.1,807.6c-0.8,0.1-1.6,0.1-2.4,0.1c-0.5,0.7-1,1.3-1.4,1.9c0.8-0.1,1.6-0.2,2.4-0.3
				C446.1,808.8,446.7,808.2,447.1,807.6z M450.6,807.2c-0.7,0.1-1.5,0.2-2.2,0.2c-0.5,0.6-0.9,1.1-1.4,1.7c0.7-0.1,1.4-0.2,2.1-0.4
				C449.6,808.3,450.1,807.8,450.6,807.2z M453.8,806.8c-0.6,0.1-1.3,0.2-1.9,0.3c-0.4,0.5-0.8,0.9-1.3,1.4c0.6-0.1,1.2-0.3,1.8-0.4
				C452.9,807.6,453.4,807.2,453.8,806.8z M456.8,806.1c-0.5,0.1-1,0.2-1.5,0.3c-0.3,0.4-0.7,0.7-1,1c0.5-0.1,1-0.3,1.4-0.4
				C456.1,806.8,456.5,806.5,456.8,806.1z M459.6,805.4c-0.3,0.1-0.6,0.2-0.8,0.2c-0.2,0.2-0.4,0.4-0.6,0.6c0.3-0.1,0.6-0.2,0.8-0.3
				C459.1,805.8,459.3,805.6,459.6,805.4z M511.2,755.1c-0.5,0.2-0.9,0.3-1.4,0.5c-0.2,0.2-0.4,0.4-0.7,0.6c0.5-0.1,0.9-0.3,1.4-0.4
				C510.7,755.5,511,755.3,511.2,755.1z M513.3,753.2c-0.3,0.1-0.7,0.3-1,0.4c-0.2,0.1-0.3,0.2-0.5,0.4c0.3-0.1,0.7-0.2,1-0.3
				C513,753.5,513.1,753.3,513.3,753.2z M515.3,751.5l-0.5,0.2l-0.1,0.1L515.3,751.5L515.3,751.5z M449.5,804.6c-0.9,0-1.7,0-2.6,0
				c-0.5,0.7-1,1.5-1.4,2.2c0.9,0,1.7-0.1,2.5-0.2C448.5,806,449,805.3,449.5,804.6z M453,804.4c-0.8,0.1-1.6,0.1-2.4,0.1
				c-0.5,0.7-1,1.3-1.4,1.9c0.8-0.1,1.6-0.2,2.3-0.3C452,805.6,452.5,805,453,804.4z M456.4,804c-0.7,0.1-1.5,0.2-2.2,0.2
				c-0.5,0.6-0.9,1.1-1.4,1.7c0.7-0.1,1.4-0.2,2.1-0.4C455.4,805.1,455.9,804.6,456.4,804z M459.6,803.6c-0.6,0.1-1.3,0.2-1.9,0.3
				c-0.4,0.5-0.8,0.9-1.3,1.4c0.6-0.1,1.2-0.3,1.8-0.4C458.8,804.4,459.2,804,459.6,803.6z M462.7,802.9c-0.5,0.1-1,0.2-1.5,0.3
				c-0.3,0.4-0.7,0.7-1,1c0.5-0.1,1-0.3,1.4-0.4C462,803.6,462.3,803.2,462.7,802.9z M465.4,802.2c-0.3,0.1-0.6,0.2-0.8,0.2
				c-0.2,0.2-0.4,0.4-0.6,0.6c0.3-0.1,0.6-0.2,0.8-0.3C465,802.5,465.2,802.4,465.4,802.2z M515,753.8c-0.6,0.2-1.2,0.4-1.7,0.6
				c-0.3,0.2-0.6,0.5-0.8,0.8c0.6-0.2,1.2-0.3,1.7-0.5C514.4,754.4,514.7,754.1,515,753.8z M517.1,751.9c-0.5,0.2-0.9,0.3-1.4,0.5
				c-0.2,0.2-0.5,0.4-0.7,0.6c0.5-0.1,0.9-0.3,1.4-0.4C516.6,752.3,516.8,752.1,517.1,751.9z M519.1,750c-0.3,0.1-0.7,0.3-1,0.4
				c-0.2,0.1-0.3,0.2-0.5,0.4c0.3-0.1,0.7-0.2,1-0.3C518.8,750.3,519,750.1,519.1,750z M521.2,748.3l-0.5,0.2l-0.1,0.1L521.2,748.3
				L521.2,748.3z M59.2,756.2L59.2,756.2l-0.5,0.2l0,0L59.2,756.2z M451.7,801.4c-0.9,0-1.9,0-2.8-0.1c-0.5,0.8-1,1.6-1.4,2.4
				c0.9,0,1.8,0,2.7-0.1C450.7,802.9,451.2,802.2,451.7,801.4z M455.3,801.4c-0.9,0-1.7,0-2.6,0c-0.5,0.7-1,1.5-1.4,2.2
				c0.9,0,1.7-0.1,2.5-0.2C454.3,802.7,454.8,802.1,455.3,801.4z M458.9,801.2c-0.8,0.1-1.6,0.1-2.4,0.1c-0.5,0.7-1,1.3-1.4,1.9
				c0.8-0.1,1.6-0.2,2.3-0.3C457.9,802.4,458.4,801.8,458.9,801.2z M462.3,800.8c-0.7,0.1-1.5,0.2-2.2,0.2c-0.5,0.6-0.9,1.1-1.4,1.7
				c0.7-0.1,1.4-0.2,2.1-0.4C461.3,801.9,461.8,801.4,462.3,800.8z M465.5,800.4c-0.6,0.1-1.3,0.2-1.9,0.3c-0.4,0.5-0.8,0.9-1.3,1.4
				c0.6-0.1,1.2-0.3,1.8-0.4C464.6,801.2,465.1,800.8,465.5,800.4z M468.5,799.7c-0.5,0.1-1,0.2-1.5,0.3c-0.3,0.4-0.7,0.7-1,1
				c0.5-0.1,0.9-0.3,1.4-0.4C467.8,800.4,468.2,800,468.5,799.7z M471.3,799c-0.3,0.1-0.6,0.2-0.8,0.2c-0.2,0.2-0.4,0.4-0.6,0.6
				c0.3-0.1,0.6-0.2,0.8-0.3C470.8,799.3,471,799.2,471.3,799z M518.8,752.7c-0.7,0.2-1.3,0.4-2,0.6c-0.3,0.3-0.6,0.6-0.9,0.9
				c0.7-0.2,1.3-0.4,2-0.5C518.2,753.3,518.5,753,518.8,752.7z M520.8,750.6c-0.6,0.2-1.2,0.4-1.7,0.6c-0.3,0.3-0.6,0.5-0.9,0.8
				c0.6-0.2,1.2-0.3,1.7-0.5C520.3,751.2,520.6,750.9,520.8,750.6z M522.9,748.6c-0.5,0.2-0.9,0.3-1.4,0.5c-0.2,0.2-0.5,0.4-0.7,0.6
				c0.5-0.1,0.9-0.3,1.4-0.4C522.4,749.1,522.7,748.9,522.9,748.6z M525,746.8c-0.3,0.1-0.7,0.3-1,0.4c-0.2,0.1-0.3,0.2-0.5,0.4
				c0.3-0.1,0.7-0.2,1-0.3C524.7,747.1,524.8,746.9,525,746.8z M527,745.1l-0.5,0.2l-0.1,0.1L527,745.1L527,745.1z M65.1,753
				L65.1,753l-0.5,0.2l0,0L65.1,753z M62.7,755l0.3-0.2l-0.9,0.3l-0.3,0.2L62.7,755z M66.7,753.4l-1.2,0.4 M65.5,753.8l-0.5,0.4
				l1.2-0.4 M453.7,798.1c-0.9-0.1-1.8-0.1-2.8-0.2c-0.5,0.8-1.1,1.7-1.6,2.6c1,0,1.9,0.1,2.8,0.1
				C452.8,799.7,453.3,798.9,453.7,798.1z M457.5,798.2c-0.9,0-1.9,0-2.8-0.1c-0.5,0.8-1,1.6-1.4,2.4c0.9,0,1.8,0,2.7-0.1
				C456.5,799.7,457,799,457.5,798.2z M461.2,798.2c-0.9,0-1.7,0-2.6,0c-0.5,0.7-1,1.5-1.4,2.2c0.9,0,1.7-0.1,2.5-0.2
				C460.2,799.5,460.7,798.9,461.2,798.2z M464.7,798c-0.8,0.1-1.6,0.1-2.4,0.1c-0.5,0.7-1,1.3-1.4,1.9c0.8-0.1,1.6-0.2,2.3-0.3
				C463.7,799.2,464.2,798.6,464.7,798z M468.1,797.6c-0.7,0.1-1.5,0.2-2.2,0.2c-0.5,0.6-0.9,1.1-1.4,1.7c0.7-0.1,1.4-0.2,2.1-0.4
				C467.2,798.7,467.6,798.2,468.1,797.6z M471.4,797.1c-0.6,0.1-1.3,0.2-1.9,0.3c-0.4,0.5-0.8,0.9-1.3,1.4c0.6-0.1,1.2-0.3,1.8-0.4
				C470.5,798,470.9,797.6,471.4,797.1z M474.4,796.5c-0.5,0.1-1,0.2-1.5,0.3c-0.3,0.4-0.7,0.7-1,1c0.5-0.1,0.9-0.3,1.4-0.4
				C473.7,797.2,474,796.8,474.4,796.5z M477.1,795.8c-0.3,0.1-0.6,0.2-0.8,0.2c-0.2,0.2-0.4,0.4-0.6,0.6c0.3-0.1,0.6-0.2,0.8-0.3
				C476.7,796.1,476.9,796,477.1,795.8z M522.7,751.6c-0.7,0.2-1.5,0.4-2.2,0.6c-0.3,0.3-0.7,0.7-1,1.1c0.7-0.2,1.5-0.4,2.2-0.5
				C522,752.3,522.4,752,522.7,751.6z M524.7,749.5c-0.7,0.2-1.3,0.4-2,0.6c-0.3,0.3-0.6,0.6-1,0.9c0.7-0.2,1.3-0.4,2-0.5
				C524,750.1,524.4,749.8,524.7,749.5z M526.7,747.4c-0.6,0.2-1.2,0.4-1.7,0.6c-0.3,0.3-0.6,0.5-0.8,0.8c0.6-0.2,1.2-0.3,1.7-0.5
				C526.1,748,526.4,747.7,526.7,747.4z M528.8,745.4c-0.5,0.2-0.9,0.3-1.4,0.5c-0.2,0.2-0.5,0.4-0.7,0.6c0.5-0.1,0.9-0.3,1.4-0.4
				C528.3,745.9,528.5,745.7,528.8,745.4z M530.8,743.6c-0.3,0.1-0.7,0.3-1,0.4c-0.2,0.1-0.3,0.2-0.5,0.4c0.3-0.1,0.7-0.2,1-0.3
				C530.5,743.9,530.7,743.7,530.8,743.6z M532.9,741.9l-0.5,0.2l-0.1,0.1L532.9,741.9L532.9,741.9z M70.9,749.8L70.9,749.8
				l-0.5,0.2l0,0L70.9,749.8z M68.5,751.8l0.3-0.2l-0.9,0.3l-0.3,0.2L68.5,751.8z M455.9,794.6c-0.8-0.1-1.6-0.2-2.5-0.3
				c-0.6,0.9-1.2,1.8-1.8,2.7c0.9,0.1,1.8,0.1,2.7,0.2C454.8,796.3,455.3,795.4,455.9,794.6z M459.6,794.9c-0.9-0.1-1.8-0.1-2.8-0.2
				c-0.5,0.8-1.1,1.7-1.6,2.6c1,0,1.9,0.1,2.9,0.1C458.6,796.5,459.1,795.7,459.6,794.9z M463.4,795c-0.9,0-1.9,0-2.8-0.1
				c-0.5,0.8-1,1.6-1.4,2.4c0.9,0,1.8,0,2.7-0.1C462.4,796.5,462.9,795.8,463.4,795z M467,795c-0.9,0-1.7,0-2.6,0
				c-0.5,0.7-1,1.5-1.4,2.2c0.9,0,1.7-0.1,2.5-0.2C466,796.3,466.5,795.7,467,795z M470.6,794.8c-0.8,0.1-1.6,0.1-2.4,0.1
				c-0.5,0.7-1,1.3-1.4,1.9c0.8-0.1,1.6-0.2,2.3-0.3C469.6,796,470.1,795.4,470.6,794.8z M474,794.4c-0.7,0.1-1.5,0.2-2.2,0.2
				c-0.5,0.6-0.9,1.1-1.4,1.7c0.7-0.1,1.4-0.2,2.1-0.4C473,795.5,473.5,795,474,794.4z M477.2,793.9c-0.6,0.1-1.3,0.2-1.9,0.3
				c-0.4,0.5-0.8,0.9-1.3,1.4c0.6-0.1,1.2-0.3,1.8-0.4C476.3,794.8,476.8,794.4,477.2,793.9z M480.2,793.3c-0.5,0.1-1,0.2-1.5,0.3
				c-0.3,0.4-0.7,0.7-1,1c0.5-0.1,1-0.3,1.4-0.4C479.5,793.9,479.9,793.6,480.2,793.3z M483,792.6c-0.3,0.1-0.6,0.2-0.8,0.2
				c-0.2,0.2-0.4,0.4-0.6,0.6c0.3-0.1,0.6-0.2,0.8-0.3C482.5,792.9,482.8,792.8,483,792.6z M526.6,750.6c-0.8,0.2-1.6,0.4-2.4,0.6
				c-0.4,0.4-0.7,0.8-1.1,1.2c0.8-0.2,1.6-0.4,2.4-0.5C525.9,751.4,526.3,751,526.6,750.6z M528.6,748.4c-0.7,0.2-1.5,0.4-2.2,0.6
				c-0.3,0.4-0.7,0.7-1,1.1c0.7-0.2,1.5-0.4,2.2-0.5C527.9,749.1,528.2,748.8,528.6,748.4z M530.5,746.3c-0.7,0.2-1.3,0.4-2,0.6
				c-0.3,0.3-0.6,0.6-1,0.9c0.7-0.2,1.3-0.4,2-0.5C529.9,746.9,530.2,746.6,530.5,746.3z M532.6,744.2c-0.6,0.2-1.2,0.4-1.7,0.6
				c-0.3,0.3-0.6,0.5-0.8,0.8c0.6-0.2,1.2-0.3,1.7-0.5C532,744.8,532.3,744.5,532.6,744.2z M534.6,742.2c-0.5,0.2-0.9,0.3-1.4,0.5
				c-0.2,0.2-0.5,0.4-0.7,0.6c0.5-0.1,0.9-0.3,1.4-0.4C534.1,742.7,534.4,742.5,534.6,742.2z M536.7,740.4c-0.3,0.1-0.7,0.3-1,0.4
				c-0.2,0.1-0.3,0.2-0.5,0.4c0.3-0.1,0.7-0.2,1-0.3C536.4,740.7,536.5,740.5,536.7,740.4z M538.7,738.7l-0.5,0.2l-0.1,0.1
				L538.7,738.7L538.7,738.7z M76.8,746.6L76.8,746.6l-0.5,0.2l0,0L76.8,746.6z M74.4,748.6l0.3-0.2l-0.9,0.3l-0.3,0.2L74.4,748.6z
				 M72.1,750.6l0.5-0.4l-1.2,0.4l-0.5,0.4L72.1,750.6z M69.8,752.6l0.6-0.6c-0.5,0.2-0.9,0.3-1.4,0.5l-0.6,0.5
				C68.8,752.9,69.3,752.8,69.8,752.6z M458.3,791c-0.7-0.1-1.4-0.2-2.1-0.3c-0.7,0.9-1.4,1.8-2.1,2.8c0.8,0.1,1.6,0.2,2.4,0.2
				C457,792.8,457.6,791.9,458.3,791z M461.7,791.4c-0.8-0.1-1.6-0.2-2.5-0.3c-0.6,0.9-1.2,1.8-1.8,2.7c0.9,0.1,1.8,0.1,2.7,0.2
				C460.6,793.1,461.2,792.2,461.7,791.4z M465.5,791.7c-0.9-0.1-1.8-0.1-2.8-0.2c-0.5,0.8-1.1,1.7-1.6,2.6c1,0,1.9,0.1,2.9,0.1
				C464.5,793.3,465,792.5,465.5,791.7z M469.2,791.8c-0.9,0-1.9,0-2.8-0.1c-0.5,0.8-1,1.6-1.4,2.4c0.9,0,1.8,0,2.7-0.1
				C468.2,793.3,468.7,792.6,469.2,791.8z M472.9,791.8c-0.9,0-1.7,0-2.6,0c-0.5,0.7-1,1.5-1.4,2.2c0.9,0,1.7-0.1,2.5-0.2
				C471.9,793.1,472.4,792.5,472.9,791.8z M476.4,791.6c-0.8,0.1-1.6,0.1-2.4,0.1c-0.5,0.7-1,1.3-1.4,1.9c0.8-0.1,1.6-0.2,2.3-0.3
				C475.4,792.8,475.9,792.2,476.4,791.6z M479.8,791.2c-0.7,0.1-1.5,0.2-2.2,0.2c-0.5,0.6-0.9,1.1-1.4,1.7c0.7-0.1,1.4-0.2,2.1-0.4
				C478.9,792.3,479.3,791.8,479.8,791.2z M483.1,790.7c-0.6,0.1-1.3,0.2-1.9,0.3c-0.4,0.5-0.8,0.9-1.3,1.4c0.6-0.1,1.2-0.3,1.8-0.4
				C482.2,791.6,482.6,791.2,483.1,790.7z M486.1,790.1c-0.5,0.1-1,0.2-1.5,0.3c-0.3,0.4-0.7,0.7-1,1c0.5-0.1,0.9-0.3,1.4-0.4
				C485.4,790.7,485.7,790.4,486.1,790.1z M488.8,789.4c-0.3,0.1-0.6,0.2-0.8,0.2c-0.2,0.2-0.4,0.4-0.6,0.6c0.3-0.1,0.6-0.2,0.8-0.3
				C488.4,789.7,488.6,789.6,488.8,789.4z M530.6,749.7c-0.9,0.2-1.7,0.4-2.6,0.6c-0.4,0.4-0.7,0.9-1.1,1.3c0.9-0.2,1.8-0.3,2.6-0.5
				C529.9,750.6,530.3,750.2,530.6,749.7z M532.5,747.4c-0.8,0.2-1.6,0.4-2.4,0.6c-0.4,0.4-0.7,0.8-1.1,1.2c0.8-0.2,1.6-0.4,2.4-0.5
				C531.8,748.2,532.1,747.8,532.5,747.4z M534.4,745.2c-0.7,0.2-1.5,0.4-2.2,0.6c-0.3,0.3-0.7,0.7-1,1.1c0.7-0.2,1.5-0.4,2.2-0.5
				C533.7,745.9,534.1,745.6,534.4,745.2z M536.4,743.1c-0.7,0.2-1.3,0.4-2,0.6c-0.3,0.3-0.6,0.6-1,0.9c0.7-0.2,1.3-0.4,2-0.5
				C535.8,743.7,536.1,743.4,536.4,743.1z M538.4,741c-0.6,0.2-1.2,0.4-1.7,0.6c-0.3,0.3-0.6,0.5-0.8,0.8c0.6-0.2,1.2-0.3,1.7-0.5
				C537.8,741.5,538.1,741.3,538.4,741z M540.5,739c-0.5,0.2-0.9,0.3-1.4,0.5c-0.2,0.2-0.5,0.4-0.7,0.6c0.5-0.1,0.9-0.3,1.4-0.4
				C540,739.5,540.2,739.3,540.5,739z M542.5,737.2c-0.3,0.1-0.7,0.3-1,0.4c-0.2,0.1-0.3,0.2-0.5,0.4c0.3-0.1,0.7-0.2,1-0.3
				C542.2,737.5,542.4,737.3,542.5,737.2z M544.6,735.5l-0.5,0.2l-0.1,0.1L544.6,735.5L544.6,735.5z M128.6,718.1
				c4-1.5,8.2-2.9,12.3-4.2c37.7-11.8,79.9-15.1,115.4-2.9c28.4,9.8,57.7,24.5,86.2,39c39.8,20.1,78.2,39.5,110.5,43.4
				c0.7-1,1.4-1.9,2.1-2.8c-31.6-4.9-68.7-23.6-107.1-43c-28.5-14.4-57.8-29.2-86.1-38.9c-35.3-12.2-77.3-8.9-114.8,2.9
				C140.8,713.5,134.6,715.7,128.6,718.1z M82.7,743.4L82.7,743.4l-0.5,0.2l0,0L82.7,743.4z M80.3,745.4l0.3-0.2l-0.9,0.3l-0.3,0.2
				L80.3,745.4z M77.9,747.4c0.2-0.1,0.3-0.3,0.5-0.4l-1.2,0.4l-0.5,0.4L77.9,747.4z M75.6,749.4l0.6-0.6c-0.5,0.2-0.9,0.3-1.4,0.5
				l-0.6,0.5C74.7,749.7,75.2,749.6,75.6,749.4z M73.4,751.5c0.2-0.2,0.5-0.5,0.7-0.7c-0.5,0.2-1.1,0.4-1.6,0.5l-0.7,0.6
				C72.3,751.8,72.9,751.7,73.4,751.5z M1.8,839.6c-0.2,0-0.4,0.1-0.6,0.1c-0.3,0.3-0.7,0.6-1,0.9c0.2-0.1,0.3-0.1,0.5-0.2
				C1.1,840.2,1.4,839.9,1.8,839.6z M461,787.4c-0.6-0.1-1.2-0.2-1.8-0.3c-0.8,0.9-1.6,1.9-2.4,2.8c0.7,0.1,1.4,0.2,2.1,0.3
				C459.6,789.2,460.3,788.3,461,787.4z M464.1,787.8c-0.7-0.1-1.4-0.2-2.1-0.3c-0.7,0.9-1.4,1.8-2.1,2.8c0.8,0.1,1.6,0.2,2.4,0.2
				C462.9,789.6,463.5,788.7,464.1,787.8z M467.6,788.2c-0.8-0.1-1.6-0.2-2.5-0.3c-0.6,0.9-1.2,1.8-1.8,2.7c0.9,0.1,1.8,0.1,2.7,0.2
				C466.5,789.9,467,789,467.6,788.2z M471.3,788.5c-0.9-0.1-1.8-0.1-2.8-0.2c-0.5,0.8-1.1,1.7-1.6,2.6c1,0,1.9,0.1,2.9,0.1
				C470.3,790.1,470.8,789.3,471.3,788.5z M475.1,788.6c-0.9,0-1.9,0-2.8-0.1c-0.5,0.8-1,1.6-1.4,2.4c0.9,0,1.8,0,2.7-0.1
				C474.1,790.1,474.6,789.4,475.1,788.6z M478.7,788.6c-0.9,0-1.7,0-2.6,0c-0.5,0.7-1,1.5-1.4,2.2c0.9,0,1.7-0.1,2.5-0.2
				C477.7,789.9,478.2,789.3,478.7,788.6z M482.3,788.4c-0.8,0.1-1.6,0.1-2.4,0.1c-0.5,0.7-1,1.3-1.4,1.9c0.8-0.1,1.6-0.2,2.3-0.3
				C481.3,789.6,481.8,789,482.3,788.4z M485.7,788c-0.7,0.1-1.5,0.2-2.2,0.2c-0.5,0.6-0.9,1.1-1.4,1.7c0.7-0.1,1.4-0.2,2.1-0.4
				C484.7,789.1,485.2,788.6,485.7,788z M488.9,787.5c-0.6,0.1-1.3,0.2-1.9,0.3c-0.4,0.5-0.8,0.9-1.3,1.4c0.6-0.1,1.2-0.3,1.8-0.4
				C488,788.4,488.5,788,488.9,787.5z M491.9,786.9c-0.5,0.1-1,0.2-1.5,0.3c-0.3,0.4-0.7,0.7-1,1c0.5-0.1,0.9-0.3,1.4-0.4
				C491.2,787.5,491.6,787.2,491.9,786.9z M494.7,786.2c-0.3,0.1-0.6,0.2-0.8,0.2c-0.2,0.2-0.4,0.4-0.6,0.6c0.3-0.1,0.6-0.2,0.8-0.3
				C494.3,786.5,494.5,786.4,494.7,786.2z M534.7,748.9c-0.9,0.2-1.8,0.4-2.8,0.5c-0.4,0.5-0.7,0.9-1.1,1.4c0.9-0.2,1.9-0.3,2.8-0.5
				C534,749.9,534.4,749.4,534.7,748.9z M536.5,746.5c-0.9,0.2-1.7,0.4-2.6,0.6c-0.4,0.4-0.7,0.9-1.1,1.3c0.9-0.2,1.8-0.3,2.6-0.5
				C535.8,747.4,536.1,747,536.5,746.5z M538.3,744.2c-0.8,0.2-1.6,0.4-2.4,0.6c-0.4,0.4-0.7,0.8-1.1,1.2c0.8-0.2,1.6-0.4,2.4-0.5
				C537.6,745,538,744.6,538.3,744.2z M540.3,742c-0.7,0.2-1.5,0.4-2.2,0.6c-0.3,0.4-0.7,0.7-1,1.1c0.7-0.2,1.5-0.4,2.2-0.5
				C539.6,742.7,539.9,742.4,540.3,742z M542.2,739.9c-0.7,0.2-1.3,0.4-2,0.6c-0.3,0.3-0.6,0.6-1,0.9c0.7-0.2,1.3-0.4,2-0.5
				C541.6,740.5,541.9,740.2,542.2,739.9z M544.3,737.8c-0.6,0.2-1.2,0.4-1.7,0.6c-0.3,0.3-0.6,0.5-0.9,0.8c0.6-0.2,1.2-0.3,1.7-0.5
				C543.7,738.3,544,738.1,544.3,737.8z M546.3,735.8c-0.5,0.2-0.9,0.3-1.4,0.5c-0.2,0.2-0.5,0.4-0.7,0.6c0.5-0.1,0.9-0.3,1.4-0.4
				C545.9,736.3,546.1,736.1,546.3,735.8z M548.4,734c-0.3,0.1-0.7,0.3-1,0.4c-0.2,0.1-0.3,0.2-0.5,0.4c0.3-0.1,0.7-0.2,1-0.3
				C548.1,734.3,548.2,734.1,548.4,734z M550.4,732.3l-0.5,0.2l-0.1,0.1L550.4,732.3L550.4,732.3z M134.5,714.9
				c4-1.5,8.2-2.9,12.3-4.2c37.7-11.8,79.9-15.1,115.4-2.9c28.4,9.8,57.7,24.5,86.2,39c38.6,19.5,75.8,38.2,107.4,43
				c0.8-1,1.6-1.9,2.4-2.9c-31-5.5-67.1-23.7-104.4-42.6c-28.5-14.4-57.8-29.2-86.1-38.9c-35.3-12.2-77.3-8.9-114.8,2.9
				C146.6,710.3,140.5,712.5,134.5,714.9z M88.5,740.2L88.5,740.2l-0.5,0.2l0,0L88.5,740.2z M86.1,742.2l0.3-0.2l-0.9,0.3l-0.3,0.2
				L86.1,742.2z M83.8,744.2c0.2-0.1,0.3-0.3,0.5-0.4l-1.2,0.4l-0.5,0.4L83.8,744.2z M81.5,746.2l0.6-0.6c-0.5,0.2-0.9,0.3-1.4,0.5
				l-0.6,0.5C80.5,746.5,81,746.4,81.5,746.2z M79.3,748.3c0.2-0.2,0.5-0.5,0.7-0.7c-0.5,0.2-1.1,0.4-1.6,0.5l-0.7,0.6
				C78.2,748.6,78.7,748.5,79.3,748.3z M77.1,750.4c0.3-0.3,0.5-0.5,0.8-0.8c-0.4,0.1-0.7,0.2-1.1,0.3l-0.8,0.2
				c-0.3,0.3-0.5,0.5-0.8,0.8C75.9,750.8,76.5,750.6,77.1,750.4z M5.5,836.8c-0.4,0-0.8,0.1-1.2,0.1c-0.6,0.6-1.2,1.2-1.8,1.7
				c0.4-0.1,0.8-0.2,1.2-0.3C4.3,837.8,4.9,837.3,5.5,836.8z M7.7,836.4c-0.2,0-0.4,0.1-0.6,0.1c-0.3,0.3-0.7,0.6-1,0.9
				c0.2-0.1,0.3-0.1,0.5-0.2C6.9,837,7.3,836.7,7.7,836.4z M464.1,783.7c-0.5-0.1-0.9-0.2-1.4-0.2c-0.9,0.9-1.9,1.9-2.7,2.8
				c0.6,0.1,1.1,0.2,1.7,0.3C462.4,785.6,463.3,784.6,464.1,783.7z M466.9,784.2c-0.6-0.1-1.2-0.2-1.8-0.3c-0.8,0.9-1.6,1.9-2.4,2.8
				c0.7,0.1,1.4,0.2,2.1,0.3C465.4,786,466.1,785.1,466.9,784.2z M470,784.6c-0.7-0.1-1.4-0.2-2.1-0.3c-0.7,0.9-1.4,1.8-2.1,2.8
				c0.8,0.1,1.6,0.2,2.4,0.2C468.7,786.4,469.3,785.5,470,784.6z M473.4,785c-0.8-0.1-1.6-0.2-2.5-0.3c-0.6,0.9-1.2,1.8-1.8,2.7
				c0.9,0.1,1.8,0.1,2.7,0.2C472.3,786.7,472.9,785.8,473.4,785z M477.2,785.3c-0.9-0.1-1.8-0.1-2.8-0.2c-0.5,0.8-1.1,1.7-1.6,2.6
				c1,0,1.9,0.1,2.8,0.1C476.2,786.9,476.7,786.1,477.2,785.3z M480.9,785.4c-0.9,0-1.9,0-2.8-0.1c-0.5,0.8-1,1.6-1.4,2.4
				c0.9,0,1.8,0,2.7-0.1C479.9,786.9,480.4,786.2,480.9,785.4z M484.6,785.4c-0.9,0-1.7,0-2.6,0c-0.5,0.7-1,1.5-1.4,2.2
				c0.9,0,1.7-0.1,2.5-0.2C483.6,786.7,484.1,786.1,484.6,785.4z M488.1,785.2c-0.8,0.1-1.6,0.1-2.4,0.1c-0.5,0.7-1,1.3-1.4,1.9
				c0.8-0.1,1.6-0.2,2.3-0.3C487.1,786.4,487.6,785.8,488.1,785.2z M491.5,784.8c-0.7,0.1-1.5,0.2-2.2,0.2c-0.5,0.6-0.9,1.1-1.4,1.7
				c0.7-0.1,1.4-0.2,2.1-0.4C490.6,785.9,491.1,785.4,491.5,784.8z M494.8,784.3c-0.6,0.1-1.3,0.2-1.9,0.3c-0.4,0.5-0.8,0.9-1.3,1.4
				c0.6-0.1,1.2-0.3,1.8-0.4C493.9,785.2,494.3,784.8,494.8,784.3z M497.8,783.7c-0.5,0.1-1,0.2-1.5,0.3c-0.3,0.4-0.7,0.7-1,1
				c0.5-0.1,1-0.3,1.4-0.4C497.1,784.3,497.4,784,497.8,783.7z M500.5,783c-0.3,0.1-0.6,0.2-0.8,0.2c-0.2,0.2-0.4,0.4-0.6,0.6
				c0.3-0.1,0.6-0.2,0.8-0.3C500.1,783.3,500.3,783.2,500.5,783z M538.9,748.1c-1,0.2-1.9,0.3-2.9,0.5c-0.4,0.5-0.7,1-1.1,1.5
				c1-0.2,2-0.3,2.9-0.4C538.2,749.2,538.5,748.7,538.9,748.1z M540.6,745.7c-0.9,0.2-1.8,0.4-2.8,0.5c-0.4,0.5-0.7,0.9-1.1,1.4
				c0.9-0.2,1.9-0.3,2.8-0.5C539.9,746.7,540.2,746.2,540.6,745.7z M542.3,743.3c-0.9,0.2-1.7,0.4-2.6,0.6c-0.4,0.4-0.7,0.9-1.1,1.3
				c0.9-0.2,1.8-0.3,2.6-0.5C541.6,744.2,542,743.8,542.3,743.3z M544.2,741c-0.8,0.2-1.6,0.4-2.4,0.6c-0.4,0.4-0.7,0.8-1.1,1.2
				c0.8-0.2,1.6-0.4,2.4-0.5C543.5,741.8,543.8,741.4,544.2,741z M546.1,738.8c-0.7,0.2-1.5,0.4-2.2,0.6c-0.3,0.4-0.7,0.7-1,1.1
				c0.7-0.2,1.5-0.4,2.2-0.5C545.4,739.5,545.8,739.2,546.1,738.8z M548.1,736.6c-0.7,0.2-1.3,0.4-2,0.6c-0.3,0.3-0.6,0.6-1,0.9
				c0.7-0.2,1.3-0.4,2-0.5C547.5,737.3,547.8,737,548.1,736.6z M550.1,734.6c-0.6,0.2-1.2,0.4-1.7,0.6c-0.3,0.3-0.6,0.5-0.9,0.8
				c0.6-0.2,1.2-0.3,1.7-0.5C549.6,735.1,549.8,734.9,550.1,734.6z M552.2,732.6c-0.5,0.2-0.9,0.3-1.4,0.5c-0.2,0.2-0.5,0.4-0.7,0.6
				c0.5-0.1,0.9-0.3,1.4-0.4C551.7,733.1,551.9,732.8,552.2,732.6z M554.2,730.8c-0.3,0.1-0.7,0.3-1,0.4c-0.2,0.1-0.3,0.2-0.5,0.4
				c0.3-0.1,0.7-0.2,1-0.3C553.9,731.1,554.1,730.9,554.2,730.8z M556.3,729.1l-0.5,0.2l-0.1,0.1L556.3,729.1L556.3,729.1z
				 M140.3,711.7c4-1.5,8.2-2.9,12.3-4.2c37.7-11.8,79.9-15.1,115.4-2.9c28.4,9.8,57.7,24.5,86.2,39c37.5,18.9,73.7,37.2,104.7,42.5
				c0.9-1,1.8-1.9,2.7-2.9c-30.5-6-65.6-23.8-102-42.1c-28.5-14.4-57.8-29.2-86.1-38.9c-35.3-12.2-77.3-8.9-114.8,2.9
				C152.5,707.1,146.3,709.3,140.3,711.7z M94.4,737L94.4,737l-0.5,0.2l0,0L94.4,737z M92,739l0.3-0.2l-0.9,0.3l-0.3,0.2L92,739z
				 M89.6,741l0.5-0.4l-1.2,0.4l-0.5,0.4L89.6,741z M87.3,743l0.6-0.6c-0.5,0.2-0.9,0.3-1.4,0.5l-0.6,0.5
				C86.4,743.3,86.9,743.2,87.3,743z M85.1,745.1c0.2-0.2,0.5-0.5,0.7-0.7c-0.5,0.2-1.1,0.4-1.6,0.5l-0.7,0.6
				C84,745.4,84.6,745.3,85.1,745.1z M83,747.2c0.3-0.3,0.5-0.5,0.8-0.8c-0.4,0.1-0.7,0.2-1.1,0.3l-0.8,0.2
				c-0.3,0.3-0.5,0.5-0.8,0.8C81.7,747.6,82.4,747.4,83,747.2z M80.9,749.4c0.3-0.3,0.6-0.6,0.9-0.9c-0.7,0.2-1.4,0.4-2,0.6
				c-0.3,0.3-0.6,0.6-0.9,0.9C79.5,749.8,80.2,749.6,80.9,749.4z M6.3,833.5c-0.5-0.1-1.1-0.2-1.6-0.3c-0.8,0.9-1.6,1.9-2.4,2.8
				c0.5,0,1.1,0,1.6,0C4.7,835.2,5.5,834.4,6.3,833.5z M8.9,833.7c-0.5,0-1,0-1.5-0.1c-0.7,0.8-1.4,1.5-2.2,2.3
				c0.5-0.1,1-0.1,1.5-0.2C7.4,835.1,8.2,834.4,8.9,833.7z M11.3,833.6c-0.4,0-0.8,0.1-1.2,0.1c-0.6,0.6-1.2,1.1-1.8,1.7
				c0.4-0.1,0.8-0.2,1.2-0.3C10.1,834.6,10.7,834.1,11.3,833.6z M13.5,833.2c-0.2,0-0.4,0.1-0.6,0.1c-0.3,0.3-0.7,0.6-1,0.9
				c0.2-0.1,0.3-0.1,0.5-0.2C12.8,833.8,13.2,833.5,13.5,833.2z M467.5,780l-1-0.2c-1,0.9-2.1,1.9-3.1,2.8c0.4,0.1,0.9,0.2,1.3,0.2
				C465.7,781.9,466.6,781,467.5,780z M469.9,780.5c-0.5-0.1-0.9-0.2-1.4-0.2c-0.9,0.9-1.9,1.9-2.7,2.8c0.6,0.1,1.1,0.2,1.7,0.3
				C468.3,782.4,469.1,781.4,469.9,780.5z M472.7,781c-0.6-0.1-1.2-0.2-1.8-0.3c-0.8,0.9-1.6,1.9-2.4,2.8c0.7,0.1,1.4,0.2,2.1,0.3
				C471.3,782.8,472,781.9,472.7,781z M475.8,781.4c-0.7-0.1-1.4-0.2-2.1-0.3c-0.7,0.9-1.4,1.8-2.1,2.8c0.8,0.1,1.6,0.2,2.4,0.2
				C474.6,783.2,475.2,782.3,475.8,781.4z M479.3,781.8c-0.8-0.1-1.6-0.2-2.5-0.3c-0.6,0.9-1.2,1.8-1.8,2.7c0.9,0.1,1.8,0.1,2.7,0.2
				C478.2,783.5,478.7,782.6,479.3,781.8z M483,782.1c-0.9-0.1-1.8-0.1-2.8-0.2c-0.5,0.8-1.1,1.7-1.6,2.6c1,0,1.9,0.1,2.8,0.1
				C482,783.7,482.5,782.9,483,782.1z M486.8,782.2c-0.9,0-1.9,0-2.8-0.1c-0.5,0.8-1,1.6-1.4,2.4c0.9,0,1.8,0,2.7-0.1
				C485.8,783.7,486.3,783,486.8,782.2z M490.4,782.2c-0.9,0-1.7,0-2.6,0c-0.5,0.7-1,1.5-1.4,2.2c0.9,0,1.7-0.1,2.5-0.2
				C489.4,783.5,489.9,782.9,490.4,782.2z M494,782c-0.8,0.1-1.6,0.1-2.4,0.1c-0.5,0.7-1,1.3-1.4,1.9c0.8-0.1,1.6-0.2,2.3-0.3
				C493,783.2,493.5,782.6,494,782z M497.4,781.6c-0.7,0.1-1.5,0.2-2.2,0.2c-0.5,0.6-0.9,1.1-1.4,1.7c0.7-0.1,1.4-0.2,2.1-0.4
				C496.4,782.7,496.9,782.2,497.4,781.6z M500.6,781.1c-0.6,0.1-1.3,0.2-1.9,0.3c-0.4,0.5-0.8,0.9-1.3,1.4c0.6-0.1,1.2-0.3,1.8-0.4
				C499.7,782,500.2,781.6,500.6,781.1z M503.7,780.5c-0.5,0.1-1,0.2-1.5,0.3c-0.3,0.4-0.7,0.7-1,1c0.5-0.1,0.9-0.3,1.4-0.4
				C502.9,781.1,503.3,780.8,503.7,780.5z M506.4,779.8c-0.3,0.1-0.6,0.2-0.8,0.2c-0.2,0.2-0.4,0.4-0.6,0.6c0.3-0.1,0.6-0.2,0.8-0.3
				C506,780.1,506.2,780,506.4,779.8z M543.1,747.5c-1,0.1-2,0.3-3.1,0.5c-0.4,0.5-0.7,1.1-1.1,1.6c1-0.1,2.1-0.3,3.1-0.4
				C542.4,748.6,542.7,748,543.1,747.5z M544.7,744.9c-1,0.2-1.9,0.3-2.9,0.5c-0.4,0.5-0.7,1-1.1,1.5c1-0.2,2-0.3,2.9-0.4
				C544,746,544.4,745.5,544.7,744.9z M546.4,742.5c-0.9,0.2-1.8,0.4-2.8,0.5c-0.4,0.5-0.7,0.9-1.1,1.4c0.9-0.2,1.9-0.3,2.8-0.5
				C545.7,743.5,546.1,743,546.4,742.5z M548.2,740.1c-0.9,0.2-1.7,0.4-2.6,0.6c-0.4,0.4-0.7,0.9-1.1,1.3c0.9-0.2,1.8-0.3,2.6-0.5
				C547.5,741,547.8,740.6,548.2,740.1z M550,737.8c-0.8,0.2-1.6,0.4-2.4,0.6c-0.4,0.4-0.7,0.8-1.1,1.2c0.8-0.2,1.6-0.4,2.4-0.5
				C549.4,738.6,549.7,738.2,550,737.8z M552,735.6c-0.7,0.2-1.5,0.4-2.2,0.6c-0.3,0.4-0.7,0.7-1,1.1c0.7-0.2,1.5-0.4,2.2-0.5
				C551.3,736.3,551.6,736,552,735.6z M553.9,733.4c-0.7,0.2-1.3,0.4-2,0.6c-0.3,0.3-0.6,0.6-1,0.9c0.7-0.2,1.3-0.4,2-0.5
				C553.3,734.1,553.6,733.8,553.9,733.4z M556,731.4c-0.6,0.2-1.2,0.4-1.7,0.6c-0.3,0.3-0.6,0.5-0.8,0.8c0.6-0.2,1.2-0.3,1.7-0.5
				C555.4,731.9,555.7,731.7,556,731.4z M558,729.4c-0.5,0.2-0.9,0.3-1.4,0.5c-0.2,0.2-0.5,0.4-0.7,0.6c0.5-0.1,0.9-0.3,1.4-0.4
				C557.6,729.9,557.8,729.6,558,729.4z M560.1,727.6c-0.3,0.1-0.7,0.3-1,0.4c-0.2,0.1-0.3,0.2-0.5,0.4c0.3-0.1,0.7-0.2,1-0.3
				C559.8,727.9,559.9,727.7,560.1,727.6z M562.1,725.9l-0.5,0.2l-0.1,0.1L562.1,725.9L562.1,725.9z M146.2,708.5
				c4-1.5,8.2-2.9,12.3-4.2c37.7-11.8,79.9-15.1,115.4-2.9c28.4,9.8,57.7,24.5,86.2,39c36.5,18.4,71.8,36.3,102.3,42.1
				c1-1,2-1.9,3.1-2.9c-30-6.4-64.4-23.8-100-41.7c-28.5-14.4-57.8-29.2-86.1-38.9c-35.3-12.2-77.3-8.9-114.8,2.9
				C158.3,703.9,152.2,706.1,146.2,708.5z M100.2,733.8L100.2,733.8l-0.5,0.2l0,0L100.2,733.8z M97.8,735.8l0.3-0.2l-0.9,0.3
				l-0.3,0.2L97.8,735.8z M95.5,737.8l0.5-0.4l-1.2,0.4l-0.5,0.4L95.5,737.8z M93.2,739.8l0.6-0.6c-0.5,0.2-0.9,0.3-1.4,0.5
				l-0.6,0.5C92.3,740.1,92.7,740,93.2,739.8z M91,741.9c0.2-0.2,0.5-0.5,0.7-0.7c-0.5,0.2-1.1,0.4-1.6,0.5
				c-0.2,0.2-0.5,0.4-0.7,0.6C89.9,742.2,90.4,742.1,91,741.9z M88.8,744c0.3-0.3,0.5-0.5,0.8-0.8c-0.4,0.1-0.7,0.2-1.1,0.3
				l-0.8,0.2c-0.3,0.3-0.5,0.5-0.8,0.8C87.6,744.4,88.2,744.2,88.8,744z M86.8,746.2c0.3-0.3,0.6-0.6,0.9-0.9
				c-0.7,0.2-1.4,0.4-2,0.6c-0.3,0.3-0.6,0.6-0.9,0.9C85.4,746.6,86.1,746.4,86.8,746.2z M84.7,748.4c0.3-0.3,0.6-0.7,0.9-1
				c-0.7,0.2-1.5,0.4-2.2,0.6c-0.3,0.3-0.6,0.6-0.9,1C83.2,748.8,84,748.6,84.7,748.4z M7.1,828.9c-0.6-0.2-1.2-0.5-1.8-0.8
				c-0.9,1.2-1.8,2.4-2.7,3.6c0.6,0.2,1.2,0.4,1.8,0.5C5.3,831.2,6.2,830.1,7.1,828.9z M9.6,829.8c-0.6-0.2-1.1-0.3-1.7-0.5
				c-0.8,1.1-1.7,2.2-2.6,3.2c0.6,0.1,1.2,0.2,1.7,0.3C7.9,831.8,8.8,830.8,9.6,829.8z M12.2,830.3c-0.5-0.1-1.1-0.2-1.6-0.3
				c-0.8,0.9-1.6,1.9-2.4,2.8c0.5,0,1.1,0,1.6,0C10.6,832,11.4,831.2,12.2,830.3z M14.7,830.5c-0.5,0-1,0-1.5-0.1
				c-0.7,0.8-1.4,1.5-2.2,2.3c0.5-0.1,1-0.1,1.5-0.2C13.3,831.9,14,831.2,14.7,830.5z M17.2,830.4c-0.4,0-0.8,0.1-1.2,0.1
				c-0.6,0.6-1.2,1.1-1.8,1.7c0.4-0.1,0.8-0.2,1.2-0.3C16,831.4,16.6,830.9,17.2,830.4z M19.4,830c-0.2,0-0.4,0.1-0.6,0.1
				c-0.3,0.3-0.7,0.6-1,0.9c0.2-0.1,0.3-0.1,0.5-0.2C18.6,830.6,19,830.3,19.4,830z M101.8,734.2l-1.2,0.4 M100.6,734.6l-0.5,0.4
				l1.2-0.4 M471.4,776.4c-0.2,0-0.3-0.1-0.5-0.1c-1.2,0.9-2.3,1.8-3.4,2.8c0.3,0.1,0.6,0.1,0.9,0.2
				C469.3,778.3,470.3,777.4,471.4,776.4z M473.4,776.8l-1-0.2c-1,0.9-2.1,1.9-3.1,2.8c0.4,0.1,0.9,0.2,1.3,0.2
				C471.5,778.7,472.5,777.8,473.4,776.8z M475.8,777.3c-0.5-0.1-0.9-0.2-1.4-0.2c-0.9,0.9-1.9,1.9-2.7,2.8c0.6,0.1,1.1,0.2,1.7,0.3
				C474.2,779.2,475,778.2,475.8,777.3z M478.6,777.8c-0.6-0.1-1.2-0.2-1.8-0.3c-0.8,0.9-1.6,1.9-2.4,2.8c0.7,0.1,1.4,0.2,2.1,0.3
				C477.1,779.6,477.8,778.7,478.6,777.8z M481.7,778.2c-0.7-0.1-1.4-0.2-2.1-0.3c-0.7,0.9-1.4,1.8-2.1,2.8c0.8,0.1,1.6,0.2,2.4,0.2
				C480.4,780,481,779.1,481.7,778.2z M485.1,778.6c-0.8-0.1-1.6-0.2-2.5-0.3c-0.6,0.9-1.2,1.8-1.8,2.7c0.9,0.1,1.8,0.1,2.7,0.2
				C484,780.3,484.6,779.4,485.1,778.6z M488.9,778.9c-0.9-0.1-1.8-0.1-2.8-0.2c-0.5,0.8-1.1,1.7-1.6,2.6c1,0,1.9,0.1,2.8,0.1
				C487.9,780.5,488.4,779.7,488.9,778.9z M492.6,779c-0.9,0-1.9,0-2.8-0.1c-0.5,0.8-1,1.6-1.4,2.4c0.9,0,1.8,0,2.7-0.1
				C491.6,780.5,492.1,779.8,492.6,779z M496.3,779c-0.9,0-1.7,0-2.6,0c-0.5,0.7-1,1.5-1.4,2.2c0.9,0,1.7-0.1,2.5-0.2
				C495.3,780.3,495.8,779.7,496.3,779z M499.8,778.8c-0.8,0.1-1.6,0.1-2.4,0.1c-0.5,0.7-1,1.3-1.4,1.9c0.8-0.1,1.6-0.2,2.3-0.3
				C498.8,780,499.3,779.4,499.8,778.8z M503.2,778.4c-0.7,0.1-1.5,0.2-2.2,0.2c-0.5,0.6-0.9,1.1-1.4,1.7c0.7-0.1,1.4-0.2,2.1-0.4
				C502.3,779.5,502.8,778.9,503.2,778.4z M506.5,777.9c-0.6,0.1-1.3,0.2-1.9,0.3c-0.4,0.5-0.8,0.9-1.3,1.4c0.6-0.1,1.2-0.3,1.8-0.4
				C505.6,778.8,506,778.4,506.5,777.9z M509.5,777.3c-0.5,0.1-1,0.2-1.5,0.3c-0.3,0.4-0.7,0.7-1,1c0.5-0.1,0.9-0.3,1.4-0.4
				C508.8,777.9,509.1,777.6,509.5,777.3z M512.2,776.6c-0.3,0.1-0.6,0.2-0.8,0.2c-0.2,0.2-0.4,0.4-0.6,0.6c0.3-0.1,0.6-0.2,0.8-0.3
				C511.8,776.9,512,776.8,512.2,776.6z M547.4,746.9c-1,0.1-2.1,0.3-3.1,0.4c-0.4,0.6-0.7,1.1-1,1.7c1-0.1,2.1-0.2,3.1-0.3
				C546.6,748.1,547,747.5,547.4,746.9z M548.9,744.3c-1,0.1-2,0.3-3.1,0.5c-0.4,0.5-0.7,1.1-1.1,1.6c1-0.1,2.1-0.3,3.1-0.4
				C548.3,745.4,548.6,744.8,548.9,744.3z M550.6,741.7c-1,0.2-1.9,0.3-2.9,0.5c-0.4,0.5-0.7,1-1.1,1.5c1-0.2,2-0.3,2.9-0.4
				C549.9,742.8,550.2,742.3,550.6,741.7z M552.3,739.3c-0.9,0.2-1.8,0.4-2.8,0.5c-0.4,0.5-0.7,0.9-1.1,1.4c0.9-0.2,1.9-0.3,2.8-0.5
				C551.6,740.3,551.9,739.8,552.3,739.3z M554.1,736.9c-0.9,0.2-1.7,0.4-2.6,0.6c-0.4,0.4-0.7,0.9-1.1,1.3c0.9-0.2,1.8-0.3,2.6-0.5
				C553.3,737.8,553.7,737.4,554.1,736.9z M555.9,734.6c-0.8,0.2-1.6,0.4-2.4,0.6c-0.4,0.4-0.7,0.8-1.1,1.2c0.8-0.2,1.6-0.4,2.4-0.5
				C555.2,735.4,555.6,735,555.9,734.6z M557.8,732.4c-0.7,0.2-1.5,0.4-2.2,0.6c-0.3,0.4-0.7,0.7-1,1.1c0.7-0.2,1.5-0.4,2.2-0.5
				C557.1,733.1,557.5,732.8,557.8,732.4z M559.8,730.2c-0.7,0.2-1.3,0.4-2,0.6c-0.3,0.3-0.6,0.6-1,0.9c0.7-0.2,1.3-0.4,2-0.5
				C559.2,730.9,559.5,730.6,559.8,730.2z M561.8,728.2c-0.6,0.2-1.2,0.4-1.7,0.6c-0.3,0.3-0.6,0.5-0.8,0.8c0.6-0.2,1.2-0.3,1.7-0.5
				C561.3,728.7,561.5,728.5,561.8,728.2z M563.9,726.2c-0.5,0.2-0.9,0.3-1.4,0.5c-0.2,0.2-0.5,0.4-0.7,0.6c0.5-0.1,0.9-0.3,1.4-0.4
				C563.4,726.7,563.6,726.4,563.9,726.2z M565.9,724.4c-0.3,0.1-0.7,0.3-1,0.4c-0.2,0.1-0.3,0.2-0.5,0.4c0.3-0.1,0.7-0.2,1-0.3
				C565.6,724.7,565.8,724.5,565.9,724.4z M568,722.7l-0.5,0.2l-0.1,0.1L568,722.7L568,722.7z M152,705.3c4-1.5,8.2-2.9,12.3-4.2
				c37.7-11.8,79.9-15.1,115.4-2.9c28.4,9.8,57.7,24.5,86.2,39c35.8,18,70.3,35.5,100.4,41.7c1.1-1,2.3-1.9,3.4-2.8
				c-29.6-6.7-63.4-23.7-98.4-41.3c-28.5-14.4-57.8-29.2-86.1-38.9c-35.3-12.2-77.3-8.9-114.8,2.9C164.2,700.7,158,702.9,152,705.3z
				 M106.1,730.6L106.1,730.6l-0.5,0.2l0,0L106.1,730.6z M103.7,732.6l0.3-0.2l-0.9,0.3l-0.3,0.2L103.7,732.6z M99.1,736.6l0.6-0.6
				c-0.5,0.2-0.9,0.3-1.4,0.5l-0.6,0.5C98.1,736.9,98.6,736.8,99.1,736.6z M96.8,738.7c0.2-0.2,0.5-0.5,0.7-0.7
				c-0.5,0.2-1.1,0.4-1.6,0.5c-0.2,0.2-0.5,0.4-0.7,0.6C95.7,739,96.3,738.9,96.8,738.7z M94.7,740.8c0.3-0.3,0.5-0.5,0.8-0.8
				c-0.4,0.1-0.7,0.2-1.1,0.3l-0.8,0.2c-0.3,0.3-0.5,0.5-0.8,0.8C93.4,741.2,94.1,741,94.7,740.8z M92.6,743
				c0.3-0.3,0.6-0.6,0.9-0.9c-0.7,0.2-1.4,0.4-2,0.6c-0.3,0.3-0.6,0.6-0.9,0.9C91.2,743.4,91.9,743.2,92.6,743z M90.6,745.2
				c0.3-0.3,0.6-0.7,0.9-1c-0.7,0.2-1.5,0.4-2.2,0.6c-0.3,0.3-0.6,0.6-0.9,1C89.1,745.6,89.8,745.4,90.6,745.2z M88.7,747.5
				c0.3-0.4,0.6-0.7,0.9-1.1c-0.8,0.2-1.6,0.4-2.4,0.6c-0.3,0.4-0.7,0.7-1,1.1C87,747.8,87.9,747.6,88.7,747.5z M5.4,820.9
				c-0.6-0.5-1.2-1.1-1.8-1.7c-0.9,1.6-1.9,3.2-2.9,4.7c0.6,0.5,1.2,1,1.8,1.4C3.5,823.9,4.4,822.4,5.4,820.9z M7.8,822.9
				c-0.6-0.4-1.2-0.9-1.8-1.4c-0.9,1.5-1.9,2.9-2.8,4.4c0.6,0.4,1.2,0.8,1.8,1.1C6,825.7,6.9,824.3,7.8,822.9z M10.4,824.5
				c-0.6-0.3-1.2-0.7-1.8-1.1c-0.9,1.3-1.8,2.7-2.8,4c0.6,0.3,1.2,0.6,1.8,0.8C8.5,827,9.5,825.8,10.4,824.5z M12.9,825.7
				c-0.6-0.2-1.2-0.5-1.8-0.8c-0.9,1.2-1.8,2.4-2.7,3.6c0.6,0.2,1.2,0.4,1.8,0.5C11.1,828,12,826.9,12.9,825.7z M15.5,826.6
				c-0.6-0.2-1.1-0.3-1.7-0.5c-0.8,1.1-1.7,2.2-2.6,3.2c0.6,0.1,1.2,0.2,1.7,0.3C13.8,828.6,14.6,827.6,15.5,826.6z M18,827.1
				c-0.5-0.1-1.1-0.2-1.6-0.3c-0.8,0.9-1.6,1.9-2.4,2.8c0.5,0,1.1,0,1.6,0C16.4,828.8,17.2,828,18,827.1z M20.6,827.3
				c-0.5,0-1,0-1.5-0.1c-0.7,0.8-1.4,1.5-2.2,2.3c0.5-0.1,1-0.1,1.5-0.2C19.1,828.7,19.9,828,20.6,827.3z M23.1,827.2
				c-0.4,0-0.8,0.1-1.2,0.1c-0.6,0.6-1.2,1.1-1.8,1.7c0.4-0.1,0.8-0.2,1.2-0.3C21.8,828.2,22.4,827.7,23.1,827.2z M25.2,826.8
				c-0.2,0-0.4,0.1-0.6,0.1c-0.3,0.3-0.7,0.6-1,0.9c0.2-0.1,0.3-0.1,0.5-0.2C24.5,827.4,24.9,827.1,25.2,826.8z M475.6,772.9
				L475.6,772.9c-1.3,0.9-2.6,1.8-3.8,2.7l0.4,0.1C473.3,774.7,474.5,773.8,475.6,772.9z M477.2,773.2c-0.2,0-0.3-0.1-0.5-0.1
				c-1.2,0.9-2.3,1.8-3.4,2.8c0.3,0.1,0.6,0.1,0.9,0.2C475.2,775.1,476.2,774.2,477.2,773.2z M479.3,773.6l-1-0.2
				c-1,0.9-2.1,1.9-3.1,2.8c0.4,0.1,0.9,0.2,1.3,0.2C477.4,775.5,478.3,774.6,479.3,773.6z M481.6,774.1c-0.5-0.1-0.9-0.2-1.4-0.2
				c-0.9,0.9-1.9,1.9-2.7,2.8c0.6,0.1,1.1,0.2,1.7,0.3C480,776,480.8,775,481.6,774.1z M484.4,774.6c-0.6-0.1-1.2-0.2-1.8-0.3
				c-0.8,0.9-1.6,1.9-2.4,2.8c0.7,0.1,1.4,0.2,2.1,0.3C483,776.4,483.7,775.5,484.4,774.6z M487.5,775c-0.7-0.1-1.4-0.2-2.1-0.3
				c-0.7,0.9-1.4,1.8-2.1,2.8c0.8,0.1,1.6,0.2,2.4,0.2C486.3,776.8,486.9,775.9,487.5,775z M491,775.4c-0.8-0.1-1.6-0.2-2.5-0.3
				c-0.6,0.9-1.2,1.8-1.8,2.7c0.9,0.1,1.8,0.1,2.7,0.2C489.9,777.1,490.4,776.2,491,775.4z M494.7,775.7c-0.9-0.1-1.8-0.1-2.8-0.2
				c-0.5,0.8-1.1,1.7-1.6,2.6c1,0,1.9,0.1,2.8,0.1C493.7,777.3,494.2,776.5,494.7,775.7z M498.5,775.8c-0.9,0-1.9,0-2.8-0.1
				c-0.5,0.8-1,1.6-1.4,2.4c0.9,0,1.8,0,2.7-0.1C497.5,777.3,498,776.6,498.5,775.8z M502.1,775.8c-0.9,0-1.7,0-2.6,0
				c-0.5,0.7-1,1.5-1.4,2.2c0.9,0,1.7-0.1,2.5-0.2C501.1,777.1,501.6,776.5,502.1,775.8z M505.7,775.6c-0.8,0.1-1.6,0.1-2.4,0.1
				c-0.5,0.7-1,1.3-1.4,1.9c0.8-0.1,1.6-0.2,2.3-0.3C504.7,776.8,505.2,776.2,505.7,775.6z M509.1,775.2c-0.7,0.1-1.5,0.2-2.2,0.2
				c-0.5,0.6-0.9,1.1-1.4,1.7c0.7-0.1,1.4-0.2,2.1-0.4C508.1,776.3,508.6,775.7,509.1,775.2z M512.3,774.7c-0.6,0.1-1.3,0.2-1.9,0.3
				c-0.4,0.5-0.8,0.9-1.3,1.4c0.6-0.1,1.2-0.3,1.8-0.4C511.4,775.6,511.9,775.2,512.3,774.7z M515.4,774.1c-0.5,0.1-1,0.2-1.5,0.3
				c-0.3,0.4-0.7,0.7-1,1c0.5-0.1,1-0.3,1.4-0.4C514.6,774.7,515,774.4,515.4,774.1z M518.1,773.4c-0.3,0.1-0.6,0.2-0.8,0.2
				c-0.2,0.2-0.4,0.4-0.6,0.6c0.3-0.1,0.6-0.2,0.8-0.3C517.7,773.7,517.9,773.6,518.1,773.4z M551.5,746.4c-1,0.1-2,0.2-3.1,0.4
				c-0.4,0.6-0.7,1.2-1.1,1.8c1-0.1,2-0.2,2.9-0.3C550.7,747.7,551.1,747,551.5,746.4z M553.2,743.7c-1,0.1-2.1,0.3-3.1,0.4
				c-0.4,0.6-0.7,1.1-1,1.7c1-0.1,2.1-0.2,3.1-0.3C552.5,744.9,552.9,744.3,553.2,743.7z M554.8,741.1c-1,0.1-2,0.3-3.1,0.5
				c-0.4,0.5-0.7,1.1-1.1,1.6c1-0.1,2.1-0.3,3.1-0.4C554.1,742.2,554.5,741.6,554.8,741.1z M556.4,738.5c-1,0.2-1.9,0.3-2.9,0.5
				c-0.4,0.5-0.7,1-1.1,1.5c1-0.2,2-0.3,2.9-0.4C555.7,739.6,556.1,739.1,556.4,738.5z M558.1,736.1c-0.9,0.2-1.8,0.4-2.8,0.5
				c-0.4,0.5-0.7,0.9-1.1,1.4c0.9-0.2,1.9-0.3,2.8-0.5C557.4,737.1,557.8,736.6,558.1,736.1z M559.9,733.7c-0.9,0.2-1.7,0.4-2.6,0.6
				c-0.4,0.4-0.7,0.9-1.1,1.3c0.9-0.2,1.8-0.3,2.6-0.5C559.2,734.6,559.6,734.2,559.9,733.7z M561.8,731.4c-0.8,0.2-1.6,0.4-2.4,0.6
				c-0.4,0.4-0.7,0.8-1.1,1.2c0.8-0.2,1.6-0.4,2.4-0.5C561.1,732.2,561.4,731.8,561.8,731.4z M563.7,729.2c-0.7,0.2-1.5,0.4-2.2,0.6
				c-0.3,0.4-0.7,0.7-1,1.1c0.7-0.2,1.5-0.4,2.2-0.5C563,729.9,563.3,729.6,563.7,729.2z M565.6,727c-0.7,0.2-1.3,0.4-2,0.6
				c-0.3,0.3-0.6,0.6-1,0.9c0.7-0.2,1.3-0.4,2-0.5C565,727.7,565.3,727.4,565.6,727z M567.7,725c-0.6,0.2-1.2,0.4-1.7,0.6
				c-0.3,0.3-0.6,0.5-0.8,0.8c0.6-0.2,1.2-0.3,1.7-0.5C567.1,725.5,567.4,725.3,567.7,725z M569.7,723c-0.5,0.2-0.9,0.3-1.4,0.5
				c-0.2,0.2-0.5,0.4-0.7,0.6c0.5-0.1,0.9-0.3,1.4-0.4C569.3,723.5,569.5,723.2,569.7,723z M571.8,721.2c-0.3,0.1-0.7,0.3-1,0.4
				c-0.2,0.1-0.3,0.2-0.5,0.4c0.3-0.1,0.7-0.2,1-0.3C571.5,721.5,571.6,721.3,571.8,721.2z M573.8,719.5l-0.5,0.2l-0.1,0.1
				L573.8,719.5L573.8,719.5z M157.9,702.1c4-1.5,8.2-2.9,12.3-4.2c37.7-11.8,79.9-15.1,115.4-2.9c28.4,9.8,57.7,24.5,86.2,39
				c35.1,17.7,69.2,34.9,98.9,41.4c1.2-0.9,2.5-1.9,3.8-2.8c-29.3-6.8-62.7-23.7-97.2-41.1c-28.5-14.4-57.8-29.2-86.1-38.9
				c-35.3-12.2-77.3-8.9-114.8,2.9C170,697.5,163.9,699.7,157.9,702.1z M111.9,727.4L111.9,727.4l-0.5,0.2l0,0L111.9,727.4z
				 M109.5,729.4l0.3-0.2l-0.9,0.3l-0.3,0.2L109.5,729.4z M107.2,731.4c0.2-0.1,0.3-0.3,0.5-0.4l-1.2,0.4l-0.5,0.4L107.2,731.4z
				 M104.9,733.4l0.6-0.6c-0.5,0.2-0.9,0.3-1.4,0.5l-0.6,0.5C104,733.7,104.4,733.6,104.9,733.4z M102.7,735.5
				c0.2-0.2,0.5-0.5,0.7-0.7c-0.5,0.2-1.1,0.4-1.6,0.5c-0.2,0.2-0.5,0.4-0.7,0.6C101.6,735.8,102.1,735.7,102.7,735.5z M100.5,737.6
				c0.3-0.3,0.5-0.5,0.8-0.8c-0.4,0.1-0.7,0.2-1.1,0.3l-0.8,0.2c-0.3,0.3-0.5,0.5-0.8,0.8C99.3,738,99.9,737.8,100.5,737.6z
				 M98.5,739.8c0.3-0.3,0.6-0.6,0.9-0.9c-0.7,0.2-1.4,0.4-2,0.6c-0.3,0.3-0.6,0.6-0.9,0.9C97.1,740.1,97.8,740,98.5,739.8z
				 M96.5,742c0.3-0.3,0.6-0.7,0.9-1c-0.7,0.2-1.5,0.4-2.2,0.6c-0.3,0.3-0.6,0.6-0.9,1C94.9,742.4,95.7,742.2,96.5,742z M94.5,744.3
				c0.3-0.4,0.6-0.7,0.9-1.1c-0.8,0.2-1.6,0.4-2.4,0.6c-0.3,0.4-0.7,0.7-1,1.1C92.9,744.6,93.7,744.4,94.5,744.3z M92.7,746.6
				c0.3-0.4,0.6-0.8,1-1.2c-0.9,0.2-1.7,0.4-2.5,0.6c-0.3,0.4-0.7,0.8-1,1.2C90.9,746.9,91.8,746.8,92.7,746.6z M6.4,812.7
				c-0.6-0.7-1.2-1.5-1.8-2.3c-0.9,1.7-2,3.6-3,5.5c0.6,0.7,1.2,1.4,1.8,2C4.4,816.1,5.4,814.3,6.4,812.7z M8.8,815.4
				c-0.6-0.6-1.2-1.3-1.8-2c-1,1.6-2,3.3-3,5.1c0.6,0.6,1.2,1.2,1.8,1.7C6.8,818.6,7.8,817,8.8,815.4z M11.2,817.7
				c-0.6-0.5-1.2-1.1-1.8-1.7c-0.9,1.6-1.9,3.2-2.9,4.7c0.6,0.5,1.2,1,1.8,1.4C9.3,820.7,10.3,819.2,11.2,817.7z M13.7,819.7
				c-0.6-0.4-1.2-0.9-1.8-1.4c-0.9,1.5-1.9,2.9-2.8,4.4c0.6,0.4,1.2,0.8,1.8,1.1C11.8,822.5,12.8,821.1,13.7,819.7z M16.2,821.3
				c-0.6-0.3-1.2-0.7-1.8-1.1c-0.9,1.3-1.8,2.7-2.8,4c0.6,0.3,1.2,0.6,1.8,0.8C14.4,823.8,15.3,822.6,16.2,821.3z M18.8,822.5
				c-0.6-0.2-1.2-0.5-1.8-0.8c-0.9,1.2-1.8,2.4-2.7,3.6c0.6,0.2,1.2,0.4,1.8,0.5C17,824.8,17.9,823.7,18.8,822.5z M21.3,823.4
				c-0.6-0.2-1.1-0.3-1.7-0.5c-0.8,1.1-1.7,2.2-2.6,3.2c0.6,0.1,1.2,0.2,1.7,0.3C19.6,825.4,20.5,824.4,21.3,823.4z M23.9,823.9
				c-0.5-0.1-1.1-0.2-1.6-0.3c-0.8,0.9-1.6,1.9-2.4,2.8c0.5,0,1.1,0,1.6,0C22.3,825.6,23.1,824.8,23.9,823.9z M26.4,824.1
				c-0.5,0-1,0-1.5-0.1c-0.7,0.8-1.4,1.5-2.2,2.3c0.5-0.1,1-0.1,1.5-0.2C25,825.5,25.7,824.8,26.4,824.1z M28.9,824
				c-0.4,0-0.8,0.1-1.2,0.1c-0.6,0.6-1.2,1.1-1.8,1.7c0.4-0.1,0.8-0.2,1.2-0.3C27.7,825,28.3,824.5,28.9,824z M31.1,823.6
				c-0.2,0-0.4,0.1-0.6,0.1c-0.3,0.3-0.7,0.6-1,0.9c0.2-0.1,0.3-0.1,0.5-0.2C30.3,824.2,30.7,823.9,31.1,823.6z M481.5,769.7
				L481.5,769.7c-1.3,0.9-2.6,1.8-3.8,2.7l0.4,0.1C479.2,771.5,480.3,770.6,481.5,769.7z M483.1,770c-0.2,0-0.3-0.1-0.5-0.1
				c-1.2,0.9-2.3,1.8-3.4,2.8c0.3,0.1,0.6,0.1,0.9,0.2C481,771.9,482,771,483.1,770z M485.1,770.4l-1-0.2c-1,0.9-2.1,1.9-3.1,2.8
				c0.4,0.1,0.9,0.2,1.3,0.2C483.3,772.3,484.2,771.4,485.1,770.4z M487.5,770.9c-0.5-0.1-0.9-0.2-1.4-0.2c-0.9,0.9-1.9,1.9-2.7,2.8
				c0.6,0.1,1.1,0.2,1.7,0.3C485.9,772.8,486.7,771.8,487.5,770.9z M490.3,771.4c-0.6-0.1-1.2-0.2-1.8-0.3c-0.8,0.9-1.6,1.9-2.4,2.8
				c0.7,0.1,1.4,0.2,2.1,0.3C488.8,773.2,489.5,772.3,490.3,771.4z M493.4,771.8c-0.7-0.1-1.4-0.2-2.1-0.3c-0.7,0.9-1.4,1.8-2.1,2.8
				c0.8,0.1,1.6,0.2,2.4,0.2C492.1,773.6,492.7,772.7,493.4,771.8z M496.8,772.2c-0.8-0.1-1.6-0.2-2.5-0.3c-0.6,0.9-1.2,1.8-1.8,2.7
				c0.9,0.1,1.8,0.1,2.7,0.2C495.8,773.9,496.3,773,496.8,772.2z M500.6,772.5c-0.9-0.1-1.8-0.1-2.8-0.2c-0.5,0.8-1.1,1.7-1.6,2.6
				c1,0,1.9,0.1,2.8,0.1C499.6,774.1,500.1,773.3,500.6,772.5z M504.3,772.6c-0.9,0-1.9,0-2.8-0.1c-0.5,0.8-1,1.6-1.4,2.4
				c0.9,0,1.8,0,2.7-0.1C503.3,774.1,503.8,773.4,504.3,772.6z M508,772.6c-0.9,0-1.7,0-2.6,0c-0.5,0.7-1,1.5-1.4,2.2
				c0.9,0,1.7-0.1,2.5-0.2C507,773.9,507.5,773.3,508,772.6z M511.5,772.4c-0.8,0.1-1.6,0.1-2.4,0.1c-0.5,0.7-1,1.3-1.4,1.9
				c0.8-0.1,1.6-0.2,2.3-0.3C510.5,773.6,511,773,511.5,772.4z M514.9,772c-0.7,0.1-1.5,0.2-2.2,0.2c-0.5,0.6-0.9,1.1-1.4,1.7
				c0.7-0.1,1.4-0.2,2.1-0.4C514,773.1,514.5,772.5,514.9,772z M518.2,771.5c-0.6,0.1-1.3,0.2-1.9,0.3c-0.4,0.5-0.8,0.9-1.3,1.4
				c0.6-0.1,1.2-0.3,1.8-0.4C517.3,772.4,517.7,772,518.2,771.5z M521.2,770.9c-0.5,0.1-1,0.2-1.5,0.3c-0.3,0.4-0.7,0.7-1,1
				c0.5-0.1,0.9-0.3,1.4-0.4C520.5,771.5,520.9,771.2,521.2,770.9z M523.9,770.2c-0.3,0.1-0.6,0.2-0.8,0.2c-0.2,0.2-0.4,0.4-0.6,0.6
				c0.3-0.1,0.5-0.2,0.8-0.3C523.5,770.5,523.7,770.4,523.9,770.2z M555.5,746c-0.9,0.1-1.9,0.2-2.8,0.3c-0.4,0.7-0.8,1.3-1.3,1.9
				c0.9-0.1,1.8-0.1,2.6-0.2C554.5,747.3,555,746.7,555.5,746z M557.4,743.2c-1,0.1-2,0.2-3.1,0.4c-0.4,0.6-0.7,1.2-1.1,1.8
				c1-0.1,2-0.2,2.9-0.3C556.6,744.5,557,743.8,557.4,743.2z M559.1,740.5c-1,0.1-2.1,0.3-3.1,0.4c-0.4,0.6-0.7,1.1-1,1.7
				c1-0.1,2.1-0.2,3.1-0.3C558.4,741.7,558.7,741.1,559.1,740.5z M560.7,737.9c-1,0.1-2,0.3-3.1,0.5c-0.4,0.5-0.7,1.1-1.1,1.6
				c1-0.1,2.1-0.3,3.1-0.4C560,739,560.3,738.4,560.7,737.9z M562.3,735.3c-1,0.2-1.9,0.3-2.9,0.5c-0.4,0.5-0.7,1-1.1,1.5
				c1-0.2,2-0.3,2.9-0.4C561.6,736.4,561.9,735.9,562.3,735.3z M564,732.9c-0.9,0.2-1.8,0.4-2.8,0.5c-0.4,0.5-0.7,0.9-1.1,1.4
				c0.9-0.2,1.9-0.3,2.8-0.5C563.3,733.9,563.6,733.4,564,732.9z M565.8,730.5c-0.9,0.2-1.7,0.4-2.6,0.6c-0.4,0.4-0.7,0.9-1.1,1.3
				c0.9-0.2,1.8-0.3,2.6-0.5C565.1,731.4,565.4,731,565.8,730.5z M567.6,728.2c-0.8,0.2-1.6,0.4-2.4,0.6c-0.4,0.4-0.7,0.8-1.1,1.2
				c0.8-0.2,1.6-0.4,2.4-0.5C566.9,729,567.3,728.6,567.6,728.2z M569.5,726c-0.7,0.2-1.5,0.4-2.2,0.6c-0.3,0.4-0.7,0.7-1,1.1
				c0.7-0.2,1.5-0.4,2.2-0.5C568.9,726.7,569.2,726.4,569.5,726z M571.5,723.8c-0.7,0.2-1.3,0.4-2,0.6c-0.3,0.3-0.6,0.6-1,0.9
				c0.7-0.2,1.3-0.4,2-0.5C570.9,724.5,571.2,724.2,571.5,723.8z M573.5,721.8c-0.6,0.2-1.2,0.4-1.7,0.6c-0.3,0.3-0.6,0.5-0.8,0.8
				c0.6-0.2,1.2-0.3,1.7-0.5C573,722.3,573.2,722.1,573.5,721.8z M575.6,719.8c-0.5,0.2-0.9,0.3-1.4,0.5c-0.2,0.2-0.5,0.4-0.7,0.6
				c0.5-0.1,0.9-0.3,1.4-0.4C575.1,720.3,575.4,720,575.6,719.8z M577.6,718c-0.3,0.1-0.7,0.3-1,0.4c-0.2,0.1-0.3,0.2-0.5,0.4
				c0.3-0.1,0.7-0.2,1-0.3C577.3,718.3,577.5,718.1,577.6,718z M579.7,716.3l-0.5,0.2l-0.1,0.1L579.7,716.3L579.7,716.3z
				 M163.7,698.9c4-1.5,8.2-2.9,12.3-4.2c37.7-11.8,79.9-15.1,115.4-2.9c28.4,9.8,57.7,24.5,86.2,39c34.7,17.5,68.3,34.5,97.8,41.2
				c1.4-0.9,2.7-1.8,4.2-2.7c-29.2-6.9-62.3-23.7-96.5-40.9c-28.5-14.4-57.8-29.2-86.1-38.9c-35.3-12.2-77.3-8.9-114.8,2.9
				C175.9,694.3,169.7,696.5,163.7,698.9z M553.3,748.9c-0.8,0.1-1.7,0.1-2.6,0.2c-3.7,5.4-7.8,9.8-12.1,13.5
				C543.9,759.2,548.8,754.6,553.3,748.9z M585.4,713.2L585.4,713.2l-0.4,0.1l-0.1,0.1L585.4,713.2z M583,715.2
				c0.2-0.1,0.3-0.3,0.5-0.4c-0.3,0.1-0.7,0.3-1,0.4c-0.2,0.1-0.3,0.2-0.5,0.4C582.4,715.4,582.7,715.3,583,715.2z M580.7,717.3
				c0.2-0.2,0.5-0.4,0.7-0.6c-0.5,0.2-0.9,0.3-1.4,0.5c-0.2,0.2-0.5,0.4-0.7,0.6C579.8,717.6,580.3,717.4,580.7,717.3z M578.5,719.4
				c0.3-0.3,0.6-0.6,0.8-0.8c-0.6,0.2-1.2,0.4-1.7,0.6c-0.3,0.3-0.6,0.5-0.8,0.8C577.4,719.7,578,719.6,578.5,719.4z M576.4,721.6
				c0.3-0.3,0.6-0.7,0.9-1c-0.7,0.2-1.3,0.4-2,0.6c-0.3,0.3-0.6,0.6-1,0.9C575.1,722,575.8,721.8,576.4,721.6z M574.4,723.9
				c0.3-0.4,0.7-0.8,1-1.1c-0.7,0.2-1.5,0.4-2.2,0.6c-0.3,0.4-0.7,0.7-1,1.1C572.9,724.3,573.6,724.1,574.4,723.9z M572.4,726.3
				c0.3-0.4,0.7-0.8,1-1.3c-0.8,0.2-1.6,0.4-2.4,0.6c-0.4,0.4-0.7,0.8-1.1,1.2C570.8,726.6,571.6,726.4,572.4,726.3z M570.6,728.7
				c0.3-0.5,0.7-0.9,1.1-1.4c-0.9,0.2-1.7,0.4-2.6,0.6c-0.4,0.4-0.7,0.9-1.1,1.3C568.8,729,569.7,728.8,570.6,728.7z M568.8,731.2
				c0.3-0.5,0.7-1,1.1-1.5c-0.9,0.2-1.8,0.4-2.8,0.5c-0.4,0.5-0.7,0.9-1.1,1.4C566.9,731.5,567.9,731.3,568.8,731.2z M567.1,733.7
				c0.3-0.5,0.7-1.1,1-1.6c-1,0.2-1.9,0.3-2.9,0.5c-0.4,0.5-0.7,1-1.1,1.5C565.1,734,566.1,733.9,567.1,733.7z M565.5,736.3
				c0.3-0.6,0.7-1.1,1-1.7c-1,0.1-2,0.3-3.1,0.5c-0.4,0.5-0.7,1.1-1.1,1.6C563.4,736.6,564.5,736.5,565.5,736.3z M563.8,739.1
				c0.4-0.6,0.7-1.2,1.1-1.8c-1,0.1-2.1,0.3-3.1,0.4c-0.4,0.6-0.7,1.1-1,1.7C561.8,739.3,562.8,739.2,563.8,739.1z M562,741.9
				c0.4-0.6,0.8-1.3,1.2-1.9c-1,0.1-2,0.2-3.1,0.4c-0.4,0.6-0.7,1.2-1.1,1.8C560.1,742.1,561,742,562,741.9z M559.9,744.8
				c0.5-0.6,1-1.3,1.4-2c-0.9,0.1-1.9,0.2-2.8,0.3c-0.4,0.7-0.8,1.3-1.3,1.9C558.1,744.9,559,744.9,559.9,744.8z M557.5,747.8
				c0.6-0.7,1.1-1.4,1.7-2.1c-0.8,0.1-1.7,0.1-2.6,0.2c-0.5,0.7-0.9,1.4-1.4,2C556,747.9,556.7,747.8,557.5,747.8z M544.5,759.4
				c4.4-2.8,8.5-6.4,12.3-10.7c-0.7,0-1.5,0.1-2.2,0.1C551.4,752.9,548,756.4,544.5,759.4z M534.2,764.6c0.3-0.1,0.6-0.2,0.8-0.3
				c5.3-3.8,10.2-8.8,14.6-15c-0.9,0.1-1.9,0.2-2.8,0.3C543,755.6,538.7,760.5,534.2,764.6z M530.4,765.9c0.5-0.1,0.9-0.3,1.4-0.4
				c5-4.1,9.7-9.3,13.8-15.8c-1,0.1-2,0.2-3.1,0.4C538.9,756.3,534.8,761.6,530.4,765.9z M526.7,766.8c0.6-0.1,1.2-0.3,1.8-0.4
				c4.7-4.3,9-9.7,13-16.3c-1,0.1-2.1,0.3-3.1,0.4c-0.5,0.8-1,1.6-1.5,2.4l0,0C533.8,758.3,530.4,762.9,526.7,766.8z M523.1,767.5
				c0.7-0.1,1.4-0.2,2.1-0.4c3.9-4.1,7.6-8.9,10.9-14.6l0,0c0.4-0.6,0.7-1.2,1.1-1.8c-1,0.1-2,0.3-3.1,0.5c-1.1,1.6-2.1,3.3-3.1,5
				l0,0C528.5,760.4,525.9,764.2,523.1,767.5z M519.4,768.1c0.8-0.1,1.6-0.2,2.3-0.3c3-3.5,5.9-7.5,8.5-12.1l0,0
				c0.9-1.5,1.8-2.9,2.7-4.3c-1,0.2-1.9,0.3-2.9,0.5c-1.7,2.4-3.4,4.9-4.9,7.5l0,0C523.3,762.5,521.4,765.4,519.4,768.1z
				 M515.6,768.4c0.9,0,1.7-0.1,2.5-0.2c2.2-2.8,4.3-5.9,6.2-9.3l0,0c1.4-2.4,2.9-4.6,4.4-6.8c-0.9,0.2-1.8,0.4-2.8,0.5
				c-2.4,3.1-4.7,6.4-6.8,9.9l0,0C518.1,764.6,516.9,766.5,515.6,768.4z M511.8,768.5c0.9,0,1.8,0,2.7-0.1c1.4-2,2.7-4.1,4-6.3l0,0
				c1.9-3.3,4-6.3,6.2-9.2c-0.9,0.2-1.7,0.4-2.6,0.6c-3.2,3.7-6.1,7.8-8.7,12.2l0,0C512.9,766.7,512.4,767.6,511.8,768.5z
				 M507.9,768.4c1,0,1.9,0.1,2.8,0.1c0.7-1,1.3-2.1,1.9-3.2l0,0c2.4-4.1,5.1-8,8.1-11.5c-0.8,0.2-1.6,0.4-2.4,0.6
				C514.5,758.6,511,763.3,507.9,768.4z M504.2,768.2c0.9,0.1,1.8,0.1,2.7,0.2c2.9-5,6.2-9.5,9.9-13.6c-0.7,0.2-1.5,0.4-2.2,0.6
				C510.8,759.3,507.3,763.5,504.2,768.2z M500.8,767.9c0.8,0.1,1.6,0.2,2.4,0.2c2.9-4.5,6.2-8.5,9.7-12.2c-0.7,0.2-1.3,0.4-2,0.6
				C507.3,759.9,503.9,763.7,500.8,767.9z M497.8,767.5c0.7,0.1,1.4,0.2,2.1,0.3c2.8-3.9,6-7.5,9.3-10.7c-0.6,0.2-1.2,0.4-1.7,0.6
				C504,760.6,500.8,763.9,497.8,767.5z M495.1,767.1c0.6,0.1,1.1,0.2,1.7,0.3c2.7-3.3,5.5-6.3,8.5-9.1c-0.5,0.2-0.9,0.3-1.4,0.5
				C500.8,761.3,497.9,764.1,495.1,767.1z M492.8,766.7c0.4,0.1,0.9,0.2,1.3,0.2c2.4-2.6,4.9-5,7.5-7.3c-0.3,0.1-0.7,0.3-1,0.4
				C497.8,762.1,495.2,764.3,492.8,766.7z M490.9,766.3c0.3,0.1,0.6,0.1,0.9,0.2c1.9-1.9,3.9-3.7,6-5.3c-0.2,0.1-0.3,0.1-0.5,0.2
				C495,762.9,492.9,764.6,490.9,766.3z M489.4,766l0.4,0.1c1.2-1,2.4-2.1,3.7-3C492.1,764,490.7,765,489.4,766z M117.8,724.2
				L117.8,724.2l-0.5,0.2l0,0L117.8,724.2z M115.4,726.2l0.3-0.2l-0.9,0.3l-0.3,0.2L115.4,726.2z M113,728.2l0.5-0.4l-1.2,0.4
				l-0.5,0.4L113,728.2z M110.8,730.2l0.6-0.6c-0.5,0.2-0.9,0.3-1.4,0.5l-0.6,0.5C109.8,730.5,110.3,730.4,110.8,730.2z
				 M108.5,732.3c0.2-0.2,0.5-0.5,0.7-0.7c-0.5,0.2-1.1,0.4-1.6,0.5c-0.2,0.2-0.5,0.4-0.7,0.6C107.4,732.6,108,732.5,108.5,732.3z
				 M106.4,734.4c0.3-0.3,0.5-0.5,0.8-0.8c-0.4,0.1-0.7,0.2-1.1,0.3l-0.8,0.2c-0.3,0.3-0.5,0.5-0.8,0.8
				C105.1,734.8,105.8,734.6,106.4,734.4z M104.3,736.6c0.3-0.3,0.6-0.6,0.9-0.9c-0.7,0.2-1.4,0.4-2,0.6c-0.3,0.3-0.6,0.6-0.9,0.9
				C102.9,736.9,103.6,736.8,104.3,736.6z M102.3,738.8c0.3-0.3,0.6-0.7,0.9-1c-0.7,0.2-1.5,0.4-2.2,0.6c-0.3,0.3-0.6,0.6-0.9,1
				C100.8,739.2,101.6,739,102.3,738.8z M100.4,741.1c0.3-0.4,0.6-0.7,0.9-1.1c-0.8,0.2-1.6,0.4-2.4,0.6c-0.3,0.4-0.7,0.7-1,1.1
				C98.8,741.4,99.6,741.2,100.4,741.1z M98.5,743.4c0.3-0.4,0.6-0.8,1-1.2c-0.8,0.2-1.7,0.4-2.5,0.6c-0.3,0.4-0.7,0.8-1,1.2
				C96.8,743.7,97.7,743.6,98.5,743.4z M96.8,745.7c0.3-0.4,0.6-0.9,1-1.3c-0.9,0.2-1.8,0.4-2.7,0.6c-0.3,0.4-0.7,0.8-1,1.3
				C94.9,746.1,95.8,745.9,96.8,745.7z M46.5,815.5c19-11.9,35.9-43.9,43.5-58.4c1.4-2.6,2.5-4.7,3.2-5.9c0.9-1.5,1.8-2.9,2.8-4.4
				c-1,0.2-1.9,0.4-2.9,0.6c-1.9,2.5-3.6,4.9-5,7.4c-0.7,1.3-1.8,3.3-3.2,5.9C78,773.9,63.5,801.4,46.5,815.5z M41.2,818.2
				c0.2-0.1,0.3-0.1,0.5-0.2c18.6-12.4,35-43.5,42.5-57.7c1.4-2.6,2.5-4.7,3.2-5.9c1.3-2.2,2.8-4.5,4.5-6.7
				c-0.9,0.2-1.8,0.4-2.7,0.6c-2.6,3.2-5,6.5-6.9,9.8c-0.7,1.3-1.8,3.3-3.2,5.9C72.2,776.9,57.9,804,41.2,818.2z M37.6,819.4
				c0.4-0.1,0.8-0.2,1.2-0.3c17.4-13.5,32.4-42.1,39.5-55.6c1.4-2.6,2.5-4.7,3.2-5.9c1.8-3,3.9-6,6.2-9c-0.8,0.2-1.7,0.4-2.5,0.6
				c-3.5,4-6.4,8-8.8,12c-0.7,1.3-1.8,3.3-3.2,5.9C66.7,779.5,53.4,804.8,37.6,819.4z M34.5,819.9c0.5-0.1,1-0.1,1.5-0.2
				c16.1-14.3,29.8-40.4,36.5-53c1.4-2.6,2.5-4.7,3.2-5.9c2.2-3.8,4.9-7.5,8.1-11.2c-0.8,0.2-1.6,0.4-2.4,0.6
				c-4.3,4.7-8,9.4-10.8,14.2c-0.7,1.3-1.8,3.3-3.2,5.9C61.2,782,49.1,805.1,34.5,819.9z M31.6,820c0.5,0,1.1,0,1.6,0
				c14.7-14.7,27.2-38.3,33.4-50.1c1.4-2.6,2.5-4.7,3.2-5.9c2.6-4.5,6-9,10-13.4c-0.7,0.2-1.5,0.4-2.2,0.6
				c-5.3,5.4-9.6,10.9-12.9,16.4c-0.7,1.3-1.8,3.3-3.2,5.9C55.8,784.4,44.8,805.2,31.6,820z M28.7,819.7c0.6,0.1,1.2,0.2,1.7,0.3
				c13.4-14.7,24.5-35.8,30.3-46.8c1.4-2.6,2.5-4.7,3.2-5.9c3.1-5.2,7.1-10.4,12-15.5c-0.7,0.2-1.4,0.4-2,0.6
				c-6.2,6-11.3,12.3-15,18.5c-0.7,1.3-1.8,3.3-3.2,5.9C50.4,786.8,40.6,805.3,28.7,819.7z M26,818.9c0.6,0.2,1.2,0.4,1.8,0.5
				c11.9-14.4,21.8-33,27.1-43.2c1.4-2.6,2.5-4.7,3.2-5.9c3.5-5.9,8.2-11.8,14-17.5c-0.4,0.1-0.7,0.2-1.1,0.3l-0.8,0.2
				C63,760.1,57.1,767,53,774c-0.7,1.3-1.8,3.3-3.2,5.9C45,789.1,36.5,805.2,26,818.9z M23.4,817.8c0.6,0.3,1.2,0.6,1.8,0.8
				c10.5-13.7,19-29.9,23.9-39.1c1.4-2.6,2.5-4.7,3.2-5.9c3.9-6.6,9.3-13.2,16-19.5c-0.5,0.2-1.1,0.4-1.6,0.5
				c-8.3,7.3-15,14.9-19.5,22.6c-0.7,1.3-1.8,3.3-3.2,5.9C39.6,791.3,32.3,805.2,23.4,817.8z M20.7,816.3c0.6,0.4,1.2,0.8,1.8,1.1
				c9-12.6,16.3-26.5,20.6-34.7c1.4-2.6,2.5-4.7,3.2-5.9c4.3-7.3,10.5-14.6,18.1-21.5c-0.5,0.2-0.9,0.3-1.4,0.5
				c-9.4,7.9-16.9,16.2-21.8,24.6c-0.7,1.3-1.8,3.3-3.2,5.9C34.3,793.5,28.2,805,20.7,816.3z M18.2,814.4c0.6,0.5,1.2,1,1.8,1.4
				c7.5-11.2,13.5-22.7,17.3-29.9c1.4-2.6,2.5-4.7,3.2-5.9c4.7-8,11.6-15.9,20.3-23.4l-1.2,0.4c-10.5,8.4-18.9,17.5-24.2,26.6
				c-0.7,1.3-1.8,3.3-3.2,5.9C29,795.6,24.2,804.9,18.2,814.4z M15.7,812.1c0.6,0.6,1.2,1.2,1.8,1.7c5.9-9.5,10.8-18.6,14-24.7
				c1.4-2.6,2.5-4.7,3.2-5.9c5.1-8.6,12.8-17.2,22.4-25.2l-0.9,0.3c-11.7,9-20.9,18.7-26.7,28.5c-0.7,1.3-1.8,3.3-3.2,5.9
				C23.8,797.6,20.2,804.6,15.7,812.1z M13.3,809.4c0.6,0.7,1.2,1.4,1.8,2c4.4-7.4,8-14.2,10.6-19.1c1.4-2.6,2.5-4.7,3.2-5.9
				c5.4-9.3,13.9-18.4,24.6-27l-0.6,0.2c-12.9,9.5-23,19.9-29.2,30.4c-0.7,1.3-1.8,3.3-3.2,5.9C18.7,799.5,16.2,804.2,13.3,809.4z
				 M10.9,806.3c0.6,0.8,1.2,1.6,1.8,2.4c2.8-5.1,5.3-9.6,7.1-13.1c1.4-2.6,2.5-4.7,3.2-5.9c5.8-9.9,15.1-19.7,26.8-28.7l-0.2,0.1
				c-14.1,10-25.1,21.1-31.7,32.3c-0.7,1.3-1.8,3.3-3.2,5.9C13.6,801.2,12.3,803.6,10.9,806.3z M8.6,802.9c0.6,0.9,1.2,1.8,1.8,2.6
				c1.4-2.5,2.6-4.8,3.6-6.8c1.4-2.6,2.5-4.7,3.2-5.9c5.9-10.1,15.5-20.1,27.5-29.3c-14.5,10.2-26,21.5-32.7,32.9
				c-0.7,1.3-1.8,3.3-3.2,5.9L8.6,802.9z M6.4,799.2c0.5,1,1.1,1.9,1.6,2.8v-0.1c1.4-2.6,2.5-4.7,3.2-5.9
				c5.9-10.1,15.5-20.1,27.5-29.3C24.5,776.8,13.1,787.9,6.4,799.2z M4.8,796.2c0.4,0.7,0.8,1.5,1.2,2.2c6-9.8,15.3-19.5,27.1-28.5
				C21.3,778.1,11.6,787,4.8,796.2z M3.5,793.7c0.3,0.5,0.5,1.1,0.8,1.6c5.8-7.7,13.6-15.2,22.8-22.2
				C17.9,779.6,9.9,786.6,3.5,793.7z M2.6,791.7c0.2,0.4,0.4,0.8,0.5,1.1c5.1-5.7,11.2-11.3,18.1-16.6C14.3,781.2,8,786.4,2.6,791.7
				z M1.9,790.1c0.1,0.3,0.2,0.5,0.3,0.8c4-3.9,8.4-7.7,13.2-11.4C10.5,782.9,6,786.5,1.9,790.1z M1.3,788.9l0.2,0.4
				c2.5-2.2,5.2-4.4,8.1-6.6C6.7,784.7,3.9,786.8,1.3,788.9z M5.4,799.2c-0.4-0.7-0.8-1.5-1.2-2.3c-1.3,1.8-2.5,3.7-3.6,5.5
				c0.5,1,1.1,1.9,1.6,2.8v-0.1C3.6,802.5,4.7,800.5,5.4,799.2z M7.6,802.9c-0.6-0.9-1.1-1.8-1.7-2.8c-0.7,1.3-1.7,3.1-2.9,5.4
				L2.7,806c0.6,0.9,1.2,1.8,1.8,2.6C5.6,806.6,6.6,804.6,7.6,802.9z M9.9,806.3c-0.6-0.8-1.2-1.7-1.8-2.6c-0.9,1.7-1.9,3.7-3.1,5.8
				c0.6,0.8,1.2,1.6,1.8,2.4C7.9,809.9,8.9,808.1,9.9,806.3z M12.2,809.5c-0.6-0.7-1.2-1.5-1.8-2.3c-0.9,1.7-2,3.6-3,5.5
				c0.6,0.7,1.2,1.4,1.8,2C10.3,812.9,11.3,811.1,12.2,809.5z M14.6,812.2c-0.6-0.6-1.2-1.3-1.8-2c-0.9,1.7-1.9,3.4-3,5.1
				c0.6,0.6,1.2,1.2,1.8,1.7C12.7,815.4,13.7,813.8,14.6,812.2z M17.1,814.5c-0.6-0.5-1.2-1.1-1.8-1.7c-0.9,1.6-1.9,3.2-2.9,4.7
				c0.6,0.5,1.2,1,1.8,1.4C15.2,817.5,16.1,816,17.1,814.5z M19.6,816.5c-0.6-0.4-1.2-0.9-1.8-1.4c-0.9,1.5-1.9,2.9-2.8,4.4
				c0.6,0.4,1.2,0.8,1.8,1.1C17.7,819.2,18.6,817.9,19.6,816.5z M22.1,818.1c-0.6-0.3-1.2-0.7-1.8-1.1c-0.9,1.3-1.8,2.7-2.8,4
				c0.6,0.3,1.2,0.6,1.8,0.8C20.2,820.6,21.2,819.4,22.1,818.1z M24.6,819.3c-0.6-0.2-1.2-0.5-1.8-0.8c-0.9,1.2-1.8,2.4-2.7,3.6
				c0.6,0.2,1.2,0.4,1.8,0.5C22.9,821.6,23.7,820.5,24.6,819.3z M27.2,820.2c-0.6-0.2-1.1-0.3-1.7-0.5c-0.8,1.1-1.7,2.2-2.6,3.2
				c0.6,0.1,1.2,0.2,1.7,0.3C25.5,822.2,26.3,821.2,27.2,820.2z M29.8,820.7c-0.5-0.1-1.1-0.2-1.6-0.3c-0.8,0.9-1.6,1.9-2.4,2.8
				c0.5,0,1.1,0,1.6,0C28.2,822.4,29,821.6,29.8,820.7z M32.3,820.9c-0.5,0-1,0-1.5-0.1c-0.7,0.8-1.4,1.5-2.2,2.3
				c0.5-0.1,1-0.1,1.5-0.2C30.8,822.3,31.6,821.6,32.3,820.9z M34.8,820.8c-0.4,0-0.8,0.1-1.2,0.1c-0.6,0.6-1.2,1.1-1.8,1.7
				c0.4-0.1,0.8-0.2,1.2-0.3C33.5,821.8,34.2,821.3,34.8,820.8z M36.9,820.4c-0.2,0-0.4,0.1-0.6,0.1c-0.3,0.3-0.7,0.6-1,0.9
				c0.2-0.1,0.3-0.1,0.5-0.2C36.2,821,36.6,820.7,36.9,820.4z M99,744.2c-0.3,0.4-0.7,0.9-1,1.3c29.9-5.7,61-5.4,88.1,3.9
				c28.4,9.8,57.7,24.5,86.2,39c56.7,28.6,110.4,55.7,147.8,39c-37.3,11.6-88.5-14.2-142.4-41.4c-28.5-14.4-57.8-29.2-86.1-38.9
				C163.2,737.3,130.4,737.5,99,744.2z M100.9,741.8c-0.3,0.4-0.7,0.8-1,1.3c31.2-6.5,63.8-6.6,92.1,3.2c28.4,9.8,57.7,24.5,86.2,39
				c56.7,28.6,110.4,55.7,147.8,39c-37.3,11.6-88.5-14.2-142.4-41.4c-28.5-14.4-57.8-29.2-86.1-38.9
				C167.8,733.6,133.4,734.4,100.9,741.8z M102.8,739.6c-0.3,0.4-0.7,0.8-1,1.2c32.3-7.3,66.5-7.9,96,2.3
				c28.4,9.8,57.7,24.5,86.2,39c55.6,28,108.3,54.7,145.6,39.9c0.2-0.2,0.4-0.3,0.6-0.5c-37.1,10.4-87.7-15.1-140.8-41.9
				c-28.5-14.4-57.8-29.2-86.1-38.9C172.5,730,136.4,731.2,102.8,739.6z M104.8,737.4c-0.3,0.4-0.7,0.7-1,1.1
				c33.5-8.1,69.2-9.2,99.9,1.4c28.4,9.8,57.7,24.5,86.2,39c54,27.3,105.4,53.2,142.4,41.1c0.4-0.3,0.7-0.6,1.1-0.9
				c-36.9,8.5-86.3-16.4-138.1-42.6c-28.5-14.4-57.8-29.2-86.1-38.9C177.2,726.4,139.5,728.1,104.8,737.4z M106.8,735.2
				c-0.3,0.3-0.6,0.6-0.9,1c34.5-8.9,71.8-10.5,103.6,0.5c28.4,9.8,57.7,24.5,86.2,39c52.4,26.5,102.4,51.7,139.2,42
				c0.4-0.4,0.9-0.8,1.3-1.3c-36.5,6.5-84.6-17.8-135-43.2c-28.5-14.4-57.8-29.2-86.1-38.9C181.8,722.8,142.6,725.1,106.8,735.2z
				 M109,733.1c-0.3,0.3-0.6,0.6-0.9,0.9c35.5-9.8,74.3-11.8,107.3-0.5c28.4,9.8,57.7,24.5,86.2,39c50.9,25.7,99.4,50.1,135.8,42.8
				c0.5-0.5,1-1,1.5-1.5c-36.1,4.6-82.9-19-131.8-43.7c-28.5-14.4-57.8-29.2-86.1-38.9C186.5,719.2,145.8,722,109,733.1z M111.2,731
				c-0.3,0.3-0.5,0.5-0.8,0.8c36.5-10.7,76.8-13.2,110.8-1.5c28.4,9.8,57.7,24.5,86.2,39c49.3,24.9,96.3,48.6,132.3,43.4
				c0.5-0.6,1-1.2,1.5-1.8c-35.6,2.8-81-20.1-128.4-44c-28.5-14.4-57.8-29.2-86.1-38.9c-35.3-12.2-77.3-8.9-114.8,2.9L111.2,731z
				 M113.5,728.9l-0.7,0.6c37.4-11.5,79.2-14.7,114.3-2.6c28.4,9.8,57.7,24.5,86.2,39C361,790,406.6,813,442.1,809.7
				c0.5-0.7,1-1.3,1.5-2c-35.1,1.1-79-21.1-124.9-44.2c-28.5-14.4-57.8-29.2-86.1-38.9c-35.3-12.2-77.3-8.9-114.8,2.9
				C116.4,728,114.9,728.5,113.5,728.9z M115.8,726.9l-0.6,0.5c0.8-0.3,1.6-0.5,2.4-0.7c37.7-11.8,79.9-15.1,115.4-2.9
				c28.4,9.8,57.7,24.5,86.2,39c46,23.2,90.2,45.5,125.2,44.1c0.5-0.7,1-1.5,1.5-2.2c-34.4-0.5-76.9-21.9-121.2-44.3
				c-28.5-14.4-57.8-29.2-86.1-38.9c-35.3-12.2-77.3-8.9-114.8,2.9C121,725.2,118.4,726,115.8,726.9z M118.2,725l-0.5,0.4
				c1.9-0.6,3.8-1.3,5.7-1.9c37.7-11.8,79.9-15.1,115.4-2.9c28.4,9.8,57.7,24.5,86.2,39c44.4,22.4,87,43.9,121.4,44.1
				c0.5-0.8,1-1.6,1.5-2.4c-33.7-1.9-74.8-22.6-117.4-44.1c-28.5-14.4-57.8-29.2-86.1-38.9c-35.3-12.2-77.3-8.9-114.8,2.9
				C125.7,722.3,121.9,723.6,118.2,725z M120.6,723.1l-0.3,0.2c2.9-1,5.9-2,8.9-3c37.7-11.8,79.9-15.1,115.4-2.9
				c28.4,9.8,57.7,24.5,86.2,39c42.8,21.6,83.9,42.3,117.6,44c0.5-0.9,1-1.7,1.6-2.6c-33-3.1-72.6-23.1-113.7-43.8
				c-28.5-14.4-57.8-29.2-86.1-38.9c-35.3-12.2-77.3-8.9-114.8,2.9C130.4,719.5,125.4,721.2,120.6,723.1z M123.1,721.2L123.1,721.2
				c3.9-1.4,7.9-2.8,12-4.1c37.7-11.8,79.9-15.1,115.4-2.9c28.4,9.8,57.7,24.5,86.2,39C377.9,774,417.6,794,450.5,797
				c0.6-0.9,1.2-1.8,1.9-2.7c-32.3-4.1-70.6-23.4-110.3-43.5c-28.5-14.4-57.8-29.2-86.1-38.9c-35.3-12.2-77.3-8.9-114.8,2.9
				C135,716.7,129,718.8,123.1,721.2z M485.3,766c-29.1-7-62.2-23.6-96.3-40.9c-28.5-14.4-57.8-29.2-86.1-38.9
				c-35.3-12.2-77.3-8.9-114.8,2.9c-6.3,2-12.5,4.2-18.4,6.6c4-1.5,8.2-2.9,12.3-4.2c37.7-11.8,79.9-15.1,115.4-2.9
				c28.4,9.8,57.7,24.5,86.2,39c34.5,17.4,67.9,34.3,97.2,41C482.2,767.7,483.7,766.8,485.3,766z M487.3,766.5L487.3,766.5
				c-1.3,0.9-2.6,1.8-3.8,2.7l0.4,0.1C485,768.3,486.2,767.4,487.3,766.5z M488.9,766.8c-0.2,0-0.3-0.1-0.5-0.1
				c-1.2,0.9-2.3,1.8-3.4,2.8c0.3,0.1,0.6,0.1,0.9,0.2C486.9,768.7,487.9,767.8,488.9,766.8z M491,767.2l-1-0.2
				c-1,0.9-2.1,1.9-3.1,2.8c0.4,0.1,0.9,0.2,1.3,0.2C489.1,769.1,490,768.2,491,767.2z M493.4,767.7c-0.5-0.1-0.9-0.2-1.4-0.2
				c-0.9,0.9-1.9,1.9-2.7,2.8c0.6,0.1,1.1,0.2,1.7,0.3C491.7,769.6,492.5,768.6,493.4,767.7z M496.1,768.1c-0.6-0.1-1.2-0.2-1.8-0.3
				c-0.8,0.9-1.6,1.9-2.4,2.8c0.7,0.1,1.4,0.2,2.1,0.3C494.7,770,495.4,769.1,496.1,768.1z M499.2,768.6c-0.7-0.1-1.4-0.2-2.1-0.3
				c-0.7,0.9-1.4,1.8-2.1,2.8c0.8,0.1,1.6,0.2,2.4,0.2C498,770.4,498.6,769.5,499.2,768.6z M502.7,769c-0.8-0.1-1.6-0.2-2.5-0.3
				c-0.6,0.9-1.2,1.8-1.8,2.7c0.9,0.1,1.8,0.1,2.7,0.2C501.6,770.7,502.1,769.8,502.7,769z M506.4,769.3c-0.9-0.1-1.8-0.1-2.8-0.2
				c-0.5,0.8-1.1,1.7-1.6,2.6c1,0,1.9,0.1,2.8,0.1C505.4,770.9,505.9,770.1,506.4,769.3z M510.2,769.4c-0.9,0-1.9,0-2.8-0.1
				c-0.5,0.8-1,1.6-1.4,2.4c0.9,0,1.8,0,2.7-0.1C509.2,770.9,509.7,770.1,510.2,769.4z M513.9,769.4c-0.9,0-1.7,0-2.6,0
				c-0.5,0.7-1,1.5-1.4,2.2c0.9,0,1.7-0.1,2.5-0.2C512.8,770.7,513.4,770.1,513.9,769.4z M517.4,769.2c-0.8,0.1-1.6,0.1-2.4,0.1
				c-0.5,0.7-1,1.3-1.4,1.9c0.8-0.1,1.6-0.2,2.3-0.3C516.4,770.4,516.9,769.8,517.4,769.2z M520.8,768.8c-0.7,0.1-1.5,0.2-2.2,0.2
				c-0.5,0.6-0.9,1.1-1.4,1.7c0.7-0.1,1.4-0.2,2.1-0.4C519.8,769.9,520.3,769.3,520.8,768.8z M524,768.3c-0.6,0.1-1.3,0.2-1.9,0.3
				c-0.4,0.5-0.8,0.9-1.3,1.4c0.6-0.1,1.2-0.3,1.8-0.4C523.2,769.2,523.6,768.8,524,768.3z M527.1,767.7c-0.5,0.1-1,0.2-1.5,0.3
				c-0.3,0.4-0.7,0.7-1,1c0.5-0.1,0.9-0.3,1.4-0.4C526.3,768.3,526.7,768,527.1,767.7z M529.8,767c-0.3,0.1-0.6,0.2-0.8,0.2
				c-0.2,0.2-0.4,0.4-0.6,0.6c0.3-0.1,0.6-0.2,0.8-0.3C529.4,767.3,529.6,767.2,529.8,767z M595.3,708.3c-1.5,0.5-2.9,1.1-4.4,1.7
				l-0.1,0.1c1.5-0.5,3-1,4.5-1.5v0.9c-2.3,0.8-4.6,1.6-6.9,2.5c-0.2,0.1-0.3,0.2-0.5,0.4c2.5-0.8,4.9-1.6,7.4-2.3v0.9
				c-3.1,0.9-6.3,1.9-9.4,3c-0.2,0.2-0.5,0.4-0.7,0.6c3.4-1.1,6.7-2,10.1-2.8v0.9c-3.9,1-7.8,2.1-11.8,3.4c-0.3,0.3-0.6,0.5-0.8,0.8
				c4.2-1.2,8.5-2.3,12.6-3.1v0.9c-4.6,1-9.3,2.2-14.1,3.6c-0.3,0.3-0.6,0.6-1,0.9c5.1-1.4,10.1-2.4,15-3.3v0.9
				c-5.3,1-10.7,2.2-16.3,3.7c-0.3,0.3-0.7,0.7-1,1.1c5.9-1.4,11.7-2.5,17.3-3.4v0.9c-5.9,0.9-12.1,2.1-18.4,3.7
				c-0.4,0.4-0.7,0.8-1.1,1.2c6.8-1.5,13.3-2.6,19.4-3.3v0.9c-6.4,0.8-13.3,1.9-20.4,3.5c-0.4,0.4-0.7,0.9-1.1,1.3
				c7.6-1.5,14.9-2.5,21.5-3.1v0.9c-6.9,0.7-14.4,1.7-22.3,3.3c-0.4,0.5-0.7,0.9-1.1,1.4c8.5-1.5,16.5-2.4,23.4-2.9v0.9
				c-7.2,0.5-15.4,1.4-24.2,3c-0.4,0.5-0.7,1-1.1,1.5c9.4-1.5,18.1-2.2,25.3-2.5v0.9c-7.3,0.3-16.3,1.1-26,2.6
				c-0.4,0.5-0.7,1.1-1.1,1.6c10.5-1.5,19.9-2,27-2.1v0.9c-7.2,0.1-16.9,0.7-27.6,2.2c-0.4,0.6-0.7,1.1-1,1.7
				c11.9-1.4,22.1-1.6,28.7-1.6v0.9c-6.6-0.1-17.1,0.2-29.3,1.6c-0.4,0.6-0.7,1.2-1.1,1.8c14.6-1.5,26-1.2,30.3-1v0.9
				c-4.4-0.2-16.1-0.5-30.9,1c-0.4,0.7-0.8,1.3-1.3,1.9c16.6-1.4,28.2-0.5,28.3-0.5h0.1h0.1c0,0,1.4,0.6,3.8,1.6v0.9
				c-2.3-1-3.8-1.6-4.1-1.7c-1.1-0.1-12.6-0.8-28.7,0.5c-0.5,0.7-0.9,1.4-1.4,2c14.5-0.9,24.4-0.2,24.5-0.2h0.1h0.1
				c0.1,0,3.6,1.6,9.6,4v0.9c-5.8-2.4-9.4-4-9.9-4.2c-1-0.1-10.9-0.7-25,0.2c-0.5,0.7-1.1,1.4-1.7,2.1c12.6-0.6,20.9,0,21,0h0.1h0.1
				c0.1,0,6,2.6,15.5,6.4v0.9c-9.3-3.6-15.2-6.2-15.8-6.5c-0.9-0.1-9.3-0.6-21.6,0c-5.8,6.9-12.4,11.8-19.5,15.2
				c-1.9,1.2-3.9,2.3-5.8,3.2c-1.9,1.2-3.9,2.3-5.8,3.2c-1.9,1.2-3.9,2.3-5.9,3.2c-1.9,1.2-3.9,2.3-5.8,3.2
				c-1.9,1.2-3.9,2.3-5.9,3.2c-1.9,1.2-3.9,2.3-5.9,3.2c-1.9,1.2-3.9,2.3-5.9,3.2c-1.9,1.2-3.9,2.3-5.9,3.2
				c-1.9,1.2-3.9,2.3-5.9,3.2c-1.9,1.2-3.9,2.3-5.9,3.2c-1.9,1.2-3.9,2.3-5.9,3.2c-1.9,1.2-3.9,2.3-5.9,3.2
				c-1.9,1.2-3.9,2.3-5.9,3.2c-1.9,1.2-3.9,2.3-5.9,3.2c-1.9,1.2-3.9,2.3-5.9,3.2c-1.9,1.2-3.9,2.3-5.9,3.2
				c-1.9,1.2-3.9,2.3-5.9,3.2c-1.9,1.2-3.9,2.3-5.9,3.2c-1.9,1.2-3.9,2.3-5.9,3.2c-37.8,23.8-94.9-5-155.2-35.5
				c-28.5-14.4-57.8-29.2-86.1-38.9c-27.2-9.4-58.5-9.5-88.5-3.7c-1.2,1.7-2.3,3.4-3.3,5.1c-0.7,1.3-1.8,3.3-3.2,5.9
				c-8.3,15.8-27.5,52.2-48.8,61.3c-1.9,1.3-3.9,2.4-5.9,3.2c-1.9,1.3-3.9,2.4-5.9,3.2c-1.9,1.3-3.9,2.4-5.9,3.2
				c-1.9,1.3-3.9,2.4-5.9,3.2c-1.9,1.3-3.9,2.4-5.9,3.2c-1.9,1.3-3.9,2.4-5.9,3.2c-1.9,1.3-3.9,2.4-5.9,3.2
				c-0.4,0.2-0.7,0.5-1.1,0.7v-2.8c0.3,0,0.6-0.1,0.8-0.1c0.7-0.7,1.5-1.3,2.2-2c-0.5,0-1,0-1.5-0.1c-0.5,0.6-1,1.1-1.5,1.6v-1.2
				l0.5-0.5c-0.2,0-0.3,0-0.5-0.1v-0.9c0.4,0.1,0.8,0.1,1.2,0.2c0.9-0.9,1.7-1.9,2.6-2.9c-0.6-0.2-1.1-0.3-1.7-0.5
				c-0.7,0.9-1.4,1.7-2,2.6v-1.4c0.4-0.5,0.8-1,1.2-1.5c-0.4-0.2-0.8-0.3-1.2-0.5v-1c0.6,0.3,1.2,0.6,1.8,0.8
				c0.9-1.2,1.9-2.5,2.8-3.7c-0.6-0.3-1.2-0.7-1.8-1.1c-0.9,1.3-1.8,2.6-2.7,3.9V829c0.7-1,1.3-1.9,2-2.9c-0.6-0.4-1.2-0.9-1.8-1.4
				L0,825v-1.6c1-1.6,2-3.2,2.9-4.8c-0.6-0.6-1.2-1.3-1.8-2c-0.4,0.6-0.7,1.3-1.1,1.9v-1.8l0.5-0.9c-0.2-0.2-0.3-0.4-0.5-0.6v-1.4
				c0.3,0.4,0.6,0.8,1,1.2c1.1-1.9,2.1-3.8,3-5.5c-0.6-0.8-1.2-1.7-1.8-2.6c-0.7,1.3-1.4,2.7-2.3,4.2v-1.9c0.6-1.1,1.2-2.2,1.7-3.2
				c-0.6-0.9-1.1-1.8-1.7-2.8l0.1,0.2v-1.9l0.1,0.1c1.1-1.8,2.3-3.7,3.7-5.5c-0.3-0.5-0.6-1.1-0.8-1.7c-1,1.2-2,2.4-2.9,3.5v-1.4
				c0.8-1,1.6-2,2.5-3c-0.2-0.4-0.4-0.8-0.6-1.2c-0.7,0.7-1.3,1.3-1.9,2V793c0.5-0.5,1-1.1,1.6-1.6c-0.1-0.3-0.2-0.5-0.4-0.8
				c-0.4,0.4-0.8,0.7-1.2,1.1v-1.2c0.3-0.2,0.5-0.5,0.8-0.7l-0.2-0.5L0,790v-1.1l0.3-0.2L0,788v-2.2c0.3,0.8,0.6,1.6,1,2.3
				c8.6-6.8,18.5-13.3,29.5-19c1.9-1.1,3.9-2.2,5.9-3.2c1.9-1.1,3.9-2.2,5.9-3.2c1.9-1.1,3.9-2.2,5.9-3.2c1.9-1.1,3.9-2.2,5.8-3.2
				c1.9-1.1,3.9-2.2,5.9-3.2c1.9-1.1,3.9-2.2,5.9-3.2c1.9-1.1,3.9-2.2,5.8-3.2c1.9-1.1,3.9-2.2,5.9-3.2c1.9-1.1,3.9-2.2,5.9-3.2
				c1.9-1.1,3.9-2.2,5.8-3.2c1.9-1.1,3.9-2.2,5.9-3.2c1.9-1.1,3.9-2.2,5.9-3.2c1.9-1.1,3.9-2.2,5.8-3.2c1.9-1.1,3.9-2.2,5.9-3.2
				c1.9-1.1,3.9-2.2,5.9-3.2c1.9-1.1,3.9-2.2,5.9-3.2c1.9-1.1,3.9-2.2,5.9-3.2c1.9-1.1,3.9-2.2,5.8-3.2c1.9-1.1,3.9-2.2,5.9-3.2
				c13.9-7.9,29.5-14.7,46.1-19.9c37.7-11.8,79.9-15.1,115.4-2.9c28.4,9.8,57.7,24.5,86.2,39c34.4,17.4,67.8,34.2,97.1,41
				c0.3-0.2,0.6-0.3,0.9-0.5c1.9-1.1,3.9-2.2,5.9-3.2c1.9-1.1,3.9-2.2,5.8-3.2c1.9-1.1,3.9-2.2,5.9-3.2c1.9-1.1,3.9-2.2,5.9-3.2
				c1.9-1.1,3.9-2.2,5.8-3.2c1.9-1.1,3.9-2.2,5.9-3.2c1.9-1.1,3.9-2.2,5.9-3.2c1.9-1.1,3.9-2.2,5.9-3.2c1.9-1.1,3.9-2.2,5.8-3.2
				c1.9-1.1,3.9-2.2,5.9-3.2c1.9-1.1,3.9-2.2,5.9-3.2c1.9-1.1,3.9-2.2,5.8-3.2c1.9-1.1,3.9-2.2,5.9-3.2c1.9-1.1,3.9-2.2,5.8-3.2
				c1.9-1.1,3.9-2.2,5.9-3.2c1.9-1.1,3.9-2.2,5.8-3.2c1.9-1.1,3.9-2.2,5.9-3.2c1.9-1.1,3.9-2.2,5.9-3.2c0.8-0.5,1.7-1,2.6-1.4v2.3
				L595.3,708.3L595.3,708.3z"/>
		</g>
	</g>
</g>
</svg>
