<?xml version="1.0" encoding="UTF-8"?>
<svg id="Layer_1" xmlns="http://www.w3.org/2000/svg" xmlns:xlink="http://www.w3.org/1999/xlink" version="1.1" viewBox="0 0 595.3 841.9">
  <!-- Generator: Adobe Illustrator 29.2.1, SVG Export Plug-In . SVG Version: 2.1.0 Build 116)  -->
  <defs>
    <style>
      .st0 {
        font-family: MyriadPro-Bold, 'Myriad Pro';
        font-size: 10px;
        font-weight: 700;
      }

      .st0, .st1 {
        isolation: isolate;
      }

      .st2 {
        fill: #00aeef;
        fill-rule: evenodd;
      }

      .st3 {
        opacity: .3;
      }
    </style>
  </defs>
  <g class="st3">
    <path id="SVGID" class="st2" d="M436.1,818.3c-.3,0-.6.2-.9.2-.2.2-.4.4-.6.6.3,0,.6-.2.8-.3.3-.2.5-.4.7-.5M439.3,815.7c-.5,0-1,.2-1.5.3-.3.4-.7.7-1.1,1,.5,0,1-.3,1.4-.4.4-.2.8-.5,1.2-.9h0ZM442,815c-.3,0-.6.2-.8.2-.2.2-.4.4-.6.6.3,0,.6-.2.8-.3.2,0,.4-.3.6-.5ZM442.1,813.2c-.6,0-1.3.2-1.9.3-.4.5-.8.9-1.3,1.4.6,0,1.2-.3,1.8-.5.5-.4.9-.8,1.4-1.2ZM445.1,812.5c-.5,0-1,.2-1.5.3-.3.4-.7.7-1,1,.5,0,1-.3,1.4-.4.4-.2.8-.5,1.1-.9h0ZM447.8,811.8c-.3,0-.6.2-.8.2-.2.2-.4.4-.6.6.3,0,.6-.2.8-.3.2,0,.4-.3.6-.5ZM503.6,757.9c-.2,0-.3,0-.5.2h-.1.5c0,0,.1,0,.1,0h0ZM444.7,810.4c-.7,0-1.5.2-2.2.2-.5.6-.9,1.1-1.4,1.7.7,0,1.4-.2,2.1-.4.5-.4,1-.9,1.5-1.5ZM447.9,810c-.6,0-1.3.2-1.9.3-.4.5-.8.9-1.3,1.4.6,0,1.2-.3,1.8-.4.6-.5,1-.9,1.4-1.3ZM451,809.3c-.5,0-1,.2-1.5.3-.3.4-.7.7-1,1,.5,0,.9-.3,1.4-.4.3-.2.7-.5,1.1-.9h0ZM453.7,808.6c-.3,0-.6.2-.8.2-.2.2-.4.4-.6.6.3,0,.6-.2.8-.3s.4-.3.6-.5ZM507.4,756.4c-.3,0-.7.3-1,.4-.1,0-.3.2-.4.3.3,0,.7-.2,1-.3l.4-.4ZM509.4,754.7l-.5.2h-.1.5c0,0,.1,0,.1,0h0ZM447.1,807.6h-2.4c-.5.7-1,1.3-1.4,1.9.8,0,1.6-.2,2.4-.3.4-.5,1-1.1,1.4-1.7h0ZM450.6,807.2c-.7,0-1.5.2-2.2.2-.5.6-.9,1.1-1.4,1.7.7,0,1.4-.2,2.1-.4.5-.4,1-.9,1.5-1.5ZM453.8,806.8c-.6,0-1.3.2-1.9.3-.4.5-.8.9-1.3,1.4.6,0,1.2-.3,1.8-.4.5-.5,1-.9,1.4-1.3ZM456.8,806.1c-.5,0-1,.2-1.5.3-.3.4-.7.7-1,1,.5,0,1-.3,1.4-.4.4-.2.8-.5,1.1-.9h0ZM459.6,805.4c-.3,0-.6.2-.8.2-.2.2-.4.4-.6.6.3,0,.6-.2.8-.3.1,0,.3-.3.6-.5ZM511.2,755.1c-.5.2-.9.3-1.4.5-.2.2-.4.4-.7.6.5,0,.9-.3,1.4-.4.2-.3.5-.5.7-.7h0ZM513.3,753.2c-.3,0-.7.3-1,.4-.2,0-.3.2-.5.4.3,0,.7-.2,1-.3.2-.2.3-.4.5-.5h0ZM515.3,751.5l-.5.2h0l.6-.2h0ZM449.5,804.6h-2.6c-.5.7-1,1.5-1.4,2.2.9,0,1.7,0,2.5-.2.5-.6,1-1.3,1.5-2ZM453,804.4h-2.4c-.5.7-1,1.3-1.4,1.9.8,0,1.6-.2,2.3-.3.5-.5,1-1.1,1.5-1.7h0ZM456.4,804c-.7,0-1.5.2-2.2.2-.5.6-.9,1.1-1.4,1.7.7,0,1.4-.2,2.1-.4.5-.4,1-.9,1.5-1.5ZM459.6,803.6c-.6,0-1.3.2-1.9.3-.4.5-.8.9-1.3,1.4.6,0,1.2-.3,1.8-.4.6-.5,1-.9,1.4-1.3ZM462.7,802.9c-.5,0-1,.2-1.5.3-.3.4-.7.7-1,1,.5,0,1-.3,1.4-.4.4-.2.7-.6,1.1-.9h0ZM465.4,802.2c-.3,0-.6.2-.8.2-.2.2-.4.4-.6.6.3,0,.6-.2.8-.3.2-.2.4-.3.6-.5ZM515,753.8c-.6.2-1.2.4-1.7.6-.3.2-.6.5-.8.8.6-.2,1.2-.3,1.7-.5.2-.3.5-.6.8-.9h0ZM517.1,751.9c-.5.2-.9.3-1.4.5-.2.2-.5.4-.7.6.5,0,.9-.3,1.4-.4.2-.3.4-.5.7-.7h0ZM519.1,750c-.3,0-.7.3-1,.4-.2,0-.3.2-.5.4.3,0,.7-.2,1-.3l.5-.5h0ZM521.2,748.3l-.5.2h0l.6-.2h0ZM59.2,756.2h0l-.5.2h0l.5-.2ZM451.7,801.4h-2.8c-.5.8-1,1.6-1.4,2.4h2.7c.5-.7,1-1.4,1.5-2.2v-.2ZM455.3,801.4h-2.6c-.5.7-1,1.5-1.4,2.2.9,0,1.7,0,2.5-.2.5-.7,1-1.3,1.5-2ZM458.9,801.2h-2.4c-.5.7-1,1.3-1.4,1.9.8,0,1.6-.2,2.3-.3.5-.5,1-1.1,1.5-1.7h0ZM462.3,800.8c-.7,0-1.5.2-2.2.2-.5.6-.9,1.1-1.4,1.7.7,0,1.4-.2,2.1-.4.5-.4,1-.9,1.5-1.5ZM465.5,800.4c-.6,0-1.3.2-1.9.3-.4.5-.8.9-1.3,1.4.6,0,1.2-.3,1.8-.4.5-.5,1-.9,1.4-1.3ZM468.5,799.7c-.5,0-1,.2-1.5.3-.3.4-.7.7-1,1,.5,0,.9-.3,1.4-.4.4-.2.8-.6,1.1-.9h0ZM471.3,799c-.3,0-.6.2-.8.2-.2.2-.4.4-.6.6.3,0,.6-.2.8-.3.1-.2.3-.3.6-.5ZM518.8,752.7c-.7.2-1.3.4-2,.6l-.9.9c.7-.2,1.3-.4,2-.5.3-.4.6-.7.9-1ZM520.8,750.6c-.6.2-1.2.4-1.7.6-.3.3-.6.5-.9.8.6-.2,1.2-.3,1.7-.5.4-.3.7-.6.9-.9h0ZM522.9,748.6c-.5.2-.9.3-1.4.5-.2.2-.5.4-.7.6.5,0,.9-.3,1.4-.4.2-.2.5-.4.7-.7h0ZM525,746.8c-.3,0-.7.3-1,.4-.2,0-.3.2-.5.4.3,0,.7-.2,1-.3.2-.2.3-.4.5-.5h0ZM527,745.1l-.5.2h0l.6-.2h0ZM65.1,753h0l-.5.2h0l.5-.2ZM62.7,755l.3-.2-.9.3-.3.2.9-.3ZM66.7,753.4l-1.2.4M65.5,753.8l-.5.4,1.2-.4M453.7,798.1c-.9,0-1.8,0-2.8-.2-.5.8-1.1,1.7-1.6,2.6h2.8c.7-.9,1.2-1.7,1.6-2.5h0ZM457.5,798.2h-2.8c-.5.8-1,1.6-1.4,2.4h2.7c.5-.7,1-1.4,1.5-2.2v-.2ZM461.2,798.2h-2.6c-.5.7-1,1.5-1.4,2.2.9,0,1.7,0,2.5-.2.5-.7,1-1.3,1.5-2ZM464.7,798h-2.4c-.5.7-1,1.3-1.4,1.9.8,0,1.6-.2,2.3-.3.5-.5,1-1.1,1.5-1.7h0ZM468.1,797.6c-.7,0-1.5.2-2.2.2-.5.6-.9,1.1-1.4,1.7.7,0,1.4-.2,2.1-.4.6-.4,1-.9,1.5-1.5ZM471.4,797.1c-.6,0-1.3.2-1.9.3-.4.5-.8.9-1.3,1.4.6,0,1.2-.3,1.8-.4.5-.4.9-.8,1.4-1.3ZM474.4,796.5c-.5,0-1,.2-1.5.3-.3.4-.7.7-1,1,.5,0,.9-.3,1.4-.4.4-.2.7-.6,1.1-.9h0ZM477.1,795.8c-.3,0-.6.2-.8.2-.2.2-.4.4-.6.6.3,0,.6-.2.8-.3.2-.2.4-.3.6-.5ZM522.7,751.6c-.7.2-1.5.4-2.2.6-.3.3-.7.7-1,1.1.7-.2,1.5-.4,2.2-.5.3-.5.7-.8,1-1.2h0ZM524.7,749.5c-.7.2-1.3.4-2,.6-.3.3-.6.6-1,.9.7-.2,1.3-.4,2-.5.3-.4.7-.7,1-1ZM526.7,747.4c-.6.2-1.2.4-1.7.6-.3.3-.6.5-.8.8.6-.2,1.2-.3,1.7-.5.2-.3.5-.6.8-.9h0ZM528.8,745.4c-.5.2-.9.3-1.4.5-.2.2-.5.4-.7.6.5,0,.9-.3,1.4-.4l.7-.7h0ZM530.8,743.6c-.3,0-.7.3-1,.4-.2,0-.3.2-.5.4.3,0,.7-.2,1-.3l.5-.5h0ZM532.9,741.9l-.5.2h0l.6-.2h0ZM70.9,749.8h0l-.5.2h0l.5-.2ZM68.5,751.8l.3-.2-.9.3-.3.2.9-.3ZM455.9,794.6c-.8,0-1.6-.2-2.5-.3-.6.9-1.2,1.8-1.8,2.7.9,0,1.8,0,2.7.2.5-.9,1-1.8,1.6-2.6h0ZM459.6,794.9c-.9,0-1.8,0-2.8-.2-.5.8-1.1,1.7-1.6,2.6h2.9c.5-.9,1-1.7,1.5-2.5h0ZM463.4,795h-2.8c-.5.8-1,1.6-1.4,2.4h2.7c.5-.7,1-1.4,1.5-2.2v-.2ZM467,795h-2.6c-.5.7-1,1.5-1.4,2.2.9,0,1.7,0,2.5-.2.5-.7,1-1.3,1.5-2ZM470.6,794.8h-2.4c-.5.7-1,1.3-1.4,1.9.8,0,1.6-.2,2.3-.3.5-.5,1-1.1,1.5-1.7h0ZM474,794.4c-.7,0-1.5.2-2.2.2-.5.6-.9,1.1-1.4,1.7.7,0,1.4-.2,2.1-.4.5-.4,1-.9,1.5-1.5ZM477.2,793.9c-.6,0-1.3.2-1.9.3-.4.5-.8.9-1.3,1.4.6,0,1.2-.3,1.8-.4.5-.4,1-.8,1.4-1.3ZM480.2,793.3c-.5,0-1,.2-1.5.3-.3.4-.7.7-1,1,.5,0,1-.3,1.4-.4.4-.3.8-.6,1.1-.9h0ZM483,792.6c-.3,0-.6.2-.8.2-.2.2-.4.4-.6.6.3,0,.6-.2.8-.3.1-.2.4-.3.6-.5ZM526.6,750.6c-.8.2-1.6.4-2.4.6-.4.4-.7.8-1.1,1.2.8-.2,1.6-.4,2.4-.5.4-.5.8-.9,1.1-1.3ZM528.6,748.4c-.7.2-1.5.4-2.2.6-.3.4-.7.7-1,1.1.7-.2,1.5-.4,2.2-.5.3-.5.6-.8,1-1.2h0ZM530.5,746.3c-.7.2-1.3.4-2,.6-.3.3-.6.6-1,.9.7-.2,1.3-.4,2-.5l1-1ZM532.6,744.2c-.6.2-1.2.4-1.7.6-.3.3-.6.5-.8.8.6-.2,1.2-.3,1.7-.5.2-.3.5-.6.8-.9h0ZM534.6,742.2c-.5.2-.9.3-1.4.5-.2.2-.5.4-.7.6.5,0,.9-.3,1.4-.4.2-.2.5-.4.7-.7h0ZM536.7,740.4c-.3,0-.7.3-1,.4-.2,0-.3.2-.5.4.3,0,.7-.2,1-.3.2-.2.3-.4.5-.5h0ZM538.7,738.7l-.5.2h0l.6-.2h0ZM76.8,746.6h0l-.5.2h0l.5-.2ZM74.4,748.6l.3-.2-.9.3-.3.2.9-.3ZM72.1,750.6l.5-.4-1.2.4-.5.4,1.2-.4ZM69.8,752.6l.6-.6c-.5.2-.9.3-1.4.5l-.6.5c.4,0,.9-.2,1.4-.4ZM458.3,791c-.7,0-1.4-.2-2.1-.3-.7.9-1.4,1.8-2.1,2.8.8,0,1.6.2,2.4.2.5-.9,1.1-1.8,1.8-2.7h0ZM461.7,791.4c-.8,0-1.6-.2-2.5-.3-.6.9-1.2,1.8-1.8,2.7.9,0,1.8,0,2.7.2.5-.9,1.1-1.8,1.6-2.6h0ZM465.5,791.7c-.9,0-1.8,0-2.8-.2-.5.8-1.1,1.7-1.6,2.6h2.9c.5-.9,1-1.7,1.5-2.5h0ZM469.2,791.8h-2.8c-.5.8-1,1.6-1.4,2.4h2.7c.5-.7,1-1.4,1.5-2.2v-.2ZM472.9,791.8h-2.6c-.5.7-1,1.5-1.4,2.2.9,0,1.7,0,2.5-.2.5-.7,1-1.3,1.5-2ZM476.4,791.6h-2.4c-.5.7-1,1.3-1.4,1.9.8,0,1.6-.2,2.3-.3.5-.5,1-1.1,1.5-1.7h0ZM479.8,791.2c-.7,0-1.5.2-2.2.2-.5.6-.9,1.1-1.4,1.7.7,0,1.4-.2,2.1-.4.6-.4,1-.9,1.5-1.5ZM483.1,790.7c-.6,0-1.3.2-1.9.3-.4.5-.8.9-1.3,1.4.6,0,1.2-.3,1.8-.4.5-.4.9-.8,1.4-1.3ZM486.1,790.1c-.5,0-1,.2-1.5.3-.3.4-.7.7-1,1,.5,0,.9-.3,1.4-.4.4-.3.7-.6,1.1-.9h0ZM488.8,789.4c-.3,0-.6.2-.8.2-.2.2-.4.4-.6.6.3,0,.6-.2.8-.3.2-.2.4-.3.6-.5ZM530.6,749.7c-.9.2-1.7.4-2.6.6-.4.4-.7.9-1.1,1.3.9-.2,1.8-.3,2.6-.5.4-.5.8-.9,1.1-1.4h0ZM532.5,747.4c-.8.2-1.6.4-2.4.6-.4.4-.7.8-1.1,1.2.8-.2,1.6-.4,2.4-.5.4-.5.7-.9,1.1-1.3ZM534.4,745.2c-.7.2-1.5.4-2.2.6-.3.3-.7.7-1,1.1.7-.2,1.5-.4,2.2-.5.3-.5.7-.8,1-1.2h0ZM536.4,743.1c-.7.2-1.3.4-2,.6-.3.3-.6.6-1,.9.7-.2,1.3-.4,2-.5l1-1ZM538.4,741c-.6.2-1.2.4-1.7.6-.3.3-.6.5-.8.8.6-.2,1.2-.3,1.7-.5.2-.4.5-.6.8-.9h0ZM540.5,739c-.5.2-.9.3-1.4.5-.2.2-.5.4-.7.6.5,0,.9-.3,1.4-.4l.7-.7h0ZM542.5,737.2c-.3,0-.7.3-1,.4-.2,0-.3.2-.5.4.3,0,.7-.2,1-.3l.5-.5h0ZM544.6,735.5l-.5.2h0l.6-.2h0ZM128.6,718.1c4-1.5,8.2-2.9,12.3-4.2,37.7-11.8,79.9-15.1,115.4-2.9,28.4,9.8,57.7,24.5,86.2,39,39.8,20.1,78.2,39.5,110.5,43.4.7-1,1.4-1.9,2.1-2.8-31.6-4.9-68.7-23.6-107.1-43-28.5-14.4-57.8-29.2-86.1-38.9-35.3-12.2-77.3-8.9-114.8,2.9-6.3,1.9-12.5,4.1-18.5,6.5h0ZM82.7,743.4h0l-.5.2h0l.5-.2ZM80.3,745.4l.3-.2-.9.3-.3.2.9-.3ZM77.9,747.4c.2,0,.3-.3.5-.4l-1.2.4-.5.4,1.2-.4ZM75.6,749.4l.6-.6c-.5.2-.9.3-1.4.5l-.6.5c.5,0,1-.2,1.4-.4ZM73.4,751.5c.2-.2.5-.5.7-.7-.5.2-1.1.4-1.6.5l-.7.6c.5,0,1.1-.2,1.6-.4h0ZM1.8,839.6h-.6c-.3.3-.7.6-1,.9.2,0,.3,0,.5-.2.4-.2.7-.5,1.1-.8h0ZM461,787.4c-.6,0-1.2-.2-1.8-.3-.8.9-1.6,1.9-2.4,2.8.7,0,1.4.2,2.1.3.7-1,1.4-1.9,2.1-2.8h0ZM464.1,787.8c-.7,0-1.4-.2-2.1-.3-.7.9-1.4,1.8-2.1,2.8.8,0,1.6.2,2.4.2.6-.9,1.2-1.8,1.8-2.7h0ZM467.6,788.2c-.8,0-1.6-.2-2.5-.3-.6.9-1.2,1.8-1.8,2.7.9,0,1.8,0,2.7.2.5-.9,1-1.8,1.6-2.6h0ZM471.3,788.5c-.9,0-1.8,0-2.8-.2-.5.8-1.1,1.7-1.6,2.6h2.9c.5-.9,1-1.7,1.5-2.5h0ZM475.1,788.6h-2.8c-.5.8-1,1.6-1.4,2.4h2.7c.5-.7,1-1.4,1.5-2.2v-.2ZM478.7,788.6h-2.6c-.5.7-1,1.5-1.4,2.2.9,0,1.7,0,2.5-.2.5-.7,1-1.3,1.5-2ZM482.3,788.4h-2.4c-.5.7-1,1.3-1.4,1.9.8,0,1.6-.2,2.3-.3.5-.5,1-1.1,1.5-1.7h0ZM485.7,788c-.7,0-1.5.2-2.2.2-.5.6-.9,1.1-1.4,1.7.7,0,1.4-.2,2.1-.4.5-.4,1-.9,1.5-1.5ZM488.9,787.5c-.6,0-1.3.2-1.9.3-.4.5-.8.9-1.3,1.4.6,0,1.2-.3,1.8-.4.5-.4,1-.8,1.4-1.3ZM491.9,786.9c-.5,0-1,.2-1.5.3-.3.4-.7.7-1,1,.5,0,.9-.3,1.4-.4.4-.3.8-.6,1.1-.9h0ZM494.7,786.2c-.3,0-.6.2-.8.2-.2.2-.4.4-.6.6.3,0,.6-.2.8-.3.2-.2.4-.3.6-.5ZM534.7,748.9c-.9.2-1.8.4-2.8.5-.4.5-.7.9-1.1,1.4.9-.2,1.9-.3,2.8-.5.4-.4.8-.9,1.1-1.4ZM536.5,746.5c-.9.2-1.7.4-2.6.6-.4.4-.7.9-1.1,1.3.9-.2,1.8-.3,2.6-.5.4-.5.7-.9,1.1-1.4h0ZM538.3,744.2c-.8.2-1.6.4-2.4.6-.4.4-.7.8-1.1,1.2.8-.2,1.6-.4,2.4-.5.4-.5.8-.9,1.1-1.3ZM540.3,742c-.7.2-1.5.4-2.2.6-.3.4-.7.7-1,1.1.7-.2,1.5-.4,2.2-.5.3-.5.6-.8,1-1.2h0ZM542.2,739.9c-.7.2-1.3.4-2,.6-.3.3-.6.6-1,.9.7-.2,1.3-.4,2-.5l1-1ZM544.3,737.8c-.6.2-1.2.4-1.7.6-.3.3-.6.5-.9.8.6-.2,1.2-.3,1.7-.5.3-.4.6-.6.9-.9h0ZM546.3,735.8c-.5.2-.9.3-1.4.5-.2.2-.5.4-.7.6.5,0,.9-.3,1.4-.4.3-.2.5-.4.7-.7h0ZM548.4,734c-.3,0-.7.3-1,.4-.2,0-.3.2-.5.4.3,0,.7-.2,1-.3.2-.2.3-.4.5-.5h0ZM550.4,732.3l-.5.2h0l.6-.2h0ZM134.5,714.9c4-1.5,8.2-2.9,12.3-4.2,37.7-11.8,79.9-15.1,115.4-2.9,28.4,9.8,57.7,24.5,86.2,39,38.6,19.5,75.8,38.2,107.4,43,.8-1,1.6-1.9,2.4-2.9-31-5.5-67.1-23.7-104.4-42.6-28.5-14.4-57.8-29.2-86.1-38.9-35.3-12.2-77.3-8.9-114.8,2.9-6.3,2-12.4,4.2-18.4,6.6h0ZM88.5,740.2h0l-.5.2h0l.5-.2ZM86.1,742.2l.3-.2-.9.3-.3.2.9-.3ZM83.8,744.2c.2,0,.3-.3.5-.4l-1.2.4-.5.4,1.2-.4ZM81.5,746.2l.6-.6c-.5.2-.9.3-1.4.5l-.6.5c.4,0,.9-.2,1.4-.4ZM79.3,748.3c.2-.2.5-.5.7-.7-.5.2-1.1.4-1.6.5l-.7.6c.5,0,1-.2,1.6-.4h0ZM77.1,750.4c.3-.3.5-.5.8-.8-.4,0-.7.2-1.1.3l-.8.2c-.3.3-.5.5-.8.8.7,0,1.3-.3,1.9-.5ZM5.5,836.8h-1.2c-.6.6-1.2,1.2-1.8,1.7.4,0,.8-.2,1.2-.3l1.8-1.5h0ZM7.7,836.4h-.6c-.3.3-.7.6-1,.9.2,0,.3,0,.5-.2.3-.2.7-.5,1.1-.8h0ZM464.1,783.7c-.5,0-.9-.2-1.4-.2-.9.9-1.9,1.9-2.7,2.8.6,0,1.1.2,1.7.3.7-1,1.6-2,2.4-2.9h0ZM466.9,784.2c-.6,0-1.2-.2-1.8-.3-.8.9-1.6,1.9-2.4,2.8.7,0,1.4.2,2.1.3.6-1,1.3-1.9,2.1-2.8h0ZM470,784.6c-.7,0-1.4-.2-2.1-.3-.7.9-1.4,1.8-2.1,2.8.8,0,1.6.2,2.4.2.5-.9,1.1-1.8,1.8-2.7h0ZM473.4,785c-.8,0-1.6-.2-2.5-.3-.6.9-1.2,1.8-1.8,2.7.9,0,1.8,0,2.7.2.5-.9,1.1-1.8,1.6-2.6h0ZM477.2,785.3c-.9,0-1.8,0-2.8-.2-.5.8-1.1,1.7-1.6,2.6h2.8c.6-.9,1.1-1.7,1.6-2.5h0ZM480.9,785.4h-2.8c-.5.8-1,1.6-1.4,2.4h2.7c.5-.7,1-1.4,1.5-2.2v-.2ZM484.6,785.4h-2.6c-.5.7-1,1.5-1.4,2.2.9,0,1.7,0,2.5-.2.5-.7,1-1.3,1.5-2ZM488.1,785.2h-2.4c-.5.7-1,1.3-1.4,1.9.8,0,1.6-.2,2.3-.3.5-.5,1-1.1,1.5-1.7h0ZM491.5,784.8c-.7,0-1.5.2-2.2.2-.5.6-.9,1.1-1.4,1.7.7,0,1.4-.2,2.1-.4.6-.4,1.1-.9,1.5-1.5ZM494.8,784.3c-.6,0-1.3.2-1.9.3-.4.5-.8.9-1.3,1.4.6,0,1.2-.3,1.8-.4.5-.4.9-.8,1.4-1.3ZM497.8,783.7c-.5,0-1,.2-1.5.3-.3.4-.7.7-1,1,.5,0,1-.3,1.4-.4.4-.3.7-.6,1.1-.9h0ZM500.5,783c-.3,0-.6.2-.8.2-.2.2-.4.4-.6.6.3,0,.6-.2.8-.3.2-.2.4-.3.6-.5ZM538.9,748.1c-1,.2-1.9.3-2.9.5-.4.5-.7,1-1.1,1.5,1-.2,2-.3,2.9-.4.4-.5.7-1,1.1-1.6ZM540.6,745.7c-.9.2-1.8.4-2.8.5-.4.5-.7.9-1.1,1.4.9-.2,1.9-.3,2.8-.5.4-.4.7-.9,1.1-1.4ZM542.3,743.3c-.9.2-1.7.4-2.6.6-.4.4-.7.9-1.1,1.3.9-.2,1.8-.3,2.6-.5.4-.5.8-.9,1.1-1.4h0ZM544.2,741c-.8.2-1.6.4-2.4.6-.4.4-.7.8-1.1,1.2.8-.2,1.6-.4,2.4-.5.4-.5.7-.9,1.1-1.3ZM546.1,738.8c-.7.2-1.5.4-2.2.6-.3.4-.7.7-1,1.1.7-.2,1.5-.4,2.2-.5.3-.5.7-.8,1-1.2h0ZM548.1,736.6c-.7.2-1.3.4-2,.6-.3.3-.6.6-1,.9.7-.2,1.3-.4,2-.5.4-.3.7-.6,1-1ZM550.1,734.6c-.6.2-1.2.4-1.7.6-.3.3-.6.5-.9.8.6-.2,1.2-.3,1.7-.5l.9-.9h0ZM552.2,732.6c-.5.2-.9.3-1.4.5-.2.2-.5.4-.7.6.5,0,.9-.3,1.4-.4.2-.2.4-.5.7-.7h0ZM554.2,730.8c-.3,0-.7.3-1,.4-.2,0-.3.2-.5.4.3,0,.7-.2,1-.3l.5-.5h0ZM556.3,729.1l-.5.2h0l.6-.2h0ZM140.3,711.7c4-1.5,8.2-2.9,12.3-4.2,37.7-11.8,79.9-15.1,115.4-2.9,28.4,9.8,57.7,24.5,86.2,39,37.5,18.9,73.7,37.2,104.7,42.5.9-1,1.8-1.9,2.7-2.9-30.5-6-65.6-23.8-102-42.1-28.5-14.4-57.8-29.2-86.1-38.9-35.3-12.2-77.3-8.9-114.8,2.9-6.2,2-12.4,4.2-18.4,6.6h0ZM94.4,737h0l-.5.2h0l.5-.2ZM92,739l.3-.2-.9.3-.3.2.9-.3ZM89.6,741l.5-.4-1.2.4-.5.4,1.2-.4ZM87.3,743l.6-.6c-.5.2-.9.3-1.4.5l-.6.5c.5,0,1-.2,1.4-.4ZM85.1,745.1c.2-.2.5-.5.7-.7-.5.2-1.1.4-1.6.5l-.7.6c.5,0,1.1-.2,1.6-.4h0ZM83,747.2c.3-.3.5-.5.8-.8-.4,0-.7.2-1.1.3l-.8.2c-.3.3-.5.5-.8.8.6,0,1.3-.3,1.9-.5ZM80.9,749.4c.3-.3.6-.6.9-.9-.7.2-1.4.4-2,.6-.3.3-.6.6-.9.9.6-.2,1.3-.4,2-.6ZM6.3,833.5c-.5,0-1.1-.2-1.6-.3-.8.9-1.6,1.9-2.4,2.8h1.6c.8-.8,1.6-1.6,2.4-2.5ZM8.9,833.7h-1.5c-.7.8-1.4,1.5-2.2,2.3.5,0,1,0,1.5-.2.7-.6,1.5-1.3,2.2-2h0ZM11.3,833.6h-1.2c-.6.6-1.2,1.1-1.8,1.7.4,0,.8-.2,1.2-.3.6-.5,1.2-1,1.8-1.5h0ZM13.5,833.2h-.6c-.3.3-.7.6-1,.9.2,0,.3,0,.5-.2.4-.2.8-.5,1.1-.8h0ZM467.5,780l-1-.2c-1,.9-2.1,1.9-3.1,2.8.4,0,.9.2,1.3.2,1-.9,1.9-1.8,2.8-2.8h0ZM469.9,780.5c-.5,0-.9-.2-1.4-.2-.9.9-1.9,1.9-2.7,2.8.6,0,1.1.2,1.7.3.8-1,1.6-2,2.4-2.9h0ZM472.7,781c-.6,0-1.2-.2-1.8-.3-.8.9-1.6,1.9-2.4,2.8.7,0,1.4.2,2.1.3.7-1,1.4-1.9,2.1-2.8h0ZM475.8,781.4c-.7,0-1.4-.2-2.1-.3-.7.9-1.4,1.8-2.1,2.8.8,0,1.6.2,2.4.2.6-.9,1.2-1.8,1.8-2.7h0ZM479.3,781.8c-.8,0-1.6-.2-2.5-.3-.6.9-1.2,1.8-1.8,2.7.9,0,1.8,0,2.7.2.5-.9,1-1.8,1.6-2.6h0ZM483,782.1c-.9,0-1.8,0-2.8-.2-.5.8-1.1,1.7-1.6,2.6h2.8c.6-.9,1.1-1.7,1.6-2.5h0ZM486.8,782.2h-2.8c-.5.8-1,1.6-1.4,2.4h2.7c.5-.7,1-1.4,1.5-2.2v-.2ZM490.4,782.2h-2.6c-.5.7-1,1.5-1.4,2.2.9,0,1.7,0,2.5-.2.5-.7,1-1.3,1.5-2ZM494,782h-2.4c-.5.7-1,1.3-1.4,1.9.8,0,1.6-.2,2.3-.3.5-.5,1-1.1,1.5-1.7h0ZM497.4,781.6c-.7,0-1.5.2-2.2.2-.5.6-.9,1.1-1.4,1.7.7,0,1.4-.2,2.1-.4.5-.4,1-.9,1.5-1.5ZM500.6,781.1c-.6,0-1.3.2-1.9.3-.4.5-.8.9-1.3,1.4.6,0,1.2-.3,1.8-.4.5-.4,1-.8,1.4-1.3ZM503.7,780.5c-.5,0-1,.2-1.5.3-.3.4-.7.7-1,1,.5,0,.9-.3,1.4-.4.3-.3.7-.6,1.1-.9h0ZM506.4,779.8c-.3,0-.6.2-.8.2-.2.2-.4.4-.6.6.3,0,.6-.2.8-.3.2-.2.4-.3.6-.5ZM543.1,747.5c-1,0-2,.3-3.1.5-.4.5-.7,1.1-1.1,1.6,1,0,2.1-.3,3.1-.4.4-.6.7-1.2,1.1-1.7h0ZM544.7,744.9c-1,.2-1.9.3-2.9.5-.4.5-.7,1-1.1,1.5,1-.2,2-.3,2.9-.4.4-.5.8-1,1.1-1.6ZM546.4,742.5c-.9.2-1.8.4-2.8.5-.4.5-.7.9-1.1,1.4.9-.2,1.9-.3,2.8-.5.4-.4.8-.9,1.1-1.4ZM548.2,740.1c-.9.2-1.7.4-2.6.6-.4.4-.7.9-1.1,1.3.9-.2,1.8-.3,2.6-.5.4-.5.7-.9,1.1-1.4h0ZM550,737.8c-.8.2-1.6.4-2.4.6-.4.4-.7.8-1.1,1.2.8-.2,1.6-.4,2.4-.5.5-.5.8-.9,1.1-1.3ZM552,735.6c-.7.2-1.5.4-2.2.6-.3.4-.7.7-1,1.1.7-.2,1.5-.4,2.2-.5.3-.5.6-.8,1-1.2h0ZM553.9,733.4c-.7.2-1.3.4-2,.6-.3.3-.6.6-1,.9.7-.2,1.3-.4,2-.5.4-.3.7-.6,1-1ZM556,731.4c-.6.2-1.2.4-1.7.6-.3.3-.6.5-.8.8.6-.2,1.2-.3,1.7-.5.2-.4.5-.6.8-.9h0ZM558,729.4c-.5.2-.9.3-1.4.5-.2.2-.5.4-.7.6.5,0,.9-.3,1.4-.4.3-.2.5-.5.7-.7h0ZM560.1,727.6c-.3,0-.7.3-1,.4-.2,0-.3.2-.5.4.3,0,.7-.2,1-.3.2-.2.3-.4.5-.5h0ZM562.1,725.9l-.5.2h0l.6-.2h0ZM146.2,708.5c4-1.5,8.2-2.9,12.3-4.2,37.7-11.8,79.9-15.1,115.4-2.9,28.4,9.8,57.7,24.5,86.2,39,36.5,18.4,71.8,36.3,102.3,42.1,1-1,2-1.9,3.1-2.9-30-6.4-64.4-23.8-100-41.7-28.5-14.4-57.8-29.2-86.1-38.9-35.3-12.2-77.3-8.9-114.8,2.9-6.3,2-12.4,4.2-18.4,6.6h0ZM100.2,733.8h0l-.5.2h0l.5-.2ZM97.8,735.8l.3-.2-.9.3-.3.2.9-.3ZM95.5,737.8l.5-.4-1.2.4-.5.4,1.2-.4ZM93.2,739.8l.6-.6c-.5.2-.9.3-1.4.5l-.6.5c.5,0,.9-.2,1.4-.4ZM91,741.9c.2-.2.5-.5.7-.7-.5.2-1.1.4-1.6.5-.2.2-.5.4-.7.6.5,0,1-.2,1.6-.4h0ZM88.8,744c.3-.3.5-.5.8-.8-.4,0-.7.2-1.1.3l-.8.2c-.3.3-.5.5-.8.8.7,0,1.3-.3,1.9-.5ZM86.8,746.2c.3-.3.6-.6.9-.9-.7.2-1.4.4-2,.6-.3.3-.6.6-.9.9.6-.2,1.3-.4,2-.6ZM84.7,748.4c.3-.3.6-.7.9-1-.7.2-1.5.4-2.2.6-.3.3-.6.6-.9,1,.7-.2,1.5-.4,2.2-.6ZM7.1,828.9c-.6-.2-1.2-.5-1.8-.8-.9,1.2-1.8,2.4-2.7,3.6.6.2,1.2.4,1.8.5.9-1,1.8-2.1,2.7-3.3ZM9.6,829.8c-.6-.2-1.1-.3-1.7-.5-.8,1.1-1.7,2.2-2.6,3.2.6,0,1.2.2,1.7.3.9-1,1.8-2,2.6-3ZM12.2,830.3c-.5,0-1.1-.2-1.6-.3-.8.9-1.6,1.9-2.4,2.8h1.6c.8-.8,1.6-1.6,2.4-2.5ZM14.7,830.5h-1.5c-.7.8-1.4,1.5-2.2,2.3.5,0,1,0,1.5-.2.8-.6,1.5-1.3,2.2-2h0ZM17.2,830.4h-1.2c-.6.6-1.2,1.1-1.8,1.7.4,0,.8-.2,1.2-.3l1.8-1.5h0ZM19.4,830h-.6c-.3.3-.7.6-1,.9.2,0,.3,0,.5-.2.3-.2.7-.5,1.1-.8h0ZM101.8,734.2l-1.2.4M100.6,734.6l-.5.4,1.2-.4M471.4,776.4h-.5c-1.2.9-2.3,1.8-3.4,2.8.3,0,.6,0,.9.2.9-1,1.9-1.9,3-2.9h0ZM473.4,776.8l-1-.2c-1,.9-2.1,1.9-3.1,2.8.4,0,.9.2,1.3.2.9-.9,1.9-1.8,2.8-2.8h0ZM475.8,777.3c-.5,0-.9-.2-1.4-.2-.9.9-1.9,1.9-2.7,2.8.6,0,1.1.2,1.7.3.8-1,1.6-2,2.4-2.9h0ZM478.6,777.8c-.6,0-1.2-.2-1.8-.3-.8.9-1.6,1.9-2.4,2.8.7,0,1.4.2,2.1.3.6-1,1.3-1.9,2.1-2.8h0ZM481.7,778.2c-.7,0-1.4-.2-2.1-.3-.7.9-1.4,1.8-2.1,2.8.8,0,1.6.2,2.4.2.5-.9,1.1-1.8,1.8-2.7h0ZM485.1,778.6c-.8,0-1.6-.2-2.5-.3-.6.9-1.2,1.8-1.8,2.7.9,0,1.8,0,2.7.2.5-.9,1.1-1.8,1.6-2.6h0ZM488.9,778.9c-.9,0-1.8,0-2.8-.2-.5.8-1.1,1.7-1.6,2.6h2.8c.6-.9,1.1-1.7,1.6-2.5h0ZM492.6,779h-2.8c-.5.8-1,1.6-1.4,2.4h2.7c.5-.7,1-1.4,1.5-2.2v-.2ZM496.3,779h-2.6c-.5.7-1,1.5-1.4,2.2.9,0,1.7,0,2.5-.2.5-.7,1-1.3,1.5-2ZM499.8,778.8h-2.4c-.5.7-1,1.3-1.4,1.9.8,0,1.6-.2,2.3-.3.5-.5,1-1.1,1.5-1.7h0ZM503.2,778.4c-.7,0-1.5.2-2.2.2-.5.6-.9,1.1-1.4,1.7.7,0,1.4-.2,2.1-.4.6-.4,1.1-1,1.5-1.5ZM506.5,777.9c-.6,0-1.3.2-1.9.3-.4.5-.8.9-1.3,1.4.6,0,1.2-.3,1.8-.4.5-.4.9-.8,1.4-1.3ZM509.5,777.3c-.5,0-1,.2-1.5.3-.3.4-.7.7-1,1,.5,0,.9-.3,1.4-.4.4-.3.7-.6,1.1-.9h0ZM512.2,776.6c-.3,0-.6.2-.8.2-.2.2-.4.4-.6.6.3,0,.6-.2.8-.3.2-.2.4-.3.6-.5ZM547.4,746.9c-1,0-2.1.3-3.1.4-.4.6-.7,1.1-1,1.7,1,0,2.1-.2,3.1-.3.2-.6.6-1.2,1-1.8h0ZM548.9,744.3c-1,0-2,.3-3.1.5-.4.5-.7,1.1-1.1,1.6,1,0,2.1-.3,3.1-.4.5-.6.8-1.2,1.1-1.7h0ZM550.6,741.7c-1,.2-1.9.3-2.9.5-.4.5-.7,1-1.1,1.5,1-.2,2-.3,2.9-.4.4-.5.7-1,1.1-1.6ZM552.3,739.3c-.9.2-1.8.4-2.8.5-.4.5-.7.9-1.1,1.4.9-.2,1.9-.3,2.8-.5.4-.4.7-.9,1.1-1.4ZM554.1,736.9c-.9.2-1.7.4-2.6.6-.4.4-.7.9-1.1,1.3.9-.2,1.8-.3,2.6-.5.3-.5.7-.9,1.1-1.4h0ZM555.9,734.6c-.8.2-1.6.4-2.4.6-.4.4-.7.8-1.1,1.2.8-.2,1.6-.4,2.4-.5.4-.5.8-.9,1.1-1.3ZM557.8,732.4c-.7.2-1.5.4-2.2.6-.3.4-.7.7-1,1.1.7-.2,1.5-.4,2.2-.5.3-.5.7-.8,1-1.2h0ZM559.8,730.2c-.7.2-1.3.4-2,.6-.3.3-.6.6-1,.9.7-.2,1.3-.4,2-.5.4-.3.7-.6,1-1ZM561.8,728.2c-.6.2-1.2.4-1.7.6-.3.3-.6.5-.8.8.6-.2,1.2-.3,1.7-.5.3-.4.5-.6.8-.9h0ZM563.9,726.2c-.5.2-.9.3-1.4.5-.2.2-.5.4-.7.6.5,0,.9-.3,1.4-.4.2-.2.4-.5.7-.7h0ZM565.9,724.4c-.3,0-.7.3-1,.4-.2,0-.3.2-.5.4.3,0,.7-.2,1-.3l.5-.5h0ZM568,722.7l-.5.2h0l.6-.2h0ZM152,705.3c4-1.5,8.2-2.9,12.3-4.2,37.7-11.8,79.9-15.1,115.4-2.9,28.4,9.8,57.7,24.5,86.2,39,35.8,18,70.3,35.5,100.4,41.7,1.1-1,2.3-1.9,3.4-2.8-29.6-6.7-63.4-23.7-98.4-41.3-28.5-14.4-57.8-29.2-86.1-38.9-35.3-12.2-77.3-8.9-114.8,2.9-6.2,1.9-12.4,4.1-18.4,6.5h0ZM106.1,730.6h0l-.5.2h0l.5-.2ZM103.7,732.6l.3-.2-.9.3-.3.2.9-.3ZM99.1,736.6l.6-.6c-.5.2-.9.3-1.4.5l-.6.5c.4,0,.9-.2,1.4-.4ZM96.8,738.7c.2-.2.5-.5.7-.7-.5.2-1.1.4-1.6.5-.2.2-.5.4-.7.6.5,0,1.1-.2,1.6-.4h0ZM94.7,740.8c.3-.3.5-.5.8-.8-.4,0-.7.2-1.1.3l-.8.2c-.3.3-.5.5-.8.8.6,0,1.3-.3,1.9-.5ZM92.6,743c.3-.3.6-.6.9-.9-.7.2-1.4.4-2,.6-.3.3-.6.6-.9.9.6-.2,1.3-.4,2-.6ZM90.6,745.2c.3-.3.6-.7.9-1-.7.2-1.5.4-2.2.6-.3.3-.6.6-.9,1,.7-.2,1.4-.4,2.2-.6ZM88.7,747.5c.3-.4.6-.7.9-1.1-.8.2-1.6.4-2.4.6-.3.4-.7.7-1,1.1.8-.3,1.7-.5,2.5-.6ZM5.4,820.9c-.6-.5-1.2-1.1-1.8-1.7-.9,1.6-1.9,3.2-2.9,4.7.6.5,1.2,1,1.8,1.4,1-1.4,1.9-2.9,2.9-4.4ZM7.8,822.9c-.6-.4-1.2-.9-1.8-1.4-.9,1.5-1.9,2.9-2.8,4.4.6.4,1.2.8,1.8,1.1,1-1.3,1.9-2.7,2.8-4.1ZM10.4,824.5c-.6-.3-1.2-.7-1.8-1.1-.9,1.3-1.8,2.7-2.8,4,.6.3,1.2.6,1.8.8.9-1.2,1.9-2.4,2.8-3.7ZM12.9,825.7c-.6-.2-1.2-.5-1.8-.8-.9,1.2-1.8,2.4-2.7,3.6.6.2,1.2.4,1.8.5.9-1,1.8-2.1,2.7-3.3ZM15.5,826.6c-.6-.2-1.1-.3-1.7-.5-.8,1.1-1.7,2.2-2.6,3.2.6,0,1.2.2,1.7.3.9-1,1.7-2,2.6-3ZM18,827.1c-.5,0-1.1-.2-1.6-.3-.8.9-1.6,1.9-2.4,2.8h1.6c.8-.8,1.6-1.6,2.4-2.5ZM20.6,827.3h-1.5c-.7.8-1.4,1.5-2.2,2.3.5,0,1,0,1.5-.2.7-.6,1.5-1.3,2.2-2h0ZM23.1,827.2h-1.2c-.6.6-1.2,1.1-1.8,1.7.4,0,.8-.2,1.2-.3.5-.5,1.1-1,1.8-1.5h0ZM25.2,826.8h-.6c-.3.3-.7.6-1,.9.2,0,.3,0,.5-.2.4-.2.8-.5,1.1-.8h0ZM475.6,772.9h0c-1.3.9-2.6,1.8-3.8,2.7h.4c1.1-.9,2.3-1.8,3.4-2.7ZM477.2,773.2h-.5c-1.2.9-2.3,1.8-3.4,2.8.3,0,.6,0,.9.2,1-1,2-1.9,3-2.9h0ZM479.3,773.6l-1-.2c-1,.9-2.1,1.9-3.1,2.8.4,0,.9.2,1.3.2.9-.9,1.8-1.8,2.8-2.8h0ZM481.6,774.1c-.5,0-.9-.2-1.4-.2-.9.9-1.9,1.9-2.7,2.8.6,0,1.1.2,1.7.3.8-1,1.6-2,2.4-2.9h0ZM484.4,774.6c-.6,0-1.2-.2-1.8-.3-.8.9-1.6,1.9-2.4,2.8.7,0,1.4.2,2.1.3.7-1,1.4-1.9,2.1-2.8h0ZM487.5,775c-.7,0-1.4-.2-2.1-.3-.7.9-1.4,1.8-2.1,2.8.8,0,1.6.2,2.4.2.6-.9,1.2-1.8,1.8-2.7h0ZM491,775.4c-.8,0-1.6-.2-2.5-.3-.6.9-1.2,1.8-1.8,2.7.9,0,1.8,0,2.7.2.5-.9,1-1.8,1.6-2.6h0ZM494.7,775.7c-.9,0-1.8,0-2.8-.2-.5.8-1.1,1.7-1.6,2.6h2.8c.6-.9,1.1-1.7,1.6-2.5h0ZM498.5,775.8h-2.8c-.5.8-1,1.6-1.4,2.4h2.7c.5-.7,1-1.4,1.5-2.2v-.2ZM502.1,775.8h-2.6c-.5.7-1,1.5-1.4,2.2.9,0,1.7,0,2.5-.2.5-.7,1-1.3,1.5-2ZM505.7,775.6h-2.4c-.5.7-1,1.3-1.4,1.9.8,0,1.6-.2,2.3-.3.5-.5,1-1.1,1.5-1.7h0ZM509.1,775.2c-.7,0-1.5.2-2.2.2-.5.6-.9,1.1-1.4,1.7.7,0,1.4-.2,2.1-.4.5-.4,1-1,1.5-1.5ZM512.3,774.7c-.6,0-1.3.2-1.9.3-.4.5-.8.9-1.3,1.4.6,0,1.2-.3,1.8-.4.5-.4,1-.8,1.4-1.3ZM515.4,774.1c-.5,0-1,.2-1.5.3-.3.4-.7.7-1,1,.5,0,1-.3,1.4-.4.3-.3.7-.6,1.1-.9h0ZM518.1,773.4c-.3,0-.6.2-.8.2l-.6.6c.3,0,.6-.2.8-.3.2-.2.4-.3.6-.5ZM551.5,746.4c-1,0-2,.2-3.1.4-.4.6-.7,1.2-1.1,1.8,1,0,2-.2,2.9-.3.5-.6.9-1.3,1.3-1.9h0ZM553.2,743.7c-1,0-2.1.3-3.1.4-.4.6-.7,1.1-1,1.7,1,0,2.1-.2,3.1-.3.3-.6.7-1.2,1-1.8h0ZM554.8,741.1c-1,0-2,.3-3.1.5-.4.5-.7,1.1-1.1,1.6,1,0,2.1-.3,3.1-.4.4-.6.8-1.2,1.1-1.7h0ZM556.4,738.5c-1,.2-1.9.3-2.9.5-.4.5-.7,1-1.1,1.5,1-.2,2-.3,2.9-.4.4-.5.8-1,1.1-1.6ZM558.1,736.1c-.9.2-1.8.4-2.8.5-.4.5-.7.9-1.1,1.4.9-.2,1.9-.3,2.8-.5.4-.4.8-.9,1.1-1.4ZM559.9,733.7c-.9.2-1.7.4-2.6.6-.4.4-.7.9-1.1,1.3.9-.2,1.8-.3,2.6-.5.4-.5.8-.9,1.1-1.4h0ZM561.8,731.4c-.8.2-1.6.4-2.4.6-.4.4-.7.8-1.1,1.2.8-.2,1.6-.4,2.4-.5.4-.5.7-.9,1.1-1.3ZM563.7,729.2c-.7.2-1.5.4-2.2.6-.3.4-.7.7-1,1.1.7-.2,1.5-.4,2.2-.5.3-.5.6-.8,1-1.2h0ZM565.6,727c-.7.2-1.3.4-2,.6-.3.3-.6.6-1,.9.7-.2,1.3-.4,2-.5.4-.3.7-.6,1-1ZM567.7,725c-.6.2-1.2.4-1.7.6-.3.3-.6.5-.8.8.6-.2,1.2-.3,1.7-.5.2-.4.5-.6.8-.9h0ZM569.7,723c-.5.2-.9.3-1.4.5-.2.2-.5.4-.7.6.5,0,.9-.3,1.4-.4.3-.2.5-.5.7-.7h0ZM571.8,721.2c-.3,0-.7.3-1,.4-.2,0-.3.2-.5.4.3,0,.7-.2,1-.3.2-.2.3-.4.5-.5h0ZM573.8,719.5l-.5.2h0l.6-.2h0ZM157.9,702.1c4-1.5,8.2-2.9,12.3-4.2,37.7-11.8,79.9-15.1,115.4-2.9,28.4,9.8,57.7,24.5,86.2,39,35.1,17.7,69.2,34.9,98.9,41.4,1.2-.9,2.5-1.9,3.8-2.8-29.3-6.8-62.7-23.7-97.2-41.1-28.5-14.4-57.8-29.2-86.1-38.9-35.3-12.2-77.3-8.9-114.8,2.9-6.4,2-12.5,4.2-18.5,6.6h0ZM111.9,727.4h0l-.5.2h0l.5-.2ZM109.5,729.4l.3-.2-.9.3-.3.2.9-.3ZM107.2,731.4c.2,0,.3-.3.5-.4l-1.2.4-.5.4,1.2-.4ZM104.9,733.4l.6-.6c-.5.2-.9.3-1.4.5l-.6.5c.5,0,.9-.2,1.4-.4ZM102.7,735.5c.2-.2.5-.5.7-.7-.5.2-1.1.4-1.6.5-.2.2-.5.4-.7.6.5,0,1-.2,1.6-.4h0ZM100.5,737.6c.3-.3.5-.5.8-.8-.4,0-.7.2-1.1.3l-.8.2c-.3.3-.5.5-.8.8.7,0,1.3-.3,1.9-.5ZM98.5,739.8c.3-.3.6-.6.9-.9-.7.2-1.4.4-2,.6-.3.3-.6.6-.9.9.6-.3,1.3-.4,2-.6ZM96.5,742c.3-.3.6-.7.9-1-.7.2-1.5.4-2.2.6-.3.3-.6.6-.9,1,.6-.2,1.4-.4,2.2-.6ZM94.5,744.3c.3-.4.6-.7.9-1.1-.8.2-1.6.4-2.4.6-.3.4-.7.7-1,1.1.9-.3,1.7-.5,2.5-.6ZM92.7,746.6c.3-.4.6-.8,1-1.2-.9.2-1.7.4-2.5.6-.3.4-.7.8-1,1.2.7-.3,1.6-.4,2.5-.6ZM6.4,812.7c-.6-.7-1.2-1.5-1.8-2.3-.9,1.7-2,3.6-3,5.5.6.7,1.2,1.4,1.8,2,1-1.8,2-3.6,3-5.2ZM8.8,815.4c-.6-.6-1.2-1.3-1.8-2-1,1.6-2,3.3-3,5.1.6.6,1.2,1.2,1.8,1.7,1-1.6,2-3.2,3-4.8ZM11.2,817.7c-.6-.5-1.2-1.1-1.8-1.7-.9,1.6-1.9,3.2-2.9,4.7.6.5,1.2,1,1.8,1.4,1-1.4,2-2.9,2.9-4.4ZM13.7,819.7c-.6-.4-1.2-.9-1.8-1.4-.9,1.5-1.9,2.9-2.8,4.4.6.4,1.2.8,1.8,1.1.9-1.3,1.9-2.7,2.8-4.1ZM16.2,821.3c-.6-.3-1.2-.7-1.8-1.1-.9,1.3-1.8,2.7-2.8,4,.6.3,1.2.6,1.8.8,1-1.2,1.9-2.4,2.8-3.7ZM18.8,822.5c-.6-.2-1.2-.5-1.8-.8-.9,1.2-1.8,2.4-2.7,3.6.6.2,1.2.4,1.8.5.9-1,1.8-2.1,2.7-3.3ZM21.3,823.4c-.6-.2-1.1-.3-1.7-.5-.8,1.1-1.7,2.2-2.6,3.2.6,0,1.2.2,1.7.3.9-1,1.8-2,2.6-3ZM23.9,823.9c-.5,0-1.1-.2-1.6-.3-.8.9-1.6,1.9-2.4,2.8h1.6c.8-.8,1.6-1.6,2.4-2.5ZM26.4,824.1h-1.5c-.7.8-1.4,1.5-2.2,2.3.5,0,1,0,1.5-.2.8-.6,1.5-1.3,2.2-2h0ZM28.9,824h-1.2c-.6.6-1.2,1.1-1.8,1.7.4,0,.8-.2,1.2-.3.6-.5,1.2-1,1.8-1.5h0ZM31.1,823.6h-.6c-.3.3-.7.6-1,.9.2,0,.3,0,.5-.2.3-.2.7-.5,1.1-.8h0ZM481.5,769.7h0c-1.3.9-2.6,1.8-3.8,2.7h.4c1.1-.9,2.2-1.8,3.4-2.7ZM483.1,770h-.5c-1.2.9-2.3,1.8-3.4,2.8.3,0,.6,0,.9.2.9-1,1.9-1.9,3-2.9h0ZM485.1,770.4l-1-.2c-1,.9-2.1,1.9-3.1,2.8.4,0,.9.2,1.3.2,1-.9,1.9-1.8,2.8-2.8h0ZM487.5,770.9c-.5,0-.9-.2-1.4-.2-.9.9-1.9,1.9-2.7,2.8.6,0,1.1.2,1.7.3.8-1,1.6-2,2.4-2.9h0ZM490.3,771.4c-.6,0-1.2-.2-1.8-.3-.8.9-1.6,1.9-2.4,2.8.7,0,1.4.2,2.1.3.6-1,1.3-1.9,2.1-2.8h0ZM493.4,771.8c-.7,0-1.4-.2-2.1-.3-.7.9-1.4,1.8-2.1,2.8.8,0,1.6.2,2.4.2.5-.9,1.1-1.8,1.8-2.7h0ZM496.8,772.2c-.8,0-1.6-.2-2.5-.3-.6.9-1.2,1.8-1.8,2.7.9,0,1.8,0,2.7.2.6-.9,1.1-1.8,1.6-2.6h0ZM500.6,772.5c-.9,0-1.8,0-2.8-.2-.5.8-1.1,1.7-1.6,2.6h2.8c.6-.9,1.1-1.7,1.6-2.5h0ZM504.3,772.6h-2.8c-.5.8-1,1.6-1.4,2.4h2.7c.5-.7,1-1.4,1.5-2.2v-.2ZM508,772.6h-2.6c-.5.7-1,1.5-1.4,2.2.9,0,1.7,0,2.5-.2.5-.7,1-1.3,1.5-2ZM511.5,772.4h-2.4c-.5.7-1,1.3-1.4,1.9.8,0,1.6-.2,2.3-.3.5-.5,1-1.1,1.5-1.7h0ZM514.9,772c-.7,0-1.5.2-2.2.2-.5.6-.9,1.1-1.4,1.7.7,0,1.4-.2,2.1-.4.6-.4,1.1-1,1.5-1.5ZM518.2,771.5c-.6,0-1.3.2-1.9.3-.4.5-.8.9-1.3,1.4.6,0,1.2-.3,1.8-.4.5-.4.9-.8,1.4-1.3ZM521.2,770.9c-.5,0-1,.2-1.5.3-.3.4-.7.7-1,1,.5,0,.9-.3,1.4-.4.4-.3.8-.6,1.1-.9h0ZM523.9,770.2c-.3,0-.6.2-.8.2l-.6.6c.3,0,.5-.2.8-.3.2-.2.4-.3.6-.5ZM555.5,746c-.9,0-1.9.2-2.8.3-.4.7-.8,1.3-1.3,1.9.9,0,1.8,0,2.6-.2.5-.7,1-1.3,1.5-2ZM557.4,743.2c-1,0-2,.2-3.1.4-.4.6-.7,1.2-1.1,1.8,1,0,2-.2,2.9-.3.5-.6.9-1.3,1.3-1.9h0ZM559.1,740.5c-1,0-2.1.3-3.1.4-.4.6-.7,1.1-1,1.7,1,0,2.1-.2,3.1-.3.3-.6.6-1.2,1-1.8h0ZM560.7,737.9c-1,0-2,.3-3.1.5-.4.5-.7,1.1-1.1,1.6,1,0,2.1-.3,3.1-.4.4-.6.7-1.2,1.1-1.7h0ZM562.3,735.3c-1,.2-1.9.3-2.9.5-.4.5-.7,1-1.1,1.5,1-.2,2-.3,2.9-.4.4-.5.7-1,1.1-1.6ZM564,732.9c-.9.2-1.8.4-2.8.5-.4.5-.7.9-1.1,1.4.9-.2,1.9-.3,2.8-.5.4-.4.7-.9,1.1-1.4ZM565.8,730.5c-.9.2-1.7.4-2.6.6-.4.4-.7.9-1.1,1.3.9-.2,1.8-.3,2.6-.5.4-.5.7-.9,1.1-1.4h0ZM567.6,728.2c-.8.2-1.6.4-2.4.6-.4.4-.7.8-1.1,1.2.8-.2,1.6-.4,2.4-.5.4-.5.8-.9,1.1-1.3ZM569.5,726c-.7.2-1.5.4-2.2.6-.3.4-.7.7-1,1.1.7-.2,1.5-.4,2.2-.5.4-.5.7-.8,1-1.2h0ZM571.5,723.8c-.7.2-1.3.4-2,.6-.3.3-.6.6-1,.9.7-.2,1.3-.4,2-.5.4-.3.7-.6,1-1ZM573.5,721.8c-.6.2-1.2.4-1.7.6-.3.3-.6.5-.8.8.6-.2,1.2-.3,1.7-.5.3-.4.5-.6.8-.9h0ZM575.6,719.8c-.5.2-.9.3-1.4.5-.2.2-.5.4-.7.6.5,0,.9-.3,1.4-.4l.7-.7h0ZM577.6,718c-.3,0-.7.3-1,.4-.2,0-.3.2-.5.4.3,0,.7-.2,1-.3l.5-.5h0ZM579.7,716.3l-.5.2h0l.6-.2h0ZM163.7,698.9c4-1.5,8.2-2.9,12.3-4.2,37.7-11.8,79.9-15.1,115.4-2.9,28.4,9.8,57.7,24.5,86.2,39,34.7,17.5,68.3,34.5,97.8,41.2,1.4-.9,2.7-1.8,4.2-2.7-29.2-6.9-62.3-23.7-96.5-40.9-28.5-14.4-57.8-29.2-86.1-38.9-35.3-12.2-77.3-8.9-114.8,2.9-6.3,1.9-12.5,4.1-18.5,6.5h0ZM553.3,748.9c-.8,0-1.7,0-2.6.2-3.7,5.4-7.8,9.8-12.1,13.5,5.3-3.4,10.2-8,14.7-13.7h0ZM585.4,713.2h-.4v.2l.5-.2h0ZM583,715.2c.2,0,.3-.3.5-.4-.3,0-.7.3-1,.4-.2,0-.3.2-.5.4.4-.2.7-.3,1-.4ZM580.7,717.3c.2-.2.5-.4.7-.6-.5.2-.9.3-1.4.5-.2.2-.5.4-.7.6.5-.2,1-.4,1.4-.5ZM578.5,719.4l.8-.8c-.6.2-1.2.4-1.7.6-.3.3-.6.5-.8.8.6-.3,1.2-.4,1.7-.6ZM576.4,721.6c.3-.3.6-.7.9-1-.7.2-1.3.4-2,.6-.3.3-.6.6-1,.9.8,0,1.5-.3,2.1-.5ZM574.4,723.9c.3-.4.7-.8,1-1.1-.7.2-1.5.4-2.2.6-.3.4-.7.7-1,1.1.7-.2,1.4-.4,2.2-.6ZM572.4,726.3c.3-.4.7-.8,1-1.3-.8.2-1.6.4-2.4.6-.4.4-.7.8-1.1,1.2.9-.2,1.7-.4,2.5-.5ZM570.6,728.7c.3-.5.7-.9,1.1-1.4-.9.2-1.7.4-2.6.6-.4.4-.7.9-1.1,1.3.8-.2,1.7-.4,2.6-.5h0ZM568.8,731.2c.3-.5.7-1,1.1-1.5-.9.2-1.8.4-2.8.5-.4.5-.7.9-1.1,1.4.9,0,1.9-.3,2.8-.4ZM567.1,733.7c.3-.5.7-1.1,1-1.6-1,.2-1.9.3-2.9.5-.4.5-.7,1-1.1,1.5,1,0,2-.2,3-.4ZM565.5,736.3c.3-.6.7-1.1,1-1.7-1,0-2,.3-3.1.5-.4.5-.7,1.1-1.1,1.6,1.1,0,2.2-.2,3.2-.4h0ZM563.8,739.1c.4-.6.7-1.2,1.1-1.8-1,0-2.1.3-3.1.4-.4.6-.7,1.1-1,1.7,1,0,2-.2,3-.3h0ZM562,741.9c.4-.6.8-1.3,1.2-1.9-1,0-2,.2-3.1.4-.4.6-.7,1.2-1.1,1.8,1.1,0,2-.2,3-.3h0ZM559.9,744.8c.5-.6,1-1.3,1.4-2-.9,0-1.9.2-2.8.3-.4.7-.8,1.3-1.3,1.9.9,0,1.8,0,2.7-.2h0ZM557.5,747.8c.6-.7,1.1-1.4,1.7-2.1-.8,0-1.7,0-2.6.2-.5.7-.9,1.4-1.4,2,.8,0,1.5,0,2.3,0h0ZM544.5,759.4c4.4-2.8,8.5-6.4,12.3-10.7h-2.2c-3.2,4.1-6.6,7.6-10.1,10.6h0ZM534.2,764.6c.3,0,.6-.2.8-.3,5.3-3.8,10.2-8.8,14.6-15-.9,0-1.9.2-2.8.3-3.8,6-8.1,10.9-12.6,15ZM530.4,765.9c.5,0,.9-.3,1.4-.4,5-4.1,9.7-9.3,13.8-15.8-1,0-2,.2-3.1.4-3.6,6.2-7.7,11.5-12.1,15.8h0ZM526.7,766.8c.6,0,1.2-.3,1.8-.4,4.7-4.3,9-9.7,13-16.3-1,0-2.1.3-3.1.4-.5.8-1,1.6-1.5,2.4h0c-3.1,5.4-6.5,10-10.2,13.9h0ZM523.1,767.5c.7,0,1.4-.2,2.1-.4,3.9-4.1,7.6-8.9,10.9-14.6h0c.4-.6.7-1.2,1.1-1.8-1,0-2,.3-3.1.5-1.1,1.6-2.1,3.3-3.1,5h0c-2.5,4.2-5.1,8-7.9,11.3ZM519.4,768.1c.8,0,1.6-.2,2.3-.3,3-3.5,5.9-7.5,8.5-12.1h0c.9-1.5,1.8-2.9,2.7-4.3-1,.2-1.9.3-2.9.5-1.7,2.4-3.4,4.9-4.9,7.5h0c-1.8,3.1-3.7,6-5.7,8.7h0ZM515.6,768.4c.9,0,1.7,0,2.5-.2,2.2-2.8,4.3-5.9,6.2-9.3h0c1.4-2.4,2.9-4.6,4.4-6.8-.9.2-1.8.4-2.8.5-2.4,3.1-4.7,6.4-6.8,9.9h0c-1,2.1-2.2,4-3.5,5.9h0ZM511.8,768.5h2.7c1.4-2,2.7-4.1,4-6.3h0c1.9-3.3,4-6.3,6.2-9.2-.9.2-1.7.4-2.6.6-3.2,3.7-6.1,7.8-8.7,12.2h0c-.5,1-1,1.9-1.6,2.8h0ZM507.9,768.4h2.8c.7-1,1.3-2.1,1.9-3.2h0c2.4-4.1,5.1-8,8.1-11.5-.8.2-1.6.4-2.4.6-3.8,4.2-7.3,8.9-10.4,14h0ZM504.2,768.2c.9,0,1.8,0,2.7.2,2.9-5,6.2-9.5,9.9-13.6-.7.2-1.5.4-2.2.6-3.8,3.9-7.3,8.1-10.4,12.8h0ZM500.8,767.9c.8,0,1.6.2,2.4.2,2.9-4.5,6.2-8.5,9.7-12.2-.7.2-1.3.4-2,.6-3.6,3.4-7,7.2-10.1,11.4h0ZM497.8,767.5c.7,0,1.4.2,2.1.3,2.8-3.9,6-7.5,9.3-10.7-.6.2-1.2.4-1.7.6-3.5,2.9-6.7,6.2-9.7,9.8h0ZM495.1,767.1c.6,0,1.1.2,1.7.3,2.7-3.3,5.5-6.3,8.5-9.1-.5.2-.9.3-1.4.5-3.1,2.5-6,5.3-8.8,8.3h0ZM492.8,766.7c.4,0,.9.2,1.3.2,2.4-2.6,4.9-5,7.5-7.3-.3,0-.7.3-1,.4-2.8,2.1-5.4,4.3-7.8,6.7h0ZM490.9,766.3c.3,0,.6,0,.9.2,1.9-1.9,3.9-3.7,6-5.3-.2,0-.3,0-.5.2-2.3,1.5-4.4,3.2-6.4,4.9h0ZM489.4,766h.4c1.2-.9,2.4-2,3.7-2.9-1.4.9-2.8,1.9-4.1,2.9ZM117.8,724.2h0l-.5.2h0l.5-.2ZM115.4,726.2l.3-.2-.9.3-.3.2.9-.3ZM113,728.2l.5-.4-1.2.4-.5.4,1.2-.4ZM110.8,730.2l.6-.6c-.5.2-.9.3-1.4.5l-.6.5c.4,0,.9-.2,1.4-.4ZM108.5,732.3c.2-.2.5-.5.7-.7-.5.2-1.1.4-1.6.5-.2.2-.5.4-.7.6.5,0,1.1-.2,1.6-.4h0ZM106.4,734.4c.3-.3.5-.5.8-.8-.4,0-.7.2-1.1.3l-.8.2c-.3.3-.5.5-.8.8.6,0,1.3-.3,1.9-.5ZM104.3,736.6c.3-.3.6-.6.9-.9-.7.2-1.4.4-2,.6-.3.3-.6.6-.9.9.6-.3,1.3-.4,2-.6ZM102.3,738.8c.3-.3.6-.7.9-1-.7.2-1.5.4-2.2.6-.3.3-.6.6-.9,1,.7-.2,1.5-.4,2.2-.6ZM100.4,741.1c.3-.4.6-.7.9-1.1-.8.2-1.6.4-2.4.6-.3.4-.7.7-1,1.1.9-.3,1.7-.5,2.5-.6ZM98.5,743.4c.3-.4.6-.8,1-1.2-.8.2-1.7.4-2.5.6-.3.4-.7.8-1,1.2.8-.3,1.7-.4,2.5-.6ZM96.8,745.7c.3-.4.6-.9,1-1.3-.9.2-1.8.4-2.7.6-.3.4-.7.8-1,1.3.8-.2,1.7-.4,2.7-.6ZM46.5,815.5c19-11.9,35.9-43.9,43.5-58.4,1.4-2.6,2.5-4.7,3.2-5.9.9-1.5,1.8-2.9,2.8-4.4-1,.2-1.9.4-2.9.6-1.9,2.5-3.6,4.9-5,7.4-.7,1.3-1.8,3.3-3.2,5.9-6.9,13.2-21.4,40.7-38.4,54.8h0ZM41.2,818.2c.2,0,.3,0,.5-.2,18.6-12.4,35-43.5,42.5-57.7,1.4-2.6,2.5-4.7,3.2-5.9,1.3-2.2,2.8-4.5,4.5-6.7-.9.2-1.8.4-2.7.6-2.6,3.2-5,6.5-6.9,9.8-.7,1.3-1.8,3.3-3.2,5.9-6.9,12.9-21.2,40-37.9,54.2h0ZM37.6,819.4c.4,0,.8-.2,1.2-.3,17.4-13.5,32.4-42.1,39.5-55.6,1.4-2.6,2.5-4.7,3.2-5.9,1.8-3,3.9-6,6.2-9-.8.2-1.7.4-2.5.6-3.5,4-6.4,8-8.8,12-.7,1.3-1.8,3.3-3.2,5.9-6.5,12.4-19.8,37.7-35.6,52.3ZM34.5,819.9c.5,0,1,0,1.5-.2,16.1-14.3,29.8-40.4,36.5-53,1.4-2.6,2.5-4.7,3.2-5.9,2.2-3.8,4.9-7.5,8.1-11.2-.8.2-1.6.4-2.4.6-4.3,4.7-8,9.4-10.8,14.2-.7,1.3-1.8,3.3-3.2,5.9-6.2,11.7-18.3,34.8-32.9,49.6h0ZM31.6,820h1.6c14.7-14.7,27.2-38.3,33.4-50.1,1.4-2.6,2.5-4.7,3.2-5.9,2.6-4.5,6-9,10-13.4-.7.2-1.5.4-2.2.6-5.3,5.4-9.6,10.9-12.9,16.4-.7,1.3-1.8,3.3-3.2,5.9-5.7,10.9-16.7,31.7-29.9,46.5ZM28.7,819.7c.6,0,1.2.2,1.7.3,13.4-14.7,24.5-35.8,30.3-46.8,1.4-2.6,2.5-4.7,3.2-5.9,3.1-5.2,7.1-10.4,12-15.5-.7.2-1.4.4-2,.6-6.2,6-11.3,12.3-15,18.5-.7,1.3-1.8,3.3-3.2,5.9-5.3,10-15.1,28.5-27,42.9ZM26,818.9c.6.2,1.2.4,1.8.5,11.9-14.4,21.8-33,27.1-43.2,1.4-2.6,2.5-4.7,3.2-5.9,3.5-5.9,8.2-11.8,14-17.5-.4,0-.7.2-1.1.3l-.8.2c-7.2,6.8-13.1,13.7-17.2,20.7-.7,1.3-1.8,3.3-3.2,5.9-4.8,9.2-13.3,25.3-23.8,39ZM23.4,817.8c.6.3,1.2.6,1.8.8,10.5-13.7,19-29.9,23.9-39.1,1.4-2.6,2.5-4.7,3.2-5.9,3.9-6.6,9.3-13.2,16-19.5-.5.2-1.1.4-1.6.5-8.3,7.3-15,14.9-19.5,22.6-.7,1.3-1.8,3.3-3.2,5.9-4.4,8.2-11.7,22.1-20.6,34.7ZM20.7,816.3c.6.4,1.2.8,1.8,1.1,9-12.6,16.3-26.5,20.6-34.7,1.4-2.6,2.5-4.7,3.2-5.9,4.3-7.3,10.5-14.6,18.1-21.5-.5.2-.9.3-1.4.5-9.4,7.9-16.9,16.2-21.8,24.6-.7,1.3-1.8,3.3-3.2,5.9-3.7,7.2-9.8,18.7-17.3,30h0ZM18.2,814.4c.6.5,1.2,1,1.8,1.4,7.5-11.2,13.5-22.7,17.3-29.9,1.4-2.6,2.5-4.7,3.2-5.9,4.7-8,11.6-15.9,20.3-23.4l-1.2.4c-10.5,8.4-18.9,17.5-24.2,26.6-.7,1.3-1.8,3.3-3.2,5.9-3.2,6.1-8,15.4-14,24.9ZM15.7,812.1c.6.6,1.2,1.2,1.8,1.7,5.9-9.5,10.8-18.6,14-24.7,1.4-2.6,2.5-4.7,3.2-5.9,5.1-8.6,12.8-17.2,22.4-25.2l-.9.3c-11.7,9-20.9,18.7-26.7,28.5-.7,1.3-1.8,3.3-3.2,5.9-2.5,4.9-6.1,11.9-10.6,19.4ZM13.3,809.4c.6.7,1.2,1.4,1.8,2,4.4-7.4,8-14.2,10.6-19.1,1.4-2.6,2.5-4.7,3.2-5.9,5.4-9.3,13.9-18.4,24.6-27l-.6.2c-12.9,9.5-23,19.9-29.2,30.4-.7,1.3-1.8,3.3-3.2,5.9-1.8,3.6-4.3,8.3-7.2,13.5h0ZM10.9,806.3c.6.8,1.2,1.6,1.8,2.4,2.8-5.1,5.3-9.6,7.1-13.1,1.4-2.6,2.5-4.7,3.2-5.9,5.8-9.9,15.1-19.7,26.8-28.7h-.2c-14.1,10.1-25.1,21.2-31.7,32.4-.7,1.3-1.8,3.3-3.2,5.9-1.1,1.9-2.4,4.3-3.8,7h0ZM8.6,802.9c.6.9,1.2,1.8,1.8,2.6,1.4-2.5,2.6-4.8,3.6-6.8,1.4-2.6,2.5-4.7,3.2-5.9,5.9-10.1,15.5-20.1,27.5-29.3-14.5,10.2-26,21.5-32.7,32.9-.7,1.3-1.8,3.3-3.2,5.9l-.2.6ZM6.4,799.2c.5,1,1.1,1.9,1.6,2.8h0c1.4-2.7,2.5-4.8,3.2-6,5.9-10.1,15.5-20.1,27.5-29.3-14.2,10.1-25.6,21.2-32.3,32.5ZM4.8,796.2c.4.7.8,1.5,1.2,2.2,6-9.8,15.3-19.5,27.1-28.5-11.8,8.2-21.5,17.1-28.3,26.3ZM3.5,793.7c.3.5.5,1.1.8,1.6,5.8-7.7,13.6-15.2,22.8-22.2-9.2,6.5-17.2,13.5-23.6,20.6h0ZM2.6,791.7c.2.4.4.8.5,1.1,5.1-5.7,11.2-11.3,18.1-16.6-6.9,5-13.2,10.2-18.6,15.5ZM1.9,790.1c.1.3.2.5.3.8,4-3.9,8.4-7.7,13.2-11.4-4.9,3.4-9.4,7-13.5,10.6h0ZM1.3,788.9l.2.4c2.5-2.2,5.2-4.4,8.1-6.6-2.9,2-5.7,4.1-8.3,6.2h0ZM5.4,799.2c-.4-.7-.8-1.5-1.2-2.3-1.3,1.8-2.5,3.7-3.6,5.5.5,1,1.1,1.9,1.6,2.8h0c1.4-2.7,2.5-4.7,3.2-6ZM7.6,802.9c-.6-.9-1.1-1.8-1.7-2.8-.7,1.3-1.7,3.1-2.9,5.4l-.3.5c.6.9,1.2,1.8,1.8,2.6,1.1-2,2.1-4,3.1-5.7ZM9.9,806.3c-.6-.8-1.2-1.7-1.8-2.6-.9,1.7-1.9,3.7-3.1,5.8.6.8,1.2,1.6,1.8,2.4,1.1-2,2.1-3.8,3.1-5.6h0ZM12.2,809.5c-.6-.7-1.2-1.5-1.8-2.3-.9,1.7-2,3.6-3,5.5.6.7,1.2,1.4,1.8,2,1.1-1.8,2.1-3.6,3-5.2ZM14.6,812.2c-.6-.6-1.2-1.3-1.8-2-.9,1.7-1.9,3.4-3,5.1.6.6,1.2,1.2,1.8,1.7,1.1-1.6,2.1-3.2,3-4.8ZM17.1,814.5c-.6-.5-1.2-1.1-1.8-1.7-.9,1.6-1.9,3.2-2.9,4.7.6.5,1.2,1,1.8,1.4,1-1.4,1.9-2.9,2.9-4.4ZM19.6,816.5c-.6-.4-1.2-.9-1.8-1.4-.9,1.5-1.9,2.9-2.8,4.4.6.4,1.2.8,1.8,1.1.9-1.4,1.8-2.7,2.8-4.1ZM22.1,818.1c-.6-.3-1.2-.7-1.8-1.1-.9,1.3-1.8,2.7-2.8,4,.6.3,1.2.6,1.8.8.9-1.2,1.9-2.4,2.8-3.7ZM24.6,819.3c-.6-.2-1.2-.5-1.8-.8-.9,1.2-1.8,2.4-2.7,3.6.6.2,1.2.4,1.8.5,1-1,1.8-2.1,2.7-3.3ZM27.2,820.2c-.6-.2-1.1-.3-1.7-.5-.8,1.1-1.7,2.2-2.6,3.2.6,0,1.2.2,1.7.3.9-1,1.7-2,2.6-3ZM29.8,820.7c-.5,0-1.1-.2-1.6-.3-.8.9-1.6,1.9-2.4,2.8h1.6c.8-.8,1.6-1.6,2.4-2.5ZM32.3,820.9h-1.5c-.7.8-1.4,1.5-2.2,2.3.5,0,1,0,1.5-.2.7-.6,1.5-1.3,2.2-2h0ZM34.8,820.8h-1.2c-.6.6-1.2,1.1-1.8,1.7.4,0,.8-.2,1.2-.3.5-.5,1.2-1,1.8-1.5h0ZM36.9,820.4h-.6c-.3.3-.7.6-1,.9.2,0,.3,0,.5-.2.4-.2.8-.5,1.1-.8h0ZM99,744.2c-.3.4-.7.9-1,1.3,29.9-5.7,61-5.4,88.1,3.9,28.4,9.8,57.7,24.5,86.2,39,56.7,28.6,110.4,55.7,147.8,39-37.3,11.6-88.5-14.2-142.4-41.4-28.5-14.4-57.8-29.2-86.1-38.9-28.4-9.8-61.2-9.6-92.6-2.9h0ZM100.9,741.8c-.3.4-.7.8-1,1.3,31.2-6.5,63.8-6.6,92.1,3.2,28.4,9.8,57.7,24.5,86.2,39,56.7,28.6,110.4,55.7,147.8,39-37.3,11.6-88.5-14.2-142.4-41.4-28.5-14.4-57.8-29.2-86.1-38.9-29.7-10.4-64.1-9.6-96.6-2.2h0ZM102.8,739.6c-.3.4-.7.8-1,1.2,32.3-7.3,66.5-7.9,96,2.3,28.4,9.8,57.7,24.5,86.2,39,55.6,28,108.3,54.7,145.6,39.9.2-.2.4-.3.6-.5-37.1,10.4-87.7-15.1-140.8-41.9-28.5-14.4-57.8-29.2-86.1-38.9-30.8-10.7-66.9-9.5-100.5-1.1h0ZM104.8,737.4c-.3.4-.7.7-1,1.1,33.5-8.1,69.2-9.2,99.9,1.4,28.4,9.8,57.7,24.5,86.2,39,54,27.3,105.4,53.2,142.4,41.1.4-.3.7-.6,1.1-.9-36.9,8.5-86.3-16.4-138.1-42.6-28.5-14.4-57.8-29.2-86.1-38.9-32-11.2-69.7-9.5-104.4-.2h0ZM106.8,735.2c-.3.3-.6.6-.9,1,34.5-8.9,71.8-10.5,103.6.5,28.4,9.8,57.7,24.5,86.2,39,52.4,26.5,102.4,51.7,139.2,42,.4-.4.9-.8,1.3-1.3-36.5,6.5-84.6-17.8-135-43.2-28.5-14.4-57.8-29.2-86.1-38.9-33.3-11.5-72.5-9.2-108.3.9ZM109,733.1c-.3.3-.6.6-.9.9,35.5-9.8,74.3-11.8,107.3-.5,28.4,9.8,57.7,24.5,86.2,39,50.9,25.7,99.4,50.1,135.8,42.8l1.5-1.5c-36.1,4.6-82.9-19-131.8-43.7-28.5-14.4-57.8-29.2-86.1-38.9-34.5-12-75.2-9.2-112,1.9h0ZM111.2,731c-.3.3-.5.5-.8.8,36.5-10.7,76.8-13.2,110.8-1.5,28.4,9.8,57.7,24.5,86.2,39,49.3,24.9,96.3,48.6,132.3,43.4.5-.6,1-1.2,1.5-1.8-35.6,2.8-81-20.1-128.4-44-28.5-14.4-57.8-29.2-86.1-38.9-35.3-12.2-77.3-8.9-114.8,2.9h-.7ZM113.5,728.9l-.7.6c37.4-11.5,79.2-14.7,114.3-2.6,28.4,9.8,57.7,24.5,86.2,39,47.7,24.1,93.3,47.1,128.8,43.8.5-.7,1-1.3,1.5-2-35.1,1.1-79-21.1-124.9-44.2-28.5-14.4-57.8-29.2-86.1-38.9-35.3-12.2-77.3-8.9-114.8,2.9-1.4.5-2.9,1-4.3,1.4h0ZM115.8,726.9l-.6.5c.8-.3,1.6-.5,2.4-.7,37.7-11.8,79.9-15.1,115.4-2.9,28.4,9.8,57.7,24.5,86.2,39,46,23.2,90.2,45.5,125.2,44.1.5-.7,1-1.5,1.5-2.2-34.4-.5-76.9-21.9-121.2-44.3-28.5-14.4-57.8-29.2-86.1-38.9-35.3-12.2-77.3-8.9-114.8,2.9-2.8.8-5.4,1.6-8,2.5h0ZM118.2,725l-.5.4c1.9-.6,3.8-1.3,5.7-1.9,37.7-11.8,79.9-15.1,115.4-2.9,28.4,9.8,57.7,24.5,86.2,39,44.4,22.4,87,43.9,121.4,44.1.5-.8,1-1.6,1.5-2.4-33.7-1.9-74.8-22.6-117.4-44.1-28.5-14.4-57.8-29.2-86.1-38.9-35.3-12.2-77.3-8.9-114.8,2.9-3.9,1.1-7.7,2.4-11.4,3.8h0ZM120.6,723.1l-.3.2c2.9-1,5.9-2,8.9-3,37.7-11.8,79.9-15.1,115.4-2.9,28.4,9.8,57.7,24.5,86.2,39,42.8,21.6,83.9,42.3,117.6,44,.5-.9,1-1.7,1.6-2.6-33-3.1-72.6-23.1-113.7-43.8-28.5-14.4-57.8-29.2-86.1-38.9-35.3-12.2-77.3-8.9-114.8,2.9-5,1.5-10,3.2-14.8,5.1h0ZM123.1,721.2h0c3.9-1.4,7.9-2.8,12-4.1,37.7-11.8,79.9-15.1,115.4-2.9,28.4,9.8,57.7,24.5,86.2,39,41.2,20.8,80.9,40.8,113.8,43.8.6-.9,1.2-1.8,1.9-2.7-32.3-4.1-70.6-23.4-110.3-43.5-28.5-14.4-57.8-29.2-86.1-38.9-35.3-12.2-77.3-8.9-114.8,2.9-6.2,1.9-12.2,4-18.1,6.4h0ZM485.3,766c-29.1-7-62.2-23.6-96.3-40.9-28.5-14.4-57.8-29.2-86.1-38.9-35.3-12.2-77.3-8.9-114.8,2.9-6.3,2-12.5,4.2-18.4,6.6,4-1.5,8.2-2.9,12.3-4.2,37.7-11.8,79.9-15.1,115.4-2.9,28.4,9.8,57.7,24.5,86.2,39,34.5,17.4,67.9,34.3,97.2,41,1.4-.9,2.9-1.8,4.5-2.6h0ZM487.3,766.5h0c-1.3.9-2.6,1.8-3.8,2.7h.4c1.1-.9,2.3-1.8,3.4-2.7ZM488.9,766.8h-.5c-1.2.9-2.3,1.8-3.4,2.8.3,0,.6,0,.9.2,1-1,2-1.9,3-2.9h0ZM491,767.2l-1-.2c-1,.9-2.1,1.9-3.1,2.8.4,0,.9.2,1.3.2.9-.9,1.8-1.8,2.8-2.8h0ZM493.4,767.7c-.5,0-.9-.2-1.4-.2-.9.9-1.9,1.9-2.7,2.8.6,0,1.1.2,1.7.3.7-1,1.5-2,2.4-2.9h0ZM496.1,768.1c-.6,0-1.2-.2-1.8-.3-.8.9-1.6,1.9-2.4,2.8.7,0,1.4.2,2.1.3.7-.9,1.4-1.8,2.1-2.8h0ZM499.2,768.6c-.7,0-1.4-.2-2.1-.3-.7.9-1.4,1.8-2.1,2.8.8,0,1.6.2,2.4.2.6-.9,1.2-1.8,1.8-2.7h0ZM502.7,769c-.8,0-1.6-.2-2.5-.3-.6.9-1.2,1.8-1.8,2.7.9,0,1.8,0,2.7.2.5-.9,1-1.8,1.6-2.6h0ZM506.4,769.3c-.9,0-1.8,0-2.8-.2-.5.8-1.1,1.7-1.6,2.6h2.8c.6-.9,1.1-1.7,1.6-2.5h0ZM510.2,769.4h-2.8c-.5.8-1,1.6-1.4,2.4h2.7c.5-.7,1-1.5,1.5-2.2v-.2ZM513.9,769.4h-2.6c-.5.7-1,1.5-1.4,2.2.9,0,1.7,0,2.5-.2.4-.7,1-1.3,1.5-2ZM517.4,769.2h-2.4c-.5.7-1,1.3-1.4,1.9.8,0,1.6-.2,2.3-.3.5-.5,1-1.1,1.5-1.7h0ZM520.8,768.8c-.7,0-1.5.2-2.2.2-.5.6-.9,1.1-1.4,1.7.7,0,1.4-.2,2.1-.4.5-.4,1-1,1.5-1.5h0ZM524,768.3c-.6,0-1.3.2-1.9.3-.4.5-.8.9-1.3,1.4.6,0,1.2-.3,1.8-.4.6-.4,1-.8,1.4-1.3ZM527.1,767.7c-.5,0-1,.2-1.5.3-.3.4-.7.7-1,1,.5,0,.9-.3,1.4-.4.3-.3.7-.6,1.1-.9h0ZM529.8,767c-.3,0-.6.2-.8.2l-.6.6c.3,0,.6-.2.8-.3.2-.2.4-.3.6-.5ZM595.3,708.3c-1.5.5-2.9,1.1-4.4,1.7h0c1.5-.4,3-.9,4.5-1.4v.9c-2.3.8-4.6,1.6-6.9,2.5-.2,0-.3.2-.5.4,2.5-.8,4.9-1.6,7.4-2.3v.9c-3.1.9-6.3,1.9-9.4,3-.2.2-.5.4-.7.6,3.4-1.1,6.7-2,10.1-2.8v.9c-3.9,1-7.8,2.1-11.8,3.4-.3.3-.6.5-.8.8,4.2-1.2,8.5-2.3,12.6-3.1v.9c-4.6,1-9.3,2.2-14.1,3.6-.3.3-.6.6-1,.9,5.1-1.4,10.1-2.4,15-3.3v.9c-5.3,1-10.7,2.2-16.3,3.7-.3.3-.7.7-1,1.1,5.9-1.4,11.7-2.5,17.3-3.4v.9c-5.9.9-12.1,2.1-18.4,3.7-.4.4-.7.8-1.1,1.2,6.8-1.5,13.3-2.6,19.4-3.3v.9c-6.4.8-13.3,1.9-20.4,3.5-.4.4-.7.9-1.1,1.3,7.6-1.5,14.9-2.5,21.5-3.1v.9c-6.9.7-14.4,1.7-22.3,3.3-.4.5-.7.9-1.1,1.4,8.5-1.5,16.5-2.4,23.4-2.9v.9c-7.2.5-15.4,1.4-24.2,3-.4.5-.7,1-1.1,1.5,9.4-1.5,18.1-2.2,25.3-2.5v.9c-7.3.3-16.3,1.1-26,2.6-.4.5-.7,1.1-1.1,1.6,10.5-1.5,19.9-2,27-2.1v.9c-7.2,0-16.9.7-27.6,2.2-.4.6-.7,1.1-1,1.7,11.9-1.4,22.1-1.6,28.7-1.6v.9c-6.6,0-17.1.2-29.3,1.6-.4.6-.7,1.2-1.1,1.8,14.6-1.5,26-1.2,30.3-1v.9c-4.4-.2-16.1-.5-30.9,1-.4.7-.8,1.3-1.3,1.9,16.6-1.4,28.2-.5,28.3-.5h.2s1.4.6,3.8,1.6v.9c-2.3-1-3.8-1.6-4.1-1.7-1.1,0-12.6-.8-28.7.5-.5.7-.9,1.4-1.4,2,14.5-.9,24.4-.2,24.5-.2h.2s3.6,1.6,9.6,4v.9c-5.8-2.4-9.4-4-9.9-4.2-1,0-10.9-.7-25,.2-.5.7-1.1,1.4-1.7,2.1,12.6-.6,20.9,0,21,0h.2s6,2.6,15.5,6.4v.9c-9.3-3.6-15.2-6.2-15.8-6.5-.9,0-9.3-.6-21.6,0-5.8,6.9-12.4,11.8-19.5,15.2-1.9,1.2-3.9,2.3-5.8,3.2-1.9,1.2-3.9,2.3-5.8,3.2-1.9,1.2-3.9,2.3-5.9,3.2-1.9,1.2-3.9,2.3-5.8,3.2-1.9,1.2-3.9,2.3-5.9,3.2-1.9,1.2-3.9,2.3-5.9,3.2-1.9,1.2-3.9,2.3-5.9,3.2-1.9,1.2-3.9,2.3-5.9,3.2-1.9,1.2-3.9,2.3-5.9,3.2-1.9,1.2-3.9,2.3-5.9,3.2-1.9,1.2-3.9,2.3-5.9,3.2-1.9,1.2-3.9,2.3-5.9,3.2-1.9,1.2-3.9,2.3-5.9,3.2-1.9,1.2-3.9,2.3-5.9,3.2-1.9,1.2-3.9,2.3-5.9,3.2-1.9,1.2-3.9,2.3-5.9,3.2-1.9,1.2-3.9,2.3-5.9,3.2-1.9,1.2-3.9,2.3-5.9,3.2-1.9,1.2-3.9,2.3-5.9,3.2-37.8,23.8-94.9-5-155.2-35.5-28.5-14.4-57.8-29.2-86.1-38.9-27.2-9.4-58.5-9.5-88.5-3.7-1.2,1.7-2.3,3.4-3.3,5.1-.7,1.3-1.8,3.3-3.2,5.9-8.3,15.8-27.5,52.2-48.8,61.3-1.9,1.3-3.9,2.4-5.9,3.2-1.9,1.3-3.9,2.4-5.9,3.2-1.9,1.3-3.9,2.4-5.9,3.2-1.9,1.3-3.9,2.4-5.9,3.2-1.9,1.3-3.9,2.4-5.9,3.2-1.9,1.3-3.9,2.4-5.9,3.2-1.9,1.3-3.9,2.4-5.9,3.2-.4.2-.7.5-1.1.7v-2.8H0c.7-.7,1.5-1.3,2.2-2H.7c-.5.6-1,1.1-1.5,1.6v-1.2l.5-.5h-.5v-.9c.4,0,.8,0,1.2.2.9-.9,1.7-1.9,2.6-2.9-.6-.2-1.1-.3-1.7-.5-.7.9-1.4,1.7-2,2.6v-1.4c.4-.5.8-1,1.2-1.5-.4-.2-.8-.3-1.2-.5v-1c.6.3,1.2.6,1.8.8.9-1.2,1.9-2.5,2.8-3.7-.6-.3-1.2-.7-1.8-1.1-.9,1.3-1.8,2.6-2.7,3.9v-1.7c.7-1,1.3-1.9,2-2.9-.6-.4-1.2-.9-1.8-1.4l.5.3v-1.6c1-1.6,2-3.2,2.9-4.8-.6-.6-1.2-1.3-1.8-2-.4.6-.7,1.3-1.1,1.9v-1.8l.5-.9c-.2-.2-.3-.4-.5-.6v-1.4c.3.4.6.8,1,1.2,1.1-1.9,2.1-3.8,3-5.5-.6-.8-1.2-1.7-1.8-2.6-.7,1.3-1.4,2.7-2.3,4.2v-1.9c.6-1.1,1.2-2.2,1.7-3.2-.6-.9-1.1-1.8-1.7-2.8v.2c0-.3,0-2.2,0-2.2h.1c1.1-1.7,2.3-3.6,3.7-5.4-.3-.5-.6-1.1-.8-1.7-1,1.2-2,2.4-2.9,3.5v-1.4c.8-1,1.6-2,2.5-3-.2-.4-.4-.8-.6-1.2-.7.7-1.3,1.3-1.9,2v-1.3c.5-.5,1-1.1,1.6-1.6-.1-.3-.2-.5-.4-.8-.4.4-.8.7-1.2,1.1v-1.2c.3-.2.5-.5.8-.7l-.2-.5L0,790v-1.1l.3-.2L0,788v-2.2c.3.8.6,1.6,1,2.3,8.6-6.8,18.5-13.3,29.5-19,1.9-1.1,3.9-2.2,5.9-3.2,1.9-1.1,3.9-2.2,5.9-3.2,1.9-1.1,3.9-2.2,5.9-3.2,1.9-1.1,3.9-2.2,5.8-3.2,1.9-1.1,3.9-2.2,5.9-3.2,1.9-1.1,3.9-2.2,5.9-3.2,1.9-1.1,3.9-2.2,5.8-3.2,1.9-1.1,3.9-2.2,5.9-3.2,1.9-1.1,3.9-2.2,5.9-3.2,1.9-1.1,3.9-2.2,5.8-3.2,1.9-1.1,3.9-2.2,5.9-3.2,1.9-1.1,3.9-2.2,5.9-3.2,1.9-1.1,3.9-2.2,5.8-3.2,1.9-1.1,3.9-2.2,5.9-3.2,1.9-1.1,3.9-2.2,5.9-3.2,1.9-1.1,3.9-2.2,5.9-3.2,1.9-1.1,3.9-2.2,5.9-3.2,1.9-1.1,3.9-2.2,5.8-3.2,1.9-1.1,3.9-2.2,5.9-3.2,13.9-7.9,29.5-14.7,46.1-19.9,37.7-11.8,79.9-15.1,115.4-2.9,28.4,9.8,57.7,24.5,86.2,39,34.4,17.4,67.8,34.2,97.1,41,.3-.2.6-.3.9-.5,1.9-1.1,3.9-2.2,5.9-3.2,1.9-1.1,3.9-2.2,5.8-3.2,1.9-1.1,3.9-2.2,5.9-3.2,1.9-1.1,3.9-2.2,5.9-3.2,1.9-1.1,3.9-2.2,5.8-3.2,1.9-1.1,3.9-2.2,5.9-3.2,1.9-1.1,3.9-2.2,5.9-3.2,1.9-1.1,3.9-2.2,5.9-3.2,1.9-1.1,3.9-2.2,5.8-3.2,1.9-1.1,3.9-2.2,5.9-3.2,1.9-1.1,3.9-2.2,5.9-3.2,1.9-1.1,3.9-2.2,5.8-3.2,1.9-1.1,3.9-2.2,5.9-3.2,1.9-1.1,3.9-2.2,5.8-3.2,1.9-1.1,3.9-2.2,5.9-3.2,1.9-1.1,3.9-2.2,5.8-3.2,1.9-1.1,3.9-2.2,5.9-3.2,1.9-1.1,3.9-2.2,5.9-3.2.8-.5,1.7-1,2.6-1.4v2.3h-.7Z"/>
  </g>
  <g class="st1">
    <text class="st0" transform="translate(26 667.6) rotate(-90)"><tspan x="0" y="0">IMP0093 v1</tspan></text>
  </g>
</svg>