<?xml version="1.0" encoding="UTF-8"?><svg id="b" xmlns="http://www.w3.org/2000/svg" viewBox="0 0 186.81 93.78"><g id="c"><g><g><g><polygon points="0 55.67 3.96 55.67 3.96 92.05 0 92.05 0 93.24 13.87 93.24 13.87 92.05 9.91 92.05 9.91 55.67 13.87 55.67 13.87 54.49 0 54.49 0 55.67" fill="#231f20"/><polygon points="39.33 55.67 43.67 55.67 43.67 81.99 38.86 74.46 36.23 72.54 32.75 75.07 34.09 70.99 30.61 68.47 34.91 68.48 34.95 68.35 26.08 54.49 15.79 54.49 15.79 55.67 20.02 55.67 20.02 92.05 15.84 92.05 15.84 93.24 25.76 93.24 25.76 92.05 21.42 92.05 21.42 57.82 44.64 93.78 45.17 93.78 45.17 55.67 49.36 55.67 49.36 54.49 39.33 54.49 39.33 55.67" fill="#231f20"/><path d="M91.11,76.98c-.77-1.4-1.79-2.49-3.06-3.26-1.27-.77-2.65-1.44-4.15-1.99-1.5-.56-3-1.07-4.51-1.53s-2.9-1.01-4.17-1.62c-1.27-.61-2.29-1.44-3.06-2.5-.77-1.06-1.16-2.36-1.16-3.9,0-2.12,.78-3.85,2.35-5.19,1.57-1.35,3.44-2.02,5.62-2.02,2.43,0,4.62,.97,6.57,2.91,1.95,1.94,2.93,4.34,2.93,7.21v1.08h1.21v-11.68h-1.11v1.13c0,1.08-.33,1.61-1,1.61-.32,0-.74-.21-1.27-.65-2.25-1.76-4.68-2.64-7.29-2.64-3.38,0-6.26,1.11-8.63,3.34-2.38,2.22-3.56,4.88-3.56,7.97,0,1.72,.29,3.23,.87,4.52,.58,1.29,1.35,2.3,2.3,3.01,.95,.72,2.03,1.36,3.25,1.94,1.21,.57,2.45,1.03,3.72,1.37,1.27,.34,2.51,.75,3.72,1.24,1.21,.48,2.3,1.01,3.25,1.56,.95,.56,1.72,1.35,2.3,2.39,.58,1.04,.87,2.26,.87,3.66,0,2.05-.78,3.85-2.35,5.41-1.57,1.56-3.58,2.34-6.05,2.34-2.78,0-5.3-.92-7.55-2.77-2.25-1.85-3.38-4.24-3.38-7.19v-.65h-1.16l.05,11.14h1.16v-1.99c0-.97,.26-1.45,.79-1.45,.28,0,.62,.16,1,.48,.85,.65,1.54,1.16,2.09,1.53,.55,.38,1.5,.8,2.85,1.26,1.36,.47,2.77,.7,4.25,.7,3.77,0,6.95-1.14,9.56-3.42,2.6-2.28,3.91-5.05,3.91-8.32,0-1.97-.39-3.66-1.16-5.06Z" fill="#231f20"/><g><polygon points="53.89 92.05 49.93 92.05 49.93 93.24 63.8 93.24 63.8 92.05 59.84 92.05 59.84 61.21 53.89 61.21 53.89 92.05" fill="#231f20"/><rect x="54.67" y="56.07" width="4.4" height="4.4" fill="#231f20"/></g></g><g><circle cx="56.74" cy="26.28" r="24.6" fill="none" stroke="#231f20" stroke-miterlimit="10" stroke-width="3.37"/><circle cx="56.74" cy="26.28" r="23.62" fill="#d2a741" stroke="#fff" stroke-miterlimit="10" stroke-width=".96"/><path d="M54.98,7.03c10.2-1.26,19.49,5.98,20.76,16.18" fill="none" stroke="#fff" stroke-linecap="round" stroke-linejoin="round" stroke-width="1.44"/><g><path d="M40.66,41.28h.02s.02,0,.02,0l-.1-.22-.02-.08-.02-.2v-.11s-.01-.06-.01-.06l-.03-.04-.05-.02-.04,.02-.03,.04v.04s0,.06,0,.06l.17,.46,.08,.1h.02Zm32.43-14.48l.03-.04,.08-.06,.03-.04v-.03s-.12-.26-.12-.26v-.07s0-.38,0-.38h-.05s-.02-.05-.02-.05v-.1s.01-.15,.01-.15v-.05s.03-.05,.03-.05v-.04s-.06-.08-.06-.08l-.02-.05-.02-.13-.05,.02-.02,.05v.06s-.03,.05-.03,.05l-.02,.02-.06,.03-.02,.02-.02,.03-.02,.06-.02,.03-.09,.03-.11-.02-.11-.03h-.1s-.1,0-.1,0h-.09s-.22-.07-.22-.07l-.17-.05h-.1s-.11,0-.11,0l-.11,.03-.18,.1-.29,.16-.22,.04-.27,.05h-.12l-.1-.02-.05-.02-.1-.07-.05-.03h-.06s-.06,.03-.06,.03l-.06,.04-.06,.03-.1,.02h-.1s-.1-.04-.1-.04l-.1-.04-.2-.08h-.1s-.08,.23-.08,.23l-.08,.07-.27,.09-.04,.03-.12,.12-.05,.03h-.07s.04-.11,.04-.11v-.11s-.02-.24-.02-.24l-.02-.05-.04-.08v-.05s-.02-.01-.02-.01l-.04-.03h0v-.12l-.06-.19-.02-.04v-.04s.04-.06,.04-.06l.06-.06,.05-.03,.11-.05,.07-.02h.05s.03-.03,.03-.03v-.05s0-.1,0-.1h0s.01-.02,.01-.02l-.04-.07v-.09s0-.11,0-.11v-.11s-.03-.06-.03-.06l-.03-.04-.03-.04v-.06s.01-.06,.01-.06l.06-.1v-.04s.02-.03,.02-.03v-.05s.02-.03,.02-.03v-.03s-.05-.05-.05-.05l-.02-.08-.06-.11-.05-.13-.06-.12-.05-.12,.02-.09v-.03s-.04-.11-.04-.11l-.05-.15-.02-.09-.02-.06-.04-.04-.1-.06-.04-.04h-.03s-.02,0-.02,0h-.02s-.03,0-.03,0l-.15-.18-.03-.07v-.09s-.02,0-.02,0l-.04,.02h-.02s-.04-.09-.04-.09l-.17-.18-.07-.1-.03-.11-.03-.23-.03-.11-.02-.03-.04-.05v-.03s0-.03,0-.03l.03-.05,.02-.09,.08-.17,.03-.11v-.11s-.03-.27-.03-.27l.04-.31v-.14s.02-.21,.02-.21l.03-.06,.02-.09,.02-.02,.03-.17,.03-.19,.03-.08,.05-.09h-.02s-.01,0-.01,0h0s-.01-.01-.01-.01l.06-.2v-.12s-.01-.11-.01-.11l-.06-.1-.03-.07v-.03s.05-.02,.05-.02l-.03-.05-.08-.08-.02-.05-.03-.13v-.11s-.01-.04-.01-.04l-.02-.04-.07-.08-.03-.05-.02-.05v-.06s-.02-.03-.02-.03l-.08-.05-.03-.02v-.05s-.02-.18-.02-.18v-.03s.05-.05,.05-.05v-.03s0-.03,0-.03l-.02-.07,.02-.12v-.04s.04-.08,.04-.08l.02-.06,.03-.1,.03-.09,.03-.09v-.05s.01-.02,.01-.02l.04-.04v-.02s0-.1,0-.1v-.03s-.02-.01-.02-.01v-.02s0-.03,0-.03v-.03s.03-.05,.03-.05v-.03s0-.02,0-.02l-.03-.02v-.02s0-.01,0-.01v-.02s.02-.02,.02-.02v-.03s-.02-.02-.02-.02l-.02-.02-.02-.03h0s.01-.03,.01-.03v-.02s0-.02,0-.02v-.02s-.07-.13-.07-.13l-.02-.02h-.02s-.02-.02-.02-.02h-.01s0-.02,0-.02h-.05s-.09,0-.09,0h-.19s-.19,0-.19,0h-.19s-.19,0-.19,0h-.19s-.19,0-.19,0h-.19s-.19,0-.19,0h-.19s-.19,0-.19,0h-.19s-.19,0-.19,0h-.19s-.19,0-.19,0h-.19s-.19,0-.19,0h-.12s0-.13,0-.13v-.13s.01-.12,.01-.12l.06-.14,.04-.11,.07-.19,.06-.16h-.15s-.23,0-.23,0h-.22s-.14,0-.14,0h-.03s-.02,.02-.02,.02l-.02,.04v.04s-.02,.09-.02,.09v.04h-2.05l.05,.11v.03s-.01,.04-.01,.04l-.07,.09-.03,.05-.03,.09-.03,.43v.08s.03,.09,.03,.09l.07,.18v.08s-.08,.06-.08,.06h0s0,0,0,0h0s-.04,.05-.04,.05l-.03,.1-.04,.04h-.05s-.18,0-.18,0v.07s.02,.07,.02,.07l.03,.07,.02,.07v.06s0,.07,0,.07l-.05,.16-.03,.08-.04,.12v.08s0,.07,0,.07l.06,.21h-1.54l-.04-.06-.02-.03v-.07s-.04-.01-.04-.01h-.59s-.03,.02-.03,.02v.05s0,.1,0,.1h-.05s-.02,0-.02,0h-.16s-.04,0-.04,0l-.06,.03h-.04s-.03,0-.03,0l-.1-.04h-.13s-.2-.01-.2-.01h-.04s-.11,.06-.11,.06h-.04s-.05,.04-.05,.04l-.03,.06v.07s.01,.07,.01,.07h-.24s-.07-.01-.07-.01l-.14-.11-.08-.04h-.09s-.04,0-.04,0l-.16,.09h-.03s-.09-.03-.09-.03h-.08s-.22,.07-.22,.07h-.07s-.15-.04-.15-.04l-.02-.02-.02-.04,.03-.08v-.05s-.03-.02-.03-.02l-.06-.03-.03-.02v-.03s-.04-.08-.04-.08h-.01s-.02,.03-.02,.03h0s0,0,0,0h0s0-.02,0-.02v-.02s-.04-.03-.04-.03l-.02-.02v-.02s0-.04,0-.04l.03-.02v-.02s-.02-.03-.02-.03h-.04s0,0,0,0v-.03s0-.03,0-.03h-.03s-.04,0-.04,0h-.02s.02-.03,.02-.03v-.02h-.05s-.01-.02-.01-.02v-.03s0-.02,0-.02h-.03s-.06-.02-.06-.02h-.01s-.01-.04-.01-.04l-.05-.04v-.03s0-.02,0-.02l.02-.03v-.02s-.05-.02-.05-.02h.01s0-.02,0-.02v-.02s-.04,.02-.04,.02v-.04s0-.06,0-.06v-.04s0-.05,0-.05l-.05-.04-.13-.06-.04-.06-.04-.13-.04-.06-.02-.02-.02-.02-.02-.02v-.03s0-.03,0-.03h.03s.03-.03,.03-.03v-.02s0-.02,0-.02h-.02s-.06-.03-.06-.03h-.02s-.02-.02-.02-.02h-.02s-.02,.04-.02,.04l-.04-.02-.02-.04v-.09s-.01-.04-.01-.04l-.03-.03-.07-.03-.09-.06-.07-.02v-.03s-.01-.04-.01-.04v-.04s-.05-.06-.05-.06l-.03-.03-.03-.02v-.02s0-.14,0-.14l-.05-.17v-.07s.09,.02,.09,.02v-.06s.02-.05,.02-.05v-.04s-.01-.05-.01-.05v-.02s-.03-.02-.03-.02l-.02-.02h-.03s-.02-.02-.02-.02v-.05s.01-.01,.01-.01l-.02-.15-.03-.06-.06-.04h-.03s-.06-.01-.06-.01h-.03s-.03-.04-.03-.04v-.04s-.02-.04-.02-.04v-.04s-.16-.2-.16-.2l-.02-.04v-.05s-.02-.1-.02-.1v-.05s-.05-.09-.05-.09v-.04s0-.05,0-.05l.03-.06v-.03s-.02-.03-.02-.03l-.03-.03-.02-.02v-.03s.02-.04,.02-.04h-.06v-.03l.02-.04,.02-.03v-.03s-.02,0-.02,0h-.02s-.02,0-.02,0v-.02s-.02,0-.02,0v-.1s.01-.03,.01-.03h.02s.02-.01,.02-.01h.02s0-.04,0-.04v-.03s-.01-.02-.01-.02v-.02s0-.19,0-.19v-.04s.03-.03,.03-.03v-.03s-.02-.04-.02-.04l-.05-.05v-.04s-.04-.02-.04-.02h-.04s-.03-.03-.03-.03l-.04-.06-.03-.02h-.05s.06-.07,.06-.07v-.03s-.03,0-.03,0h-.03s-.01,.01-.01,.01v-.03s-.02-.17-.02-.17v-.02s-.02-.03-.02-.03l-.03-.03v-.02l.04-.04v-.02s-.09-.05-.09-.05h-.02s-.1-.05-.1-.05h-.05s-.05-.01-.05-.01h-.05s-.09,.03-.09,.03h-.04s-.04,0-.04,0l-.06-.03-.04-.03-.05-.03h-.07s-.16-.01-.16-.01h-.24s-.24,0-.24,0h-.24s-.24,0-.24,0h-.24s-.24,0-.24,0h-.24s-.24,0-.24,0h-.24s-.24,0-.24,0h-.24s-.24,0-.24,0h-.24s-.24,0-.24,0h-.24s-.24,0-.24,0h-.25s-.34,.07-.34,.07h-.08s-.17-.05-.17-.05l-.12,.02h-.24s-.28-.01-.28-.01h-.05s-.16-.06-.16-.06h-.06s-.31,.02-.31,.02h-.04s-.06-.05-.06-.05l-.1-.03-.36,.03-.44,.04-.21-.02h-.03s-.05,.03-.05,.03h-.03s-.08-.02-.08-.02h-.21s-.09,0-.09,0h-.02s-.05,.07-.05,.07l-.03,.02-.08-.04-.11-.03-.22-.02h-.04s-.11,.07-.11,.07l-.05,.02h-.03s-.11-.03-.11-.03h-.03s-.07,.01-.07,.01h-.05s-.04,0-.04,0h-.04s-.04,.03-.04,.03l-.03,.03-.04,.08-.03,.04-.03,.03-.22,.11h-.04s-.17,.02-.17,.02l-.04,.02h-.05s-.04-.03-.04-.03h-.04s-.03,0-.03,0l-.06,.06h-.03s-.15,.01-.15,.01h-.02s-.02,.01-.02,.01l-.03,.03h-.01s-.04,0-.04,0h-.02s-.25,.07-.25,.07h-.14s-.08,.04-.08,.04h-.04s-.04,.02-.04,.02l-.07,.05h-.04s0,0,0,0h.05s0-.04,0-.04l-.06-.05h.04s.03-.02,.03-.02l.03-.02,.03-.02h-.1s-.06,.06-.06,.06v.07s.04,.08,.04,.08l.21,.24,.02,.04,.03,.12,.07,.13,.03,.12,.14,.22,.22,.44,.21,.19,.23,.29,.19,.27,.05,.02,.08-.05v.02s.01,0,.01,0h0s0,.04,0,.04h0s-.02,.03-.02,.03h0s0,.02,0,.02h0s0,.02,0,.02v.04s.03,.08,.03,.08l.04,.53,.02,.08,.03,.07,.03,.04,.06,.07,.03,.04,.23,.63,.34,.81,.18,.31,.02,.12,.05,.1,.02,.03,.03,.07,.02,.03,.02,.05,.04,.12,.03,.02,.24,.38,.03,.06v.06s0,.2,0,.2v.03s-.03,.03-.03,.03h-.02s-.03,0-.03,0h-.04s.03,.09,.03,.09l.03,.18,.03,.08,.08,.11v.04s0,.04,0,.04l-.04,.1-.03,.14-.06,.02-.16-.02h-.02s-.01,.01-.01,.01h0s0,.03,0,.03v.03s-.02,.01-.02,.01h-.02s-.05,.04-.05,.04l-.09,.04-.04,.02,.03-.05,.13-.13-.05,.02-.05,.04-.08,.09v.03s0,.06,0,.06v.03s-.02,.03-.02,.03l-.07,.07-.03,.05-.03,.09-.04,.04h-.03s-.04,0-.04,0h-.03s-.01,.04-.01,.04v.03s-.15,.25-.15,.25l-.03,.02-.03-.03,.02-.07,.1-.22,.19-.16,.06-.09-.13,.06-.15,.18-.1,.21v.15s.07,.08,.07,.08l.08,.18,.2,.33,.06,.05v.06s.06,.09,.06,.09v.04s0,.12,0,.12v.05s.09,.25,.09,.25v.03s.02,.02,.02,.02l.02,.04,.02,.05v.05s-.01,.05-.01,.05l-.06,.06v.05s0,.05,0,.05l.21,.25,.07,.11,.06,.12,.02,.11-.02,.06-.03,.04v.04s.15,.25,.15,.25l.1,.11,.04,.05,.03,.13,.03,.06,.14,.2,.02,.06v.06s.01,.18,.01,.18v.05s.05,.05,.05,.05l.17,.14,.25,.3v.03s.03,.03,.03,.03l.11,.09,.03,.04,.02,.04v.04s-.09,.1-.09,.1l-.02,.05v.05s.02,.05,.02,.05l.24,.35,.04,.09v.1s.01,.2,.01,.2v.16s-.07,.38-.07,.38v.11s-.06,.07-.06,.07v.03s-.02,.03-.02,.03v.15s0,.03,0,.03v.03s-.01,.03-.01,.03l.02,.02-.02,.05v.06s-.02,.29-.02,.29l.04,.49v.06s-.03,.08-.03,.08l-.04,.27-.02,.06-.03,.05-.03,.04-.04,.04-.02,.04-.03,.19-.03,.09-.08,.16-.06,.21-.03,.04-.09,.09-.05,.09-.04,.04v-.03s0-.02,0-.02l.02-.02h.03v-.03h-.02l-.17,.16-.05,.08-.02,.05v.05s-.02,.11-.02,.11v.04s-.03,.03-.03,.03l-.06,.04-.12,.13-.08,.06-.09,.02h-.04s-.05-.05-.05-.05h-.05s-.03,0-.03,0l-.08,.08-.03-.02h-.06s0-.02,0-.02h-.05s-.05,.03-.05,.03l-.08,.07-.02,.02-.05,.08-.02,.02-.07,.04-.17,.17-.06,.04-.12,.13-.03,.07,.02,.09,.04,.08,.03,.07v.07s-.04,.07-.04,.07l-.16,.19-.05,.07-.03,.03-.08,.05-.17,.22-.03,.02-.05,.02h0s-.05,.04-.05,.04h-.01s-.02-.01-.02-.01h-.01s0,.03,0,.03l-.02,.03-.07,.04-.02,.04v.02s-.03,.03-.03,.03v.02s0,.02,0,.02v.02s.01,.02,.01,.02v.03s-.02,.05-.02,.05l-.03,.02h-.03s-.04,.03-.04,.03l-.04,.04v.03s-.03,.02-.03,.02h-.05s-.04,.02-.04,.02l-.03,.03-.02,.04v.04s0,.04,0,.04l.03,.09v.04s0,.09,0,.09h0s0,.02,0,.02v.02s.03,.04,.03,.04v.04s-.05,.07-.05,.07v.03s0,.27,0,.27l-.02,.28-.02,.1-.04,.06h-.02s-.02,0-.02,0l-.04-.03h-.02s-.01,0-.01,0h-.02s-.06,.03-.06,.03l-.02,.03v.04s-.01,.1-.01,.1v.03s-.05,.07-.05,.07l-.02,.04v.04s-.02,.04-.02,.04l-.05,.06v.06s-.06,.07-.06,.07l.02,.04,.03,.04,.02,.04v.02s0,.03,0,.03v.02s-.02,.02-.02,.02h-.01s-.03,.01-.03,.01h-.02s-.01,0-.01,0h0s0,.02,0,.02v.02s.01,.03,.01,.03h0s0,.04,0,.04v.02s.02,.04,.02,.04l.03,.09v.09s0,.17,0,.17l-.03,.18-.03,.1-.04,.07v.04s-.03,.22-.03,.22l-.04,.2-.02,.06v.03s0,.05,0,.05v.05s.01,.05,.01,.05l-.05,.09-.02,.08-.02,.04h-.02s-.02,0-.02,0h-.02l-.02,.03v.02s0,.04,0,.04l-.02,.15v.04s-.04,.03-.04,.03l-.03,.03-.03,.03v.04s-.02,.1-.02,.1l-.07,.16-.03,.09v.06s0,0,0,0h.03s.04,.01,.04,.01l.02,.04v.05s0,.05,0,.05l-.02,.03h-.02l-.04-.02h-.02s-.09,.09-.09,.09l-.02,.04v.04s-.04,.32-.04,.32l-.03,.16v.08s.02,.07,.02,.07l-.03,.07-.05,.21v.08s-.04,.06-.04,.06l-.16,.1-.05,.06v.04s0,.08,0,.08v.04s-.03,.04-.03,.04l-.13,.13h-.04s-.03,0-.03,0v-.05s-.04-.02-.04-.02l-.05,.02-.06,.04-.03,.02-.04,.16,.08,.14,.1,.14,.02,.16-.06,.12v.04s-.01,.05-.01,.05l.11,1.04-.02,.29,.02,.26v.07s-.02,.22-.02,.22l-.03,.1-.08-.02,.02,.24v.08s-.06,.28-.06,.28v.36s-.02,.11-.02,.11v.04s0,.03,0,.03v.03s.04,.02,.04,.02v.02h.03s.05,.03,.05,.03h.03s.04,0,.04,0h.01s0-.03,0-.03l.02-.02,.05-.03,.11-.05,.12-.09,.11-.05,.12-.04,.12-.02h.02s.02-.01,.02-.01h.02s.03,.02,.03,.02l.09,.03h.03s.01-.02,.01-.02h.01s.02,0,.02,0h.02s0,.03,0,.03v.02s.01,.02,.01,.02h.01s.03,.03,.03,.03l.03,.02h.03s.03,.02,.03,.02v.03s.02,.03,.02,.03h0s.19,0,.19,0h.17s.04,0,.04,0l.04-.03h.03s.06,.04,.06,.04l.05,.02h.16s.09,.03,.09,.03h.03s.06-.04,.06-.04l.12-.1,.07-.02h.07s.05-.04,.05-.04l.09-.08,.12-.06,.09-.03,.02-.02,.02-.04,.02-.02h.02s.05-.02,.05-.02l.02-.02v-.02s.01-.03,.01-.03v-.03s.08-.02,.08-.02l.05-.03,.08-.02,.14-.08,.29-.05,.06-.02h.06s.05,.03,.05,.03l.03-.02h.02s.02,.04,.02,.04h.03s.06,.02,.06,.02h.03s.03,0,.03,0v.02l.07-.03h.04s.02,0,.02,0h.02s.11-.03,.11-.03l.05,.02,.09,.06h.05s.06,.02,.06,.02l.06,.02,.04,.04,.03,.11,.04,.04,.02,.04-.03,.08,.23,.13,.23,.19,.26,.14,.25,.14,.03,.03,.12,.16,.04,.03h.06s.03,0,.03,0l.04-.03h.02s.03,0,.03,0h.05s.06,.02,.06,.02h.04s.03,.01,.03,.01h.03s.04-.03,.04-.03h.02s.12,.01,.12,.01h.06s.02-.06,.02-.06h0s.89-.01,.89-.01h.68s2.04,0,2.04,0h.68s4.75,0,4.75,0h.68s1.5,0,1.5,0h.02s0,.02,0,.02v.03s.03,.01,.03,.01h.02s.04,.12,.04,.12v.03s.01,0,.01,0l.06,.02,.09,.18v.03s.04,.02,.04,.02l.14,.12v.02s.02,.05,.02,.05v.03s.04,.03,.04,.03l.05,.02,.03,.02,.15,.16,.05,.07,.04,.03,.1,.02,.24,.12,.35,.06h.22s.09-.05,.09-.05h.06s.03-.01,.03-.01l.08,.02h.12s.04,.02,.04,.02l.42,.13h.45s.15-.04,.15-.04h.06s.05,0,.05,0l.02,.05,.02,.02,.05,.03,.06,.02h.04s.01-.01,.01-.01l.03-.05h.02s.42-.01,.42-.01l.1,.06,.09,.03h.03s.16-.01,.16-.01h.07s.03,0,.03,0l.04-.02,.02,.02,.04-.03,.06-.02h.07s.06,.03,.06,.03l.09-.08,.03,.02h.04s.09-.02,.09-.02h.03s.1,.1,.1,.1l.07-.02,.07,.03,.06,.05,.05,.06,.03,.02,.09,.04,.08,.06,.03,.02,.07-.02h.1s.1,0,.1,0l.04,.02,.02,.02,.04,.02h.04s.02,0,.02,0l.02-.02h.04s.08,.05,.08,.05l.06,.05h.07s.08-.03,.08-.03l.09-.02,.04-.07,.25-.07,.24-.07,.04,.02h.04s.04-.03,.04-.03h.05s.04,0,.04,0h.11s.04,0,.04,0l.12,.07,.15,.05,.08,.04,.04,.06h.01s.05,0,.05,0l.19-.04,.66-.13,.66-.13,.66-.13,.66-.13,.54-.11,.54-.11,.54-.11,.54-.11,.22-.04v-.04s-.02-.04-.02-.04l.02-.04-.06-.05-.05-.06-.05-.04-.04-.02h-.04s-.09-.02-.09-.02h-.05s-.04,.02-.04,.02h-.05s-.05,0-.05,0l-.03-.03v-.04s0-.04,0-.04v-.04s-.04-.03-.04-.03l-.12-.05-.06-.05-.06-.07-.05-.08-.02-.07-.02-.03-.11-.12-.04-.02-.13-.03-.16-.07-.07-.05-.11-.1-.08-.04-.03-.03-.03-.04-.03-.13-.04-.07-.05-.07-.12-.13-.04-.03-.16-.06h-.05s-.01-.04-.01-.04v-.07s-.04-.04-.04-.04l-.08-.03-.04-.02-.02-.03-.03-.08-.19-.3-.02-.02h-.03s-.04-.02-.04-.02h-.02s-.01-.02-.01-.02l-.02-.03-.04-.06-.02-.04-.03-.03h-.07s-.01-.02-.01-.02l-.02-.02h-.01s0,0,0,0h0s-.03,.01-.03,.01l-.04,.02h-.02s-.04-.01-.04-.01l-.23-.19-.02-.04v-.05s-.02-.04-.02-.04l-.03-.02h-.05s-.01-.03-.01-.03v-.03s0-.04,0-.04v-.04s-.06-.08-.06-.08v-.03s-.01-.05-.01-.05v-.05s.04-.05,.04-.05l.03-.04v-.03s-.04-.02-.04-.02l-.09-.02v-.02s0-.06,0-.06v-.03s-.01-.01-.01-.01l-.03-.03v-.02s-.02-.04-.02-.04v-.03s-.01-.03-.01-.03l-.03-.04h.02s.07,0,.07,0l-.09-.15-.07-.09v-.06s0-.38,0-.38h0s0-.13,0-.13v-.56s0-.28,0-.28v-1.47s0-1.23,0-1.23v-.41s0-.82,0-.82v-.41s0-1.23,0-1.23v-.41s0-.81,0-.81v-.41s5.35,0,5.35,0l-.03-.1-.04-.09-.06-.08-.14-.15-.05-.08-.02-.09,.02-.11,.05-.12,.05-.2,.05-.19,.03-.08,.12-.18,.09-.13,.02-.05v-.05s-.02-.12-.02-.12v-.16s-.04-.07-.04-.07l-.07-.07-.06-.08v-.12s0-.38,0-.38l.02-.35,.06-.13v-.03s0-.07,0-.07v-.2s-.03-.07-.03-.07l-.03-.05-.02-.05v-.12s.06-.11,.06-.11l.07-.11v-.03s.01-.04,.01-.04v-.06s0-.03,0-.03v-.03Z" fill="#fff"/><polygon points="41.4 9.64 41.44 9.64 41.46 9.67 41.48 9.65 41.52 9.59 41.53 9.58 41.57 9.58 41.59 9.6 41.59 9.62 41.59 9.65 41.57 9.67 41.53 9.71 41.51 9.72 41.48 9.73 41.46 9.73 41.45 9.71 41.42 9.7 41.37 9.7 41.34 9.71 41.34 9.74 41.45 9.94 41.58 10.12 41.73 10.41 41.79 10.57 41.81 10.7 41.85 10.75 41.89 10.85 41.9 10.88 41.9 10.96 41.89 11 41.86 11.03 41.82 11.04 41.79 11.04 41.76 11.05 41.73 11.08 41.67 11.25 41.71 11.41 41.84 11.63 41.97 11.56 42.19 11.53 42.43 11.53 42.63 11.53 42.64 11.29 42.64 11.12 42.66 10.79 42.67 10.47 42.68 10.25 42.68 10.04 42.67 9.96 42.64 9.93 42.47 9.88 42.46 9.86 42.45 9.84 42.44 9.81 42.44 9.79 42.46 9.76 42.47 9.76 42.49 9.76 42.52 9.76 42.74 9.68 42.84 9.62 42.88 9.52 42.89 9.46 42.91 9.44 43.01 9.44 43.08 9.42 43.1 9.38 43.1 9.34 43.13 9.29 43.16 9.25 43.28 9.19 43.31 9.15 43.31 9.09 43.33 9.03 43.36 8.98 43.41 8.93 43.49 8.88 44.01 8.76 44.1 8.73 44.12 8.65 44 8.59 43.83 8.38 43.72 8.3 43.67 8.24 43.62 8.12 43.58 8.06 43.54 8.04 43.51 8.04 43.48 8.06 43.44 8.07 43.4 8.06 43.33 8.02 43.3 8.01 43.23 8.04 43.2 8.11 43.18 8.17 43.15 8.21 43.1 8.24 43.06 8.27 43.02 8.31 42.96 8.42 42.93 8.45 42.89 8.47 42.6 8.52 42.42 8.58 42.38 8.58 42.3 8.57 42.28 8.61 42.28 8.72 42.27 8.78 42.16 9 42.13 9.03 42.09 9.04 42 9.05 41.96 9.06 41.93 9.08 41.9 9.1 41.87 9.04 41.85 9.01 41.82 8.99 41.79 8.99 41.78 9 41.7 9.27 41.63 9.39 41.31 9.65 41.36 9.65 41.4 9.64" fill="#fff"/></g><g><path d="M62.17,26.28l-7.5,7.5c1.06,.28,2.32,.41,3.84,.35l4.01-4.01c.06-1.51-.07-2.78-.35-3.84Z"/><path d="M52.91,21.39l-3.14,3.14c-.11,.76-.17,1.6-.14,2.46l5.73-5.73c-.86-.03-1.7,.04-2.46,.14Z"/><path d="M61.61,24.78c-.31-.63-.69-1.15-1.12-1.58l-8.79,8.8s-.09,.06-.14,.09c.45,.45,1,.84,1.65,1.16,.03-.07,.07-.14,.13-.19l8.27-8.27Z"/><path d="M56.87,21.4s-.05,.1-.09,.14l-6.98,6.98c.15,.82,.41,1.62,.84,2.35l8.62-8.62c-.74-.43-1.56-.69-2.39-.84Z"/><polygon points="40.64 41.32 40.66 41.32 40.68 41.32 40.58 41.1 40.56 41.02 40.54 40.82 40.54 40.71 40.53 40.65 40.5 40.61 40.45 40.59 40.41 40.61 40.38 40.65 40.37 40.69 40.38 40.75 40.55 41.21 40.62 41.3 40.64 41.32"/><polygon points="64.84 44.67 64.88 44.6 65.12 44.53 65.37 44.46 65.41 44.48 65.45 44.47 65.5 44.45 65.55 44.44 65.59 44.45 65.69 44.44 65.74 44.45 65.86 44.52 66.01 44.57 66.09 44.61 66.13 44.67 66.14 44.68 66.19 44.66 66.39 44.62 67.05 44.5 67.72 44.37 68.38 44.24 69.05 44.11 69.59 44.01 70.13 43.9 70.67 43.79 71.21 43.69 71.43 43.64 71.42 43.61 71.41 43.57 71.43 43.53 71.37 43.48 71.32 43.42 71.27 43.38 71.23 43.36 71.19 43.35 71.11 43.34 71.06 43.35 71.01 43.36 70.97 43.37 70.92 43.35 70.89 43.32 70.89 43.28 70.89 43.24 70.89 43.19 70.86 43.16 70.74 43.12 70.68 43.07 70.61 42.99 70.56 42.91 70.54 42.83 70.53 42.8 70.42 42.68 70.38 42.66 70.25 42.63 70.09 42.56 70.02 42.51 69.91 42.41 69.83 42.37 69.8 42.34 69.77 42.3 69.74 42.17 69.71 42.1 69.65 42.03 69.53 41.9 69.5 41.87 69.34 41.81 69.3 41.81 69.29 41.79 69.28 41.77 69.28 41.72 69.27 41.7 69.24 41.66 69.16 41.64 69.12 41.62 69.09 41.58 69.07 41.5 68.87 41.2 68.85 41.17 68.83 41.16 68.79 41.15 68.77 41.14 68.76 41.13 68.74 41.09 68.7 41.04 68.68 41 68.65 40.97 68.58 40.96 68.57 40.96 68.55 40.94 68.54 40.93 68.53 40.93 68.52 40.94 68.5 40.95 64.76 44.69 64.84 44.67"/><path d="M50.33,21.94c-.1,.34-.24,.85-.36,1.46l1.82-1.82c-.61,.13-1.11,.26-1.46,.36Z"/><polygon points="48.09 12.01 48.01 12 47.84 11.96 47.72 11.98 47.48 11.97 47.21 11.97 47.15 11.96 47 11.91 46.94 11.9 46.62 11.92 46.58 11.91 46.52 11.87 46.42 11.84 46.05 11.87 45.62 11.91 45.41 11.88 45.38 11.89 45.33 11.91 45.3 11.91 45.22 11.89 45.01 11.88 44.92 11.88 44.91 11.89 44.85 11.95 44.82 11.97 44.74 11.93 44.63 11.9 44.41 11.88 44.37 11.9 44.26 11.95 44.21 11.97 44.18 11.97 44.07 11.94 44.04 11.94 43.97 11.95 43.92 11.96 43.88 11.95 43.84 11.96 43.8 11.98 43.77 12.01 43.73 12.09 43.71 12.13 43.67 12.16 43.45 12.27 43.41 12.28 43.24 12.29 43.2 12.31 43.15 12.3 43.11 12.27 43.07 12.26 43.04 12.28 42.98 12.34 42.94 12.35 42.79 12.35 42.77 12.36 42.75 12.37 42.72 12.4 42.71 12.4 42.67 12.39 42.64 12.39 42.4 12.46 42.25 12.47 42.18 12.49 42.14 12.5 42.1 12.51 42.03 12.56 41.99 12.57 41.99 12.55 42.04 12.54 42.04 12.52 41.97 12.46 42.01 12.46 42.04 12.45 42.07 12.43 42.1 12.41 42 12.42 41.94 12.46 41.93 12.54 41.98 12.62 42.19 12.86 42.21 12.9 42.24 13.02 42.31 13.15 42.34 13.27 42.48 13.5 42.7 13.94 42.91 14.13 43.14 14.42 43.33 14.69 43.39 14.71 43.46 14.66 43.48 14.68 43.47 14.69 43.47 14.7 43.46 14.72 43.45 14.74 43.43 14.76 43.43 14.77 43.43 14.78 43.44 14.79 43.44 14.8 43.45 14.85 43.47 14.93 43.51 15.46 43.53 15.53 43.56 15.61 43.59 15.64 43.64 15.71 43.67 15.75 43.9 16.38 48.31 11.97 48.09 12.01"/><path d="M49.37,20.98c.53-1.89,.78-3.44,.82-4.73l-5.55,5.55c1.29-.05,2.84-.3,4.73-.82Z"/><path d="M61.65,34.99c-15.33,2.62-13.67-8.75-12.67-12.66-1.57,.4-2.93,.62-4.11,.68l.05,.08,.1,.11,.04,.05,.03,.13,.03,.06,.14,.2,.02,.06v.06s.01,.18,.01,.18v.05s.05,.05,.05,.05l.17,.14,.25,.3v.03s.03,.03,.03,.03l.11,.09,.03,.04,.02,.04v.04s-.09,.1-.09,.1l-.02,.05v.05s.02,.05,.02,.05l.24,.35,.04,.09v.1s.01,.2,.01,.2v.16s-.07,.38-.07,.38v.11s-.06,.07-.06,.07v.03s-.02,.03-.02,.03v.15s0,.03,0,.03v.03s-.01,.03-.01,.03l.02,.02-.02,.05v.06s-.02,.29-.02,.29l.05,.49v.06s-.03,.08-.03,.08l-.04,.27-.02,.06-.03,.05-.03,.04-.04,.04-.02,.04-.03,.19-.03,.09-.08,.16-.06,.21-.03,.04-.09,.09-.05,.09-.04,.04v-.03s0-.02,0-.02l.02-.02h.03v-.03h-.02l-.17,.16-.05,.08-.02,.05v.05s-.02,.11-.02,.11v.04s-.03,.03-.03,.03l-.06,.04-.12,.13-.08,.06-.09,.02h-.04s-.05-.05-.05-.05h-.05s-.03,0-.03,0l-.08,.08-.03-.02h-.06s0-.02,0-.02h-.05s-.05,.03-.05,.03l-.08,.07-.02,.02-.05,.08-.02,.02-.07,.04-.17,.17-.06,.04-.12,.13-.03,.07,.02,.09,.04,.08,.03,.07v.07s-.04,.07-.04,.07l-.16,.19-.05,.07-.03,.03-.08,.05-.17,.23-.03,.02-.05,.02h0s-.05,.04-.05,.04h-.01s-.02-.01-.02-.01h-.01s0,.03,0,.03l-.02,.03-.07,.04-.02,.04v.02s-.03,.03-.03,.03v.02s0,.02,0,.02v.02s.01,.02,.01,.02v.03s-.02,.05-.02,.05l-.03,.02h-.03s-.04,.03-.04,.03l-.04,.04v.03s-.03,.02-.03,.02h-.05s-.04,.02-.04,.02l-.03,.03-.02,.04v.04s0,.04,0,.04l.03,.09v.04s0,.09,0,.09h0s0,.02,0,.02v.02s.03,.04,.03,.04v.04s-.05,.07-.05,.07v.03s0,.27,0,.27l-.02,.28-.02,.1-.04,.06h-.02s-.02,0-.02,0l-.04-.03h-.02s-.01,0-.01,0h-.02s-.06,.03-.06,.03l-.02,.03v.04s-.01,.1-.01,.1v.03s-.05,.07-.05,.07l-.02,.04v.04s-.02,.04-.02,.04l-.05,.06v.06s-.06,.07-.06,.07l.02,.04,.03,.04,.02,.04v.02s0,.03,0,.03v.02s-.02,.02-.02,.02h-.01s-.03,.01-.03,.01h-.02s-.01,0-.01,0h0s0,.02,0,.02v.02s.01,.03,.01,.03h0s0,.04,0,.04v.02s.02,.04,.02,.04l.03,.09v.09s0,.17,0,.17l-.03,.18-.03,.1-.04,.07v.04s-.03,.22-.03,.22l-.04,.2-.02,.06v.03s0,.05,0,.05v.05s.01,.05,.01,.05l-.05,.09-.02,.08-.02,.04h-.02s-.02,0-.02,0h-.02l-.02,.03v.02s0,.04,0,.04l-.02,.15v.04s-.04,.03-.04,.03l-.03,.03-.03,.03v.04s-.02,.1-.02,.1l-.07,.16-.03,.09v.06s0,0,0,0h.03s.04,.01,.04,.01l.02,.04v.05s0,.05,0,.05l-.02,.03h-.02l-.04-.02h-.02s-.09,.09-.09,.09l-.02,.04v.04s-.04,.32-.04,.32l-.04,.16v.08s.02,.07,.02,.07l-.03,.07-.05,.21v.08s-.04,.06-.04,.06l-.16,.1-.05,.06v.04s0,.08,0,.08v.04s-.03,.04-.03,.04l-.13,.13h-.04s-.03,0-.03,0v-.05s-.04-.02-.04-.02l-.05,.02-.06,.04-.03,.02-.04,.16,.08,.14,.1,.14,.02,.16-.06,.12v.04s-.01,.05-.01,.05l.11,1.04-.02,.29,.02,.26v.07s-.02,.22-.02,.22l-.03,.1-.08-.02,.02,.24v.08s-.06,.28-.06,.28v.36s-.02,.11-.02,.11v.04s0,.03,0,.03v.03s.04,.02,.04,.02v.02h.03s.05,.03,.05,.03h.03s.04,0,.04,0h.01s0-.03,0-.03l.02-.02,.05-.03,.11-.05,.12-.09,.11-.05,.12-.04,.12-.02h.02s.02-.01,.02-.01h.02s.03,.02,.03,.02l.09,.03h.03s.01-.02,.01-.02h.01s.02,0,.02,0h.02s0,.03,0,.03v.02s.01,.02,.01,.02h.01s.03,.03,.03,.03l.03,.02h.03s.03,.02,.03,.02v.03s.02,.03,.02,.03h0s.19,0,.19,0h.17s.04,0,.04,0l.04-.03h.03s.06,.04,.06,.04l.05,.02h.16s.09,.03,.09,.03h.03s.06-.04,.06-.04l.12-.1,.07-.02h.07s.05-.04,.05-.04l.09-.08,.12-.06,.09-.03,.02-.02,.02-.04,.02-.02h.02s.05-.02,.05-.02l.02-.02v-.02s.01-.03,.01-.03v-.03s.08-.02,.08-.02l.05-.03,.08-.02,.14-.08,.29-.05,.06-.02h.06s.05,.03,.05,.03l.03-.02h.02s.02,.04,.02,.04h.03s.06,.02,.06,.02h.03s.03,0,.03,0v.02l.07-.03h.04s.02,0,.02,0h.02s.11-.03,.11-.03l.05,.02,.09,.06h.05s.06,.02,.06,.02l.06,.02,.04,.04,.03,.11,.04,.04,.02,.04-.03,.08,.23,.13,.23,.19,.26,.14,.25,.14,.03,.03,.12,.16,.04,.03h.06s.03,0,.03,0l.04-.03h.02s.03,0,.03,0h.05s.06,.02,.06,.02h.04s.03,.01,.03,.01h.03s.04-.03,.04-.03h.02s.12,.01,.12,.01h.06s.02-.06,.02-.06h0s.89-.01,.89-.01h.68s2.04,0,2.04,0h.68s4.76,0,4.76,0h.68s1.5,0,1.5,0h.02s0,.02,0,.02v.03s.03,.01,.03,.01h.02s.04,.12,.04,.12v.03s.01,0,.01,0l.06,.02,.09,.18v.03s.04,.02,.04,.02l.14,.12v.02s.02,.05,.02,.05v.03s.04,.03,.04,.03l.05,.02,.03,.02,.15,.16,.05,.07,.04,.03,.1,.02,.24,.12,.35,.06h.22s.09-.05,.09-.05h.06s.03-.01,.03-.01l.08,.02h.12s.04,.02,.04,.02l.42,.13h.45s.15-.04,.15-.04h.06s.05,0,.05,0l.02,.05,.02,.02,.05,.03,.06,.02h.04s.01-.01,.01-.01l.03-.05h.02s.1-.01,.1-.01c-2.33-3.31-1.06-7.52-.37-9.26Z"/><rect x="62.92" y="34.53" width="0" height="0" transform="translate(17.23 89.88) rotate(-79.22)"/><path d="M61.95,38.76l5.2-5.2c-2.05,.19-3.73,.99-4,1.12-.02,.01-.04,.01-.06,.02,0,.02-.01,.04-.02,.06-.13,.27-.93,1.94-1.12,4Z"/><path d="M50.72,20.59c3.92-1,15.28-2.66,12.66,12.67,.92-.37,2.53-.89,4.33-.96v-.11s0-.82,0-.82v-.41s5.36,0,5.36,0l-.03-.1-.04-.09-.06-.08-.15-.15-.05-.08-.02-.09,.02-.11,.05-.12,.05-.2,.05-.19,.03-.08,.12-.18,.09-.13,.02-.05v-.05s-.02-.12-.02-.12v-.16s-.04-.07-.04-.07l-.07-.07-.06-.08v-.12s0-.38,0-.38l.02-.35,.06-.13v-.03s0-.07,0-.07v-.2s-.03-.07-.03-.07l-.03-.05-.02-.05v-.12s.06-.11,.06-.11l.07-.11v-.03s.01-.04,.01-.04v-.06s0-.03,0-.03v-.03s.03-.04,.03-.04l.08-.06,.03-.04v-.03s-.12-.26-.12-.26v-.07s0-.38,0-.38h-.05s-.02-.05-.02-.05v-.1s.01-.15,.01-.15v-.05s.03-.05,.03-.05v-.04s-.06-.08-.06-.08l-.02-.05-.02-.13-.05,.02-.02,.05v.06s-.03,.05-.03,.05l-.02,.02-.06,.03-.02,.02-.02,.03-.02,.06-.02,.03-.09,.03-.11-.02-.11-.03h-.1s-.1,0-.1,0h-.09s-.22-.07-.22-.07l-.17-.05h-.1s-.11,0-.11,0l-.11,.03-.18,.1-.29,.16-.22,.04-.27,.05h-.12l-.1-.02-.05-.02-.1-.07-.05-.03h-.06s-.06,.03-.06,.03l-.06,.04-.06,.03-.1,.02h-.1s-.1-.04-.1-.04l-.1-.04-.2-.08h-.1s-.08,.23-.08,.23l-.08,.07-.27,.09-.04,.03-.12,.12-.05,.03h-.07s.04-.11,.04-.11v-.11s-.02-.24-.02-.24l-.02-.05-.04-.08v-.05s-.02-.01-.02-.01l-.04-.03h0v-.12l-.06-.19-.02-.04v-.04s.04-.06,.04-.06l.06-.06,.05-.03,.11-.05,.07-.02h.05s.03-.03,.03-.03v-.05s0-.1,0-.1h0s.01-.02,.01-.02l-.04-.07v-.09s0-.11,0-.11v-.11s-.03-.06-.03-.06l-.03-.04-.03-.04v-.06s.01-.06,.01-.06l.06-.1v-.04s.02-.03,.02-.03v-.05s.02-.03,.02-.03v-.03s-.05-.05-.05-.05l-.02-.08-.06-.11-.05-.13-.06-.12-.05-.12,.02-.09v-.03s-.04-.11-.04-.11l-.05-.15-.02-.09-.02-.06-.04-.04-.1-.06-.04-.04h-.03s-.02,0-.02,0h-.02s-.03,0-.03,0l-.15-.18-.03-.07v-.09s-.02,0-.02,0l-.04,.02h-.02s-.04-.09-.04-.09l-.17-.18-.07-.1-.03-.11-.03-.23-.03-.11-.02-.03-.04-.05v-.03s0-.03,0-.03l.03-.05,.02-.09,.08-.17,.03-.11v-.11s-.03-.27-.03-.27l.04-.31v-.14s.02-.21,.02-.21l.03-.06,.02-.09,.02-.02,.03-.17,.03-.2,.03-.08,.05-.09h-.02s-.01,0-.01,0h0s-.01-.01-.01-.01l.06-.2v-.12s-.01-.11-.01-.11l-.06-.1-.03-.07v-.03s.05-.02,.05-.02l-.03-.05-.08-.08-.02-.05-.03-.13v-.11s-.01-.04-.01-.04l-.02-.04-.07-.08-.03-.05-.02-.05v-.06s-.02-.03-.02-.03l-.08-.05-.03-.02v-.05s-.02-.18-.02-.18v-.03s.05-.05,.05-.05v-.03s0-.03,0-.03l-.02-.07,.02-.12v-.04s.04-.08,.04-.08l.02-.06,.03-.1,.03-.09,.03-.09v-.05s.01-.02,.01-.02l.04-.04v-.02s0-.1,0-.1v-.03s-.02-.01-.02-.01v-.02s0-.03,0-.03v-.03s.03-.05,.03-.05v-.03s0-.02,0-.02l-.03-.02v-.02s0-.01,0-.01v-.02s.02-.02,.02-.02v-.03s-.02-.02-.02-.02l-.02-.02-.02-.03h0s.01-.03,.01-.03v-.02s0-.02,0-.02v-.02s-.07-.13-.07-.13l-.02-.02h-.02s-.02-.02-.02-.02h-.01s0-.02,0-.02h-.05s-.09,0-.09,0h-.19s-.19,0-.19,0h-.19s-.19,0-.19,0h-.19s-.19,0-.19,0h-.19s-.19,0-.19,0h-.19s-.19,0-.19,0h-.19s-.19,0-.19,0h-.19s-.19,0-.19,0h-.19s-.19,0-.19,0h-.12s0-.13,0-.13v-.13s.01-.12,.01-.12l.06-.14,.04-.11,.07-.19,.06-.16h-.15s-.23,0-.23,0h-.22s-.14,0-.14,0h-.03s-.02,.02-.02,.02l-.02,.04v.04s-.02,.09-.02,.09v.04h-2.05l.05,.11v.03s-.01,.04-.01,.04l-.07,.09-.03,.05-.03,.09-.03,.43v.08s.03,.09,.03,.09l.07,.18v.08s-.08,.06-.08,.06h0s0,0,0,0h0s-.04,.05-.04,.05l-.03,.1-.04,.04h-.05s-.18,0-.18,0v.07s.02,.07,.02,.07l.03,.07,.02,.07v.06s0,.07,0,.07l-.05,.16-.03,.08-.04,.12v.08s0,.07,0,.07l.06,.21h-1.54l-.04-.06-.02-.03v-.07s-.04-.01-.04-.01h-.59s-.03,.02-.03,.02v.05s0,.1,0,.1h-.05s-.02,0-.02,0h-.16s-.04,0-.04,0l-.06,.03h-.04s-.03,0-.03,0l-.1-.04h-.13s-.2-.01-.2-.01h-.04s-.11,.06-.11,.06h-.04s-.05,.04-.05,.04l-.03,.06v.07s.01,.07,.01,.07h-.24s-.07-.01-.07-.01l-.14-.11-.08-.04h-.09s-.04,0-.04,0l-.16,.09h-.03s-.09-.03-.09-.03h-.08s-.22,.07-.22,.07h-.07s-.15-.04-.15-.04l-.02-.02-.02-.04,.03-.08v-.05s-.03-.02-.03-.02l-.06-.03-.03-.02v-.03s-.04-.08-.04-.08h-.01s-.02,.03-.02,.03h0s0,0,0,0h0s0-.02,0-.02v-.02s-.04-.03-.04-.03l-.02-.02v-.02s0-.04,0-.04l.03-.02v-.02s-.02-.03-.02-.03h-.04s0,0,0,0v-.03s0-.03,0-.03h-.03s-.04,0-.04,0h-.02s.02-.03,.02-.03v-.02h-.05s-.01-.02-.01-.02v-.03s0-.03,0-.03h-.03s-.06-.02-.06-.02h-.01s-.01-.04-.01-.04l-.05-.04v-.03s0-.02,0-.02l.02-.03v-.02s-.05-.02-.05-.02h.01s0-.02,0-.02v-.02s-.04,.02-.04,.02v-.04s0-.06,0-.06v-.04s0-.05,0-.05l-.05-.04-.13-.06-.04-.06-.04-.13-.04-.06-.02-.02-.02-.02-.02-.02v-.03s0-.03,0-.03h.03s.03-.03,.03-.03v-.02s0-.02,0-.02h-.02s-.06-.03-.06-.03h-.02s-.02-.02-.02-.02h-.02s-.02,.04-.02,.04l-.04-.02-.02-.04v-.09s-.01-.04-.01-.04l-.03-.03-.07-.03-.09-.06-.07-.02v-.03s-.01-.04-.01-.04v-.04s-.05-.06-.05-.06l-.03-.03-.03-.02v-.02s0-.14,0-.14l-.05-.17v-.07s.09,.02,.09,.02v-.06s.02-.05,.02-.05v-.04s-.01-.05-.01-.05v-.02s-.03-.02-.03-.02l-.02-.02h-.03s-.02-.02-.02-.02v-.05s.01-.01,.01-.01l-.02-.15-.03-.06-.06-.04h-.03s-.06-.01-.06-.01h-.03s-.03-.04-.03-.04v-.04s-.02-.04-.02-.04v-.04s-.16-.2-.16-.2l-.02-.04v-.05s-.02-.1-.02-.1v-.05s-.05-.09-.05-.09v-.04s0-.05,0-.05l.03-.06v-.03s-.02-.03-.02-.03l-.03-.03-.02-.02v-.03s.02-.04,.02-.04h-.06v-.03l.02-.04,.02-.03v-.03s-.02,0-.02,0h-.02s-.02,0-.02,0v-.02s-.02,0-.02,0v-.1s.01-.03,.01-.03h.02s.02-.01,.02-.01h.02s0-.04,0-.04v-.03s-.01-.02-.01-.02v-.02s0-.19,0-.19v-.04s.03-.03,.03-.03v-.04s-.02-.04-.02-.04l-.05-.05v-.04s-.04-.02-.04-.02h-.04s-.03-.03-.03-.03l-.04-.06-.03-.02h-.05s.06-.07,.06-.07v-.03s-.03,0-.03,0h-.03s-.01,.01-.01,.01v-.03s-.02-.17-.02-.17v-.02s-.02-.03-.02-.03l-.03-.03v-.02l.04-.04v-.02s-.09-.05-.09-.05h-.02s-.1-.05-.1-.05h-.05s-.05-.01-.05-.01h-.05s-.09,.03-.09,.03h-.04s-.04,0-.04,0l-.06-.03-.04-.03-.05-.03h-.07s-.16-.01-.16-.01h-.24s-.24,0-.24,0h-.24s-.24,0-.24,0h-.24s-.24,0-.24,0h-.24s-.18,0-.18,0c.84,1.72,1.13,4.43,.04,8.68Z"/><path d="M50.14,14.63c-.1-.89-.32-1.6-.61-2.18l-5.1,5.1v.07s.06,.1,.06,.1l.02,.03,.03,.07,.02,.03,.02,.05,.04,.12,.03,.02,.25,.38,.03,.06v.06s0,.2,0,.2v.03s-.03,.03-.03,.03h-.02s-.03,0-.03,0h-.04s.03,.09,.03,.09l.03,.18,.03,.08,.08,.11v.04s0,.04,0,.04l-.04,.1-.03,.14-.06,.02-.16-.02h-.02s-.01,.01-.01,.01h0s0,.03,0,.03v.03s-.02,.01-.02,.01h-.02s-.05,.04-.05,.04l-.09,.04-.04,.02,.03-.05,.13-.13-.05,.02-.05,.04-.08,.09v.03s0,.06,0,.06v.03s-.02,.03-.02,.03l-.07,.07-.03,.05-.03,.09-.04,.04h-.03s-.04,0-.04,0h-.03s-.01,.04-.01,.04v.03s-.15,.25-.15,.25l-.03,.02-.03-.03,.02-.07,.1-.22,.19-.16,.06-.09-.13,.06-.15,.18-.1,.21v.15s.07,.08,.07,.08l.07,.16,6.02-6.02s.06-.04,.09-.06Z"/><path d="M59.7,34.04c.74-.07,1.53-.19,2.38-.35,.16-.85,.28-1.64,.35-2.38l-2.73,2.73Z"/><path d="M61.95,40.45c.13,1.28,.58,2.6,1.61,3.73l4.28-4.28h0s0-.04,0-.04l-.03-.04h.02s.07,0,.07,0l-.09-.15-.07-.09v-.06s0-.38,0-.38h0s0-.13,0-.13v-.56s0-.28,0-.28v-1.47s0-1.23,0-1.23v-.41s0-.36,0-.36l-5.72,5.72s-.03,.02-.05,.03Z"/><polygon points="41.39 9.64 41.42 9.65 41.44 9.67 41.46 9.65 41.5 9.59 41.52 9.58 41.55 9.58 41.57 9.6 41.58 9.63 41.57 9.65 41.56 9.67 41.52 9.71 41.5 9.73 41.47 9.73 41.45 9.73 41.43 9.72 41.41 9.71 41.35 9.7 41.33 9.71 41.33 9.74 41.44 9.94 41.56 10.12 41.71 10.41 41.77 10.58 41.8 10.7 41.83 10.76 41.87 10.85 41.88 10.88 41.88 10.97 41.87 11 41.85 11.03 41.81 11.04 41.78 11.05 41.75 11.05 41.72 11.08 41.66 11.25 41.69 11.42 41.82 11.64 41.95 11.56 42.18 11.53 42.42 11.54 42.61 11.54 42.62 11.29 42.63 11.12 42.64 10.79 42.65 10.48 42.66 10.25 42.67 10.05 42.65 9.96 42.62 9.94 42.46 9.88 42.44 9.86 42.43 9.84 42.43 9.81 42.43 9.79 42.44 9.76 42.46 9.76 42.48 9.76 42.5 9.76 42.72 9.68 42.82 9.62 42.87 9.52 42.87 9.46 42.9 9.45 43 9.44 43.06 9.42 43.08 9.39 43.09 9.34 43.11 9.29 43.15 9.26 43.27 9.19 43.3 9.15 43.3 9.09 43.32 9.03 43.35 8.98 43.39 8.93 43.47 8.88 43.99 8.76 44.09 8.73 44.11 8.65 43.99 8.59 43.81 8.39 43.71 8.3 43.66 8.24 43.61 8.12 43.57 8.06 43.53 8.04 43.5 8.04 43.47 8.06 43.42 8.07 43.39 8.06 43.32 8.02 43.28 8.01 43.22 8.04 43.19 8.11 43.17 8.17 43.13 8.21 43.09 8.24 43.04 8.27 43 8.32 42.95 8.42 42.92 8.45 42.88 8.47 42.58 8.52 42.4 8.58 42.36 8.58 42.29 8.57 42.27 8.61 42.27 8.72 42.26 8.78 42.15 9 42.12 9.03 42.08 9.05 41.99 9.05 41.95 9.06 41.91 9.08 41.89 9.1 41.85 9.04 41.83 9.01 41.81 8.99 41.77 8.99 41.76 9 41.68 9.27 41.61 9.39 41.3 9.65 41.34 9.65 41.39 9.64"/></g></g></g><g><path d="M99.53,64.3v-.26h.94v-7.97h-.94v-.26h3.3v.26h-.94v7.97h.94v.26h-3.3Z" fill="#6d6e70"/><path d="M108.35,58.98c.31,.29,.47,.71,.47,1.24v3.82h.71v.26h-2.36v-.26h.52v-4.13c0-.35-.09-.61-.26-.78-.17-.17-.39-.26-.65-.26-.29,0-.55,.1-.77,.31-.22,.21-.34,.47-.34,.77v4.08h.48v.26h-2.31v-.25h.71v-5.15h-.71v-.26h1.7l.06,.7s.02-.05,.05-.09c.02-.04,.08-.1,.16-.19s.18-.17,.29-.24c.11-.07,.26-.14,.44-.19s.38-.09,.6-.09c.5,0,.9,.15,1.21,.44Z" fill="#6d6e70"/><path d="M113.14,63.88c.24-.22,.36-.49,.36-.78,0-.34-.11-.6-.32-.78-.21-.18-.47-.31-.78-.39-.31-.07-.61-.16-.91-.24s-.56-.25-.77-.48c-.21-.24-.32-.56-.32-.98,0-.47,.17-.87,.51-1.2s.76-.5,1.26-.5c.4,0,.76,.11,1.07,.34,.09,.07,.16,.11,.2,.11,.12,0,.18-.11,.18-.33h.24v1.54h-.24c0-.42-.15-.77-.44-1.04-.29-.27-.63-.41-1.03-.41-.31,0-.58,.09-.83,.28-.24,.19-.37,.42-.37,.71s.08,.5,.24,.68c.16,.18,.36,.3,.61,.37s.51,.14,.8,.23c.29,.09,.55,.18,.8,.27,.24,.09,.45,.26,.61,.5,.16,.24,.24,.54,.24,.9,0,.5-.19,.91-.57,1.24s-.87,.5-1.47,.5c-.44,0-.85-.13-1.23-.38-.11-.07-.19-.11-.24-.11-.12,0-.18,.12-.18,.37h-.24v-1.54h.24c0,.42,.17,.76,.52,1.04,.35,.28,.72,.42,1.12,.42,.38,0,.69-.11,.93-.34Z" fill="#6d6e70"/><path d="M115.67,58.9h-.71v-.26h.71v-.57l1-.74h.13v1.31h1.64v.26h-1.64c0,2.71,.01,4.12,.01,4.23,0,.3,.06,.55,.18,.75,.12,.2,.3,.3,.55,.3,.27,0,.48-.1,.62-.29,.15-.19,.22-.39,.22-.61h.26c0,.28-.1,.53-.31,.77-.2,.24-.52,.36-.95,.36-.57,0-1-.16-1.28-.49-.28-.33-.42-.74-.42-1.23v-3.8Z" fill="#6d6e70"/><path d="M119.25,64.3v-.26h.71v-5.14h-.71v-.26h1.84v5.4h.71v.26h-2.55Zm1.79-7c-.14,.14-.31,.21-.52,.21s-.38-.07-.52-.21c-.14-.14-.21-.31-.21-.51s.07-.38,.21-.52,.31-.21,.52-.21,.38,.07,.52,.21,.21,.31,.21,.52-.07,.37-.21,.51Z" fill="#6d6e70"/><path d="M123.09,58.9h-.71v-.26h.71v-.57l1-.74h.13v1.31h1.64v.26h-1.64c0,2.71,.01,4.12,.01,4.23,0,.3,.06,.55,.18,.75,.12,.2,.3,.3,.55,.3,.27,0,.48-.1,.62-.29,.15-.19,.22-.39,.22-.61h.26c0,.28-.1,.53-.31,.77-.2,.24-.52,.36-.95,.36-.57,0-1-.16-1.28-.49-.28-.33-.42-.74-.42-1.23v-3.8Z" fill="#6d6e70"/><path d="M131.32,58.89c0,2.04,0,3.17,0,3.41-.02,.59-.24,1.09-.64,1.5s-.9,.62-1.48,.62-1.08-.21-1.49-.62c-.41-.41-.62-.91-.64-1.5v-3.41h-.71v-.25h2.44v.25h-.61c0,2.65,0,4.1,.01,4.35,.02,.28,.12,.52,.3,.7s.41,.28,.69,.28,.5-.09,.68-.28c.19-.19,.29-.42,.31-.7v-4.35s-.6,0-.6,0v-.25h2.44v.25h-.71Z" fill="#6d6e70"/><path d="M133.15,58.9h-.71v-.26h.71v-.57l1-.74h.13v1.31h1.64v.26h-1.64c0,2.71,.01,4.12,.01,4.23,0,.3,.06,.55,.18,.75,.12,.2,.3,.3,.55,.3,.27,0,.48-.1,.62-.29,.15-.19,.22-.39,.22-.61h.26c0,.28-.1,.53-.31,.77-.2,.24-.52,.36-.95,.36-.57,0-1-.16-1.28-.49-.28-.33-.42-.74-.42-1.23v-3.8Z" fill="#6d6e70"/><path d="M140.44,63.82c-.4,.4-.89,.6-1.47,.6s-1.06-.2-1.46-.59c-.4-.39-.62-.89-.65-1.49-.02-.22-.02-.51-.02-.86s0-.64,.02-.9c.04-.59,.26-1.08,.65-1.47,.39-.39,.88-.59,1.46-.59s1.07,.19,1.46,.58c.39,.39,.61,.88,.65,1.48,.02,.25,.02,.55,.02,.9s0,.64-.02,.86c-.03,.59-.25,1.08-.64,1.48Zm-.45-2.33c0-1,0-1.59-.02-1.77-.02-.3-.13-.54-.31-.73-.18-.18-.41-.28-.68-.28s-.5,.09-.68,.28c-.18,.18-.28,.43-.31,.73-.02,.18-.02,.77-.02,1.77s0,1.57,.02,1.73c.02,.3,.13,.54,.31,.72,.18,.18,.41,.27,.68,.27s.49-.09,.67-.27c.18-.18,.29-.42,.32-.72,.02-.16,.02-.74,.02-1.73Z" fill="#6d6e70"/><path d="M151.22,56.07v8.35h-.12l-5.1-7.87v7.5h.95v.26h-2.18v-.26h.92v-7.97h-.93v-.26h2.26l3.87,6.02v-5.76h-.95v-.26h2.2v.26h-.92Z" fill="#6d6e70"/><path d="M153.94,58.88c.41-.24,.84-.36,1.3-.36,.61,0,1.08,.15,1.44,.45,.35,.3,.55,.7,.58,1.21v3.87h.72v.25h-1.71l-.05-.72c-.28,.53-.73,.8-1.38,.8-.55,0-.99-.16-1.31-.47-.33-.31-.49-.72-.49-1.21,0-.64,.19-1.08,.57-1.32s.9-.37,1.56-.37h1v-1.3c0-.31-.09-.55-.27-.72-.18-.17-.41-.25-.7-.25-.24,0-.48,.04-.7,.12-.22,.08-.39,.18-.51,.3,.14,0,.26,.06,.35,.16,.09,.1,.14,.22,.14,.37,0,.17-.06,.3-.17,.42s-.25,.17-.42,.17-.3-.06-.41-.17c-.11-.11-.16-.25-.16-.42,0-.31,.2-.58,.61-.82Zm2.2,2.36h-.85c-.68,0-1.06,.33-1.13,.99-.02,.12-.02,.29-.02,.52,0,.21,0,.39,.02,.54,.03,.28,.12,.5,.27,.65s.33,.22,.56,.22c.34,0,.62-.13,.83-.38,.22-.26,.32-.53,.32-.83v-1.71Z" fill="#6d6e70"/><path d="M162.07,63.78c.28-.28,.42-.59,.42-.94h.21c0,.47-.18,.85-.54,1.14-.36,.29-.77,.43-1.24,.43-.57,0-1.06-.2-1.46-.59-.4-.39-.62-.89-.65-1.49-.02-.22-.02-.51-.02-.86s0-.64,.02-.9c.04-.6,.26-1.09,.65-1.48,.4-.39,.9-.58,1.51-.58,.47,0,.87,.14,1.2,.41,.33,.27,.49,.56,.49,.87,0,.17-.05,.3-.16,.42-.11,.11-.24,.17-.41,.17s-.3-.06-.42-.17-.17-.25-.17-.42c0-.15,.06-.27,.17-.37,.11-.09,.25-.15,.41-.17-.09-.15-.25-.28-.45-.38s-.41-.16-.62-.16c-.32,0-.58,.09-.77,.27-.19,.18-.29,.42-.32,.73-.02,.18-.02,.77-.02,1.77s0,1.57,.02,1.73c.02,.29,.13,.53,.33,.71,.2,.18,.44,.27,.72,.27,.44,0,.8-.14,1.08-.42Z" fill="#6d6e70"/><path d="M163.54,64.3v-.26h.71v-5.14h-.71v-.26h1.84v5.4h.71v.26h-2.55Zm1.79-7c-.14,.14-.31,.21-.52,.21s-.38-.07-.52-.21c-.14-.14-.21-.31-.21-.51s.07-.38,.21-.52,.31-.21,.52-.21,.38,.07,.52,.21,.21,.31,.21,.52-.07,.37-.21,.51Z" fill="#6d6e70"/><path d="M170.63,63.82c-.4,.4-.89,.6-1.47,.6s-1.06-.2-1.46-.59c-.4-.39-.62-.89-.65-1.49-.02-.22-.02-.51-.02-.86s0-.64,.02-.9c.04-.59,.26-1.08,.65-1.47,.39-.39,.88-.59,1.46-.59s1.07,.19,1.46,.58c.39,.39,.61,.88,.65,1.48,.02,.25,.02,.55,.02,.9s0,.64-.02,.86c-.03,.59-.25,1.08-.64,1.48Zm-.45-2.33c0-1,0-1.59-.02-1.77-.02-.3-.13-.54-.31-.73-.18-.18-.41-.28-.68-.28s-.5,.09-.68,.28c-.18,.18-.28,.43-.31,.73-.02,.18-.02,.77-.02,1.77s0,1.57,.02,1.73c.02,.3,.13,.54,.31,.72,.18,.18,.41,.27,.68,.27s.49-.09,.67-.27c.18-.18,.29-.42,.32-.72,.02-.16,.02-.74,.02-1.73Z" fill="#6d6e70"/><path d="M176.81,58.98c.31,.29,.47,.71,.47,1.24v3.82h.71v.26h-2.36v-.26h.52v-4.13c0-.35-.09-.61-.26-.78-.17-.17-.39-.26-.65-.26-.29,0-.55,.1-.77,.31-.22,.21-.34,.47-.34,.77v4.08h.48v.26h-2.31v-.25h.71v-5.15h-.71v-.26h1.7l.06,.7s.02-.05,.05-.09c.02-.04,.08-.1,.16-.19s.18-.17,.29-.24c.11-.07,.26-.14,.44-.19s.38-.09,.6-.09c.5,0,.9,.15,1.21,.44Z" fill="#6d6e70"/><path d="M179.66,58.88c.41-.24,.84-.36,1.3-.36,.61,0,1.08,.15,1.44,.45,.35,.3,.55,.7,.58,1.21v3.87h.72v.25h-1.71l-.05-.72c-.28,.53-.73,.8-1.38,.8-.55,0-.99-.16-1.31-.47-.33-.31-.49-.72-.49-1.21,0-.64,.19-1.08,.57-1.32,.38-.24,.9-.37,1.56-.37h1v-1.3c0-.31-.09-.55-.27-.72-.18-.17-.41-.25-.7-.25-.24,0-.48,.04-.7,.12-.22,.08-.39,.18-.51,.3,.14,0,.26,.06,.35,.16,.09,.1,.14,.22,.14,.37,0,.17-.06,.3-.17,.42-.11,.11-.25,.17-.42,.17s-.3-.06-.41-.17c-.11-.11-.16-.25-.16-.42,0-.31,.2-.58,.61-.82Zm2.2,2.36h-.85c-.68,0-1.06,.33-1.13,.99-.02,.12-.02,.29-.02,.52,0,.21,0,.39,.02,.54,.03,.28,.12,.5,.27,.65s.33,.22,.56,.22c.34,0,.62-.13,.83-.38,.22-.26,.32-.53,.32-.83v-1.71Z" fill="#6d6e70"/><path d="M184.28,64.3v-.26h.71v-7.98h-.71v-.25h1.83v8.23h.71v.26h-2.53Z" fill="#6d6e70"/><path d="M99.98,78.01c-.3-.34-.46-.78-.49-1.32-.01-.2-.02-.46-.02-.8s0-.61,.02-.83c.04-.53,.2-.97,.51-1.29s.69-.49,1.17-.49c.23,0,.44,.05,.62,.14,.18,.1,.31,.19,.38,.28l.1,.15v-2.77h-.56v-.23h1.57v7.38h.63v.22h-1.53l-.04-.64s-.02,.05-.04,.08c-.02,.03-.06,.09-.13,.17-.07,.08-.14,.15-.22,.22-.08,.06-.19,.12-.33,.17-.14,.05-.29,.08-.45,.08-.49,0-.89-.17-1.19-.51Zm1.28,.31c.25,0,.48-.09,.68-.28s.31-.41,.33-.67c.01-.15,.02-.63,.02-1.44,0-.86,0-1.37-.02-1.53-.02-.25-.14-.47-.34-.65-.21-.18-.43-.27-.66-.27s-.4,.08-.54,.23c-.13,.15-.21,.37-.23,.64-.01,.16-.02,.69-.02,1.58s0,1.37,.02,1.52c.06,.58,.31,.87,.77,.87Z" fill="#6d6e70"/><path d="M105.66,75.71c0,1.03,0,1.63,.02,1.77,.02,.26,.13,.47,.32,.63,.19,.16,.41,.24,.67,.24,.4,0,.74-.12,1.01-.37,.27-.25,.41-.53,.41-.84h.19c0,.42-.17,.75-.51,1.01-.34,.26-.72,.39-1.15,.39-.56,0-1.01-.17-1.36-.52-.35-.35-.54-.79-.58-1.34-.01-.2-.02-.45-.02-.77s0-.58,.02-.8c.04-.53,.23-.98,.58-1.32s.8-.52,1.35-.52c.5,0,.93,.18,1.29,.55,.36,.37,.54,.81,.54,1.34v.55h-2.78Zm0-.22h1.82c0-.6,0-.98-.01-1.15-.01-.25-.11-.46-.27-.63-.17-.17-.37-.26-.59-.26-.56,0-.87,.3-.92,.9-.01,.15-.02,.53-.02,1.14Z" fill="#6d6e70"/><path d="M111.99,78.45v-.26h.94v-7.97h-.94v-.26h3.3v.26h-.94v7.97h.94v.26h-3.3Z" fill="#6d6e70"/><path d="M120.8,73.13c.31,.29,.47,.71,.47,1.24v3.82h.71v.26h-2.36v-.26h.52v-4.13c0-.35-.09-.61-.26-.78-.17-.17-.39-.26-.65-.26-.29,0-.55,.1-.77,.31-.22,.21-.34,.47-.34,.77v4.08h.48v.26h-2.31v-.25h.71v-5.15h-.71v-.26h1.7l.06,.7s.02-.05,.05-.09c.02-.04,.08-.1,.16-.19s.18-.17,.29-.24c.11-.07,.26-.14,.44-.19s.38-.09,.6-.09c.5,0,.9,.15,1.21,.44Z" fill="#6d6e70"/><path d="M126.89,73.04l-1.79,5.53h-.24l-2.11-5.53h-.54v-.25h2.2v.25h-.52l1.43,3.93,1.25-3.93h-.71v-.25h1.66v.25h-.64Z" fill="#6d6e70"/><path d="M128.87,75.39c0,1.16,0,1.82,.02,1.98,.02,.29,.14,.53,.35,.71,.21,.18,.46,.27,.74,.27,.45,0,.82-.14,1.13-.42s.45-.59,.45-.94h.21c0,.46-.19,.84-.57,1.13s-.81,.44-1.28,.44c-.62,0-1.13-.19-1.51-.58-.39-.39-.6-.89-.64-1.49-.02-.22-.02-.51-.02-.86s0-.64,.02-.9c.04-.6,.26-1.09,.65-1.48,.39-.39,.9-.58,1.51-.58,.56,0,1.04,.2,1.44,.61s.6,.91,.6,1.5v.61h-3.1Zm0-.25h2.03c0-.67,0-1.1-.01-1.28-.02-.28-.12-.51-.31-.7-.19-.19-.41-.29-.66-.29-.63,0-.97,.33-1.03,1-.02,.16-.02,.59-.02,1.27Z" fill="#6d6e70"/><path d="M135.78,78.03c.24-.22,.36-.49,.36-.78,0-.34-.11-.6-.32-.78-.21-.18-.47-.31-.78-.39-.31-.07-.61-.16-.91-.24-.3-.09-.56-.25-.77-.48-.21-.24-.32-.56-.32-.98,0-.47,.17-.87,.51-1.2,.34-.33,.76-.5,1.26-.5,.4,0,.76,.11,1.07,.34,.09,.07,.16,.11,.2,.11,.12,0,.18-.11,.18-.33h.24v1.54h-.24c0-.42-.15-.77-.44-1.04-.29-.27-.63-.41-1.03-.41-.31,0-.58,.09-.83,.28s-.37,.42-.37,.71,.08,.5,.24,.68c.16,.18,.36,.3,.61,.37s.51,.14,.8,.23c.29,.09,.55,.18,.8,.27,.24,.09,.45,.26,.61,.5,.16,.24,.24,.54,.24,.9,0,.5-.19,.91-.57,1.24s-.87,.5-1.47,.5c-.44,0-.85-.13-1.23-.38-.11-.07-.19-.11-.24-.11-.12,0-.18,.12-.18,.37h-.24v-1.54h.24c0,.42,.17,.76,.52,1.04,.35,.28,.72,.42,1.12,.42,.38,0,.69-.11,.93-.34Z" fill="#6d6e70"/><path d="M138.31,73.05h-.71v-.26h.71v-.57l1-.74h.13v1.31h1.64v.26h-1.64c0,2.71,.01,4.12,.01,4.23,0,.3,.06,.55,.18,.75,.12,.2,.3,.3,.55,.3,.27,0,.48-.1,.62-.29,.15-.19,.22-.39,.22-.61h.26c0,.28-.1,.53-.31,.77-.2,.24-.52,.36-.95,.36-.57,0-1-.16-1.28-.49-.28-.33-.42-.74-.42-1.23v-3.8Z" fill="#6d6e70"/><path d="M141.88,78.45v-.26h.71v-5.14h-.71v-.26h1.84v5.4h.71v.26h-2.55Zm1.79-7c-.14,.14-.31,.21-.52,.21s-.38-.07-.52-.21c-.14-.14-.21-.31-.21-.51s.07-.38,.21-.52,.31-.21,.52-.21,.38,.07,.52,.21,.21,.31,.21,.52-.07,.37-.21,.51Z" fill="#6d6e70"/><path d="M149.07,76.26c-.42,.41-.92,.62-1.5,.62h-.5c-.28,0-.51,.06-.7,.18-.19,.12-.29,.27-.29,.45,0,.37,.25,.56,.74,.57l1.51,.02c.49,.02,.86,.11,1.12,.27,.42,.28,.64,.71,.64,1.31,0,.44-.15,.8-.45,1.08-.3,.28-.71,.45-1.23,.51-.3,.03-.56,.05-.78,.05-.26,0-.54-.02-.84-.05-.42-.04-.75-.16-.98-.35-.23-.2-.35-.44-.35-.74,0-.15,.03-.29,.08-.42,.06-.13,.11-.22,.17-.28l.08-.09,.19,.17c-.16,.15-.24,.35-.24,.6,0,.23,.09,.42,.28,.57s.45,.25,.78,.29c.28,.03,.55,.05,.8,.05s.51-.02,.79-.05c.35-.05,.64-.16,.85-.34,.21-.18,.32-.41,.32-.7,0-.24-.09-.44-.26-.58-.17-.14-.41-.22-.71-.24-.11,0-.44,0-1-.01s-.88-.02-.98-.02c-.42-.02-.73-.12-.94-.32-.21-.2-.32-.45-.32-.75,0-.35,.15-.66,.46-.91,.31-.25,.64-.39,1-.4-.41-.16-.74-.41-1-.77-.26-.36-.38-.76-.38-1.21,0-.59,.21-1.09,.62-1.5,.42-.41,.92-.62,1.5-.62,.44,0,.84,.13,1.2,.39,.39-.32,.76-.48,1.12-.48,.18,0,.32,.05,.42,.15s.15,.21,.15,.34c0,.14-.05,.25-.14,.34-.09,.08-.19,.12-.29,.12-.13,0-.24-.03-.32-.09-.08-.06-.13-.13-.14-.21-.02-.07-.04-.14-.07-.21-.03-.06-.07-.09-.13-.09-.1,0-.25,.08-.45,.24,.52,.42,.78,.97,.78,1.64,0,.58-.21,1.08-.62,1.49Zm-.5-.93c0-.22,0-.4,0-.56,0-.53,0-.84-.01-.93-.02-.31-.13-.55-.31-.73-.18-.18-.41-.27-.68-.27s-.5,.09-.68,.27c-.18,.18-.28,.42-.31,.73,0,.08-.01,.33-.01,.75,0,.63,0,.99,.01,1.08,.02,.28,.12,.52,.3,.71,.18,.19,.41,.28,.69,.28s.5-.09,.68-.28c.19-.19,.29-.42,.31-.71,0-.02,0-.13,0-.35Z" fill="#6d6e70"/><path d="M151.97,73.03c.41-.24,.84-.36,1.3-.36,.61,0,1.08,.15,1.44,.45,.35,.3,.55,.7,.58,1.21v3.87h.72v.25h-1.71l-.05-.72c-.28,.53-.73,.8-1.38,.8-.55,0-.99-.16-1.31-.47-.33-.31-.49-.72-.49-1.21,0-.64,.19-1.08,.57-1.32s.9-.37,1.56-.37h1v-1.3c0-.31-.09-.55-.27-.72-.18-.16-.41-.25-.7-.25-.24,0-.48,.04-.7,.12-.22,.08-.39,.18-.51,.3,.14,0,.26,.06,.35,.16,.09,.1,.14,.22,.14,.37,0,.17-.06,.3-.17,.42-.11,.11-.25,.17-.42,.17s-.3-.06-.41-.17c-.11-.11-.16-.25-.16-.42,0-.31,.2-.58,.61-.82Zm2.2,2.36h-.85c-.68,0-1.06,.33-1.13,.99-.02,.12-.02,.29-.02,.52,0,.21,0,.39,.02,.54,.03,.28,.12,.5,.27,.65s.33,.22,.56,.22c.34,0,.62-.13,.83-.38,.22-.26,.32-.53,.32-.83v-1.71Z" fill="#6d6e70"/><path d="M160.11,77.93c.28-.28,.42-.59,.42-.94h.21c0,.46-.18,.84-.53,1.13-.35,.29-.77,.43-1.24,.44l-.33,.6c.17-.05,.35-.08,.52-.08,.26,0,.48,.07,.66,.21,.18,.14,.27,.33,.27,.58,0,.35-.14,.61-.42,.78s-.62,.27-1,.27c-.2,0-.38-.02-.56-.05-.18-.03-.3-.06-.38-.09l-.11-.06,.13-.28c.2,.09,.43,.13,.7,.13,.19,0,.36-.05,.51-.15,.15-.1,.22-.24,.22-.42,0-.16-.05-.28-.15-.36-.1-.08-.22-.12-.37-.12-.11,0-.23,.02-.37,.06l-.16-.07,.51-.97c-.5-.07-.91-.29-1.23-.67-.33-.38-.51-.84-.55-1.38-.02-.22-.02-.51-.02-.86s0-.64,.02-.9c.04-.6,.26-1.09,.65-1.48,.4-.39,.9-.58,1.51-.58,.47,0,.87,.14,1.2,.41,.33,.27,.49,.56,.49,.87,0,.16-.05,.3-.16,.42-.11,.11-.24,.17-.41,.17s-.3-.06-.42-.17-.17-.25-.17-.42c0-.15,.06-.27,.17-.37,.11-.09,.25-.15,.41-.17-.09-.15-.25-.28-.45-.38-.21-.11-.41-.16-.62-.16-.32,0-.58,.09-.77,.27-.19,.18-.29,.42-.32,.73-.02,.18-.02,.77-.02,1.77s0,1.57,.02,1.73c.02,.29,.13,.53,.33,.71,.2,.18,.44,.27,.72,.27,.44,0,.8-.14,1.08-.42Z" fill="#6d6e70"/><path d="M162.54,73.03c.41-.24,.84-.36,1.3-.36,.61,0,1.08,.15,1.44,.45,.35,.3,.55,.7,.58,1.21v3.87h.72v.25h-1.71l-.05-.72c-.28,.53-.73,.8-1.38,.8-.55,0-.99-.16-1.31-.47-.33-.31-.49-.72-.49-1.21,0-.64,.19-1.08,.57-1.32s.9-.37,1.56-.37h1v-1.3c0-.31-.09-.55-.27-.72-.18-.16-.41-.25-.7-.25-.24,0-.48,.04-.7,.12-.22,.08-.39,.18-.51,.3,.14,0,.26,.06,.35,.16,.09,.1,.14,.22,.14,.37,0,.17-.06,.3-.17,.42-.11,.11-.25,.17-.42,.17s-.3-.06-.41-.17c-.11-.11-.16-.25-.16-.42,0-.31,.2-.58,.61-.82Zm3.06-1.62c-.25,.26-.56,.39-.95,.39-.23,0-.53-.1-.9-.29-.37-.19-.62-.29-.75-.29-.17,0-.33,.06-.47,.19-.14,.13-.21,.26-.21,.4h-.39c0-.34,.13-.64,.38-.9,.25-.26,.56-.39,.93-.39,.22,0,.52,.09,.9,.28,.38,.19,.65,.28,.82,.28,.15,0,.29-.07,.41-.2s.19-.27,.19-.4h.4c0,.36-.12,.67-.37,.93Zm-.85,3.98h-.85c-.68,0-1.06,.33-1.13,.99-.02,.12-.02,.29-.02,.52,0,.21,0,.39,.02,.54,.03,.28,.12,.5,.27,.65s.33,.22,.56,.22c.34,0,.62-.13,.83-.38,.22-.26,.32-.53,.32-.83v-1.71Z" fill="#6d6e70"/><path d="M171,77.97c-.4,.4-.89,.6-1.47,.6s-1.06-.2-1.46-.59c-.4-.39-.62-.89-.65-1.49-.02-.22-.02-.51-.02-.86s0-.64,.02-.9c.04-.59,.26-1.08,.65-1.47,.39-.39,.88-.59,1.46-.59s1.07,.19,1.46,.58c.39,.39,.61,.88,.65,1.48,.02,.25,.02,.55,.02,.9s0,.64-.02,.86c-.03,.59-.25,1.08-.64,1.48Zm-.45-2.33c0-1,0-1.59-.02-1.77-.02-.3-.13-.54-.31-.73-.18-.18-.41-.28-.68-.28s-.5,.09-.68,.28c-.18,.18-.28,.43-.31,.73-.02,.18-.02,.77-.02,1.77s0,1.57,.02,1.73c.02,.3,.13,.54,.31,.72,.18,.18,.41,.27,.68,.27s.49-.09,.67-.27c.18-.18,.29-.42,.32-.72,.02-.16,.02-.74,.02-1.73Z" fill="#6d6e70"/><path d="M100.47,89.86c0,1.03,0,1.63,.02,1.77,.02,.26,.13,.47,.32,.63,.19,.16,.41,.24,.67,.24,.4,0,.74-.13,1.01-.37,.27-.25,.41-.53,.41-.84h.19c0,.42-.17,.75-.51,1.01s-.72,.39-1.15,.39c-.56,0-1.01-.17-1.36-.52-.35-.35-.54-.79-.58-1.34-.01-.2-.02-.45-.02-.77s0-.58,.02-.8c.04-.53,.23-.98,.58-1.32s.8-.52,1.35-.52c.5,0,.93,.18,1.29,.55,.36,.37,.54,.81,.54,1.34v.55h-2.78Zm0-.22h1.82c0-.6,0-.98-.01-1.15-.01-.25-.11-.46-.27-.63-.17-.17-.37-.26-.59-.26-.56,0-.87,.3-.92,.9-.01,.15-.02,.53-.02,1.14Z" fill="#6d6e70"/><path d="M109.35,92.6v-.23h.47v-3.73c0-.28-.06-.5-.18-.66-.12-.16-.29-.24-.5-.24s-.42,.1-.61,.3-.3,.41-.3,.64v3.68h.47v.23h-1.95v-.23h.46v-3.73c0-.6-.23-.9-.68-.9-.23,0-.43,.1-.63,.29s-.29,.39-.29,.59v3.75h.43v.23h-2.07v-.22h.63v-4.61h-.63v-.23h1.52l.05,.61s.02-.05,.04-.08c.02-.03,.07-.09,.15-.17s.16-.15,.25-.22c.09-.06,.22-.12,.38-.17,.16-.05,.33-.08,.51-.08,.31,0,.57,.07,.78,.2,.21,.13,.34,.26,.4,.39l.07,.2s.03-.05,.05-.08c.02-.04,.07-.1,.15-.19s.16-.17,.25-.24c.09-.07,.21-.13,.36-.19,.15-.06,.32-.08,.49-.08,.45,0,.8,.12,1.03,.36,.24,.24,.36,.6,.36,1.09v3.49h.57v.23h-2.06Z" fill="#6d6e70"/><path d="M114.98,90.16h.26v.14c0,.64,.25,1.17,.75,1.57s1.06,.61,1.69,.61c.55,0,1-.17,1.35-.51,.35-.34,.52-.74,.52-1.18,0-.31-.06-.57-.19-.8-.13-.23-.3-.4-.51-.52-.21-.12-.45-.24-.72-.34-.27-.11-.55-.2-.83-.27s-.56-.17-.83-.3-.51-.27-.72-.42c-.21-.16-.38-.38-.51-.66-.13-.28-.19-.61-.19-.99,0-.68,.27-1.26,.8-1.74,.53-.49,1.17-.73,1.93-.73,.58,0,1.12,.19,1.63,.58,.12,.09,.21,.14,.28,.14,.15,0,.22-.12,.22-.35v-.25h.25v2.56h-.27v-.24c0-.63-.22-1.16-.65-1.58-.44-.42-.93-.64-1.47-.64-.49,0-.91,.15-1.26,.44-.35,.29-.52,.67-.52,1.14,0,.34,.09,.62,.26,.85,.17,.23,.4,.41,.68,.55,.28,.13,.59,.25,.93,.35,.34,.1,.67,.21,1.01,.34,.33,.12,.64,.27,.93,.44,.28,.17,.51,.41,.68,.71,.17,.31,.26,.68,.26,1.11,0,.72-.29,1.32-.87,1.82-.58,.5-1.29,.75-2.13,.75-.33,0-.65-.05-.95-.15s-.51-.19-.64-.28c-.12-.08-.28-.19-.47-.34-.09-.07-.16-.11-.22-.11-.12,0-.18,.11-.18,.32v.44h-.26v-2.44Z" fill="#6d6e70"/><path d="M122.74,87.18c.41-.24,.84-.36,1.3-.36,.61,0,1.08,.15,1.44,.45,.35,.3,.55,.7,.58,1.21v3.87h.72v.25h-1.71l-.05-.72c-.28,.53-.73,.8-1.38,.8-.55,0-.99-.16-1.31-.47s-.49-.72-.49-1.21c0-.64,.19-1.08,.57-1.32s.9-.37,1.56-.37h1v-1.3c0-.31-.09-.55-.27-.72-.18-.17-.41-.25-.7-.25-.24,0-.48,.04-.7,.12-.22,.08-.39,.18-.51,.3,.14,0,.26,.06,.35,.16,.09,.1,.14,.22,.14,.37,0,.17-.06,.3-.17,.42s-.25,.17-.42,.17-.3-.06-.41-.17c-.11-.11-.16-.25-.16-.42,0-.31,.2-.58,.61-.82Zm2.2,2.36h-.85c-.68,0-1.06,.33-1.13,.99-.02,.12-.02,.29-.02,.52,0,.21,0,.39,.02,.54,.03,.28,.12,.5,.27,.65s.33,.22,.56,.22c.34,0,.62-.13,.83-.38s.32-.53,.32-.83v-1.71Z" fill="#6d6e70"/><path d="M132.14,87.19c0,2.04,0,3.17,0,3.41-.02,.59-.24,1.09-.64,1.5-.4,.41-.9,.62-1.48,.62s-1.08-.21-1.49-.62c-.41-.41-.62-.91-.64-1.5v-3.41h-.71v-.25h2.44v.25h-.61c0,2.65,0,4.1,.01,4.35,.02,.28,.12,.52,.3,.7s.41,.28,.69,.28,.5-.09,.68-.28c.19-.19,.29-.42,.31-.7v-4.35s-.6,0-.6,0v-.25h2.44v.25h-.71Zm-.24-2.31l-2.05,1.38h-.62l2.05-2.1c.09-.09,.21-.14,.35-.14,.13,0,.24,.05,.33,.15,.09,.1,.14,.22,.14,.34,0,.16-.07,.29-.2,.37Z" fill="#6d6e70"/><path d="M134.19,92.11c-.33-.38-.52-.87-.55-1.47-.02-.22-.02-.52-.02-.9s0-.68,.02-.93c.04-.6,.23-1.08,.57-1.44,.34-.37,.77-.55,1.31-.55,.26,0,.49,.05,.7,.16,.2,.11,.35,.21,.42,.31l.11,.16v-3.09h-.62v-.26h1.76v8.24h.71v.25h-1.71l-.05-.72s-.02,.05-.04,.09-.07,.1-.14,.19c-.07,.09-.16,.17-.25,.24-.09,.07-.21,.14-.37,.19-.16,.06-.33,.09-.51,.09-.55,0-.99-.19-1.33-.57Zm1.43,.34c.28,0,.53-.1,.75-.31,.22-.21,.34-.46,.37-.75,.02-.16,.02-.7,.02-1.6,0-.96,0-1.53-.02-1.71-.02-.28-.15-.53-.38-.73-.23-.2-.48-.31-.74-.31s-.45,.09-.6,.26c-.15,.17-.24,.41-.26,.72-.02,.18-.02,.77-.02,1.77s0,1.53,.02,1.7c.06,.64,.35,.97,.86,.97Z" fill="#6d6e70"/><path d="M140.52,89.54c0,1.16,0,1.82,.02,1.98,.02,.29,.14,.53,.35,.71s.46,.27,.74,.27c.45,0,.82-.14,1.13-.42s.45-.59,.45-.94h.21c0,.46-.19,.84-.57,1.13s-.81,.44-1.28,.44c-.62,0-1.13-.19-1.51-.58-.39-.39-.6-.89-.64-1.49-.02-.22-.02-.51-.02-.86s0-.64,.02-.9c.04-.6,.26-1.09,.65-1.48,.39-.39,.9-.58,1.51-.58,.56,0,1.04,.2,1.44,.61s.6,.91,.6,1.5v.61h-3.1Zm0-.25h2.03c0-.67,0-1.1-.01-1.28-.02-.28-.12-.51-.31-.7-.19-.19-.41-.29-.66-.29-.63,0-.97,.33-1.03,1-.02,.16-.02,.59-.02,1.27Z" fill="#6d6e70"/></g></g></g></svg>