<?xml version="1.0" encoding="UTF-8"?><svg id="b" xmlns="http://www.w3.org/2000/svg" viewBox="0 0 97.95 34.24"><g id="c"><g id="d"><g id="e"><g id="f"><polygon id="g" points="37.83 5.27 40.41 5.27 40.41 28.97 37.83 28.97 37.83 29.74 46.87 29.74 46.87 28.97 44.28 28.97 44.28 5.27 46.87 5.27 46.87 4.5 37.83 4.5 37.83 5.27" fill="#231f20"/><polygon id="h" points="63.45 5.27 66.28 5.27 66.28 22.41 63.15 17.51 61.43 16.26 59.17 17.91 60.04 15.25 57.77 13.61 60.57 13.61 60.6 13.53 54.82 4.5 48.11 4.5 48.11 5.27 50.87 5.27 50.87 28.97 48.15 28.97 48.15 29.74 54.61 29.74 54.61 28.97 51.78 28.97 51.78 6.67 66.91 30.1 67.26 30.1 67.26 5.27 69.99 5.27 69.99 4.5 63.45 4.5 63.45 5.27" fill="#231f20"/><path id="i" d="M97.19,19.16c-.5-.91-1.17-1.62-1.99-2.12-.83-.5-1.72-.93-2.7-1.3-.97-.36-1.95-.7-2.94-1s-1.89-.66-2.72-1.05-1.49-.94-1.99-1.63c-.5-.69-.76-1.54-.76-2.54,0-1.38,.51-2.51,1.53-3.38,1.02-.88,2.24-1.31,3.66-1.31,1.58,0,3.01,.63,4.28,1.89,1.27,1.26,1.91,2.83,1.91,4.7v.7h.79V4.5h-.72v.73c0,.7-.22,1.05-.66,1.05-.21,0-.48-.14-.83-.42-1.47-1.14-3.05-1.72-4.75-1.72-2.2,0-4.08,.72-5.62,2.17-1.55,1.45-2.32,3.18-2.32,5.19,0,1.12,.19,2.11,.57,2.94,.38,.84,.88,1.5,1.5,1.96,.62,.47,1.32,.89,2.12,1.26,.79,.37,1.6,.67,2.42,.89,.83,.22,1.63,.49,2.43,.81,.79,.31,1.5,.66,2.12,1.02,.62,.36,1.12,.88,1.5,1.56,.38,.68,.57,1.47,.57,2.38,0,1.33-.51,2.51-1.53,3.52-1.02,1.02-2.33,1.53-3.94,1.53-1.81,0-3.45-.6-4.92-1.8-1.47-1.2-2.2-2.76-2.2-4.68v-.42h-.76l.04,7.26h.75v-1.3c0-.63,.17-.95,.52-.95,.18,0,.4,.1,.66,.31,.55,.42,1.01,.75,1.36,1,.35,.25,.97,.52,1.86,.82,.88,.31,1.81,.46,2.77,.46,2.45,0,4.53-.74,6.22-2.23,1.7-1.49,2.55-3.29,2.55-5.42,0-1.29-.25-2.38-.75-3.3h0Z" fill="#231f20"/><g><polygon id="j" points="72.94 28.97 70.36 28.97 70.36 29.74 79.4 29.74 79.4 28.97 76.81 28.97 76.81 8.87 72.94 8.87 72.94 28.97" fill="#231f20"/><rect id="k" x="73.45" y="5.53" width="2.86" height="2.86" fill="#231f20"/></g></g><g id="l"><circle id="m" cx="17.12" cy="17.12" r="16.02" fill="none" stroke="#231f20" stroke-width="2.19"/><circle id="n" cx="17.12" cy="17.12" r="15.39" fill="#d3a841" stroke="#fff" stroke-width=".63"/><path id="o" d="M15.97,4.58c6.64-.82,12.7,3.89,13.52,10.54" fill="none" stroke="#fff" stroke-linecap="round" stroke-linejoin="round" stroke-width=".94"/><g><path id="p" d="M6.64,26.89h.03s-.07-.14-.07-.14l-.02-.05v-.13s-.01-.07-.01-.07v-.04s-.02-.03-.02-.03h-.03s-.03,0-.03,0l-.02,.02v.03s0,.04,0,.04l.12,.3,.05,.06h.01Zm21.13-9.43l.02-.03,.06-.04,.02-.02v-.02l-.08-.17v-.04s0-.25,0-.25h-.04v-.03s0-.07,0-.07v-.13s.02-.03,.02-.03v-.02s-.04-.05-.04-.05v-.03s-.02-.09-.02-.09l-.03,.02-.02,.04v.04s-.02,.04-.02,.04l-.02,.02-.04,.02h-.02s-.01,.03-.01,.03v.04s-.02,.02-.02,.02l-.06,.02h-.07s-.07-.04-.07-.04h-.07s-.07,0-.07,0h-.06l-.15-.04-.11-.03h-.14l-.07,.02-.12,.06-.19,.1-.14,.02-.17,.03h-.14s-.04-.02-.04-.02l-.06-.04-.04-.02h-.04l-.04,.02-.04,.03-.04,.02h-.06s-.07,0-.07,0l-.07-.02-.06-.02-.13-.05h-.06s-.06,.15-.06,.15l-.05,.04-.17,.06-.02,.02-.08,.08-.03,.02h-.04l.02-.07v-.07s-.01-.15-.01-.15v-.03s-.04-.05-.04-.05v-.03h-.01s-.02-.03-.02-.03h0s0-.08,0-.08l-.04-.12-.02-.03v-.03l.03-.04,.04-.04,.03-.02,.07-.03h.04s.03-.01,.03-.01l.02-.02v-.1h0v-.02s-.02-.04-.02-.04v-.21s-.02-.04-.02-.04l-.02-.02-.02-.02v-.07s.05-.06,.05-.06v-.03s0-.02,0-.02v-.04s.01-.02,.01-.02v-.02l-.02-.03-.02-.05-.04-.07-.03-.08-.04-.08-.03-.08v-.06s0-.02,0-.02l-.02-.07-.04-.1v-.06s-.02-.04-.02-.04l-.02-.03-.07-.04-.03-.02h-.02s-.01,0-.01,0h-.03s-.1-.12-.1-.12l-.02-.05v-.06h-.02s-.03,.02-.03,.02h-.01l-.02-.06-.11-.12-.04-.07-.02-.07-.02-.15-.02-.07v-.02s-.04-.04-.04-.04v-.02s0-.02,0-.02l.02-.04v-.06s.06-.11,.06-.11l.02-.07v-.07l-.02-.17,.02-.2v-.23s.03-.04,.03-.04v-.06s.02-.01,.02-.01l.02-.11,.02-.13,.02-.05,.03-.06h-.02s0,0,0,0h0s.04-.14,.04-.14v-.08s0-.08,0-.08l-.04-.07-.02-.04v-.02s.04-.02,.04-.02l-.02-.03-.05-.05-.02-.03-.02-.08v-.1s-.02-.02-.02-.02l-.04-.05-.02-.03v-.04s-.01-.04-.01-.04l-.02-.02-.06-.03-.02-.02v-.03s0-.12,0-.12v-.02l.02-.04v-.08s0-.08,0-.08v-.03s.03-.06,.03-.06v-.04s.03-.06,.03-.06l.02-.06,.02-.06v-.03h0s.02-.04,.02-.04h0s0-.08,0-.08v-.02h-.01v-.06l.02-.04v-.02h0s-.02-.03-.02-.03h0v-.04s0-.01,0-.01v-.02h-.01s-.01-.02-.01-.02v-.02s-.01,0-.01,0h.01v-.04s-.01-.01-.01-.01l-.04-.08h-.01s-.01-.02-.01-.02h-.02v-.02h-2.21v-.17s0-.08,0-.08l.04-.1,.03-.07,.05-.12,.04-.1h-.5l-.02,.02-.02,.03v.02s-.02,.06-.02,.06v.02h-1.33l.03,.07v.05s-.06,.06-.06,.06l-.02,.03-.02,.06-.02,.28v.06l.02,.06,.05,.12v.05l-.05,.04h0l-.02,.03-.02,.07-.02,.03h-.03s-.12,0-.12,0v.09s.03,.05,.03,.05v.04s.01,.04,.01,.04v.04s-.04,.11-.04,.11l-.02,.05-.02,.08v.1l.04,.14h-1.01l-.03-.04v-.02s-.02-.05-.02-.05h-.02s-.38,0-.38,0l-.02,.02v.1s-.03,0-.03,0h-.15s-.04,.02-.04,.02h-.03s-.02,0-.02,0l-.06-.03h-.21s-.03,0-.03,0l-.07,.04h-.03s-.03,.03-.03,.03l-.02,.04v.09s-.15,0-.15,0h-.05s-.09-.08-.09-.08l-.05-.02h-.06s-.03,0-.03,0l-.11,.06h-.02l-.06-.02h-.05l-.15,.05h-.05l-.1-.02v-.02s-.03-.03-.03-.03l.02-.05v-.03s-.02-.01-.02-.01l-.04-.02-.02-.02v-.02s-.02-.06-.02-.06h0s-.01,.02-.01,.02h0s0,0,0,0h0s0-.02,0-.02l-.04-.02h-.02s0-.02,0-.02v-.02s.02-.02,.02-.02v-.02s-.01-.02-.01-.02h-.02s0,0,0,0v-.04h-.04s-.01,0-.01,0l.02-.02h0s-.03-.01-.03-.01v-.02s0-.02,0-.02v-.02h-.02s-.04,0-.04,0v-.02s-.02-.02-.02-.02l-.03-.03v-.02s0-.02,0-.02v-.02s.01-.02,.01-.02h-.03s0-.02,0-.02h0s-.03,0-.03,0v-.1s0-.03,0-.03l-.04-.02-.08-.04-.02-.04-.03-.08-.02-.04-.02-.02h-.02s-.01-.02-.01-.02v-.04s.02,0,.02,0h.02s0-.02,0-.02h0s-.02-.02-.02-.02h-.04s-.02-.02-.02-.02h-.01s-.01,0-.01,0v.03s-.04-.02-.04-.02v-.02s0-.06,0-.06v-.03s-.03-.02-.03-.02l-.04-.02-.06-.04-.05-.02v-.02s0-.06,0-.06l-.03-.04-.02-.02h-.02s0-.03,0-.03v-.09l-.03-.11v-.04l.06,.02v-.04l.02-.03v-.03s0-.03,0-.03h0s0-.02,0-.02h-.01s-.02-.01-.02-.01h-.02v-.04s0,0,0,0v-.1s-.03-.04-.03-.04l-.04-.03h-.06s-.02-.02-.02-.02l-.02-.02v-.02s0-.02,0-.02v-.02s-.1-.13-.1-.13v-.03s-.02-.03-.02-.03v-.1s-.04-.06-.04-.06v-.06l.02-.04v-.02l-.02-.02-.02-.02v-.02s-.01-.02-.01-.02v-.02s-.02,0-.02,0v-.02l.02-.02v-.02s.01-.02,.01-.02h-.04s0-.02,0-.02h0v-.09h.04s.01-.02,.01-.02v-.06s0-.13,0-.13v-.05s.01-.02,.01-.02v-.03s-.04-.04-.04-.04v-.02s-.03-.01-.03-.01h-.02s-.02-.02-.02-.02l-.03-.04-.02-.02h-.04l.04-.04v-.02h-.04s0,.01,0,.01v-.02s-.01-.11-.01-.11v-.04s-.03-.02-.03-.02h0s.02-.04,.02-.04v-.02l-.06-.03h-.01s-.06-.04-.06-.04h-.03s-.03,0-.03,0h-.04s-.06,.02-.06,.02h-.05l-.04-.02-.03-.02-.03-.02h-.04s-.1,0-.1,0h-.16s-.16,0-.16,0h-.16s-.16,0-.16,0h-.16s-.16,0-.16,0h-.16s-.16,0-.16,0h-.16s-.16,0-.16,0h-.16s-.16,0-.16,0h-.16s-.16,0-.16,0h-.16s-.16,0-.16,0h-.16s-.22,.04-.22,.04h-.05l-.11-.03h-.08s-.15,.01-.15,.01h-.18s-.03,0-.03,0l-.1-.04h-.25s-.02,0-.02,0l-.04-.02-.07-.02-.23,.02-.29,.02-.14-.02h-.02l-.03,.02h-.02l-.05-.02h-.21s-.04,.04-.04,.04h-.02s-.06-.02-.06-.02l-.07-.02h-.15s-.02,0-.02,0l-.07,.04h-.03s-.02,.01-.02,.01l-.08-.02h-.06s-.03,0-.03,0h-.06l-.03,.02-.02,.02-.02,.05-.02,.02-.02,.02-.14,.07h-.03s-.11,.02-.11,.02h-.02s-.03,0-.03,0h-.03s-.02-.02-.02-.02h-.02s-.04,.05-.04,.05h-.02s-.12,0-.12,0h-.01s-.02,.03-.02,.03h-.04s-.02,0-.02,0l-.16,.04h-.09s-.05,.02-.05,.02h-.05s-.04,.04-.04,.04h-.03s0,0,0,0h.03v-.02l-.04-.04h.04s.02-.02,.02-.02l.02-.02h-.06l-.04,.04v.05s.02,.05,.02,.05l.14,.16v.02s.03,.08,.03,.08l.04,.08,.02,.08,.1,.14,.15,.29,.14,.12,.15,.19,.12,.17,.04,.02,.05-.03h0v.02h0v.02h0s-.01,.02-.01,.02h0v.02h0s0,.02,0,.02v.03l.02,.05,.02,.35v.05s.03,.05,.03,.05l.02,.02,.04,.04,.02,.02,.15,.41,.22,.53,.12,.21,.02,.08,.03,.06v.02s.03,.05,.03,.05v.02s.03,.03,.03,.03l.02,.08,.02,.02,.16,.25,.02,.04v.04s0,.13,0,.13v.02s-.02,.02-.02,.02h-.05l.02,.06,.02,.12,.02,.05,.05,.07v.02s0,.03,0,.03l-.03,.06-.02,.09-.04,.02-.11-.02h-.02v.02h0v.03h-.02s-.02,0-.02,0l-.03,.02-.06,.02-.02,.02,.02-.03,.08-.09h-.03s-.03,.04-.03,.04l-.05,.06v.02s0,.04,0,.04v.04s-.05,.05-.05,.05l-.02,.04-.02,.06-.02,.02h-.06v.02s0,.02,0,.02l-.1,.16-.02,.02-.02-.02v-.05s.08-.14,.08-.14l.12-.1,.04-.06-.09,.04-.1,.12-.07,.14v.1s.04,.05,.04,.05l.05,.12,.13,.21,.04,.03v.04s.04,.06,.04,.06v.03s0,.08,0,.08v.03l.06,.16v.02h.01s.02,.04,.02,.04v.04s.01,.03,.01,.03v.03s-.05,.04-.05,.04v.03s0,.03,0,.03l.14,.16,.05,.07,.04,.08,.02,.07v.04s-.03,.02-.03,.02v.02l.1,.16,.07,.07,.03,.04,.02,.08,.02,.04,.09,.13,.02,.04v.16s.02,.03,.02,.03l.02,.04,.11,.09,.16,.19v.02s.02,.02,.02,.02l.07,.06,.02,.03v.03s.01,.03,.01,.03l-.06,.06-.02,.03v.03l.02,.03,.15,.23,.02,.06v.06s0,.13,0,.13v.1l-.04,.25v.07l-.04,.04v.02s0,.02,0,.02v.14s-.01,.02-.01,.02v.02s0,.03,0,.03v.04s-.02,.19-.02,.19l.03,.32v.04l-.02,.05-.03,.17v.04s-.03,.03-.03,.03l-.02,.03-.02,.03v.03s-.03,.12-.03,.12l-.02,.06-.05,.1-.04,.14-.02,.03-.06,.06-.04,.06-.03,.03v-.02s0-.02,0-.02h.01s.02-.02,.02-.02h0s-.01-.01-.01-.01l-.11,.11-.03,.05v.03s-.02,.03-.02,.03v.1s-.03,.02-.03,.02l-.04,.03-.08,.08-.05,.04h-.06s-.03,0-.03,0l-.03-.02h-.05l-.06,.05h-.02s-.04-.02-.04-.02h0s-.04,0-.04,0l-.03,.02-.05,.04h-.01s-.03,.06-.03,.06h-.02s-.04,.04-.04,.04l-.11,.11-.04,.02-.08,.08-.02,.04v.06s.04,.05,.04,.05l.02,.05v.05l-.02,.05-.11,.12-.03,.05-.02,.02-.05,.04-.12,.15-.02,.02h-.03s-.03,.04-.03,.04h-.02s0,0,0,0v.02s-.02,.02-.02,.02l-.05,.03v.03s-.01,.01-.01,.01l-.02,.02h0v.02h0s0,.02,0,.02v.02l-.02,.03h-.02s-.02,.01-.02,.01l-.03,.02-.02,.03v.02s-.02,.01-.02,.01h-.06s-.02,.03-.02,.03v.03s-.01,.03-.01,.03v.03l.02,.06v.08h0s0,.02,0,.02h0s.02,.04,.02,.04v.02s-.03,.05-.03,.05v.38s-.02,.06-.02,.06l-.03,.04h-.02s-.02-.02-.02-.02h-.02s0,.01,0,.01h-.04s-.02,.03-.02,.03v.09s0,.02,0,.02l-.04,.04v.03s0,.03,0,.03v.02s-.05,.04-.05,.04v.04s-.04,.04-.04,.04v.02s.03,.02,.03,.02v.02s.01,.02,.01,.02v.03h-.01s0,.01,0,.01h-.02s-.02,.02-.02,.02h-.02s0,0,0,0h0s0,.02,0,.02h0s0,.03,0,.03h0s.02,.04,.02,.04l.02,.06v.17l-.02,.12-.02,.06-.03,.04v.02s-.02,.14-.02,.14l-.03,.13v.04s-.01,.02-.01,.02v.06s0,.03,0,.03l-.03,.06-.02,.05-.02,.02h-.04v.02s-.01,.01-.01,.01v.02s-.02,.1-.02,.1v.02s-.02,.02-.02,.02l-.02,.02-.02,.02v.02s-.02,.06-.02,.06l-.04,.11-.02,.06v.04h.05s.01,.03,.01,.03v.06s-.02,.02-.02,.02h-.02l-.03-.02h-.01l-.06,.06-.02,.02v.03s-.02,.21-.02,.21l-.02,.1v.1s0,.05,0,.05l-.04,.14v.05l-.03,.04-.11,.06-.04,.04v.08s0,.02,0,.02l-.02,.03-.09,.08h-.02s-.02,0-.02,0v-.03s-.02-.01-.02-.01h-.04s-.04,.04-.04,.04l-.02,.02-.03,.1,.05,.09,.06,.09v.1s-.03,.08-.03,.08v.03s0,.04,0,.04l.07,.68-.02,.19,.02,.17v.05s0,.14,0,.14l-.02,.07h-.06s.02,.14,.02,.14v.05l-.04,.19v.31s-.01,.02-.01,.02v.04s.02,.01,.02,.01h0s.02,.01,.02,.01l.03,.02h.05v-.02l.02-.02,.03-.02,.07-.04,.08-.06,.07-.03,.08-.02h.08s.01-.01,.01-.01h.01s.01,0,.01,0h.02s.06,.03,.06,.03h.03s0-.01,0-.01h.03v.04s.02,.02,.02,.02h0s.02,.02,.02,.02h.02s.02,.01,.02,.01h.02s0,.03,0,.03v.02h.01s.12,0,.12,0h.14s.02-.02,.02-.02h.02l.04,.02h.03s.1,.02,.1,.02h.06s.02,.01,.02,.01l.04-.02,.08-.07,.04-.02h.04s.03-.02,.03-.02l.06-.05,.08-.04,.06-.02v-.02s.03-.03,.03-.03h.02s.01-.01,.01-.01l.03-.02h.02s0-.03,0-.03v-.04s.05-.01,.05-.01l.03-.02h.05s.09-.06,.09-.06l.19-.03h.04s.04-.01,.04-.01l.03,.02h.02s.01,0,.01,0v.02s.03,0,.03,0h.04s.02,0,.02,0h.02s0,0,0,0l.04-.02h.03s.01,0,.01,0h.01l.07-.02h.03s.06,.06,.06,.06h.03s.04,0,.04,0l.04,.02,.02,.02,.02,.07,.02,.02,.02,.03-.02,.05,.15,.08,.15,.12,.17,.09,.16,.09,.02,.02,.08,.11,.02,.02h.04s.02,0,.02,0l.03-.02h.07s.04,0,.04,0l.03,.02h.04s.03-.02,.03-.02h.09s.04,0,.04,0l.02-.04h0s1.02,0,1.02,0h6.3s0,.03,0,.03h.01s.01,.02,.01,.02l.03,.07v.02h.05s.06,.13,.06,.13v.02h.03s.09,.09,.09,.09h0s.02,.04,.02,.04v.02s.02,.02,.02,.02l.03,.02h.02s.1,.12,.1,.12l.04,.05,.02,.02,.07,.02,.15,.08,.23,.04h.15s.06-.03,.06-.03h.04s.02,0,.02,0h.05s.08,0,.08,0l.03,.02,.27,.08h.3l.1-.03h.08s.02,.04,.02,.04h.02s.04,.03,.04,.03h.04s.03,.01,.03,.01h0s.02-.04,.02-.04h.01s.27,0,.27,0l.06,.04,.06,.02h.12s.05,0,.05,0h.05s.01,0,.01,0l.02-.02h.04s.05-.01,.05-.01l.04,.02,.06-.05h.02s.02,.01,.02,.01h.06s.02,0,.02,0l.07,.06h.04s.04,0,.04,0l.04,.04,.03,.04,.02,.02,.06,.03,.05,.04h.02s.04,0,.04,0h.13l.03,.02v.02s.04,.01,.04,.01h.04v-.02s.04,0,.04,0l.05,.03,.04,.04h.04l.05-.02h.06s.02-.06,.02-.06l.16-.04,.16-.04h.03s.03,0,.03,0h.03s.03-.01,.03-.01h.12l.08,.04,.1,.04,.05,.02,.03,.04h.04s.12-.03,.12-.03l.43-.08,.43-.08,.43-.08,.43-.08,.35-.07,.35-.07,.35-.07,.35-.07,.14-.03v-.02s0-.02,0-.02v-.03s-.03-.03-.03-.03l-.03-.04-.04-.02h-.02s-.02-.02-.02-.02h-.12s-.03,0-.03,0h-.03s-.02-.03-.02-.03v-.08l-.02-.02-.08-.03-.04-.03-.04-.05-.03-.06v-.05s-.02-.02-.02-.02l-.07-.08-.02-.02-.08-.02-.1-.04-.05-.03-.07-.06-.05-.03-.02-.02-.02-.03-.02-.08-.02-.05-.04-.05-.08-.08-.02-.02-.1-.04h-.03s0-.02,0-.02v-.05l-.02-.02-.06-.02-.02-.02-.02-.02-.02-.05-.12-.2v-.02s-.03,0-.03,0h-.04s0-.02,0-.02v-.02s-.04-.04-.04-.04v-.02s-.03-.02-.03-.02h-.05s0,0,0,0v-.02h-.05s-.03,.02-.03,.02h-.04s-.15-.13-.15-.13v-.02s-.01-.03-.01-.03v-.02s-.03-.01-.03-.01h-.03v-.02s0-.02,0-.02v-.02s0-.02,0-.02l-.03-.05v-.02s0-.03,0-.03v-.03s.03-.03,.03-.03l.02-.02v-.02h-.02s-.06-.02-.06-.02h0s0-.05,0-.05v-.02h0s-.02-.03-.02-.03h0s0-.04,0-.04v-.05s-.03-.02-.03-.02h.06l-.06-.1-.04-.06v-.29h0v-5.32h3.48l-.02-.06-.03-.06-.04-.05-.1-.1-.04-.05-.02-.06v-.07s.04-.08,.04-.08l.03-.13,.03-.12,.02-.05,.08-.12,.06-.08,.02-.03v-.11s-.02-.11-.02-.11l-.02-.04-.04-.04-.04-.06v-.08s0-.25,0-.25v-.23s.05-.08,.05-.08v-.06s-.01-.13-.01-.13l-.02-.04-.02-.03v-.04s-.01-.04-.01-.04v-.04s.04-.07,.04-.07l.05-.08v-.02s0-.07,0-.07v-.04l.06,.13Z" fill="#fff"/><polygon id="q" points="7.13 6.28 7.15 6.28 7.16 6.3 7.17 6.29 7.2 6.25 7.21 6.24 7.23 6.24 7.25 6.25 7.25 6.27 7.25 6.29 7.24 6.3 7.21 6.33 7.2 6.34 7.18 6.34 7.17 6.34 7.15 6.33 7.14 6.32 7.11 6.32 7.09 6.32 7.09 6.34 7.16 6.48 7.24 6.59 7.34 6.78 7.38 6.89 7.39 6.97 7.42 7.01 7.44 7.07 7.45 7.09 7.45 7.14 7.44 7.17 7.42 7.18 7.4 7.19 7.38 7.19 7.36 7.2 7.34 7.22 7.3 7.33 7.33 7.44 7.41 7.58 7.49 7.53 7.64 7.51 7.8 7.51 7.92 7.51 7.93 7.35 7.93 7.24 7.94 7.03 7.95 6.82 7.96 6.68 7.96 6.54 7.95 6.49 7.93 6.47 7.82 6.44 7.81 6.42 7.81 6.41 7.8 6.39 7.81 6.38 7.81 6.36 7.83 6.36 7.84 6.36 7.85 6.36 8 6.3 8.06 6.26 8.09 6.2 8.09 6.17 8.11 6.15 8.18 6.15 8.22 6.13 8.23 6.11 8.23 6.09 8.25 6.05 8.27 6.03 8.35 5.98 8.37 5.96 8.37 5.92 8.38 5.88 8.4 5.85 8.43 5.82 8.49 5.79 8.82 5.71 8.88 5.68 8.9 5.64 8.82 5.6 8.7 5.46 8.64 5.41 8.6 5.37 8.57 5.29 8.55 5.25 8.52 5.24 8.5 5.24 8.48 5.25 8.45 5.26 8.43 5.25 8.39 5.22 8.36 5.22 8.32 5.24 8.3 5.28 8.29 5.32 8.26 5.35 8.23 5.37 8.2 5.39 8.18 5.42 8.14 5.49 8.12 5.51 8.1 5.52 7.91 5.55 7.79 5.59 7.76 5.59 7.71 5.59 7.7 5.61 7.7 5.68 7.69 5.72 7.62 5.86 7.6 5.88 7.58 5.89 7.52 5.9 7.49 5.9 7.47 5.91 7.45 5.93 7.43 5.89 7.42 5.87 7.4 5.86 7.38 5.86 7.37 5.86 7.32 6.04 7.27 6.11 7.07 6.29 7.1 6.28 7.13 6.28" fill="#fff"/></g><g><path id="r" d="M20.66,17.12l-4.89,4.89c.69,.18,1.51,.27,2.5,.23l2.61-2.61c.04-.99-.04-1.81-.23-2.5Z"/><path id="s" d="M14.63,13.93l-2.04,2.04c-.07,.49-.11,1.04-.09,1.6l3.73-3.73c-.56-.02-1.11,.02-1.6,.09Z"/><path id="t" d="M20.29,16.14c-.2-.41-.45-.75-.73-1.03l-5.73,5.73s-.06,.04-.09,.06c.29,.29,.65,.55,1.08,.76,.02-.04,.05-.09,.08-.13l5.39-5.39h0Z"/><path id="u" d="M17.2,13.94s-.04,.06-.06,.09l-4.54,4.54c.1,.53,.27,1.05,.54,1.53l5.62-5.62c-.48-.28-1.01-.45-1.55-.55h0Z"/><polygon id="v" points="6.63 26.92 6.64 26.92 6.66 26.92 6.59 26.78 6.57 26.72 6.56 26.6 6.56 26.52 6.56 26.48 6.54 26.45 6.51 26.44 6.48 26.46 6.46 26.48 6.46 26.51 6.46 26.54 6.57 26.85 6.62 26.91 6.63 26.92"/><polygon id="w" points="22.39 29.1 22.42 29.05 22.58 29.01 22.74 28.97 22.77 28.98 22.79 28.97 22.83 28.96 22.85 28.95 22.88 28.96 22.95 28.95 22.98 28.96 23.06 29 23.16 29.04 23.21 29.06 23.23 29.1 23.25 29.11 23.28 29.09 23.4 29.07 23.83 28.99 24.27 28.9 24.7 28.82 25.13 28.74 25.49 28.67 25.84 28.6 26.19 28.53 26.54 28.46 26.69 28.43 26.68 28.41 26.68 28.38 26.69 28.36 26.65 28.33 26.62 28.29 26.58 28.26 26.56 28.25 26.53 28.24 26.48 28.24 26.44 28.24 26.42 28.25 26.39 28.25 26.36 28.24 26.34 28.22 26.34 28.2 26.34 28.17 26.33 28.14 26.32 28.12 26.24 28.09 26.2 28.05 26.15 28.01 26.12 27.95 26.11 27.91 26.1 27.88 26.03 27.81 26 27.79 25.92 27.77 25.82 27.72 25.77 27.69 25.7 27.63 25.65 27.6 25.63 27.58 25.61 27.56 25.59 27.47 25.57 27.43 25.53 27.38 25.45 27.29 25.43 27.27 25.32 27.23 25.3 27.23 25.29 27.23 25.29 27.21 25.29 27.18 25.28 27.17 25.26 27.14 25.21 27.12 25.18 27.11 25.17 27.09 25.15 27.04 25.02 26.84 25.01 26.82 24.99 26.81 24.97 26.81 24.95 26.8 24.95 26.79 24.93 26.77 24.91 26.73 24.9 26.71 24.88 26.69 24.83 26.69 24.83 26.68 24.82 26.67 24.8 26.66 24.8 26.67 24.79 26.67 24.78 26.67 22.34 29.11 22.39 29.1"/><path id="x" d="M12.95,14.29c-.07,.23-.15,.55-.23,.95l1.19-1.19c-.4,.08-.73,.17-.95,.23h0Z"/><polygon id="y" points="11.48 7.82 11.43 7.82 11.32 7.79 11.24 7.81 11.09 7.8 10.91 7.8 10.87 7.79 10.77 7.76 10.73 7.75 10.53 7.77 10.5 7.76 10.46 7.73 10.39 7.71 10.16 7.73 9.87 7.76 9.73 7.74 9.72 7.75 9.69 7.76 9.66 7.76 9.61 7.74 9.48 7.74 9.42 7.74 9.41 7.75 9.37 7.79 9.36 7.8 9.3 7.77 9.23 7.75 9.08 7.74 9.06 7.75 8.99 7.79 8.96 7.8 8.94 7.8 8.86 7.78 8.85 7.78 8.8 7.79 8.77 7.79 8.74 7.79 8.71 7.79 8.69 7.81 8.67 7.83 8.64 7.88 8.63 7.9 8.6 7.92 8.46 7.99 8.43 8 8.32 8 8.29 8.02 8.27 8.01 8.24 8 8.21 7.99 8.19 8 8.15 8.04 8.13 8.05 8.03 8.05 8.02 8.05 8 8.06 7.99 8.08 7.98 8.08 7.95 8.07 7.94 8.07 7.77 8.12 7.68 8.12 7.63 8.14 7.6 8.14 7.58 8.15 7.54 8.18 7.51 8.19 7.51 8.18 7.54 8.17 7.54 8.16 7.5 8.12 7.52 8.12 7.54 8.11 7.56 8.1 7.58 8.08 7.52 8.09 7.48 8.12 7.47 8.17 7.5 8.22 7.64 8.38 7.65 8.41 7.67 8.49 7.72 8.57 7.73 8.65 7.83 8.79 7.97 9.08 8.11 9.2 8.26 9.39 8.38 9.57 8.42 9.58 8.47 9.55 8.48 9.56 8.48 9.57 8.47 9.57 8.47 9.59 8.46 9.6 8.45 9.61 8.45 9.62 8.45 9.63 8.45 9.64 8.46 9.65 8.46 9.67 8.48 9.72 8.5 10.07 8.51 10.12 8.53 10.17 8.55 10.19 8.59 10.24 8.6 10.26 8.76 10.67 11.62 7.8 11.48 7.82"/><path id="z" d="M12.32,13.67c.35-1.23,.5-2.24,.54-3.08l-3.62,3.62c.84-.03,1.85-.19,3.08-.54h0Z"/><path id="aa" d="M20.32,22.8c-9.98,1.71-8.91-5.7-8.25-8.25-1.02,.26-1.91,.4-2.68,.44l.03,.05,.07,.07,.03,.04,.02,.08,.02,.04,.09,.13,.02,.04v.16s.02,.03,.02,.03l.02,.04,.11,.09,.16,.19v.02s.02,.02,.02,.02l.07,.06,.02,.03v.03s.01,.03,.01,.03l-.06,.06-.02,.03v.03l.02,.03,.15,.23,.02,.06v.06s0,.13,0,.13v.1l-.04,.25v.07l-.04,.04v.02s0,.02,0,.02v.14s-.01,.02-.01,.02v.02s0,.03,0,.03v.04s-.02,.19-.02,.19l.03,.32v.04l-.02,.05-.03,.17v.04s-.03,.03-.03,.03l-.02,.03-.02,.03v.03s-.03,.12-.03,.12l-.02,.06-.05,.1-.04,.14-.02,.03-.06,.06-.04,.06-.03,.03v-.02s0-.02,0-.02h.01s.02-.02,.02-.02h0s-.01-.01-.01-.01l-.11,.11-.03,.05v.03s-.02,.03-.02,.03v.1s-.03,.02-.03,.02l-.04,.03-.08,.08-.05,.04h-.06s-.03,0-.03,0l-.03-.02h-.06l-.06,.05h-.02s-.04-.02-.04-.02h0s-.04,0-.04,0l-.03,.02-.05,.04h-.01s-.03,.06-.03,.06h-.02s-.04,.04-.04,.04l-.11,.11-.04,.02-.08,.08-.02,.04v.06s.04,.05,.04,.05l.02,.05v.05l-.02,.05-.11,.12-.03,.05-.02,.02-.05,.04-.12,.15-.02,.02h-.03s-.03,.04-.03,.04h-.02s0,0,0,0v.02s-.02,.02-.02,.02l-.05,.03v.03s-.01,.01-.01,.01l-.02,.02h0v.02h0s0,.02,0,.02v.02l-.02,.03h-.02s-.02,.01-.02,.01l-.03,.02-.02,.03v.02s-.02,.01-.02,.01h-.06s-.02,.03-.02,.03v.03s-.01,.03-.01,.03v.03l.02,.06v.08h0s0,.02,0,.02h0s.02,.04,.02,.04v.02s-.03,.05-.03,.05v.38s-.02,.06-.02,.06l-.03,.04h-.02s-.02-.02-.02-.02h-.02s0,.01,0,.01h-.04s-.02,.03-.02,.03v.09s0,.02,0,.02l-.04,.04v.03s0,.03,0,.03v.02s-.05,.04-.05,.04v.04s-.04,.04-.04,.04v.02s.03,.02,.03,.02l.02,.02v.05h-.01s0,.01,0,.01h-.02s-.02,.02-.02,.02h-.02s0,0,0,0h0s0,.02,0,.02h0s0,.03,0,.03h0s.02,.04,.02,.04l.02,.06v.17l-.02,.12-.02,.06-.03,.04v.02s-.02,.14-.02,.14l-.03,.13v.04s-.01,.02-.01,.02v.06s0,.03,0,.03l-.03,.06-.02,.05-.02,.02h-.04v.02s-.01,.01-.01,.01v.02s-.02,.1-.02,.1v.02s-.02,.02-.02,.02l-.02,.02-.02,.02v.02s-.02,.06-.02,.06l-.04,.11-.02,.06v.04h.05s.01,.03,.01,.03v.06s-.02,.02-.02,.02h-.02l-.03-.02h-.01l-.06,.06-.02,.02v.03s-.02,.21-.02,.21l-.02,.1v.1s0,.05,0,.05l-.04,.14v.05l-.03,.04-.11,.06-.04,.04v.08s0,.02,0,.02l-.02,.03-.09,.08h-.02s-.02,0-.02,0v-.03s-.02-.01-.02-.01h-.04s-.04,.04-.04,.04l-.02,.02-.03,.1,.05,.09,.06,.09v.1s-.03,.08-.03,.08v.03s0,.04,0,.04l.07,.68-.02,.19,.02,.17v.05s0,.14,0,.14l-.02,.07h-.06s.02,.14,.02,.14v.05l-.04,.19v.31s-.01,.02-.01,.02v.04s.02,.01,.02,.01h0s.02,.01,.02,.01l.03,.02h.05v-.02l.02-.02,.03-.02,.07-.04,.08-.06,.07-.03,.08-.02h.08s.01-.01,.01-.01h.01s.01,0,.01,0h.02s.06,.03,.06,.03h.03s0-.01,0-.01h.03v.04s.02,.02,.02,.02h0s.02,.02,.02,.02h.02s.02,.01,.02,.01h.02s0,.03,0,.03v.02h.01s.12,0,.12,0h.14s.02-.02,.02-.02h.02l.04,.02h.03s.1,.02,.1,.02l.06,.02h.02l.04-.02,.08-.07,.04-.02h.04s.03-.02,.03-.02l.06-.05,.08-.04,.06-.02v-.02s.03-.03,.03-.03h.02s.01-.01,.01-.01l.03-.02h.02s0-.03,0-.03v-.04s.05-.01,.05-.01l.03-.02h.05s.09-.06,.09-.06l.19-.03h.04s.04-.01,.04-.01l.03,.02h.02s.01,0,.01,0v.02s.03,0,.03,0h.04s.02,0,.02,0h.02s0,0,0,0l.04-.02h.03s.01,0,.01,0h.01l.07-.02h.03s.06,.06,.06,.06h.03s.04,0,.04,0l.04,.02,.02,.02,.02,.07,.02,.02,.02,.03-.02,.05,.15,.08,.15,.12,.17,.09,.16,.09,.02,.02,.08,.11,.02,.02h.04s.02,0,.02,0l.03-.02h.07s.04,0,.04,0l.03,.02h.04s.03-.02,.03-.02h.09s.04,0,.04,0l.02-.04h0s1.02,0,1.02,0h6.31s0,.03,0,.03h.01s.01,.02,.01,.02l.03,.07v.02h.05s.06,.13,.06,.13v.02h.03s.09,.09,.09,.09h0s.02,.04,.02,.04v.02s.02,.02,.02,.02l.03,.02h.02s.1,.12,.1,.12l.04,.05,.02,.02,.07,.02,.15,.08,.23,.04h.15s.06-.03,.06-.03h.04s.02,0,.02,0h.05s.08,0,.08,0l.03,.02,.27,.08h.3l.1-.03h.08s.02,.04,.02,.04h.02s.04,.03,.04,.03h.04s.03,.01,.03,.01h0s.02-.04,.02-.04h.01s.06,0,.06,0c-1.51-2.15-.7-4.9-.24-6.03v.06Z"/><rect id="ab" x="21.17" y="22.17" width=".4" height=".4" transform="translate(-4.6 39.18) rotate(-79.22)"/><path id="ac" d="M20.51,25.25l3.39-3.39c-1.34,.13-2.43,.64-2.61,.73-.01,0-.03,0-.04,.02,0,.01,0,.03-.02,.04-.09,.17-.6,1.27-.73,2.61h0Z"/><path id="ad" d="M13.2,13.41c2.55-.65,9.96-1.73,8.25,8.25,.6-.24,1.65-.58,2.82-.63v-.87h3.49l-.02-.06-.03-.06-.04-.05-.1-.1-.04-.05-.02-.06v-.07s.04-.08,.04-.08l.03-.13,.03-.12,.02-.05,.08-.12,.06-.09,.02-.03v-.11s-.02-.11-.02-.11l-.02-.04-.04-.04-.04-.06v-.08s0-.25,0-.25v-.23s.05-.08,.05-.08v-.06s-.01-.13-.01-.13l-.02-.04-.02-.03v-.04s-.01-.04-.01-.04v-.04s.04-.07,.04-.07l.05-.08v-.02s0-.07,0-.07v-.04l.02-.03,.06-.04,.02-.02v-.02l-.08-.17v-.04s0-.25,0-.25h-.04v-.03s0-.07,0-.07v-.13s.02-.03,.02-.03v-.02s-.04-.05-.04-.05v-.03s-.02-.09-.02-.09l-.03,.02-.02,.04v.04s-.02,.04-.02,.04l-.02,.02-.04,.02h-.02s-.01,.03-.01,.03v.04s-.02,.02-.02,.02l-.06,.02h-.07s-.07-.04-.07-.04h-.07s-.07,0-.07,0h-.06l-.15-.04-.11-.03h-.14l-.07,.02-.12,.06-.19,.1-.14,.02-.17,.03h-.14s-.04-.02-.04-.02l-.06-.04-.04-.02h-.04l-.04,.02-.04,.03-.04,.02h-.06s-.07,0-.07,0l-.07-.02-.06-.02-.13-.05h-.06s-.06,.15-.06,.15l-.05,.04-.17,.06-.02,.02-.08,.08-.03,.02h-.04l.02-.07v-.08s-.01-.15-.01-.15v-.03s-.04-.05-.04-.05v-.03h-.01s-.02-.03-.02-.03h0s0-.08,0-.08l-.04-.12-.02-.03v-.03l.03-.04,.04-.04,.03-.02,.07-.03h.04s.03-.01,.03-.01l.02-.02v-.1h0v-.02s-.02-.04-.02-.04v-.21s-.02-.04-.02-.04l-.02-.02-.02-.02v-.07s.05-.06,.05-.06v-.03s0-.02,0-.02v-.04s.01-.02,.01-.02v-.02l-.02-.03-.02-.05-.04-.07-.03-.08-.04-.08-.03-.08v-.06s0-.02,0-.02l-.02-.07-.04-.1v-.06s-.02-.04-.02-.04l-.02-.03-.07-.04-.03-.02h-.02s-.01,0-.01,0h-.03s-.1-.12-.1-.12l-.02-.05v-.06h-.02s-.03,.02-.03,.02h-.01l-.02-.06-.11-.12-.04-.07-.02-.07-.02-.15-.02-.07v-.02s-.04-.04-.04-.04v-.02s0-.02,0-.02l.02-.04v-.06s.06-.11,.06-.11l.02-.07v-.07l-.02-.17,.02-.2v-.23s.03-.04,.03-.04v-.06s.02-.01,.02-.01l.02-.11,.02-.13,.02-.05,.03-.06h-.02s0,0,0,0h0s.04-.14,.04-.14v-.08s0-.08,0-.08l-.04-.07-.02-.04v-.02s.04-.02,.04-.02l-.02-.03-.05-.05-.02-.03-.02-.08v-.1s-.02-.02-.02-.02l-.04-.05-.02-.03v-.04s-.01-.04-.01-.04l-.02-.02-.06-.03-.02-.02v-.03s0-.12,0-.12v-.02l.02-.04v-.08s0-.08,0-.08v-.03s.03-.06,.03-.06v-.04s.03-.06,.03-.06l.02-.06,.02-.06v-.03h0s.02-.04,.02-.04h0s0-.08,0-.08v-.02h-.01v-.06l.02-.04v-.02h0s-.02-.03-.02-.03h0v-.04s0-.01,0-.01v-.02h-.01s-.01-.02-.01-.02v-.02s-.01,0-.01,0h.01v-.04s-.01-.01-.01-.01l-.04-.08h-.01s-.01-.02-.01-.02h-.02v-.02h-2.21v-.17s0-.08,0-.08l.04-.1,.03-.07,.05-.12,.04-.11h-.5l-.02,.02-.02,.03v.02s-.02,.06-.02,.06v.02h-1.33l.03,.07v.05s-.06,.06-.06,.06l-.02,.03-.02,.06-.02,.28v.06l.02,.06,.05,.12v.06l-.05,.04h0l-.02,.03-.02,.07-.02,.03h-.03s-.12,0-.12,0v.09s.03,.05,.03,.05v.04s.01,.04,.01,.04v.04s-.04,.11-.04,.11l-.02,.05-.02,.08v.1l.04,.14h-1.01l-.03-.04v-.02s-.02-.05-.02-.05h-.02s-.39,0-.39,0l-.02,.02v.1s-.03,0-.03,0h-.15s-.04,.02-.04,.02h-.03s-.02,0-.02,0l-.06-.03h-.21s-.03,0-.03,0l-.07,.04h-.03s-.03,.03-.03,.03l-.02,.04v.09s-.15,0-.15,0h-.05s-.09-.08-.09-.08l-.05-.02h-.06s-.03,0-.03,0l-.11,.06h-.02l-.06-.02h-.05l-.15,.05h-.05l-.1-.02v-.02s-.03-.03-.03-.03l.02-.05v-.03s-.02-.01-.02-.01l-.04-.02-.02-.02v-.02s-.02-.06-.02-.06h0s-.01,.02-.01,.02h0s0,0,0,0h0s0-.02,0-.02l-.04-.02h-.02s0-.02,0-.02v-.02s.02-.02,.02-.02v-.02s-.01-.02-.01-.02h-.02s0,0,0,0v-.04h-.04s-.01,0-.01,0l.02-.02h0s-.03-.01-.03-.01v-.02s0-.02,0-.02v-.02h-.02s-.04,0-.04,0v-.02s-.02-.02-.02-.02l-.03-.03v-.02s0-.02,0-.02v-.02s.01-.02,.01-.02h-.03s0-.02,0-.02h0s-.03,0-.03,0v-.1s0-.03,0-.03l-.04-.02-.08-.04-.02-.04-.03-.08-.02-.04-.02-.02h-.02s-.01-.02-.01-.02v-.04s.02,0,.02,0h.02s0-.02,0-.02h0s-.02-.02-.02-.02h-.04s-.02-.02-.02-.02h-.01s-.01,0-.01,0v.03s-.04-.02-.04-.02v-.02s0-.06,0-.06v-.03s-.03-.02-.03-.02l-.04-.02-.06-.04-.05-.02v-.02s0-.06,0-.06l-.03-.04-.02-.02h-.02s0-.03,0-.03v-.09l-.03-.11v-.04l.06,.02v-.04l.02-.03v-.03s0-.03,0-.03h0s0-.02,0-.02h-.01s-.02-.01-.02-.01h-.02v-.04s0,0,0,0v-.1s-.03-.04-.03-.04l-.04-.03h-.06s-.02-.02-.02-.02l-.02-.02v-.02s0-.02,0-.02v-.02s-.1-.13-.1-.13v-.03s-.02-.03-.02-.03v-.1s-.04-.06-.04-.06v-.06l.02-.04v-.02l-.02-.02-.02-.02v-.02s-.01-.02-.01-.02v-.02s-.03,0-.03,0v-.02l.02-.02v-.02s.01-.02,.01-.02h-.04s0-.02,0-.02h0v-.09h.04s.01-.02,.01-.02v-.06s0-.13,0-.13v-.05s.01-.02,.01-.02v-.03s-.04-.04-.04-.04v-.02s-.03-.01-.03-.01h-.02s-.02-.02-.02-.02l-.03-.04-.02-.02h-.04l.04-.05v-.02h-.04s0,.01,0,.01v-.02s-.01-.11-.01-.11v-.04s-.03-.02-.03-.02h0s.02-.04,.02-.04v-.02l-.06-.03h-.01s-.06-.04-.06-.04h-.03s-.03,0-.03,0h-.04s-.06,.02-.06,.02h-.05l-.04-.02-.03-.02-.03-.02h-.04s-.1,0-.1,0h-.16s-.16,0-.16,0h-.16s-.16,0-.16,0h-.16s-.16,0-.16,0h-.16s-.12,0-.12,0c.55,1.12,.73,2.89,.03,5.66l.05,.06Z"/><path id="ae" d="M12.82,9.53c-.07-.58-.21-1.04-.4-1.42l-3.32,3.32v.04s.04,.06,.04,.06v.02s.03,.05,.03,.05v.02s.03,.03,.03,.03l.02,.08,.02,.02,.16,.25,.02,.04v.04s0,.13,0,.13v.02s-.02,.02-.02,.02h-.05l.02,.06,.02,.12,.02,.05,.05,.07v.02s0,.03,0,.03l-.03,.06-.02,.09-.04,.02-.11-.02h-.02v.02h0v.03h-.02s-.02,0-.02,0l-.03,.02-.06,.02-.02,.02,.02-.03,.08-.09h-.03s-.03,.04-.03,.04l-.05,.06v.02s0,.04,0,.04v.04s-.05,.05-.05,.05l-.02,.04-.02,.06-.02,.02h-.06v.02s0,.02,0,.02l-.1,.16-.02,.02-.02-.02v-.05s.08-.14,.08-.14l.12-.1,.04-.06-.09,.04-.1,.12-.07,.14v.1s.04,.05,.04,.05l.04,.1,3.92-3.92s.04-.03,.06-.04h.02Z"/><path id="af" d="M19.05,22.18c.48-.05,1-.12,1.55-.23,.1-.55,.18-1.07,.23-1.55l-1.78,1.78h0Z"/><path id="ag" d="M20.51,26.35c.08,.83,.38,1.69,1.05,2.43l2.79-2.79h0v-.03s-.03-.02-.03-.02h.06l-.06-.1-.04-.06v-.29h0v-2.9l-3.73,3.73s-.02,.01-.03,.02h0Z"/><polygon id="ah" points="7.11 6.28 7.14 6.28 7.15 6.3 7.17 6.29 7.19 6.25 7.2 6.24 7.23 6.24 7.24 6.25 7.24 6.27 7.24 6.29 7.23 6.3 7.2 6.33 7.19 6.34 7.17 6.34 7.15 6.34 7.15 6.33 7.13 6.32 7.09 6.32 7.08 6.32 7.08 6.34 7.15 6.48 7.23 6.59 7.33 6.78 7.36 6.89 7.38 6.97 7.41 7.01 7.43 7.07 7.44 7.09 7.44 7.15 7.43 7.17 7.42 7.19 7.39 7.19 7.37 7.2 7.35 7.2 7.33 7.22 7.29 7.33 7.32 7.44 7.4 7.58 7.48 7.54 7.63 7.51 7.79 7.52 7.92 7.52 7.92 7.36 7.92 7.25 7.93 7.03 7.94 6.82 7.95 6.68 7.95 6.55 7.94 6.49 7.92 6.47 7.81 6.44 7.81 6.43 7.8 6.41 7.79 6.39 7.79 6.38 7.81 6.36 7.81 6.36 7.83 6.36 7.84 6.36 7.99 6.31 8.05 6.26 8.08 6.2 8.08 6.17 8.1 6.15 8.17 6.15 8.21 6.13 8.22 6.11 8.23 6.09 8.24 6.05 8.27 6.03 8.34 5.99 8.36 5.96 8.36 5.92 8.37 5.89 8.39 5.85 8.42 5.82 8.47 5.79 8.81 5.71 8.87 5.68 8.89 5.64 8.81 5.6 8.7 5.46 8.63 5.41 8.6 5.37 8.56 5.29 8.54 5.25 8.51 5.24 8.49 5.24 8.47 5.25 8.44 5.26 8.42 5.25 8.37 5.22 8.35 5.22 8.31 5.24 8.29 5.28 8.28 5.32 8.25 5.35 8.22 5.37 8.2 5.39 8.17 5.42 8.13 5.49 8.11 5.51 8.09 5.52 7.89 5.55 7.78 5.59 7.75 5.59 7.71 5.59 7.69 5.61 7.69 5.68 7.68 5.72 7.61 5.86 7.59 5.88 7.57 5.89 7.51 5.9 7.48 5.9 7.46 5.91 7.44 5.93 7.42 5.89 7.4 5.87 7.39 5.86 7.37 5.86 7.36 5.87 7.31 6.04 7.26 6.11 7.06 6.29 7.09 6.29 7.11 6.28"/></g></g></g></g></g></svg>