<?xml version="1.0" encoding="UTF-8"?><svg id="b" xmlns="http://www.w3.org/2000/svg" xmlns:xlink="http://www.w3.org/1999/xlink" viewBox="0 0 278.41 41.06"><defs><linearGradient id="i" x1="-385.34" y1="526.41" x2="-385.34" y2="527.41" gradientTransform="translate(10439.95 8066.05) scale(27.02 -15.24)" gradientUnits="userSpaceOnUse"><stop offset=".09" stop-color="#f8d60d"/><stop offset=".28" stop-color="#f4bc19"/><stop offset=".55" stop-color="#ef9121"/><stop offset=".65" stop-color="#f1a81e"/><stop offset=".83" stop-color="#f7ca14"/><stop offset=".92" stop-color="#f8d60d"/></linearGradient><linearGradient id="k" x1="-387.03" y1="547.8" x2="-387.03" y2="548.8" gradientTransform="translate(11826.18 22531.63) scale(30.52 -41.06)" gradientUnits="userSpaceOnUse"><stop offset="0" stop-color="#b8202d"/><stop offset=".04" stop-color="#be2029"/><stop offset=".19" stop-color="#c92127"/><stop offset=".39" stop-color="#d02027"/><stop offset=".94" stop-color="#d22027"/><stop offset=".95" stop-color="#dd2d2a"/><stop offset=".97" stop-color="#e74138"/><stop offset=".98" stop-color="#ce2328"/><stop offset=".98" stop-color="#c12126"/></linearGradient></defs><g id="c"><g id="d"><g id="e"><g id="f"><g id="g"><path id="h" d="M28.94,.32h2.03s1.44-.18,1.91,.84c.47,1.01,14.63,39.55,14.63,39.55l-16.49,.35L21.69,14.11l2.52-11.43,.82-1.23,3.91-1.14h0Z" fill="#010101"/><path id="j" d="M14.62,40.83s3.74,1.05,6.44-1.39c2.7-2.44,15.94-12.33,20.57-13.63H25.17s-5.38,.46-10.56,4.96v10.05h.01Z" fill="url(#i)"/><path id="l" d="M30.52,.32s-1.48,.39-1.98,2.61-12.22,35.13-12.22,35.13c0,0-.51,3.15,.7,2.99H1.58s-2.24-.18-1.38-2.86C1.06,35.51,13.29,1.89,13.29,1.89,13.29,1.89,13.71-.02,15.56,0c1.85,.02,14.96,.32,14.96,.32Z" fill="url(#k)"/></g><g><g><path id="m" d="M60.25,12.73v2.07c-.65,.26-1.34,.39-2.04,.38-2.12,0-3.44-1.48-3.44-3.16s1.12-3.23,3.33-3.23c.85,0,1.16,.19,1.47,.19,.07,0,.14-.02,.2-.07h.15l.27,1.18-.15,.05c-.31-.42-1.01-.77-1.77-.77-1.3,0-2.12,1.1-2.12,2.72,0,1.52,.88,2.54,2,2.54,.27,0,.53-.04,.77-.15v-1.73c.02-.26-.18-.49-.44-.5h-.04v-.11h2.24v.11c-.25,.02-.43,.23-.42,.48h0Z" fill="#1d1d1b"/><path id="n" d="M68.12,15.18c-2.13,0-3.29-1.59-3.29-3.19s1.01-3.22,3.3-3.22c1.35,0,3.29,.78,3.29,3.37,0,1.42-1.1,3.05-3.3,3.05h0Zm.02-5.83c-.82,0-1.94,.61-1.94,2.51,0,1.51,.68,2.72,1.95,2.72,.97,0,1.88-.77,1.88-2.5,0-2.11-1.11-2.73-1.89-2.73h0Z" fill="#1d1d1b"/><path id="o" d="M80.02,9.67l-2.28,5.67-2.34-5.56c-.2-.48-.37-.77-.65-.77v-.11h2.24v.11c-.35,0-.35,.3-.25,.53l1.4,3.44,1.32-3.37c.15-.37,.1-.56-.2-.58v-.11h1.33v.11c-.17,0-.4,.26-.57,.66v-.02Z" fill="#1d1d1b"/><path id="p" d="M88.35,15.05h-4.03v-.11c.25,0,.42-.09,.42-.61v-4.76c0-.44-.28-.57-.47-.57v-.11h3.98l-.13,.94-.11-.02c-.03-.35-.24-.4-1.19-.4h-.77v2.26h.71c.68,0,1.25,.1,1.25-.41h.13v1.37h-.13c0-.49-.45-.44-1.25-.44h-.7v1.86c0,.38,.2,.47,.53,.47h.9c.53,0,.98-.22,1.16-.51l.13,.06-.43,.97h0Z" fill="#1d1d1b"/><path id="q" d="M96.42,15.05l-1.61-2.7c-.15,.02-.3,.03-.46,.02v1.94c0,.53,.37,.63,.46,.63v.11h-2.21v-.11c.11,0,.45-.06,.45-.61v-4.72c0-.45-.28-.61-.49-.61v-.11h1.83c.31,0,2.8-.23,2.8,1.61,.04,.73-.45,1.39-1.16,1.56l1.59,2.42c.1,.15,.33,.42,.6,.44v.11h-1.8v.02Zm-1.65-5.66h-.42v2.48h.35c.77,0,1.2-.54,1.2-1.24,0-.86-.49-1.23-1.12-1.23h0Z" fill="#1d1d1b"/><path id="r" d="M107.4,9.6v5.77l-4.51-5.41v4.34c0,.48,.18,.64,.47,.64v.11h-1.45v-.11c.26,0,.44-.1,.44-.58v-4.7c0-.55-.21-.66-.47-.66v-.11h1.83l3.13,3.73v-2.98c0-.49-.24-.64-.5-.64v-.11h1.51v.11c-.3,0-.45,.16-.45,.59h0Z" fill="#1d1d1b"/><path id="s" d="M115.24,15.18c-2.13,0-3.29-1.59-3.29-3.19s1.01-3.22,3.3-3.22c1.35,0,3.29,.78,3.29,3.37,0,1.42-1.1,3.05-3.3,3.05h0Zm.02-5.83c-.81,0-1.94,.61-1.94,2.51,0,1.51,.68,2.72,1.95,2.72,.97,0,1.88-.77,1.88-2.5,0-2.11-1.11-2.73-1.89-2.73h0Z" fill="#1d1d1b"/><path id="t" d="M131.61,15.05h-2.48v-.11c.18,0,.45-.05,.45-.61v-4.72c0-.42-.09-.61-.49-.61v-.11h2.61c2.56,0,3.33,1.75,3.33,3.07,0,1.4-.95,3.08-3.42,3.08h0Zm-.05-5.61h-.64v4.8c0,.26,.23,.31,.55,.31,1.6,0,2.22-1.33,2.22-2.59s-.56-2.52-2.13-2.52h0Z" fill="#1d1d1b"/><path id="u" d="M143.27,15.05h-4.03v-.11c.25,0,.42-.09,.42-.61v-4.76c0-.44-.28-.57-.47-.57v-.11h3.98l-.13,.94-.11-.02c-.03-.35-.25-.4-1.19-.4h-.77v2.26h.7c.68,0,1.25,.1,1.25-.41h.13v1.37h-.13c0-.49-.45-.44-1.25-.44h-.7v1.86c0,.38,.2,.47,.53,.47h.91c.53,0,.98-.22,1.16-.51l.13,.06-.43,.97h0Z" fill="#1d1d1b"/></g><g><path id="v" d="M149.07,32.17h-7.35l.77-.93c-.25-.58-.5-1.15-.78-1.8h-4.28l-.82,1.77,.77,.91h-3.92c1.14-.43,1.46-1.48,1.89-2.39,1.76-3.81,3.47-7.65,5.21-11.47,.15-.26,.31-.51,.5-.74,.86,1.72,1.66,3.3,2.45,4.88,1.3,2.63,2.6,5.26,3.9,7.89,.36,.72,.72,1.47,1.68,1.54v.34h-.02Zm-9.53-7.7l-1.55,3.55h3.07c-.5-1.17-.95-2.21-1.52-3.55h0Z" fill="#010101"/><path id="w" d="M81.39,32.45l-9.66-8.01c0,2.31-.07,4.3,.05,6.28,.03,.49,.64,.95,.98,1.4h-14.8l.5-1.02-.79-1.7h-4.24c-.27,.58-.53,1.15-.8,1.75l.67,.99h-3.84c1.01-.5,1.43-1.42,1.85-2.34,1.77-3.87,3.54-7.74,5.31-11.61,.11-.2,.22-.4,.35-.58,.28,.44,.54,.79,.73,1.17,1.92,3.86,3.82,7.74,5.75,11.6,.69,1.38,1.48,1.77,2.75,1.45,.26-.06,.48-.29,.8-.49v-13.41c3.33,2.76,6.42,5.34,9.7,8.07v-6.7l-1.01-.95h7.05c-1.3,.59-1.37,1.43-1.36,2.35,.02,3.84,.01,7.69,.01,11.74h0Zm-24.28-4.3c-.56-1.29-.78-2.38-1.68-3.34l-1.4,3.17c.31,.07,.63,.13,.95,.16,.61,.02,1.22,0,2.13,0h0Z" fill="#010101"/><path id="x" d="M109.94,32.59c-.99-.18-2.21-.27-3.35-.62-3.09-.96-4.75-3.3-4.82-6.59-.07-3.38,1.68-5.9,4.9-6.88,2.6-.79,5.23-.77,7.79,.2,2.53,.96,3.96,2.82,4.24,5.56,.49,4.73-2.18,7.42-6.15,8.05-.79,.12-1.59,.16-2.61,.27h0Zm4.13-7.26c-.28-1.4-.43-2.72-.81-3.96-.4-1.31-1.36-2.14-2.78-2.22-1.49-.08-2.59,.68-3.12,2.01-1.08,2.64-1.08,5.6,0,8.23,.5,1.24,1.52,2.03,2.96,1.99,1.44-.04,2.44-.8,2.86-2.1,.42-1.3,.59-2.65,.87-3.95h.01Z" fill="#010101"/><path id="y" d="M98.09,18.81c-.09,1.34-.18,2.51-.25,3.68l-.25,.04c-.23-.44-.45-.89-.7-1.33-.9-1.58-2.31-2.2-4.06-2.06-1.83,.15-2.92,1.24-3.41,2.95-.64,2.21-.59,4.44-.03,6.65,.16,.55,.43,1.07,.8,1.51,1.23,1.53,2.83,1.48,4.16-.05v-4.56h4.9c-.08,1.44-.17,2.89-.25,4.32-2.77,2.64-8.21,3.38-11.46,1.53-2.6-1.48-3.53-3.88-3.37-6.71,.23-4.02,2.48-6.27,6.73-6.73,2.37-.27,4.7,.1,7.19,.75h0Z" fill="#010101"/><path id="z" d="M132.04,32.12h-11.15c.21-.64,.6-1.28,.61-1.93,.06-3.28,.06-6.56,0-9.84-.01-.66-.4-1.32-.63-2h6.07c-.24,.56-.66,1.1-.67,1.64-.06,3.62-.03,7.24-.03,10.82,3.65,.9,5.05-.63,6.24-3.26,.14,1.67-.18,3.02-.45,4.57h.01Z" fill="#010101"/></g></g></g><g id="aa"><g><path id="ab" d="M161.02,22.46V11.64h2.34v.67s1.54-.91,2.81-.91,2.14,.32,2.75,1.06c0,0,1.97-1.06,3.72-1.06,2.94,0,3.74,1.58,3.74,5.26v5.8h-2.34v-5.73c0-2.16-.26-3.22-1.84-3.22-1.19,0-2.47,.58-2.47,.58,.09,.22,.17,1.71,.17,2.77v5.6h-2.34v-5.56c0-2.4-.24-3.4-1.86-3.4-1.21,0-2.34,.56-2.34,.56v8.4h-2.34Z" fill="#010101"/><path id="ac" d="M179.16,7.31h2.36v2.49h-2.36v-2.49h0Zm0,4.33h2.36v10.82h-2.36V11.64Z" fill="#010101"/><path id="ad" d="M184.37,22.46V11.64h2.34v.67s1.58-.91,2.99-.91c3.01,0,3.74,1.71,3.74,5.26v5.8h-2.34v-5.73c0-2.16-.28-3.22-1.93-3.22-1.25,0-2.44,.56-2.44,.56v8.4h-2.36Z" fill="#010101"/><path id="ae" d="M203.69,13.86s-2.55-.35-3.85-.35-1.88,.3-1.88,1.19c0,.71,.45,.91,2.57,1.28,2.6,.45,3.53,1.1,3.53,3.27,0,2.53-1.6,3.44-4.28,3.44-1.49,0-4-.48-4-.48l.09-1.97s2.6,.35,3.7,.35c1.56,0,2.16-.32,2.16-1.28,0-.76-.37-1-2.51-1.34-2.38-.39-3.59-.91-3.59-3.2,0-2.45,1.9-3.35,4.05-3.35,1.58,0,4.07,.48,4.07,.48l-.04,1.97h-.02Z" fill="#010101"/><path id="af" d="M214.34,19.9c.04,.65,.32,.91,.95,1l-.06,1.8c-1.32,0-2.08-.17-2.88-.8,0,0-1.73,.8-3.48,.8-2.14,0-3.22-1.19-3.22-3.44s1.25-3.07,3.57-3.27l2.79-.24v-.78c0-1.19-.52-1.56-1.58-1.56-1.45,0-4.07,.22-4.07,.22l-.09-1.67s2.36-.56,4.35-.56c2.64,0,3.72,1.1,3.72,3.57v4.93h0Zm-4.85-2.25c-1,.09-1.49,.56-1.49,1.54s.41,1.58,1.32,1.58c1.23,0,2.68-.48,2.68-.48v-2.88l-2.51,.24h0Z" fill="#010101"/><polygon id="ag" points="217.33 19.99 219.1 19.99 219.1 22.46 217.33 22.46 217.33 19.99" fill="#eb242a"/><path id="ah" d="M221.63,24.27c0-1.26,.58-1.84,1.71-2.68-.39-.26-.61-.82-.61-1.49,0-.41,.74-1.71,.74-1.71-.91-.41-1.71-1.28-1.71-3.27,0-2.66,1.64-3.7,4.05-3.7,1.08,0,2.25,.28,2.25,.28l3.2-.09v1.38l-2.06-.04c.41,.41,.71,1.02,.71,2.16,0,2.81-1.41,3.66-4.18,3.66-.22,0-.82-.04-1.06-.09,0,0-.39,.95-.39,1.23,0,.87,.17,1,2.62,1,3.07,0,4.18,.61,4.18,3.18s-1.75,3.44-4.8,3.44c-3.42,0-4.65-.76-4.65-3.27h0Zm2.81-2.02c-.91,.67-1.21,1.06-1.21,1.9,0,1.49,.63,2.03,3.07,2.03,2.16,0,3.14-.58,3.14-2.01,0-1.64-.69-1.82-2.66-1.82-.76,0-2.34-.11-2.34-.11h0Zm3.85-7.11c0-1.71-.67-2.38-2.49-2.38-1.69,0-2.42,.67-2.42,2.38s.74,2.36,2.42,2.36c1.82,0,2.49-.65,2.49-2.36Z" fill="#eb242a"/><path id="ai" d="M242.02,16.92c0,3.94-.97,5.76-4.63,5.76s-4.63-1.82-4.63-5.76c0-3.72,1.21-5.5,4.63-5.5s4.63,1.77,4.63,5.5Zm-1.67,0c0-3.01-.65-4.09-2.96-4.09s-2.96,1.08-2.96,4.09,.41,4.35,2.96,4.35,2.96-1.28,2.96-4.35Z" fill="#eb242a"/><polygon id="aj" points="245.18 11.64 247.71 21.05 248.51 21.05 251.13 11.64 252.8 11.64 249.75 22.46 246.5 22.46 243.45 11.64 245.18 11.64" fill="#eb242a"/><polygon id="ak" points="254 19.99 255.77 19.99 255.77 22.46 254 22.46 254 19.99" fill="#eb242a"/><path id="al" d="M266.43,20.44c.04,.63,.56,.87,1.25,.95l-.06,1.28c-1.15,0-1.93-.22-2.57-.87,0,0-1.95,.87-3.9,.87s-3.05-1.12-3.05-3.31,1.08-2.99,3.31-3.2l3.4-.32v-.93c0-1.51-.65-2.06-1.95-2.06-1.51,0-4.09,.28-4.09,.28l-.06-1.23s2.38-.48,4.24-.48c2.44,0,3.48,1.13,3.48,3.48v5.54h0Zm-4.83-3.07c-1.32,.13-1.84,.76-1.84,1.95,0,1.25,.54,1.99,1.64,1.99,1.6,0,3.4-.67,3.4-.67v-3.57l-3.2,.3h0Z" fill="#eb242a"/><path id="am" d="M278.41,16.92c0,3.94-.97,5.76-4.63,5.76s-4.63-1.82-4.63-5.76c0-3.72,1.21-5.5,4.63-5.5s4.63,1.77,4.63,5.5Zm-1.67,0c0-3.01-.65-4.09-2.96-4.09s-2.96,1.08-2.96,4.09,.41,4.35,2.96,4.35,2.96-1.28,2.96-4.35Z" fill="#eb242a"/></g><g><polygon id="an" points="160.72 26.84 161.7 26.84 163.08 30.97 164.46 26.84 165.44 26.84 165.44 31.72 164.9 31.72 164.9 27.41 164.8 27.41 163.38 31.54 162.77 31.54 161.35 27.41 161.25 27.41 161.25 31.72 160.71 31.72 160.71 26.84 160.72 26.84" fill="#010101"/><path id="ao" d="M166.56,26.79h.53v.61h-.53v-.61Zm0,1.41h.53v3.53h-.53v-3.53Z" fill="#010101"/><path id="ap" d="M168.1,31.73v-3.53h.52v.25s.57-.32,1.09-.32c.97,0,1.19,.48,1.19,1.74v1.86h-.52v-1.85c0-.93-.11-1.28-.76-1.28-.51,0-1,.26-1,.26v2.87h-.52Z" fill="#010101"/><path id="aq" d="M171.89,26.79h.53v.61h-.53v-.61Zm0,1.41h.53v3.53h-.53v-3.53Z" fill="#010101"/><path id="ar" d="M175.78,28.71s-.78-.11-1.23-.11-.77,.12-.77,.54c0,.33,.17,.42,.92,.55,.88,.15,1.21,.32,1.21,1.01,0,.83-.52,1.1-1.37,1.1-.45,0-1.24-.13-1.24-.13l.03-.46s.8,.12,1.16,.12c.58,0,.89-.13,.89-.61,0-.37-.18-.46-.95-.58-.8-.13-1.18-.28-1.18-.98,0-.78,.63-1.03,1.27-1.03,.53,0,1.28,.13,1.28,.13v.45h-.02Z" fill="#010101"/><path id="as" d="M177.42,28.66v1.69c0,.77,.05,.99,.51,.99,.2,0,.63-.04,.63-.04l.04,.44s-.47,.08-.72,.08c-.73,0-.97-.28-.97-1.29v-1.86h-.5v-.46h.5v-1.08h.52v1.08h1.12v.46h-1.13Z" fill="#010101"/><path id="at" d="M181.8,31.27v.42s-.79,.11-1.36,.11c-1.05,0-1.4-.61-1.4-1.81,0-1.34,.58-1.86,1.48-1.86s1.42,.49,1.42,1.65l-.03,.4h-2.33c0,.75,.23,1.15,.92,1.15,.53,0,1.3-.06,1.3-.06h0Zm-.4-1.51c0-.88-.27-1.19-.89-1.19s-.94,.33-.95,1.19h1.84Zm-.17-3.25l.18,.45-1.56,.6-.15-.36,1.52-.69h.01Z" fill="#010101"/><path id="au" d="M182.76,28.2h.52v.48s.61-.42,1.29-.56v.54c-.66,.13-1.28,.48-1.28,.48v2.59h-.53v-3.53Z" fill="#010101"/><path id="av" d="M185.2,26.79h.53v.61h-.53v-.61Zm0,1.41h.53v3.53h-.53v-3.53Z" fill="#010101"/><path id="aw" d="M189.61,29.92c0,1.28-.32,1.88-1.51,1.88s-1.51-.59-1.51-1.88c0-1.21,.4-1.79,1.51-1.79s1.51,.58,1.51,1.79Zm-.54,0c0-.98-.21-1.33-.97-1.33s-.97,.35-.97,1.33,.13,1.42,.97,1.42,.97-.42,.97-1.42Z" fill="#010101"/><path id="ax" d="M194.73,31.73h-.52v-.24s-.54,.31-1.07,.31c-.69,0-1.27-.28-1.27-1.81,0-1.24,.4-1.86,1.48-1.86,.3,0,.76,.07,.87,.09v-1.56h.52v5.07h0Zm-.52-.66v-2.39c-.11-.02-.55-.08-.84-.08-.74,0-.96,.49-.96,1.4,0,1.14,.37,1.33,.79,1.33,.5,0,1.01-.26,1.01-.26h0Z" fill="#010101"/><path id="ay" d="M198.24,31.07c.01,.2,.18,.28,.41,.31l-.02,.42c-.37,0-.63-.07-.84-.28,0,0-.64,.28-1.27,.28s-1-.37-1-1.08,.35-.97,1.08-1.04l1.11-.11v-.3c0-.49-.21-.67-.64-.67-.49,0-1.33,.09-1.33,.09l-.02-.4s.78-.16,1.38-.16c.8,0,1.14,.37,1.14,1.14v1.81h0Zm-1.57-1.01c-.43,.04-.6,.25-.6,.64,0,.41,.18,.65,.54,.65,.52,0,1.11-.22,1.11-.22v-1.16l-1.04,.1h-.01Z" fill="#010101"/><path id="az" d="M203.67,27.36s-.98-.12-1.39-.12c-.69,0-1.06,.25-1.06,.8,0,.64,.34,.74,1.19,.93,.97,.22,1.4,.46,1.4,1.31,0,1.08-.59,1.5-1.56,1.5-.58,0-1.55-.16-1.55-.16l.06-.45s.96,.13,1.46,.13c.69,0,1.04-.3,1.04-.98,0-.55-.29-.71-1.09-.86-1.01-.22-1.52-.46-1.52-1.39s.62-1.31,1.57-1.31c.58,0,1.48,.14,1.48,.14l-.05,.46h.02Z" fill="#010101"/><path id="ba" d="M207.16,31.07c0,.2,.18,.28,.41,.31l-.02,.42c-.37,0-.63-.07-.84-.28,0,0-.64,.28-1.27,.28s-1-.37-1-1.08,.35-.97,1.08-1.04l1.11-.11v-.3c0-.49-.21-.67-.64-.67-.49,0-1.33,.09-1.33,.09l-.02-.4s.78-.16,1.38-.16c.8,0,1.14,.37,1.14,1.14v1.81h0Zm-1.57-1.01c-.43,.04-.6,.25-.6,.64,0,.41,.18,.65,.54,.65,.52,0,1.11-.22,1.11-.22v-1.16l-1.04,.1h0Z" fill="#010101"/><path id="bb" d="M210.93,28.2v3.53h-.53v-.25s-.53,.32-1.04,.32c-.99,0-1.19-.46-1.19-1.76v-1.84h.53v1.83c0,.97,.08,1.29,.74,1.29,.52,0,.97-.26,.97-.26v-2.87h.52Zm-2.15-.99l.15,.36,1.56-.6-.18-.45-1.52,.69h-.01Z" fill="#010101"/><path id="bc" d="M214.66,31.73h-.52v-.24s-.54,.31-1.07,.31c-.69,0-1.27-.28-1.27-1.81,0-1.24,.4-1.86,1.47-1.86,.3,0,.76,.07,.87,.09v-1.56h.52v5.07h0Zm-.52-.66v-2.39c-.11-.02-.55-.08-.84-.08-.74,0-.96,.49-.96,1.4,0,1.14,.37,1.33,.79,1.33,.5,0,1.01-.26,1.01-.26h0Z" fill="#010101"/><path id="bd" d="M218.28,31.27v.42s-.79,.11-1.36,.11c-1.05,0-1.4-.61-1.4-1.81,0-1.34,.58-1.86,1.47-1.86s1.42,.49,1.42,1.65l-.03,.4h-2.33c0,.75,.23,1.15,.92,1.15,.53,0,1.3-.06,1.3-.06h0Zm-.4-1.51c0-.88-.27-1.19-.89-1.19s-.94,.33-.95,1.19h1.84Z" fill="#010101"/></g></g><rect id="be" x="155.08" y="1.36" width="1.27" height="36.8" rx=".63" ry=".63" fill="#010101"/></g></g></g></svg>