<?xml version="1.0" encoding="UTF-8"?><svg id="b" xmlns="http://www.w3.org/2000/svg" xmlns:xlink="http://www.w3.org/1999/xlink" viewBox="0 0 1114.02 672.5"><defs><linearGradient id="d" x1="612.01" y1="260.47" x2="1114.02" y2="260.47" gradientUnits="userSpaceOnUse"><stop offset="0" stop-color="#0060d4"/><stop offset=".52" stop-color="#2a97ff"/><stop offset="1" stop-color="#0060d4"/></linearGradient><linearGradient id="e" x1="612.11" y1="600.09" x2="661.48" y2="600.09" xlink:href="#d"/></defs><g id="c"><g><g><path d="M258.49,598.54c.13,2.4,.67,4.35,1.62,5.84,1.81,2.8,5,4.2,9.57,4.2,2.05,0,3.91-.31,5.59-.92,3.25-1.19,4.88-3.32,4.88-6.39,0-2.3-.69-3.94-2.07-4.92-1.4-.96-3.58-1.79-6.56-2.5l-5.49-1.3c-3.58-.84-6.12-1.78-7.61-2.79-2.57-1.77-3.86-4.4-3.86-7.92,0-3.8,1.27-6.92,3.79-9.36,2.53-2.44,6.11-3.66,10.75-3.66,4.27,0,7.89,1.07,10.87,3.21,2.98,2.14,4.47,5.56,4.47,10.26h-5.32c-.27-2.26-.86-4-1.75-5.21-1.66-2.21-4.47-3.31-8.43-3.31-3.2,0-5.5,.71-6.91,2.13-1.4,1.42-2.1,3.07-2.1,4.95,0,2.07,.83,3.59,2.48,4.55,1.08,.61,3.54,1.38,7.36,2.3l5.68,1.35c2.74,.65,4.85,1.54,6.34,2.68,2.57,1.98,3.86,4.85,3.86,8.61,0,4.68-1.64,8.03-4.93,10.05-3.29,2.02-7.1,3.02-11.45,3.02-5.07,0-9.04-1.34-11.91-4.03-2.87-2.67-4.28-6.29-4.22-10.85h5.32Z"/><path d="M332.31,575.94c2.77,3.74,4.16,8.53,4.16,14.37,0,6.31-1.58,11.56-4.75,15.75-3.72,4.91-9.02,7.37-15.91,7.37-6.43,0-11.49-2.15-15.17-6.45-3.28-4.15-4.92-9.39-4.92-15.72,0-5.72,1.4-10.61,4.21-14.68,3.61-5.22,8.94-7.83,16-7.83s12.85,2.4,16.4,7.2Zm-5,26.96c2.23-3.62,3.34-7.78,3.34-12.49,0-4.97-1.29-8.98-3.86-12.01s-6.09-4.55-10.55-4.55-7.86,1.5-10.59,4.51c-2.73,3.01-4.1,7.44-4.1,13.3,0,4.69,1.17,8.64,3.52,11.86,2.34,3.22,6.14,4.83,11.4,4.83s8.6-1.81,10.83-5.43Z"/><path d="M347.41,569.89h5.67v37.25h20.98v5.04h-26.65v-42.29Z"/><path d="M390.16,569.89v26.14c0,3.07,.57,5.62,1.72,7.66,1.7,3.07,4.57,4.61,8.61,4.61,4.84,0,8.13-1.66,9.87-4.98,.94-1.8,1.41-4.23,1.41-7.28v-26.14h5.72v23.75c0,5.2-.7,9.2-2.09,12.01-2.55,5.11-7.37,7.66-14.45,7.66s-11.89-2.55-14.43-7.66c-1.39-2.8-2.08-6.8-2.08-12.01v-23.75h5.72Z"/><path d="M459.91,572.97c2.89,2.82,4.49,6.03,4.81,9.62h-5.52c-.62-2.73-1.84-4.88-3.68-6.48-1.84-1.59-4.41-2.39-7.73-2.39-4.04,0-7.31,1.46-9.8,4.39-2.49,2.93-3.73,7.42-3.73,13.47,0,4.96,1.12,8.98,3.37,12.06,2.25,3.08,5.6,4.62,10.05,4.62,4.1,0,7.22-1.62,9.37-4.87,1.14-1.71,1.99-3.95,2.54-6.74h5.52c-.49,4.45-2.1,8.19-4.84,11.2-3.28,3.63-7.51,5.44-12.7,5.44l-1.88,2.59c.55-.17,1.26-.26,2.14-.26,1.33,0,2.42,.39,3.29,1.17,.86,.78,1.3,1.89,1.3,3.33s-.57,2.72-1.71,3.77c-1.14,1.05-2.88,1.58-5.24,1.58-1.01,0-2.05-.14-3.13-.43-.61-.15-1.42-.42-2.45-.81l1-2.33c.72,.27,1.28,.46,1.68,.58,.78,.21,1.48,.32,2.11,.32,.7,0,1.31-.11,1.82-.32,.99-.4,1.48-1.13,1.48-2.19,0-.62-.25-1.15-.75-1.6s-1.17-.68-2.01-.68c-.42,0-.79,.04-1.12,.12-.33,.08-.73,.2-1.18,.37l-1-1.18,2.9-4.03c-3.26,0-6.53-1.33-9.81-4-4.37-4.24-6.56-10.48-6.56-18.7,0-6.24,1.61-11.36,4.84-15.36,3.49-4.34,8.3-6.51,14.43-6.51,5.23,0,9.29,1.41,12.18,4.23Z"/><path d="M511.08,575.94c2.77,3.74,4.16,8.53,4.16,14.37,0,6.31-1.58,11.56-4.75,15.75-3.72,4.91-9.02,7.37-15.91,7.37-6.43,0-11.49-2.15-15.17-6.45-3.28-4.15-4.92-9.39-4.92-15.72,0-5.72,1.4-10.61,4.21-14.68,3.61-5.22,8.94-7.83,16-7.83s12.85,2.4,16.4,7.2Zm-5,26.96c2.23-3.62,3.34-7.78,3.34-12.49,0-4.97-1.29-8.98-3.86-12.01s-6.09-4.55-10.55-4.55-7.86,1.5-10.59,4.51c-2.73,3.01-4.1,7.44-4.1,13.3,0,4.69,1.17,8.64,3.52,11.86,2.34,3.22,6.14,4.83,11.4,4.83s8.6-1.81,10.83-5.43Zm-9.35-42.96c.53,.23,1.02,.41,1.45,.55,.44,.13,.88,.2,1.34,.2,1.06,0,1.82-.34,2.28-1.01,.25-.36,.42-.91,.51-1.64h2.99c-.4,2.44-1.16,4.12-2.29,5.04-1.13,.92-2.37,1.38-3.71,1.38-.42,0-.95-.08-1.59-.23-.64-.15-1.21-.33-1.71-.52l-1.51-.55c-.89-.33-1.62-.57-2.18-.73-.56-.16-1.11-.24-1.64-.24-.66,0-1.21,.22-1.64,.66s-.72,1.11-.87,2.02h-2.79c.25-1.52,.66-2.75,1.22-3.71,1.08-1.77,2.69-2.65,4.81-2.65,.65,0,1.36,.1,2.15,.29,.79,.19,1.85,.58,3.17,1.15Z"/><path d="M526.72,569.89h30.35v5.18h-24.82v12.84h22.94v4.89h-22.94v14.34h25.25v5.04h-30.77v-42.29Z"/><path d="M572.96,598.54c.13,2.4,.67,4.35,1.62,5.84,1.81,2.8,5,4.2,9.57,4.2,2.05,0,3.91-.31,5.59-.92,3.25-1.19,4.88-3.32,4.88-6.39,0-2.3-.69-3.94-2.07-4.92-1.4-.96-3.58-1.79-6.56-2.5l-5.49-1.3c-3.58-.84-6.12-1.78-7.61-2.79-2.57-1.77-3.86-4.4-3.86-7.92,0-3.8,1.27-6.92,3.79-9.36,2.53-2.44,6.11-3.66,10.75-3.66,4.27,0,7.89,1.07,10.87,3.21,2.98,2.14,4.47,5.56,4.47,10.26h-5.32c-.27-2.26-.86-4-1.75-5.21-1.66-2.21-4.47-3.31-8.43-3.31-3.2,0-5.5,.71-6.91,2.13-1.4,1.42-2.1,3.07-2.1,4.95,0,2.07,.83,3.59,2.48,4.55,1.08,.61,3.54,1.38,7.36,2.3l5.68,1.35c2.74,.65,4.85,1.54,6.34,2.68,2.57,1.98,3.86,4.85,3.86,8.61,0,4.68-1.64,8.03-4.93,10.05-3.29,2.02-7.1,3.02-11.45,3.02-5.07,0-9.04-1.34-11.91-4.03-2.87-2.67-4.28-6.29-4.22-10.85h5.32Z"/></g><g><g><path d="M699.41,32.77C601.86-26.88,468.38-3,390.2,87.36c-80.88,93.48-84.23,234.56-7.78,331.09,38.9,49.12,88.91,81.01,150.08,92.09,97.97,17.74,178.13-17.42,243.3-91.25,2.08,3.03,3.18,3.89,3.19,4.76,.28,20.13,.57,40.26,.6,60.39,.05,35.1,12.87,45.61,48.85,38.16,0-6.59,0-13.57,0-20.56,0-70.26,.22-140.52-.1-210.78-.12-25.53,.48-51.31-2.78-76.52-5.36-41.53-21.57-79.15-48.56-114.46-13.85,10.85-26.65,20.89-39.88,31.26,34.51,48.51,48.13,100.28,39.87,156.55-15.48,105.48-108.83,189.32-224.65,173.26-115.43-16.01-192.42-125.87-171.67-238.95,23.59-128.54,146.61-200.41,268.95-157.48,4.91,1.72,12.84,1.22,16.68-1.76,11.45-8.9,21.57-19.56,33.11-30.39Zm152.45,433.5c0,14.8,.45,27.32-.15,39.78-.46,9.56,3.67,12.94,12.42,11.92,17.07-1.99,34.39-2.8,51.15-6.32,131.42-27.58,216.87-156.05,195.47-294.75C1090.55,85.97,968.87-9.67,839.64,4.11c-105.2,11.21-194.78,88.44-219.64,192.96-4.62,19.41-7.12,39.74-7.45,59.7-.96,59.2-.34,118.43-.34,178.63,36.45-7.1,65.89-23.68,90.54-49.25-71.83-109.32-35.47-216.03,17.74-270.7,61.47-63.16,154.92-79.13,233.37-38.83,77.27,39.69,122.09,129.16,107.8,215.65-7.51,45.43-27.28,84.63-60.13,116.72-41.17,40.22-91.29,57.71-149.66,57.28Zm-190.6,61.41c-15.21,2.93-28.48,4.91-41.36,8.36-3.23,.87-7.37,6.45-7.42,9.92-.52,38.64-.43,77.29-.08,115.94,.03,2.95,2.62,7.48,5.16,8.56,17.95,7.63,42.95-7.13,43.43-26.74,.93-38.01,.27-76.06,.27-116.03Z" fill="#fff"/><path d="M699.41,32.77c-11.55,10.83-21.66,21.49-33.11,30.39-3.84,2.98-11.77,3.48-16.68,1.76-122.34-42.93-245.36,28.93-268.95,157.48-20.75,113.08,56.24,222.94,171.67,238.95,115.82,16.06,209.18-67.78,224.65-173.26,8.26-56.27-5.36-108.03-39.87-156.55,13.23-10.37,26.03-20.4,39.88-31.26,27,35.32,43.2,72.93,48.56,114.46,3.25,25.2,2.66,50.99,2.78,76.52,.32,70.26,.11,140.52,.1,210.78,0,6.98,0,13.97,0,20.56-35.98,7.45-48.8-3.06-48.85-38.16-.03-20.13-.32-40.26-.6-60.39-.01-.87-1.11-1.73-3.19-4.76-65.17,73.83-145.33,108.99-243.3,91.25-61.17-11.08-111.17-42.97-150.08-92.09-76.46-96.53-73.1-237.61,7.78-331.09C468.38-3,601.86-26.88,699.41,32.77Z"/><path d="M851.85,466.27c58.37,.43,108.49-17.06,149.66-57.28,32.85-32.09,52.62-71.29,60.13-116.72,14.29-86.49-30.53-175.97-107.8-215.65-78.45-40.29-171.9-24.33-233.37,38.83-53.21,54.67-89.57,161.38-17.74,270.7-24.65,25.57-54.09,42.15-90.54,49.25,0-60.19-.62-119.42,.34-178.63,.32-19.96,2.83-40.29,7.45-59.7,24.86-104.52,114.44-181.75,219.64-192.96,129.23-13.78,250.91,81.86,271.11,212.79,21.4,138.71-64.06,267.17-195.47,294.75-16.76,3.52-34.08,4.33-51.15,6.32-8.75,1.02-12.88-2.36-12.42-11.92,.6-12.47,.15-24.98,.15-39.78Z" fill="url(#d)"/><path d="M661.25,527.68c0,39.98,.66,78.02-.27,116.03-.48,19.62-25.48,34.37-43.43,26.74-2.53-1.08-5.13-5.6-5.16-8.56-.35-38.65-.44-77.3,.08-115.94,.05-3.47,4.19-9.05,7.42-9.92,12.88-3.46,26.15-5.44,41.36-8.36Z" fill="url(#e)"/></g><path d="M0,19.41c12.97-3.86,23.64-8.85,34.67-9.88,16.1-1.5,25,9.34,30.73,23.52,44.75,110.77,89.6,221.49,134.46,332.21,8.61,21.25,17.37,42.43,28.03,68.42,16.47-38.19,83.54-204.56,97.68-238.05,62.85-148.79,127.38-148.01,121.49-134.21-79.38,136.87-124.87,292.59-187.84,438.65-3.82,8.87-10.68,18.33-18.71,23.04-17.69,10.38-35.63,2.4-43.8-17.71C134.57,352.38,72.57,199.29,10.55,46.2c-3.19-7.86-6.22-15.79-10.55-26.79Z" fill="#020202"/></g></g></g></svg>