<?xml version="1.0" encoding="UTF-8"?><svg id="b" xmlns="http://www.w3.org/2000/svg" viewBox="0 0 509.66 304.21"><g id="c"><g><g><path d="M118.26,270.76c.06,1.08,.31,1.97,.74,2.64,.83,1.27,2.29,1.9,4.38,1.9,.94,0,1.79-.14,2.56-.42,1.49-.54,2.23-1.5,2.23-2.89,0-1.04-.32-1.78-.95-2.23-.64-.43-1.64-.81-3-1.13l-2.51-.59c-1.64-.38-2.8-.8-3.48-1.26-1.18-.8-1.77-1.99-1.77-3.58,0-1.72,.58-3.13,1.74-4.23,1.16-1.1,2.8-1.65,4.92-1.65,1.95,0,3.61,.48,4.97,1.45,1.36,.97,2.05,2.52,2.05,4.64h-2.43c-.12-1.02-.39-1.81-.8-2.36-.76-1-2.04-1.5-3.86-1.5-1.47,0-2.52,.32-3.16,.96-.64,.64-.96,1.39-.96,2.24,0,.94,.38,1.62,1.14,2.06,.5,.28,1.62,.62,3.37,1.04l2.6,.61c1.25,.3,2.22,.7,2.9,1.21,1.18,.89,1.77,2.19,1.77,3.89,0,2.12-.75,3.63-2.25,4.54-1.5,.91-3.25,1.37-5.24,1.37-2.32,0-4.14-.61-5.45-1.82-1.31-1.21-1.96-2.84-1.93-4.91h2.44Z" fill="#fff"/><path d="M152.03,260.53c1.27,1.69,1.9,3.86,1.9,6.5,0,2.86-.73,5.23-2.17,7.12-1.7,2.22-4.13,3.33-7.28,3.33-2.94,0-5.26-.97-6.94-2.92-1.5-1.88-2.25-4.25-2.25-7.11,0-2.59,.64-4.8,1.93-6.64,1.65-2.36,4.09-3.54,7.32-3.54s5.88,1.09,7.5,3.26Zm-2.29,12.19c1.02-1.64,1.53-3.52,1.53-5.65,0-2.25-.59-4.06-1.76-5.43-1.18-1.37-2.78-2.06-4.83-2.06s-3.59,.68-4.84,2.04c-1.25,1.36-1.88,3.36-1.88,6.01,0,2.12,.54,3.91,1.61,5.36,1.07,1.46,2.81,2.18,5.22,2.18s3.94-.82,4.96-2.46Z" fill="#fff"/><path d="M158.94,257.8h2.59v16.85h9.6v2.28h-12.19v-19.13Z" fill="#fff"/><path d="M178.49,257.8v11.83c0,1.39,.26,2.54,.79,3.46,.78,1.39,2.09,2.08,3.94,2.08,2.21,0,3.72-.75,4.52-2.25,.43-.82,.64-1.92,.64-3.29v-11.83h2.62v10.74c0,2.35-.32,4.16-.95,5.43-1.17,2.31-3.37,3.46-6.61,3.46s-5.44-1.15-6.6-3.46c-.64-1.27-.95-3.08-.95-5.43v-10.74h2.62Z" fill="#fff"/><path d="M210.41,259.19c1.32,1.28,2.06,2.73,2.2,4.35h-2.53c-.28-1.23-.84-2.21-1.68-2.93s-2.02-1.08-3.54-1.08c-1.85,0-3.34,.66-4.48,1.99s-1.71,3.36-1.71,6.09c0,2.24,.51,4.06,1.54,5.46,1.03,1.39,2.56,2.09,4.6,2.09,1.88,0,3.3-.73,4.29-2.2,.52-.77,.91-1.79,1.16-3.05h2.53c-.22,2.01-.96,3.7-2.21,5.07-1.5,1.64-3.44,2.46-5.81,2.46l-.86,1.17c.25-.08,.58-.12,.98-.12,.61,0,1.11,.18,1.5,.53,.4,.35,.59,.85,.59,1.5s-.26,1.23-.78,1.71c-.52,.48-1.32,.72-2.4,.72-.46,0-.94-.07-1.43-.2-.28-.07-.65-.19-1.12-.36l.46-1.05c.33,.12,.59,.21,.77,.26,.36,.1,.68,.14,.96,.14,.32,0,.6-.05,.83-.14,.45-.18,.68-.51,.68-.99,0-.28-.12-.52-.35-.72-.23-.2-.54-.31-.92-.31-.19,0-.36,.02-.51,.05-.15,.03-.33,.09-.54,.17l-.46-.53,1.33-1.82c-1.49,0-2.99-.6-4.49-1.81-2-1.92-3-4.74-3-8.46,0-2.82,.74-5.14,2.21-6.95,1.6-1.96,3.8-2.95,6.6-2.95,2.39,0,4.25,.64,5.57,1.92Z" fill="#fff"/><path d="M233.82,260.53c1.27,1.69,1.9,3.86,1.9,6.5,0,2.86-.73,5.23-2.17,7.12-1.7,2.22-4.13,3.33-7.28,3.33-2.94,0-5.26-.97-6.94-2.92-1.5-1.88-2.25-4.25-2.25-7.11,0-2.59,.64-4.8,1.93-6.64,1.65-2.36,4.09-3.54,7.32-3.54s5.88,1.09,7.5,3.26Zm-2.29,12.19c1.02-1.64,1.53-3.52,1.53-5.65,0-2.25-.59-4.06-1.76-5.43-1.18-1.37-2.78-2.06-4.83-2.06s-3.59,.68-4.84,2.04c-1.25,1.36-1.88,3.36-1.88,6.01,0,2.12,.54,3.91,1.61,5.36,1.07,1.46,2.81,2.18,5.22,2.18s3.94-.82,4.96-2.46Zm-4.28-19.44c.24,.1,.46,.19,.66,.25,.2,.06,.4,.09,.61,.09,.49,0,.83-.15,1.04-.46,.11-.16,.19-.41,.23-.74h1.37c-.18,1.1-.53,1.86-1.05,2.28s-1.08,.62-1.7,.62c-.19,0-.43-.03-.73-.1-.29-.07-.56-.15-.78-.23l-.69-.25c-.41-.15-.74-.26-1-.33-.26-.07-.51-.11-.75-.11-.3,0-.55,.1-.75,.3-.2,.2-.33,.5-.4,.91h-1.28c.11-.69,.3-1.25,.56-1.68,.5-.8,1.23-1.2,2.2-1.2,.29,0,.62,.04,.98,.13,.36,.09,.84,.26,1.45,.52Z" fill="#fff"/><path d="M240.97,257.8h13.88v2.34h-11.36v5.81h10.5v2.21h-10.5v6.49h11.55v2.28h-14.08v-19.13Z" fill="#fff"/><path d="M262.13,270.76c.06,1.08,.31,1.97,.74,2.64,.83,1.27,2.29,1.9,4.38,1.9,.94,0,1.79-.14,2.56-.42,1.49-.54,2.23-1.5,2.23-2.89,0-1.04-.32-1.78-.95-2.23-.64-.43-1.64-.81-3-1.13l-2.51-.59c-1.64-.38-2.8-.8-3.48-1.26-1.18-.8-1.77-1.99-1.77-3.58,0-1.72,.58-3.13,1.74-4.23,1.16-1.1,2.8-1.65,4.92-1.65,1.95,0,3.61,.48,4.97,1.45,1.36,.97,2.05,2.52,2.05,4.64h-2.43c-.12-1.02-.39-1.81-.8-2.36-.76-1-2.04-1.5-3.86-1.5-1.47,0-2.52,.32-3.16,.96-.64,.64-.96,1.39-.96,2.24,0,.94,.38,1.62,1.14,2.06,.5,.28,1.62,.62,3.37,1.04l2.6,.61c1.25,.3,2.22,.7,2.9,1.21,1.18,.89,1.77,2.19,1.77,3.89,0,2.12-.75,3.63-2.25,4.54-1.5,.91-3.25,1.37-5.24,1.37-2.32,0-4.14-.61-5.45-1.82-1.31-1.21-1.96-2.84-1.93-4.91h2.44Z" fill="#fff"/></g><g><g><path d="M319.97,14.82C275.35-12.16,214.28-1.36,178.51,39.52c-37,42.29-38.53,106.1-3.56,149.77,17.8,22.22,40.67,36.65,68.66,41.66,44.82,8.02,81.49-7.88,111.31-41.28,.95,1.37,1.45,1.76,1.46,2.15,.13,9.11,.26,18.21,.27,27.32,.02,15.88,5.89,20.63,22.35,17.26,0-2.98,0-6.14,0-9.3,0-31.78,.1-63.57-.05-95.35-.05-11.55,.22-23.21-1.27-34.61-2.45-18.79-9.87-35.8-22.22-51.78-6.34,4.91-12.19,9.45-18.24,14.14,15.79,21.95,22.02,45.36,18.24,70.82-7.08,47.71-49.79,85.64-102.78,78.38-52.81-7.24-88.03-56.94-78.54-108.09,10.79-58.15,67.07-90.66,123.04-71.24,2.24,.78,5.87,.55,7.63-.8,5.24-4.03,9.87-8.85,15.15-13.75Zm69.74,196.1c0,6.7,.21,12.36-.07,18-.21,4.32,1.68,5.85,5.68,5.39,7.81-.9,15.73-1.27,23.4-2.86,60.12-12.48,99.22-70.59,89.43-133.33C498.92,38.89,443.25-4.37,384.13,1.86c-48.13,5.07-89.11,40.01-100.48,87.29-2.11,8.78-3.26,17.98-3.41,27.01-.44,26.78-.16,53.57-.16,80.8,16.68-3.21,30.14-10.71,41.42-22.28-32.86-49.45-16.23-97.72,8.11-122.45,28.12-28.57,70.87-35.79,106.76-17.57,35.35,17.95,55.86,58.43,49.32,97.55-3.43,20.55-12.48,38.28-27.51,52.8-18.83,18.19-41.77,26.11-68.47,25.91Zm-87.2,27.78c-6.96,1.32-13.03,2.22-18.92,3.78-1.48,.39-3.37,2.92-3.39,4.49-.24,17.48-.2,34.96-.04,52.45,.01,1.34,1.2,3.38,2.36,3.87,8.21,3.45,19.65-3.22,19.87-12.1,.42-17.19,.12-34.41,.12-52.49Z" fill="#fff"/><path d="M319.97,14.82c-5.28,4.9-9.91,9.72-15.15,13.75-1.76,1.35-5.39,1.58-7.63,.8-55.97-19.42-112.25,13.09-123.04,71.24-9.5,51.15,25.73,100.85,78.54,108.09,52.99,7.27,95.7-30.66,102.78-78.38,3.78-25.45-2.45-48.87-18.24-70.82,6.05-4.69,11.91-9.23,18.24-14.14,12.35,15.98,19.77,32.99,22.22,51.78,1.49,11.4,1.22,23.06,1.27,34.61,.15,31.78,.05,63.57,.05,95.35,0,3.16,0,6.32,0,9.3-16.46,3.37-22.33-1.38-22.35-17.26-.01-9.11-.15-18.21-.27-27.32,0-.39-.51-.78-1.46-2.15-29.81,33.4-66.49,49.3-111.31,41.28-27.99-5.01-50.86-19.44-68.66-41.66-34.98-43.67-33.44-107.49,3.56-149.77C214.28-1.36,275.35-12.16,319.97,14.82Z" fill="#fff"/><path d="M389.72,210.92c26.7,.2,49.64-7.72,68.47-25.91,15.03-14.52,24.07-32.25,27.51-52.8,6.54-39.12-13.97-79.6-49.32-97.55-35.89-18.23-78.64-11.01-106.76,17.57-24.34,24.73-40.98,73-8.11,122.45-11.28,11.57-24.74,19.07-41.42,22.28,0-27.23-.28-54.02,.16-80.8,.15-9.03,1.29-18.23,3.41-27.01C295.02,41.87,336,6.93,384.13,1.86c59.12-6.23,114.79,37.03,124.03,96.26,9.79,62.75-29.31,120.86-89.43,133.33-7.67,1.59-15.59,1.96-23.4,2.86-4,.46-5.89-1.07-5.68-5.39,.27-5.64,.07-11.3,.07-18Z" fill="#020202"/><path d="M302.52,238.7c0,18.08,.3,35.29-.12,52.49-.22,8.87-11.66,15.55-19.87,12.1-1.16-.49-2.35-2.53-2.36-3.87-.16-17.48-.2-34.97,.04-52.45,.02-1.57,1.92-4.09,3.39-4.49,5.89-1.56,11.96-2.46,18.92-3.78Z" fill="#020202"/></g><path d="M0,8.78c5.93-1.75,10.82-4,15.86-4.47,7.37-.68,11.44,4.22,14.06,10.64,20.47,50.11,40.99,100.19,61.51,150.28,3.94,9.61,7.95,19.19,12.82,30.95,7.54-17.27,38.22-92.54,44.69-107.68,28.75-67.3,58.27-66.95,55.58-60.71-36.31,61.91-57.13,132.36-85.93,198.43-1.75,4.01-4.89,8.29-8.56,10.42-8.09,4.7-16.3,1.08-20.04-8.01C61.56,159.4,33.2,90.15,4.83,20.9c-1.46-3.56-2.85-7.14-4.83-12.12Z" fill="#fff"/></g></g></g></svg>